<svg xmlns="http://www.w3.org/2000/svg" xml:space="preserve"
    style="fill-rule:evenodd;clip-rule:evenodd;stroke-linejoin:round;stroke-miterlimit:2"
    viewBox="0 0 669 465">
  <path id="leo11-floor" d="m80.6 363.1 57.1 64 450.4-320.9-56.3-66.1L80.6 363Z" style="fill:#bfbfbf;stroke:#000;stroke-width:.8px"/>
  <g id="leo11-013">
    <path d="M510.5 97.4 478 120.7l-5-5.6-4.3 3-17.4-20.4 36.8-26.4 22.4 26.1Z" style="fill:#852339;stroke:#000;stroke-width:.8px"/>
    <text style="font-family:&quot;ArialMT&quot;,&quot;Arial&quot;,sans-serif;font-size:10px;fill:#fff" transform="translate(472.6 99.6)">013</text>
  </g>
  <g id="leo11-012">
    <path d="m468.8 118-8.4 5.9 5 6-12.8 9-22.3-26 21-15.2 17.4 20.4Z" style="fill:#852339;stroke:#000;stroke-width:.8px"/>
    <text style="font-family:&quot;ArialMT&quot;,&quot;Arial&quot;,sans-serif;font-size:10px;fill:#fff" transform="translate(441.2 121.8)">012</text>
  </g>
  <g id="leo11-005">
    <path d="m247 243.9-38 27.3 22.5 26 29.6-21-5.4-6.5 8.5-6-17-19.8Z" style="fill:#852339;stroke:#000;stroke-width:.8px"/>
    <text style="font-family:&quot;ArialMT&quot;,&quot;Arial&quot;,sans-serif;font-size:10px;fill:#fff" transform="translate(228.1 274.1)">005</text>
  </g>
  <g id="leo11-006">
    <path d="M310 241.1 287.3 215 247 243.9l17 19.8 4.1-2.9 5.4 6.3 36.3-26Z" style="fill:#852339;stroke:#000;stroke-width:.8px"/>
    <text style="font-family:&quot;ArialMT&quot;,&quot;Arial&quot;,sans-serif;font-size:10px;fill:#fff" transform="translate(270.2 244.6)">006</text>
  </g>
  <g id="leo11-015">
    <path d="m553.9 66.3-22.1-26.2-24.2 17.3 22.5 26.1 23.8-17.2Z" style="fill:#fff;stroke:#000;stroke-width:.8px"/>
    <text style="font-family:&quot;ArialMT&quot;,&quot;Arial&quot;,sans-serif;font-size:10px" transform="translate(522.4 65.4)">015</text>
  </g>
  <g id="leo11-wc0">
    <path d="m530 83.5-19.5 13.9L488 71.3l19.5-13.9L530 83.5Z" style="fill:#fff;stroke:#000;stroke-width:.8px"/>
    <text style="font-family:&quot;ArialMT&quot;,&quot;Arial&quot;,sans-serif;font-size:10px" transform="translate(500.9 81)">WC</text>
  </g>
  <g id="leo11-011">
    <path d="m452.6 138.8-22.3-26-25.6 18 22.6 26.4 25.3-18.4Z" style="fill:#852339;stroke:#000;stroke-width:.8px"/>
    <text style="font-family:&quot;ArialMT&quot;,&quot;Arial&quot;,sans-serif;font-size:10px;fill:#fff" transform="translate(421.4 138.5)">01<tspan x="10.4" y="0">1</tspan></text>
  </g>
  <g id="leo11-009">
    <path d="m427.3 157.2-53.9 38.5-22.5-26 53.8-38.8 22.6 26.3Z" style="fill:#852339;stroke:#000;stroke-width:.8px"/>
    <text style="font-family:&quot;ArialMT&quot;,&quot;Arial&quot;,sans-serif;font-size:10px;fill:#fff" transform="translate(380.8 166.8)">009</text>
  </g>
  <g id="leo11-008">
    <path d="m373.4 195.7-22.5-26-26 18.5 22.6 26 26-18.5Z" style="fill:#852339;stroke:#000;stroke-width:.8px"/>
    <text style="font-family:&quot;ArialMT&quot;,&quot;Arial&quot;,sans-serif;font-size:10px;fill:#fff" transform="translate(340.8 195.4)">008</text>
  </g>
  <g id="leo11-007">
    <path d="m345.6 212-37.5 27-20.7-24 37.4-26.8 20.8 23.8Z" style="fill:#852339;stroke:#000;stroke-width:.8px"/>
    <text style="font-family:&quot;ArialMT&quot;,&quot;Arial&quot;,sans-serif;font-size:10px;fill:#fff" transform="translate(308.2 217.1)">007</text>
  </g>
  <g id="leo11-004">
    <path d="m231.4 297.3-26.6 19-22.5-26.2 26.6-18.9 22.5 26Z" style="fill:#fff;stroke:#000;stroke-width:.8px"/>
    <text style="font-family:&quot;ArialMT&quot;,&quot;Arial&quot;,sans-serif;font-size:10px" transform="translate(198.5 297.3)">004</text>
  </g>
  <g id="leo11-003">
    <path d="m204.8 316.3-79.5 57-22.1-26.4 79-56.8 22.6 26.2Z" style="fill:#fff;stroke:#000;stroke-width:.8px"/>
    <text style="font-family:&quot;ArialMT&quot;,&quot;Arial&quot;,sans-serif;font-size:10px" transform="translate(145.6 335.3)">003</text>
  </g>
  <g id="leo11-wc01">
    <path d="M125.3 373.3 103.5 389l-23-25.9 22.7-16.2 22.2 26.4Z" style="fill:#fff;stroke:#000;stroke-width:.8px"/>
    <text style="font-family:&quot;ArialMT&quot;,&quot;Arial&quot;,sans-serif;font-size:10px" transform="translate(94.8 371.6)">WC</text>
  </g>
  <g id="leo11-019b">
    <path d="m524.5 151.6-21.2-25-12.3 8.8 5.2 6-7 5 16 18.7 19.3-13.5Z" style="fill:#852339;stroke:#000;stroke-width:.8px"/>
    <text style="font-family:&quot;ArialMT&quot;,&quot;Arial&quot;,sans-serif;font-size:10px;fill:#fff" transform="translate(495.8 149.4)">019b</text>
  </g>
  <g id="leo11-019a">
    <path d="m489.2 146.4-5.4 4-5.3-6.2-12.8 9.2 21.2 24.8 18.4-13-16-18.8Z" style="fill:#852339;stroke:#000;stroke-width:.8px"/>
    <text style="font-family:&quot;ArialMT&quot;,&quot;Arial&quot;,sans-serif;font-size:10px;fill:#fff" transform="translate(474.4 164.8)">019a</text>
  </g>
  <g id="leo11-021">
    <path d="m461.6 196.2-21.4-24.7-14 10 5.3 6-6.6 4.6L441 211l20.6-14.8Z" style="fill:#852339;stroke:#000;stroke-width:.8px"/>
    <text style="font-family:&quot;ArialMT&quot;,&quot;Arial&quot;,sans-serif;font-size:10px;fill:#fff" transform="translate(435.6 194.7)">021</text>
  </g>
  <g id="leo11-022">
    <path d="m425 192.1-5.1 3.8-5.2-6.3-14.4 10.3 21.4 24.8L441 211l-16-19Z" style="fill:#852339;stroke:#000;stroke-width:.8px"/>
    <text style="font-family:&quot;ArialMT&quot;,&quot;Arial&quot;,sans-serif;font-size:10px;fill:#fff" transform="translate(412.4 210.7)">022</text>
  </g>
  <g id="leo11-026">
    <path d="m323.5 294.6 20.4-14.5-21.3-25-14.4 10.3 5.4 6.2-6.3 4.3 16.2 18.7Z" style="fill:#852339;stroke:#000;stroke-width:.8px"/>
    <text style="font-family:&quot;ArialMT&quot;,&quot;Arial&quot;,sans-serif;font-size:10px;fill:#fff" transform="translate(317.3 278.4)">026</text>
  </g>
  <g id="leo11-027">
    <path d="m307.3 276-5.1 3.6-5.3-6.2-14.7 10.6 21.3 24.8 20-14.2-16.2-18.7Z" style="fill:#852339;stroke:#000;stroke-width:.8px"/>
    <text style="font-family:&quot;ArialMT&quot;,&quot;Arial&quot;,sans-serif;font-size:10px;fill:#fff" transform="translate(294.5 294.6)">027</text>
  </g>
  <g id="leo11-034">
    <path d="m137.7 427-21.8-24.7 40.5-28.9 21.4 25-40.1 28.6Z" style="fill:#fff;stroke:#000;stroke-width:.8px"/>
    <text style="font-family:&quot;ArialMT&quot;,&quot;Arial&quot;,sans-serif;font-size:10px" transform="translate(138.5 403.8)">034</text>
  </g>
  <g id="leo11-033">
    <path d="m161.9 379.9 15.9 18.4 26.6-18.8-16-18.7-26.5 19Z" style="fill:#fff;stroke:#000;stroke-width:.8px"/>
    <text style="font-family:&quot;ArialMT&quot;,&quot;Arial&quot;,sans-serif;font-size:10px" transform="translate(174.8 383)">033</text>
  </g>
  <g id="leo11-032">
    <path d="m204.4 379.5 20.5-14.6-16.3-18.6-20.2 14.5 16 18.7Z" style="fill:#fff;stroke:#000;stroke-width:.8px"/>
    <text style="font-family:&quot;ArialMT&quot;,&quot;Arial&quot;,sans-serif;font-size:10px" transform="translate(198.3 366.4)">032</text>
  </g>
  <g id="leo11-031">
    <path d="m224.9 365 14-10-16.2-18.7-14.1 10 16.3 18.6Z" style="fill:#fff;stroke:#000;stroke-width:.8px"/>
    <text style="font-family:&quot;ArialMT&quot;,&quot;Arial&quot;,sans-serif;font-size:10px" transform="translate(216 354.1)">031</text>
  </g>
  <g id="leo11-028">
    <path d="m265.2 336.1 38.3-27.3-21.3-24.8-38.2 27 21.3 25Z" style="fill:#852339;stroke:#000;stroke-width:.8px"/>
    <text style="font-family:&quot;ArialMT&quot;,&quot;Arial&quot;,sans-serif;font-size:10px;fill:#fff" transform="translate(265.4 313.6)">028</text>
  </g>
  <g id="leo11-025">
    <path d="m343.9 280.1 18.8-13.5-21.3-24.7-18.8 13.2 21.3 25Z" style="fill:#852339;stroke:#000;stroke-width:.8px"/>
    <text style="font-family:&quot;ArialMT&quot;,&quot;Arial&quot;,sans-serif;font-size:10px;fill:#fff" transform="translate(334.3 264.5)">025</text>
  </g>
  <g id="leo11-024">
    <path d="m341.4 241.9 19-13.6 21.3 24.9-19 13.5-21.3-24.8Z" style="fill:#852339;stroke:#000;stroke-width:.8px"/>
    <text style="font-family:&quot;ArialMT&quot;,&quot;Arial&quot;,sans-serif;font-size:10px;fill:#fff" transform="translate(353.2 251)">024</text>
  </g>
  <g id="leo11-023">
    <path d="m421.7 224.7-21.4-24.8-40 28.4 21.4 24.9 40-28.5Z" style="fill:#852339;stroke:#000;stroke-width:.8px"/>
    <text style="font-family:&quot;ArialMT&quot;,&quot;Arial&quot;,sans-serif;font-size:10px;fill:#fff" transform="translate(382.7 230)">023</text>
  </g>
  <g id="leo11-017">
    <path d="M543.3 98 567 81.2l21 25.1-23.5 16.8-21.3-25Z" style="fill:#852339;stroke:#000;stroke-width:.8px"/>
    <text style="font-family:&quot;ArialMT&quot;,&quot;Arial&quot;,sans-serif;font-size:10px;fill:#fff" transform="translate(557.4 105.6)">017</text>
  </g>
  <g id="leo11-018">
    <path d="m543.3 98-40 28.6 21.2 25 40.1-28.6-21.3-25Z" style="fill:#852339;stroke:#000;stroke-width:.8px"/>
    <text style="font-family:&quot;ArialMT&quot;,&quot;Arial&quot;,sans-serif;font-size:10px;fill:#fff" transform="translate(525.6 128.3)">018</text>
  </g>
</svg>