<?xml version="1.0" encoding="UTF-8" standalone="no"?>
<!DOCTYPE svg PUBLIC "-//W3C//DTD SVG 1.1//EN" "http://www.w3.org/Graphics/SVG/1.1/DTD/svg11.dtd">
<svg width="100%" height="100%" viewBox="0 0 669 465" version="1.1" xmlns="http://www.w3.org/2000/svg" xmlns:xlink="http://www.w3.org/1999/xlink" xml:space="preserve" xmlns:serif="http://www.serif.com/" style="fill-rule:evenodd;clip-rule:evenodd;stroke-linejoin:round;stroke-miterlimit:2;">
    <path id="leo11-floor" d="M80.58,363.1L137.7,427.01L588.15,106.21L531.8,40.09L80.58,363.1Z" style="fill:rgb(191,191,191);stroke:black;stroke-width:0.8px;"/>
    <g id="leo11-013">
        <path d="M510.46,97.4L478.03,120.75L472.96,115.1L468.75,118.07L451.33,97.69L488.07,71.29L510.47,97.4L510.46,97.4Z" style="fill:rgb(133,35,57);stroke:black;stroke-width:0.8px;"/>
        <g transform="matrix(1,0,0,1,472.577,99.5503)">
            <text x="0px" y="0px" style="font-family:'ArialMT', 'Arial', sans-serif;font-size:10px;fill:white;">013</text>
        </g>
    </g>
    <g id="leo11-012">
        <path d="M468.75,118.07L460.42,123.9L465.4,129.84L452.58,138.83L430.28,112.81L451.33,97.69L468.75,118.07Z" style="fill:rgb(133,35,57);stroke:black;stroke-width:0.8px;"/>
        <g transform="matrix(1,0,0,1,441.229,121.793)">
            <text x="0px" y="0px" style="font-family:'ArialMT', 'Arial', sans-serif;font-size:10px;fill:white;">012</text>
        </g>
    </g>
    <g id="leo11-005">
        <path d="M247.06,243.89L208.88,271.25L231.37,297.27L261.03,276.13L255.57,269.72L264.09,263.69L247.06,243.89Z" style="fill:rgb(133,35,57);stroke:black;stroke-width:0.8px;"/>
        <g transform="matrix(1,0,0,1,228.135,274.113)">
            <text x="0px" y="0px" style="font-family:'ArialMT', 'Arial', sans-serif;font-size:10px;fill:white;">005</text>
        </g>
    </g>
    <g id="leo11-006">
        <path d="M309.92,241.11L287.43,215L247.06,243.9L264.09,263.7L268.2,260.83L273.56,267.15L309.92,241.12L309.92,241.11Z" style="fill:rgb(133,35,57);stroke:black;stroke-width:0.8px;"/>
        <g transform="matrix(1,0,0,1,270.17,244.608)">
            <text x="0px" y="0px" style="font-family:'ArialMT', 'Arial', sans-serif;font-size:10px;fill:white;">006</text>
        </g>
    </g>
    <g id="leo11-015">
        <path d="M553.9,66.3L531.8,40.1L507.6,57.42L530.08,83.54L553.9,66.3Z" style="fill:white;stroke:black;stroke-width:0.8px;"/>
        <g transform="matrix(1,0,0,1,522.4,65.3527)">
            <text x="0px" y="0px" style="font-family:'ArialMT', 'Arial', sans-serif;font-size:10px;">015</text>
        </g>
    </g>
    <g id="leo11-wc0">
        <path d="M530.08,83.53L510.46,97.4L488.07,71.28L507.59,57.41L530.08,83.53Z" style="fill:white;stroke:black;stroke-width:0.8px;"/>
        <g transform="matrix(1,0,0,1,500.882,80.9841)">
            <text x="0px" y="0px" style="font-family:'ArialMT', 'Arial', sans-serif;font-size:10px;">WC</text>
        </g>
    </g>
    <g id="leo11-011">
        <path d="M452.58,138.83L430.28,112.81L404.74,130.89L427.32,157.2L452.58,138.83Z" style="fill:rgb(133,35,57);stroke:black;stroke-width:0.8px;"/>
        <g transform="matrix(1,0,0,1,421.399,138.538)">
            <text x="0px" y="0px" style="font-family:'ArialMT', 'Arial', sans-serif;font-size:10px;fill:white;">01<tspan x="10.381px " y="0px ">1</tspan></text>
        </g>
    </g>
    <g id="leo11-009">
        <path d="M427.32,157.2L373.45,195.66L350.87,169.64L404.74,130.89L427.32,157.2Z" style="fill:rgb(133,35,57);stroke:black;stroke-width:0.8px;"/>
        <g transform="matrix(1,0,0,1,380.765,166.808)">
            <text x="0px" y="0px" style="font-family:'ArialMT', 'Arial', sans-serif;font-size:10px;fill:white;">009</text>
        </g>
    </g>
    <g id="leo11-008">
        <path d="M373.45,195.66L350.87,169.64L324.84,188.2L347.52,214.13L373.45,195.66Z" style="fill:rgb(133,35,57);stroke:black;stroke-width:0.8px;"/>
        <g transform="matrix(1,0,0,1,340.815,195.418)">
            <text x="0px" y="0px" style="font-family:'ArialMT', 'Arial', sans-serif;font-size:10px;fill:white;">008</text>
        </g>
    </g>
    <g id="leo11-007">
        <path d="M345.6,212.03L308.1,239L287.43,214.98L324.84,188.19L345.61,212.02L345.6,212.03Z" style="fill:rgb(133,35,57);stroke:black;stroke-width:0.8px;"/>
        <g transform="matrix(1,0,0,1,308.197,217.128)">
            <text x="0px" y="0px" style="font-family:'ArialMT', 'Arial', sans-serif;font-size:10px;fill:white;">007</text>
        </g>
    </g>
    <g id="leo11-004">
        <path d="M231.37,297.27L204.77,316.32L182.28,290.1L208.88,271.25L231.37,297.27Z" style="fill:white;stroke:black;stroke-width:0.8px;"/>
        <g transform="matrix(1,0,0,1,198.517,297.318)">
            <text x="0px" y="0px" style="font-family:'ArialMT', 'Arial', sans-serif;font-size:10px;">004</text>
        </g>
    </g>
    <g id="leo11-003">
        <path d="M204.77,316.31L125.35,373.34L103.15,346.94L182.28,290.1L204.77,316.31Z" style="fill:white;stroke:black;stroke-width:0.8px;"/>
        <g transform="matrix(1,0,0,1,145.637,335.25)">
            <text x="0px" y="0px" style="font-family:'ArialMT', 'Arial', sans-serif;font-size:10px;">003</text>
        </g>
    </g>
    <g id="leo11-wc01" serif:id="leo11-wc0">
        <path d="M125.35,373.34L103.45,389.04L80.58,363.1L103.16,346.93L125.36,373.34L125.35,373.34Z" style="fill:white;stroke:black;stroke-width:0.8px;"/>
        <g transform="matrix(1,0,0,1,94.7766,371.564)">
            <text x="0px" y="0px" style="font-family:'ArialMT', 'Arial', sans-serif;font-size:10px;">WC</text>
        </g>
    </g>
    <g id="leo11-019b">
        <path d="M524.53,151.56L503.29,126.58L491.04,135.38L496.2,141.41L489.22,146.39L505.29,165.14L524.53,151.56Z" style="fill:rgb(133,35,57);stroke:black;stroke-width:0.8px;"/>
        <g transform="matrix(1,0,0,1,495.75,149.393)">
            <text x="0px" y="0px" style="font-family:'ArialMT', 'Arial', sans-serif;font-size:10px;fill:white;">019b</text>
        </g>
    </g>
    <g id="leo11-019a">
        <path d="M489.22,146.39L483.77,150.31L478.51,144.19L465.68,153.37L486.92,178.25L505.3,165.15L489.22,146.39Z" style="fill:rgb(133,35,57);stroke:black;stroke-width:0.8px;"/>
        <g transform="matrix(1,0,0,1,474.372,164.753)">
            <text x="0px" y="0px" style="font-family:'ArialMT', 'Arial', sans-serif;font-size:10px;fill:white;">019a</text>
        </g>
    </g>
    <g id="leo11-021">
        <path d="M461.57,196.24L440.23,171.46L426.26,181.41L431.53,187.53L424.93,192.13L441,210.96L461.57,196.23L461.57,196.24Z" style="fill:rgb(133,35,57);stroke:black;stroke-width:0.8px;"/>
        <g transform="matrix(1,0,0,1,435.618,194.743)">
            <text x="0px" y="0px" style="font-family:'ArialMT', 'Arial', sans-serif;font-size:10px;fill:white;">021</text>
        </g>
    </g>
    <g id="leo11-022">
        <path d="M424.92,192.12L419.85,195.85L414.69,189.64L400.33,199.87L421.67,224.65L441,210.97L424.92,192.12Z" style="fill:rgb(133,35,57);stroke:black;stroke-width:0.8px;"/>
        <g transform="matrix(1,0,0,1,412.379,210.678)">
            <text x="0px" y="0px" style="font-family:'ArialMT', 'Arial', sans-serif;font-size:10px;fill:white;">022</text>
        </g>
    </g>
    <g id="leo11-026">
        <path d="M323.5,294.6L343.88,280.15L322.64,255.08L308.2,265.41L313.55,271.63L307.33,275.93L323.51,294.6L323.5,294.6Z" style="fill:rgb(133,35,57);stroke:black;stroke-width:0.8px;"/>
        <g transform="matrix(1,0,0,1,317.285,278.373)">
            <text x="0px" y="0px" style="font-family:'ArialMT', 'Arial', sans-serif;font-size:10px;fill:white;">026</text>
        </g>
    </g>
    <g id="leo11-027">
        <path d="M307.33,275.94L302.17,279.57L296.91,273.45L282.17,283.98L303.51,308.76L323.51,294.6L307.33,275.94Z" style="fill:rgb(133,35,57);stroke:black;stroke-width:0.8px;"/>
        <g transform="matrix(1,0,0,1,294.517,294.638)">
            <text x="0px" y="0px" style="font-family:'ArialMT', 'Arial', sans-serif;font-size:10px;fill:white;">027</text>
        </g>
    </g>
    <g id="leo11-034">
        <path d="M137.7,427.01L115.88,402.33L156.45,373.43L177.79,398.31L137.69,427.01L137.7,427.01Z" style="fill:white;stroke:black;stroke-width:0.8px;"/>
        <g transform="matrix(1,0,0,1,138.527,403.75)">
            <text x="0px" y="0px" style="font-family:'ArialMT', 'Arial', sans-serif;font-size:10px;">034</text>
        </g>
    </g>
    <g id="leo11-033">
        <path d="M161.9,379.85L177.78,398.31L204.38,379.46L188.41,360.81L161.91,379.85L161.9,379.85Z" style="fill:white;stroke:black;stroke-width:0.8px;"/>
        <g transform="matrix(1,0,0,1,174.817,383.09)">
            <text x="0px" y="0px" style="font-family:'ArialMT', 'Arial', sans-serif;font-size:10px;">033</text>
        </g>
    </g>
    <g id="leo11-032">
        <path d="M204.38,379.46L224.86,364.92L208.59,346.26L188.41,360.81L204.38,379.46Z" style="fill:white;stroke:black;stroke-width:0.8px;"/>
        <g transform="matrix(1,0,0,1,198.349,366.39)">
            <text x="0px" y="0px" style="font-family:'ArialMT', 'Arial', sans-serif;font-size:10px;">032</text>
        </g>
    </g>
    <g id="leo11-031">
        <path d="M224.86,364.92L238.83,355.06L222.66,336.31L208.59,346.26L224.86,364.92Z" style="fill:white;stroke:black;stroke-width:0.8px;"/>
        <g transform="matrix(1,0,0,1,216.078,354.145)">
            <text x="0px" y="0px" style="font-family:'ArialMT', 'Arial', sans-serif;font-size:10px;">031</text>
        </g>
    </g>
    <g id="leo11-028">
        <path d="M265.24,336.12L303.51,308.76L282.17,283.98L244,311.15L265.25,336.12L265.24,336.12Z" style="fill:rgb(133,35,57);stroke:black;stroke-width:0.8px;"/>
        <g transform="matrix(1,0,0,1,265.425,313.583)">
            <text x="0px" y="0px" style="font-family:'ArialMT', 'Arial', sans-serif;font-size:10px;fill:white;">028</text>
        </g>
    </g>
    <g id="leo11-025">
        <path d="M343.88,280.15L362.73,266.65L341.4,241.88L322.64,255.08L343.88,280.15Z" style="fill:rgb(133,35,57);stroke:black;stroke-width:0.8px;"/>
        <g transform="matrix(1,0,0,1,334.335,264.548)">
            <text x="0px" y="0px" style="font-family:'ArialMT', 'Arial', sans-serif;font-size:10px;fill:white;">025</text>
        </g>
    </g>
    <g id="leo11-024">
        <path d="M341.4,241.88L360.34,228.29L381.68,253.17L362.73,266.66L341.4,241.88Z" style="fill:rgb(133,35,57);stroke:black;stroke-width:0.8px;"/>
        <g transform="matrix(1,0,0,1,353.232,251.008)">
            <text x="0px" y="0px" style="font-family:'ArialMT', 'Arial', sans-serif;font-size:10px;fill:white;">024</text>
        </g>
    </g>
    <g id="leo11-023">
        <path d="M421.67,224.65L400.33,199.87L360.34,228.29L381.68,253.17L421.68,224.65L421.67,224.65Z" style="fill:rgb(133,35,57);stroke:black;stroke-width:0.8px;"/>
        <g transform="matrix(1,0,0,1,382.687,230.05)">
            <text x="0px" y="0px" style="font-family:'ArialMT', 'Arial', sans-serif;font-size:10px;fill:white;">023</text>
        </g>
    </g>
    <g id="leo11-017">
        <path d="M543.28,98.07L567.1,81.14L588.15,106.2L564.62,122.95L543.28,98.07Z" style="fill:rgb(133,35,57);stroke:black;stroke-width:0.8px;"/>
        <g transform="matrix(1,0,0,1,557.392,105.578)">
            <text x="0px" y="0px" style="font-family:'ArialMT', 'Arial', sans-serif;font-size:10px;fill:white;">017</text>
        </g>
    </g>
    <g id="leo11-018">
        <path d="M543.28,98.07L503.28,126.58L524.53,151.56L564.62,122.95L543.28,98.07Z" style="fill:rgb(133,35,57);stroke:black;stroke-width:0.8px;"/>
        <g transform="matrix(1,0,0,1,525.62,128.348)">
            <text x="0px" y="0px" style="font-family:'ArialMT', 'Arial', sans-serif;font-size:10px;fill:white;">018</text>
        </g>
    </g>
</svg>
