<?xml version="1.0" encoding="UTF-8" standalone="no"?>
<!DOCTYPE svg PUBLIC "-//W3C//DTD SVG 1.1//EN" "http://www.w3.org/Graphics/SVG/1.1/DTD/svg11.dtd">
<svg width="100%" height="100%" viewBox="0 0 615 447" version="1.1" xmlns="http://www.w3.org/2000/svg" xmlns:xlink="http://www.w3.org/1999/xlink" xml:space="preserve" xmlns:serif="http://www.serif.com/" style="fill-rule:evenodd;clip-rule:evenodd;stroke-linejoin:round;stroke-miterlimit:2;">
    <path d="M596.31,148.05L537.04,190.94L512.21,173.03L234.23,369.93L258.93,387.75L200.38,429.23L18.38,300.36L78.1,257.36L145.07,305.65L246.95,233.11L203.74,201.96L275.99,150.12L319.6,181.57L423.05,108.75L356.2,60.54L416.47,18.37L596.31,148.05Z" style="fill:rgb(191,191,191);stroke:black;stroke-width:0.8px;"/>
    <path id="polygon7" d="M228.42,219.84L246.95,233.11L227.62,246.88L217.11,239.24L217.09,227.87L228.42,219.84Z" style="fill:white;stroke:black;stroke-width:0.8px;"/>
    <g id="leo3-122">
        <path d="M281.47,336.47L214.03,287.85L166.78,321.31L234.23,369.94L281.47,336.47Z" style="fill:rgb(133,35,57);stroke:black;stroke-width:0.8px;"/>
        <g transform="matrix(1,0,0,1,215.502,332.489)">
            <g transform="matrix(10,0,0,10,16.6846,0)">
            </g>
            <text x="0px" y="0px" style="font-family:'ArialMT', 'Arial', sans-serif;font-size:10px;fill:white;">122</text>
        </g>
    </g>
    <g id="leo3-120">
        <path d="M281.47,336.47L329.54,302.42L261.65,253.47L214.03,287.85L281.47,336.47Z" style="fill:rgb(133,35,57);stroke:black;stroke-width:0.8px;"/>
        <g transform="matrix(1,0,0,1,263.138,298.503)">
            <g transform="matrix(10,0,0,10,16.6846,0)">
            </g>
            <text x="0px" y="0px" style="font-family:'ArialMT', 'Arial', sans-serif;font-size:10px;fill:white;">120</text>
        </g>
    </g>
    <g id="leo3-119">
        <path d="M329.54,302.42L371.84,272.47L305.06,223.49L261.65,253.47L329.54,302.42Z" style="fill:white;stroke:black;stroke-width:0.8px;"/>
        <g transform="matrix(1,0,0,1,308.449,266.488)">
            <text x="0px" y="0px" style="font-family:'ArialMT', 'Arial', sans-serif;font-size:10px;">1<tspan x="4.819px 10.381px " y="0px 0px ">19</tspan></text>
        </g>
    </g>
    <g id="leo3-115">
        <path d="M371.84,272.47L305.06,223.49L348.87,192.09L416.33,240.73L371.84,272.47Z" style="fill:white;stroke:black;stroke-width:0.8px;"/>
        <g transform="matrix(1,0,0,1,352.38,235.813)">
            <text x="0px" y="0px" style="font-family:'ArialMT', 'Arial', sans-serif;font-size:10px;">1<tspan x="4.819px 10.381px " y="0px 0px ">15</tspan></text>
        </g>
    </g>
    <g id="leo3-114">
        <path d="M348.87,192.09L396.72,158.05L464.67,206.71L416.33,240.73L348.87,192.09Z" style="fill:white;stroke:black;stroke-width:0.8px;"/>
        <g transform="matrix(1,0,0,1,398.496,202.984)">
            <text x="0px" y="0px" style="font-family:'ArialMT', 'Arial', sans-serif;font-size:10px;">1<tspan x="4.819px 10.381px " y="0px 0px ">14</tspan></text>
        </g>
    </g>
    <g id="leo3-113">
        <path d="M464.67,206.71L512.21,173.03L444.67,124.34L396.72,158.05L464.67,206.71Z" style="fill:rgb(133,35,57);stroke:black;stroke-width:0.8px;"/>
        <g transform="matrix(1,0,0,1,446.176,169.055)">
            <g transform="matrix(10,0,0,10,15.9424,0)">
            </g>
            <text x="0px" y="0px" style="font-family:'ArialMT', 'Arial', sans-serif;font-size:10px;fill:white;">1<tspan x="4.819px 10.381px " y="0px 0px ">13</tspan></text>
        </g>
    </g>
    <g id="leo3-101">
        <path d="M566.98,169.55L596.31,148.05L554.95,118.23L525.22,139.43L566.98,169.55Z" style="fill:rgb(133,35,57);stroke:black;stroke-width:0.8px;"/>
        <g transform="matrix(1,0,0,1,552.796,147.423)">
            <g transform="matrix(10,0,0,10,16.6846,0)">
            </g>
            <text x="0px" y="0px" style="font-family:'ArialMT', 'Arial', sans-serif;font-size:10px;fill:white;">101</text>
        </g>
    </g>
    <g id="leo3-wc1">
        <path d="M511.52,149.08L554.95,118.23L537.24,105.46L493.71,136.3L511.52,149.08Z" style="fill:white;stroke:black;stroke-width:0.8px;"/>
        <g transform="matrix(1,0,0,1,517.775,130.133)">
            <text x="0px" y="0px" style="font-family:'ArialMT', 'Arial', sans-serif;font-size:8px;">WC</text>
        </g>
    </g>
    <g id="leo3-wc11">
        <path d="M537.24,105.46L526.45,97.68L482.87,128.37L493.71,136.3L537.24,105.46Z" style="fill:white;stroke:black;stroke-width:0.8px;"/>
        <g transform="matrix(1,0,0,1,503.5,119.853)">
            <text x="0px" y="0px" style="font-family:'ArialMT', 'Arial', sans-serif;font-size:8px;">WC</text>
        </g>
    </g>
    <g id="leo3-108">
        <path d="M482.95,66.32L450.48,42.9L406.82,73.82L439.59,97.16L482.95,66.32Z" style="fill:rgb(133,35,57);stroke:black;stroke-width:0.8px;"/>
        <g transform="matrix(1,0,0,1,436.218,73.5627)">
            <g transform="matrix(10,0,0,10,16.6846,0)">
            </g>
            <text x="0px" y="0px" style="font-family:'ArialMT', 'Arial', sans-serif;font-size:10px;fill:white;">108</text>
        </g>
    </g>
    <g id="leo3-109">
        <path d="M450.48,42.9L416.47,18.37L373.02,49.15L406.82,73.82L450.48,42.9Z" style="fill:rgb(133,35,57);stroke:black;stroke-width:0.8px;"/>
        <g transform="matrix(1,0,0,1,403.083,49.6277)">
            <g transform="matrix(10,0,0,10,16.6846,0)">
            </g>
            <text x="0px" y="0px" style="font-family:'ArialMT', 'Arial', sans-serif;font-size:10px;fill:white;">109</text>
        </g>
    </g>
    <g id="leo3-110">
        <path d="M406.82,73.82L390.43,85.43L356.2,60.54L373.02,49.15L406.82,73.82Z" style="fill:rgb(133,35,57);stroke:black;stroke-width:0.8px;"/>
        <g transform="matrix(1,0,0,1,373.234,70.8227)">
            <g transform="matrix(10,0,0,10,15.9424,0)">
            </g>
            <text x="0px" y="0px" style="font-family:'ArialMT', 'Arial', sans-serif;font-size:10px;fill:white;">1<tspan x="4.819px 10.381px " y="0px 0px ">10</tspan></text>
        </g>
    </g>
    <g id="leo3-117">
        <path d="M282.81,207.82L319.91,181.8L275.99,150.12L239.15,176.56L282.81,207.82Z" style="fill:rgb(133,35,57);stroke:black;stroke-width:0.8px;"/>
        <g transform="matrix(1,0,0,1,271.241,182.564)">
            <g transform="matrix(10,0,0,10,15.9424,0)">
            </g>
            <text x="0px" y="0px" style="font-family:'ArialMT', 'Arial', sans-serif;font-size:10px;fill:white;">1<tspan x="4.819px 10.381px " y="0px 0px ">17</tspan></text>
        </g>
    </g>
    <g id="leo3-118">
        <path d="M282.81,207.82L246.95,233.11L203.74,201.96L239.15,176.56L282.81,207.82Z" style="fill:rgb(133,35,57);stroke:black;stroke-width:0.8px;"/>
        <g transform="matrix(1,0,0,1,234.979,208.368)">
            <g transform="matrix(10,0,0,10,15.9424,0)">
            </g>
            <text x="0px" y="0px" style="font-family:'ArialMT', 'Arial', sans-serif;font-size:10px;fill:white;">1<tspan x="4.819px 10.381px " y="0px 0px ">18</tspan></text>
        </g>
    </g>
    <g id="leo3-134">
        <path d="M112.44,282.34L94.68,294.92L60.33,270.15L78.1,257.36L112.44,282.34Z" style="fill:rgb(133,35,57);stroke:black;stroke-width:0.8px;"/>
        <g transform="matrix(1,0,0,1,77.74,279.67)">
            <g transform="matrix(10,0,0,10,16.6846,0)">
            </g>
            <text x="0px" y="0px" style="font-family:'ArialMT', 'Arial', sans-serif;font-size:10px;fill:white;">134</text>
        </g>
    </g>
    <g id="leo3-133">
        <path d="M60.33,270.15L18.38,300.36L52.74,324.69L94.68,294.92L60.33,270.15Z" style="fill:rgb(133,35,57);stroke:black;stroke-width:0.8px;"/>
        <g transform="matrix(1,0,0,1,47.8703,300.95)">
            <g transform="matrix(10,0,0,10,16.6846,0)">
            </g>
            <text x="0px" y="0px" style="font-family:'ArialMT', 'Arial', sans-serif;font-size:10px;fill:white;">133</text>
        </g>
    </g>
    <g id="leo3-132">
        <path d="M52.73,324.69L85.43,347.83L127.24,318.28L94.68,294.92L52.73,324.69Z" style="fill:rgb(133,35,57);stroke:black;stroke-width:0.8px;"/>
        <g transform="matrix(1,0,0,1,81.362,324.905)">
            <g transform="matrix(10,0,0,10,16.6846,0)">
            </g>
            <text x="0px" y="0px" style="font-family:'ArialMT', 'Arial', sans-serif;font-size:10px;fill:white;">132</text>
        </g>
    </g>
    <g id="leo3-123">
        <path d="M234.23,369.94L204.15,391.2L228.89,409.03L258.93,387.75L234.23,369.94Z" style="fill:rgb(133,35,57);stroke:black;stroke-width:0.8px;"/>
        <g transform="matrix(1,0,0,1,222.88,393.015)">
            <g transform="matrix(10,0,0,10,16.6846,0)">
            </g>
            <text x="0px" y="0px" style="font-family:'ArialMT', 'Arial', sans-serif;font-size:10px;fill:white;">123</text>
        </g>
    </g>
    <g id="leo3-124">
        <path d="M228.89,409.03L186.96,378.8L158.1,399.29L200.38,429.23L228.89,409.03Z" style="fill:rgb(133,35,57);stroke:black;stroke-width:0.8px;"/>
        <g transform="matrix(1,0,0,1,184.85,407.609)">
            <g transform="matrix(10,0,0,10,16.6846,0)">
            </g>
            <text x="0px" y="0px" style="font-family:'ArialMT', 'Arial', sans-serif;font-size:10px;fill:white;">124</text>
        </g>
    </g>
    <g id="leo3-127">
        <path d="M158.1,399.29L199.01,370.36L181.3,357.59L140.22,386.69L158.1,399.29Z" style="fill:rgb(133,35,57);stroke:black;stroke-width:0.8px;"/>
        <g transform="matrix(1,0,0,1,160.955,382.034)">
            <g transform="matrix(10,0,0,10,16.6846,0)">
            </g>
            <text x="0px" y="0px" style="font-family:'ArialMT', 'Arial', sans-serif;font-size:10px;fill:white;">127</text>
        </g>
    </g>
    <g id="leo3-wc12">
        <path d="M181.3,357.6L170.64,349.63L129.41,378.97L140.22,386.69L181.3,357.59L181.3,357.6Z" style="fill:white;stroke:black;stroke-width:0.8px;"/>
        <g transform="matrix(1,0,0,1,148.8,371.023)">
            <text x="0px" y="0px" style="font-family:'ArialMT', 'Arial', sans-serif;font-size:8px;">WC</text>
        </g>
    </g>
    <g id="leo3-129">
        <path d="M170.64,349.63L149.03,334.01L107.53,363.49L129.41,378.97L170.64,349.63Z" style="fill:rgb(133,35,57);stroke:black;stroke-width:0.8px;"/>
        <g transform="matrix(1,0,0,1,130.418,360.023)">
            <g transform="matrix(10,0,0,10,16.6846,0)">
            </g>
            <text x="0px" y="0px" style="font-family:'ArialMT', 'Arial', sans-serif;font-size:10px;fill:white;">129</text>
        </g>
    </g>
    <g id="leo3-az">
        <path d="M482.87,128.37L496.65,118.79L474.77,103.06L461.36,112.78L482.87,128.37Z" style="fill:white;stroke:black;stroke-width:0.8px;"/>
    </g>
    <g id="leo3-102">
        <path d="M542.24,151.7L566.98,169.55L537.04,190.94L512.21,173.03L542.24,151.7Z" style="fill:rgb(133,35,57);stroke:black;stroke-width:0.8px;"/>
        <g transform="matrix(1,0,0,1,530.972,174.853)">
            <g transform="matrix(10,0,0,10,16.6846,0)">
            </g>
            <text x="0px" y="0px" style="font-family:'ArialMT', 'Arial', sans-serif;font-size:10px;fill:white;">102</text>
        </g>
    </g>
    <path id="polygon327" d="M509.58,109.62L526.45,97.68L504.79,82.06L487.84,94.02L509.58,109.62Z" style="fill:white;stroke:black;stroke-width:0.8px;"/>
    <path id="polygon331" d="M338.85,167.97L319.91,181.8L301.19,168.3L313.49,159.59L327.24,159.59L338.85,167.97Z" style="fill:white;stroke:black;stroke-width:0.8px;"/>
    <g transform="matrix(0.09,0,0,0.09,131.968,235.099)">
        <g id="path4540" transform="matrix(1,0,0,1,5.29,-108.46)">
            <rect x="0" y="118.47" width="212.35" height="212.36" style="fill:rgb(0,146,98);"/>
        </g>
        <g id="path4545" transform="matrix(1,0,0,1,27.96,-131.13)">
            <path d="M55.54,275.28L55.54,330.83L111.47,330.83L111.47,275.28L167.01,275.28L167.01,219.36L111.47,219.36L111.47,163.81L55.54,163.81L55.54,219.36L0,219.36L0,275.28L55.54,275.28Z" style="fill:white;"/>
        </g>
        <g id="rect4552" transform="matrix(1,0,0,1,7.22,0)">
            <rect x="0" y="236.15" width="208.06" height="94.68" style="fill:white;stroke:rgb(0,146,98);stroke-width:4.5px;stroke-linecap:square;stroke-linejoin:miter;stroke-miterlimit:3;"/>
        </g>
        <g id="text4554" transform="matrix(1,0,0,1,34.22,294.29)">
            <text x="0px" y="0px" style="font-family:'ArialMT', 'Arial', sans-serif;font-size:36px;">Ersthelfer</text>
        </g>
    </g>
    <g id="path4324" transform="matrix(1.5854,-1.07929,-1.07929,2.98989,-377.226,390.004)">
        <path d="M362.629,91.434L382.446,90.895" style="fill:none;stroke:rgb(130,130,130);stroke-width:0.61px;stroke-linejoin:miter;stroke-miterlimit:4;"/>
    </g>
</svg>
