<?xml version="1.0" encoding="UTF-8" standalone="no"?>
<!DOCTYPE svg PUBLIC "-//W3C//DTD SVG 1.1//EN" "http://www.w3.org/Graphics/SVG/1.1/DTD/svg11.dtd">
<svg width="100%" height="100%" viewBox="0 0 615 447" version="1.1" xmlns="http://www.w3.org/2000/svg" xmlns:xlink="http://www.w3.org/1999/xlink" xml:space="preserve" xmlns:serif="http://www.serif.com/" style="fill-rule:evenodd;clip-rule:evenodd;stroke-linejoin:round;stroke-miterlimit:2;">
    <path d="M596.31,148.05L537.04,190.94L512.21,173.03L234.23,369.93L258.93,387.75L200.38,429.23L18.38,300.36L78.1,257.36L145.07,305.65L246.95,233.11L203.74,201.96L275.99,150.12L319.6,181.57L423.05,108.75L356.2,60.54L416.47,18.37L596.31,148.05Z" style="fill:rgb(191,191,191);stroke:black;stroke-width:0.8px;"/>
    <path d="M228.42,219.84L246.95,233.11L227.62,246.88L217.11,239.24L217.09,227.87L228.42,219.84Z" style="fill:white;stroke:black;stroke-width:0.8px;"/>
    <path d="M338.85,167.97L319.91,181.8L301.19,168.3L313.49,159.59L327.24,159.59L338.85,167.97Z" style="fill:white;stroke:black;stroke-width:0.8px;"/>
    <g id="leo3-002">
        <path d="M494.9,160.74L536.88,191.01L566.83,169.62L525.06,139.51L494.9,160.74Z" style="fill:white;stroke:black;stroke-width:0.8px;"/>
        <g transform="matrix(1,0,0,1,522.579,168.625)">
            <text x="0px" y="0px" style="font-family:'ArialMT', 'Arial', sans-serif;font-size:10px;">002</text>
        </g>
    </g>
    <g id="leo3-022" transform="matrix(1,0,0,1,1.785,1.285)">
        <path d="M281.47,336.47L214.03,287.85L166.78,321.31L234.23,369.94L281.47,336.47Z" style="fill:rgb(133,35,57);stroke:black;stroke-width:0.8px;"/>
        <g transform="matrix(1,0,0,1,215.839,333.134)">
            <text x="0px" y="0px" style="font-family:'ArialMT', 'Arial', sans-serif;font-size:10px;fill:white;">022</text>
        </g>
    </g>
    <g id="leo3-020" transform="matrix(1,0,0,1,1.785,1.285)">
        <path d="M281.47,336.47L329.54,302.42L261.65,253.47L214.03,287.85L281.47,336.47Z" style="fill:white;stroke:black;stroke-width:0.8px;"/>
        <g transform="matrix(1,0,0,1,263.474,298.625)">
            <text x="0px" y="0px" style="font-family:'ArialMT', 'Arial', sans-serif;font-size:10px;">020</text>
        </g>
    </g>
    <g id="leo3-019" transform="matrix(1,0,0,1,1.785,1.285)">
        <path d="M329.54,302.42L371.84,272.47L305.06,223.49L261.65,253.47L329.54,302.42Z" style="fill:white;stroke:black;stroke-width:0.8px;"/>
        <g transform="matrix(1,0,0,1,308.415,267.194)">
            <text x="0px" y="0px" style="font-family:'ArialMT', 'Arial', sans-serif;font-size:10px;">019</text>
        </g>
    </g>
    <g id="leo3-hausmeister">
        <path d="M566.98,169.55L596.31,148.05L554.95,118.23L525.22,139.43L566.98,169.55Z" style="fill:white;stroke:black;stroke-width:0.8px;"/>
        <g transform="matrix(1,0,0,1,537.939,145.727)">
            <text x="0px" y="0px" style="font-family:'ArialMT', 'Arial', sans-serif;font-size:8px;">Hausmeister</text>
        </g>
    </g>
    <g id="leo3-wc0">
        <path d="M511.52,149.08L554.95,118.23L537.24,105.46L493.71,136.3L511.52,149.08Z" style="fill:white;stroke:black;stroke-width:0.8px;"/>
        <g transform="matrix(1,0,0,1,517.775,130.133)">
            <text x="0px" y="0px" style="font-family:'ArialMT', 'Arial', sans-serif;font-size:8px;">WC</text>
        </g>
    </g>
    <g id="leo3-wc01" serif:id="leo3-wc0">
        <path d="M537.24,105.46L526.45,97.68L482.87,128.37L493.71,136.3L537.24,105.46Z" style="fill:white;stroke:black;stroke-width:0.8px;"/>
        <g transform="matrix(0.542045,0,0,0.542045,503.5,120)">
            <text x="0px" y="0px" style="font-family:'ArialMT', 'Arial', sans-serif;font-size:14.759px;">WC</text>
        </g>
    </g>
    <g id="leo3-008">
        <path d="M482.95,66.32L450.48,42.9L406.82,73.82L439.59,97.16L482.95,66.32Z" style="fill:rgb(133,35,57);stroke:black;stroke-width:0.8px;"/>
        <g transform="matrix(1,0,0,1,436.555,74.2693)">
            <text x="0px" y="0px" style="font-family:'ArialMT', 'Arial', sans-serif;font-size:10px;fill:white;">008</text>
        </g>
    </g>
    <g id="leo3-009">
        <path d="M450.48,42.9L416.47,18.37L373.02,49.15L406.82,73.82L450.48,42.9Z" style="fill:rgb(133,35,57);stroke:black;stroke-width:0.8px;"/>
        <g transform="matrix(1,0,0,1,403.42,50.3343)">
            <text x="0px" y="0px" style="font-family:'ArialMT', 'Arial', sans-serif;font-size:10px;fill:white;">009</text>
        </g>
    </g>
    <g id="leo3-010">
        <path d="M406.82,73.82L390.43,85.43L356.2,60.54L373.02,49.15L406.82,73.82Z" style="fill:rgb(133,35,57);stroke:black;stroke-width:0.8px;"/>
        <g transform="matrix(1,0,0,1,373.199,70)">
            <text x="0px" y="0px" style="font-family:'ArialMT', 'Arial', sans-serif;font-size:10px;fill:white;">010</text>
        </g>
    </g>
    <g id="leo3-017">
        <path d="M282.81,207.82L319.91,181.8L275.99,150.12L239.15,176.56L282.81,207.82Z" style="fill:rgb(133,35,57);stroke:black;stroke-width:0.8px;"/>
        <g transform="matrix(1,0,0,1,271.207,182.503)">
            <text x="0px" y="0px" style="font-family:'ArialMT', 'Arial', sans-serif;font-size:10px;fill:white;">017</text>
        </g>
    </g>
    <g id="leo3-018">
        <path d="M282.81,207.82L246.95,233.11L203.74,201.96L239.15,176.56L282.81,207.82Z" style="fill:rgb(133,35,57);stroke:black;stroke-width:0.8px;"/>
        <g transform="matrix(1,0,0,1,234.945,208.368)">
            <text x="0px" y="0px" style="font-family:'ArialMT', 'Arial', sans-serif;font-size:10px;fill:white;">018</text>
        </g>
    </g>
    <g id="leo3-034">
        <path d="M112.44,282.34L94.68,294.92L60.33,270.15L78.1,257.36L112.44,282.34Z" style="fill:rgb(133,35,57);stroke:black;stroke-width:0.8px;"/>
        <g transform="matrix(1,0,0,1,78.0769,280)">
            <text x="0px" y="0px" style="font-family:'ArialMT', 'Arial', sans-serif;font-size:10px;fill:white;">034</text>
        </g>
    </g>
    <g id="leo3-033">
        <path d="M60.33,270.15L18.38,300.36L52.74,324.69L94.68,294.92L60.33,270.15Z" style="fill:rgb(133,35,57);stroke:black;stroke-width:0.8px;"/>
        <g transform="matrix(1,0,0,1,48.2072,301.656)">
            <text x="0px" y="0px" style="font-family:'ArialMT', 'Arial', sans-serif;font-size:10px;fill:white;">033</text>
        </g>
    </g>
    <g id="leo3-032">
        <path d="M52.73,324.69L85.43,347.83L127.24,318.28L94.68,294.92L52.73,324.69Z" style="fill:rgb(133,35,57);stroke:black;stroke-width:0.8px;"/>
        <g transform="matrix(1,0,0,1,81.6989,325.611)">
            <text x="0px" y="0px" style="font-family:'ArialMT', 'Arial', sans-serif;font-size:10px;fill:white;">032</text>
        </g>
    </g>
    <g id="leo3-023">
        <path d="M234.23,369.94L204.15,391.2L228.89,409.03L258.93,387.75L234.23,369.94Z" style="fill:rgb(133,35,57);stroke:black;stroke-width:0.8px;"/>
        <g transform="matrix(1,0,0,1,223.217,393.53)">
            <text x="0px" y="0px" style="font-family:'ArialMT', 'Arial', sans-serif;font-size:10px;fill:white;">023</text>
        </g>
    </g>
    <g id="leo3-024">
        <path d="M228.89,409.03L186.96,378.8L158.1,399.29L200.38,429.23L228.89,409.03Z" style="fill:rgb(133,35,57);stroke:black;stroke-width:0.8px;"/>
        <g transform="matrix(1,0,0,1,185.187,407.915)">
            <text x="0px" y="0px" style="font-family:'ArialMT', 'Arial', sans-serif;font-size:10px;fill:white;">024</text>
        </g>
    </g>
    <g id="leo3-027">
        <path d="M158.1,399.29L199.01,370.36L181.3,357.59L140.22,386.69L158.1,399.29Z" style="fill:rgb(133,35,57);stroke:black;stroke-width:0.8px;"/>
        <g transform="matrix(1,0,0,1,161.292,383.533)">
            <text x="0px" y="0px" style="font-family:'ArialMT', 'Arial', sans-serif;font-size:10px;fill:white;">027</text>
        </g>
    </g>
    <g id="leo3-wc02" serif:id="leo3-wc0">
        <path d="M181.3,357.6L170.64,349.63L129.41,378.97L140.22,386.69L181.3,357.59L181.3,357.6Z" style="fill:white;stroke:black;stroke-width:0.8px;"/>
        <g transform="matrix(1,0,0,1,148.8,370)">
            <text x="0px" y="0px" style="font-family:'ArialMT', 'Arial', sans-serif;font-size:8px;">WC</text>
        </g>
    </g>
    <g id="leo3-029">
        <path d="M170.64,349.63L149.03,334.01L107.53,363.49L129.41,378.97L170.64,349.63Z" style="fill:rgb(133,35,57);stroke:black;stroke-width:0.8px;"/>
        <g transform="matrix(1,0,0,1,130.755,358.625)">
            <text x="0px" y="0px" style="font-family:'ArialMT', 'Arial', sans-serif;font-size:10px;fill:white;">029</text>
        </g>
    </g>
    <g id="leo3-az">
        <path d="M482.87,128.37L496.65,118.79L474.77,103.06L461.36,112.78L482.87,128.37Z" style="fill:white;stroke:black;stroke-width:0.8px;"/>
    </g>
    <g id="leo3-013">
        <g transform="matrix(1,0,0,1,1.52,1.525)">
            <path d="M371.68,272.54L416.18,240.81L464.52,206.78L512.05,173.11L444.52,124.41L396.57,158.12L348.72,192.16L304.91,223.56L371.68,272.54Z" style="fill:white;stroke:black;stroke-width:0.8px;"/>
        </g>
        <g transform="matrix(1,0,0,1,388.865,196.032)">
            <text x="0px" y="0px" style="font-family:'ArialMT', 'Arial', sans-serif;font-size:10px;">013 - 015</text>
        </g>
        <g transform="matrix(1,0,0,1,383.568,207.965)">
            <text x="0px" y="0px" style="font-family:'ArialMT', 'Arial', sans-serif;font-size:12px;">Bibliothek</text>
        </g>
    </g>
</svg>
