<?xml version="1.0" encoding="UTF-8" standalone="no"?>
<!DOCTYPE svg PUBLIC "-//W3C//DTD SVG 1.1//EN" "http://www.w3.org/Graphics/SVG/1.1/DTD/svg11.dtd">
<svg width="100%" height="100%" viewBox="0 0 615 447" version="1.1" xmlns="http://www.w3.org/2000/svg" xmlns:xlink="http://www.w3.org/1999/xlink" xml:space="preserve" xmlns:serif="http://www.serif.com/" style="fill-rule:evenodd;clip-rule:evenodd;stroke-linejoin:round;stroke-miterlimit:2;">
    <path d="M596.31,148.05L537.04,190.94L512.21,173.03L234.23,369.93L258.93,387.75L200.38,429.23L18.38,300.36L78.1,257.36L145.07,305.65L246.95,233.11L203.74,201.96L275.99,150.12L319.6,181.57L423.05,108.75L356.2,60.54L416.47,18.37L596.31,148.05Z" style="fill:rgb(191,191,191);stroke:black;stroke-width:0.8px;"/>
    <g id="leo3-301">
        <path d="M566.98,169.55L596.31,148.05L554.95,118.23L525.22,139.43L566.98,169.55Z" style="fill:rgb(133,35,57);stroke:black;stroke-width:0.8px;"/>
        <g transform="matrix(1,0,0,1,553.131,147.42)">
            <text x="0px" y="0px" style="font-family:'ArialMT', 'Arial', sans-serif;font-size:10px;fill:white;">301</text>
        </g>
    </g>
    <g id="leo3-wc3">
        <path d="M511.52,149.08L554.95,118.23L537.24,105.46L493.71,136.3L511.52,149.08Z" style="fill:white;stroke:black;stroke-width:0.8px;"/>
        <g transform="matrix(1,0,0,1,517.775,130.133)">
            <text x="0px" y="0px" style="font-family:'ArialMT', 'Arial', sans-serif;font-size:8px;">WC</text>
        </g>
    </g>
    <g id="leo3-wc31">
        <path d="M537.24,105.46L526.45,97.68L482.87,128.37L493.71,136.3L537.24,105.46Z" style="fill:white;stroke:black;stroke-width:0.8px;"/>
        <g transform="matrix(1,0,0,1,503.5,119.853)">
            <text x="0px" y="0px" style="font-family:'ArialMT', 'Arial', sans-serif;font-size:8px;">WC</text>
        </g>
    </g>
    <g id="leo3-308">
        <path d="M482.95,66.32L450.48,42.9L406.82,73.82L439.59,97.16L482.95,66.32Z" style="fill:rgb(133,35,57);stroke:black;stroke-width:0.8px;"/>
        <g transform="matrix(1,0,0,1,436.552,73.5603)">
            <text x="0px" y="0px" style="font-family:'ArialMT', 'Arial', sans-serif;font-size:10px;fill:white;">308</text>
        </g>
    </g>
    <g id="leo3-309">
        <path d="M450.48,42.9L416.47,18.37L373.02,49.15L406.82,73.82L450.48,42.9Z" style="fill:rgb(133,35,57);stroke:black;stroke-width:0.8px;"/>
        <g transform="matrix(1,0,0,1,403.417,49.6253)">
            <text x="0px" y="0px" style="font-family:'ArialMT', 'Arial', sans-serif;font-size:10px;fill:white;">309</text>
        </g>
    </g>
    <g id="leo3-310">
        <path d="M406.82,73.82L390.43,85.43L356.2,60.54L373.02,49.15L406.82,73.82Z" style="fill:rgb(133,35,57);stroke:black;stroke-width:0.8px;"/>
        <g transform="matrix(1,0,0,1,373.197,70.8203)">
            <text x="0px" y="0px" style="font-family:'ArialMT', 'Arial', sans-serif;font-size:10px;fill:white;">310</text>
        </g>
    </g>
    <g id="leo3-340">
        <path d="M112.44,282.34L94.68,294.92L60.33,270.15L78.1,257.36L112.44,282.34Z" style="fill:rgb(133,35,57);stroke:black;stroke-width:0.8px;"/>
        <g transform="matrix(1,0,0,1,78.072,279.67)">
            <text x="0px" y="0px" style="font-family:'ArialMT', 'Arial', sans-serif;font-size:10px;fill:white;">340</text>
        </g>
    </g>
    <g id="leo3-339">
        <path d="M60.33,270.15L18.38,300.36L52.74,324.69L94.68,294.92L60.33,270.15Z" style="fill:rgb(133,35,57);stroke:black;stroke-width:0.8px;"/>
        <g transform="matrix(1,0,0,1,48.1975,300.95)">
            <text x="0px" y="0px" style="font-family:'ArialMT', 'Arial', sans-serif;font-size:10px;fill:white;">339</text>
        </g>
    </g>
    <g id="leo3-338">
        <path d="M52.73,324.69L85.43,347.83L127.24,318.28L94.68,294.92L52.73,324.69Z" style="fill:rgb(133,35,57);stroke:black;stroke-width:0.8px;"/>
        <g transform="matrix(1,0,0,1,81.6525,324.905)">
            <text x="0px" y="0px" style="font-family:'ArialMT', 'Arial', sans-serif;font-size:10px;fill:white;">338</text>
        </g>
    </g>
    <g id="leo3-328">
        <path d="M234.23,369.94L204.15,391.2L228.89,409.03L258.93,387.75L234.23,369.94Z" style="fill:rgb(133,35,57);stroke:black;stroke-width:0.8px;"/>
        <g transform="matrix(1,0,0,1,223.207,393.015)">
            <text x="0px" y="0px" style="font-family:'ArialMT', 'Arial', sans-serif;font-size:10px;fill:white;">328</text>
        </g>
    </g>
    <g id="leo3-329">
        <path d="M228.89,409.03L186.96,378.8L158.1,399.29L200.38,429.23L228.89,409.03Z" style="fill:rgb(133,35,57);stroke:black;stroke-width:0.8px;"/>
        <g transform="matrix(1,0,0,1,185.162,407.545)">
            <text x="0px" y="0px" style="font-family:'ArialMT', 'Arial', sans-serif;font-size:10px;fill:white;">329</text>
        </g>
    </g>
    <g id="leo3-332">
        <path d="M158.1,399.29L199.01,370.36L181.3,357.59L140.22,386.69L158.1,399.29Z" style="fill:rgb(133,35,57);stroke:black;stroke-width:0.8px;"/>
        <g transform="matrix(1,0,0,1,161.326,381.97)">
            <text x="0px" y="0px" style="font-family:'ArialMT', 'Arial', sans-serif;font-size:10px;fill:white;">332</text>
        </g>
    </g>
    <g id="leo3-wc32">
        <path d="M181.3,357.6L170.64,349.63L129.41,378.97L140.22,386.69L181.3,357.59L181.3,357.6Z" style="fill:white;stroke:black;stroke-width:0.8px;"/>
        <g transform="matrix(1,0,0,1,148.8,371.023)">
            <text x="0px" y="0px" style="font-family:'ArialMT', 'Arial', sans-serif;font-size:8px;">WC</text>
        </g>
    </g>
    <g id="leo3-334">
        <path d="M170.64,349.63L149.03,334.01L107.53,363.49L129.41,378.97L170.64,349.63Z" style="fill:rgb(133,35,57);stroke:black;stroke-width:0.8px;"/>
        <g transform="matrix(1,0,0,1,130.774,360.02)">
            <text x="0px" y="0px" style="font-family:'ArialMT', 'Arial', sans-serif;font-size:10px;fill:white;">334</text>
        </g>
    </g>
    <g id="leo3-az3">
        <path d="M482.87,128.37L496.65,118.79L474.77,103.06L461.36,112.78L482.87,128.37Z" style="fill:white;stroke:black;stroke-width:0.8px;"/>
    </g>
    <g id="leo3-302">
        <path d="M542.24,151.7L566.98,169.55L537.04,190.94L512.21,173.03L542.24,151.7Z" style="fill:rgb(133,35,57);stroke:black;stroke-width:0.8px;"/>
        <g transform="matrix(1,0,0,1,531.306,174.85)">
            <text x="0px" y="0px" style="font-family:'ArialMT', 'Arial', sans-serif;font-size:10px;fill:white;">302</text>
        </g>
    </g>
    <path id="polygon191" d="M509.58,109.62L526.45,97.68L504.79,82.06L487.84,94.02L509.58,109.62Z" style="fill:white;stroke:black;stroke-width:0.8px;"/>
    <g id="leo3-313">
        <path d="M471.32,143.46L505.67,168.39L490.87,178.83L497.43,183.5L478.1,197.2L471.53,192.43L457.87,202.25L423.4,177.29L471.32,143.46Z" style="fill:rgb(133,35,57);stroke:black;stroke-width:0.8px;"/>
        <g transform="matrix(1,0,0,1,456.21,176.385)">
            <text x="0px" y="0px" style="font-family:'ArialMT', 'Arial', sans-serif;font-size:10px;fill:white;">313</text>
        </g>
    </g>
    <g id="leo3-316">
        <path d="M457.87,202.25L443.61,212.27L450.25,217.05L430.92,230.61L424.51,225.88L410.07,236.11L375.5,211.29L423.4,177.29L457.87,202.25Z" style="fill:rgb(133,35,57);stroke:black;stroke-width:0.8px;"/>
        <g transform="matrix(1,0,0,1,408.362,210.23)">
            <text x="0px" y="0px" style="font-family:'ArialMT', 'Arial', sans-serif;font-size:10px;fill:white;">316</text>
        </g>
    </g>
    <g id="leo3-317">
        <path d="M410.07,236.11L397.07,245.31L403.64,249.94L384.27,263.65L377.72,258.89L365.58,267.51L331.17,242.69L375.5,211.29L410.07,236.11Z" style="fill:rgb(133,35,57);stroke:black;stroke-width:0.8px;"/>
        <g transform="matrix(1,0,0,1,362.295,242.93)">
            <text x="0px" y="0px" style="font-family:'ArialMT', 'Arial', sans-serif;font-size:10px;fill:white;">317</text>
        </g>
    </g>
    <g id="leo3-323">
        <path d="M365.58,267.51L354.14,275.8L360.61,280.41L341.23,294.02L334.67,289.51L322.86,297.88L288.5,272.83L331.17,242.69L365.58,267.51Z" style="fill:rgb(133,35,57);stroke:black;stroke-width:0.8px;"/>
        <g transform="matrix(1,0,0,1,318.715,273.815)">
            <text x="0px" y="0px" style="font-family:'ArialMT', 'Arial', sans-serif;font-size:10px;fill:white;">323</text>
        </g>
    </g>
    <g id="leo3-324">
        <path d="M322.86,297.88L308.38,308.13L315.02,312.71L295.73,326.38L289.05,321.64L275.08,331.73L240.48,306.91L288.5,272.83L322.86,297.88Z" style="fill:rgb(133,35,57);stroke:black;stroke-width:0.8px;"/>
        <g transform="matrix(1,0,0,1,273.359,305.81)">
            <text x="0px" y="0px" style="font-family:'ArialMT', 'Arial', sans-serif;font-size:10px;fill:white;">324</text>
        </g>
    </g>
    <g id="leo3-327">
        <path d="M275.08,331.73L261.01,341.69L267.28,346.37L248.1,360.07L241.63,355.42L227.69,365.29L193.03,340.23L240.48,306.91L275.08,331.73Z" style="fill:rgb(133,35,57);stroke:black;stroke-width:0.8px;"/>
        <g transform="matrix(1,0,0,1,225.73,339.63)">
            <text x="0px" y="0px" style="font-family:'ArialMT', 'Arial', sans-serif;font-size:10px;fill:white;">327</text>
        </g>
    </g>
    <g id="leo3-314">
        <path d="M459.3,134.89L430.18,113.89L415.12,124.22L408.02,119.09L388.99,132.72L395.97,137.96L382.14,147.76L411.43,168.66L459.3,134.89Z" style="fill:rgb(133,35,57);stroke:black;stroke-width:0.8px;"/>
        <g transform="matrix(1,0,0,1,412.409,144.805)">
            <text x="0px" y="0px" style="font-family:'ArialMT', 'Arial', sans-serif;font-size:10px;fill:white;">314</text>
        </g>
    </g>
    <g id="leo3-315">
        <path d="M411.43,168.66L363.41,202.58L334.23,181.53L348.81,171.37L341.52,166.19L360.72,152.62L367.97,157.79L382.14,147.76L411.43,168.66Z" style="fill:rgb(133,35,57);stroke:black;stroke-width:0.8px;"/>
        <g transform="matrix(1,0,0,1,364.478,178.7)">
            <text x="0px" y="0px" style="font-family:'ArialMT', 'Arial', sans-serif;font-size:10px;fill:white;">315</text>
        </g>
    </g>
    <g id="leo3-318">
        <path d="M363.41,202.58L326.9,176.24L319.6,181.57L326.84,186.8L315.64,194.79L308.75,189.71L295.15,199.34L302.06,204.48L331.23,225.37L363.41,202.58Z" style="fill:rgb(133,35,57);stroke:black;stroke-width:0.8px;"/>
        <g transform="matrix(1,0,0,1,320.947,204.335)">
            <text x="0px" y="0px" style="font-family:'ArialMT', 'Arial', sans-serif;font-size:10px;fill:white;">318</text>
        </g>
    </g>
    <g id="leo3-326">
        <path d="M228.28,298.19L199.19,277.35L185.35,287.15L178.06,282.03L159,295.73L166.04,300.9L152.04,310.67L181.14,331.66L228.28,298.19Z" style="fill:rgb(133,35,57);stroke:black;stroke-width:0.8px;"/>
        <g transform="matrix(1,0,0,1,181.837,308.035)">
            <text x="0px" y="0px" style="font-family:'ArialMT', 'Arial', sans-serif;font-size:10px;fill:white;">326</text>
        </g>
    </g>
    <g id="leo3-325">
        <path d="M228.28,298.19L199.19,277.35L213.47,267.23L206.24,261.93L225.45,248.42L232.68,253.45L247.34,243.15L276.45,264.14L228.28,298.19Z" style="fill:rgb(133,35,57);stroke:black;stroke-width:0.8px;"/>
        <g transform="matrix(1,0,0,1,229.507,274.2)">
            <text x="0px" y="0px" style="font-family:'ArialMT', 'Arial', sans-serif;font-size:10px;fill:white;">340</text>
        </g>
    </g>
    <g id="leo3-322">
        <path d="M263.3,231.93L254.14,238.42L246.95,233.11L240.26,237.87L276.45,264.14L318.95,233.97L304.74,223.63L293.24,231.86L263.3,231.93Z" style="fill:rgb(133,35,57);stroke:black;stroke-width:0.8px;"/>
        <g transform="matrix(1,0,0,1,271.316,247.415)">
            <text x="0px" y="0px" style="font-family:'ArialMT', 'Arial', sans-serif;font-size:10px;fill:white;">322</text>
        </g>
    </g>
    <g id="leo3-321">
        <path d="M304.74,223.63L293.24,231.86L263.3,231.93L256.38,226.87L283.29,207.75L304.74,223.63Z" style="fill:rgb(133,35,57);stroke:black;stroke-width:0.8px;"/>
        <g transform="matrix(1,0,0,1,274.366,224.873)">
            <text x="0px" y="0px" style="font-family:'ArialMT', 'Arial', sans-serif;font-size:10px;fill:white;">321</text>
        </g>
    </g>
    <g id="leo3-320">
        <path d="M251.66,167.72L224.84,186.77L232.05,191.97L225.34,196.61L243.26,209.33L237.56,213.36L256.38,226.87L283.29,207.75L290.29,212.93L302.06,204.48L295.15,199.34L308.75,189.71L289.54,176.55L283.23,180.94L265.48,168.18L258.72,172.97L251.66,167.72Z" style="fill:rgb(133,35,57);stroke:black;stroke-width:0.8px;"/>
        <g transform="matrix(1,0,0,1,258.482,200.825)">
            <text x="0px" y="0px" style="font-family:'ArialMT', 'Arial', sans-serif;font-size:10px;fill:white;">320</text>
        </g>
    </g>
    <g transform="matrix(0.09,0,0,0.09,356.05,94.38)">
        <g id="path4540" transform="matrix(1,0,0,1,5.29,-108.46)">
            <rect x="0" y="118.47" width="212.35" height="212.36" style="fill:rgb(0,146,98);"/>
        </g>
        <g id="path4545" transform="matrix(1,0,0,1,27.96,-131.13)">
            <path d="M55.54,275.28L55.54,330.83L111.47,330.83L111.47,275.28L167.01,275.28L167.01,219.36L111.47,219.36L111.47,163.81L55.54,163.81L55.54,219.36L0,219.36L0,275.28L55.54,275.28Z" style="fill:white;"/>
        </g>
        <g id="rect4552" transform="matrix(1,0,0,1,7.22,0)">
            <rect x="0" y="236.15" width="208.06" height="94.68" style="fill:white;stroke:rgb(0,146,98);stroke-width:4.5px;stroke-linecap:square;stroke-linejoin:miter;stroke-miterlimit:3;"/>
        </g>
        <g id="text4554" transform="matrix(1,0,0,1,34.22,294.29)">
            <text x="0px" y="0px" style="font-family:'ArialMT', 'Arial', sans-serif;font-size:36px;">Ersthelfer</text>
        </g>
    </g>
    <g id="path4324" transform="matrix(0.968059,0.0588895,0.0588895,0.891426,6.21021,-11.4497)">
        <path d="M367.44,93.84L379.02,72.49" style="fill:none;stroke:rgb(130,130,130);stroke-width:0.61px;stroke-linejoin:miter;stroke-miterlimit:4;"/>
    </g>
</svg>
