<svg xmlns="http://www.w3.org/2000/svg" xml:space="preserve" style="fill-rule:evenodd;clip-rule:evenodd;stroke-linejoin:round;stroke-miterlimit:2" viewBox="0 0 615 447">
  <path d="m596.31 148.05-59.27 42.89-24.83-17.91-277.98 196.9 24.7 17.82-58.55 41.48-182-128.87 59.72-43 66.97 48.29 101.88-72.54-43.21-31.15 72.25-51.84 43.61 31.45 103.45-72.82-66.85-48.21 60.27-42.17 179.84 129.68Z" style="fill:#bfbfbf;stroke:#000;stroke-width:.8px"/>
  <path d="m228.42 219.84 18.53 13.27-19.33 13.77-10.51-7.64-.02-11.37 11.33-8.03Z" style="fill:#fff;stroke:#000;stroke-width:.8px"/>
  <path d="m338.85 167.97-18.94 13.83-18.72-13.5 12.3-8.71h13.75l11.61 8.38Z" style="fill:#fff;stroke:#000;stroke-width:.8px"/>
  <g id="leo3-002">
    <path d="m494.9 160.74 41.98 30.27 29.95-21.39-41.77-30.11-30.16 21.23Z" style="fill:#fff;stroke:#000;stroke-width:.8px"/>
    <path d="M528.06 158.1c0 .59-.05 1.12-.14 1.6-.1.48-.25.9-.46 1.24-.21.35-.49.62-.84.8-.34.2-.76.3-1.27.3-.48 0-.88-.1-1.2-.26a1.98 1.98 0 0 1-.8-.75 3.5 3.5 0 0 1-.42-1.22 9.8 9.8 0 0 1 .01-3.26c.1-.49.25-.9.46-1.25.21-.35.5-.61.84-.8.34-.2.76-.29 1.26-.29.49 0 .9.09 1.22.26.32.17.59.42.79.75.2.33.34.74.42 1.22.09.48.13 1.04.13 1.66Zm-1.04.07a11.53 11.53 0 0 0-.16-1.82 2.69 2.69 0 0 0-.2-.6 1.4 1.4 0 0 0-.3-.4 1.1 1.1 0 0 0-.4-.24 1.64 1.64 0 0 0-.51-.07c-.34 0-.6.08-.82.23-.2.16-.37.38-.49.65s-.2.6-.24.96a10.24 10.24 0 0 0 .02 2.64c.06.4.16.72.28.97.13.25.3.43.49.54.2.12.44.17.72.17.22 0 .41-.03.58-.1.16-.07.3-.17.43-.3.12-.14.22-.3.3-.48a5.46 5.46 0 0 0 .29-1.34l.01-.8Z" style="fill-rule:nonzero"/>
    <path d="M534.07 158.1c0 .59-.05 1.12-.14 1.6-.1.48-.25.9-.46 1.24-.21.35-.49.62-.84.8-.34.2-.76.3-1.27.3-.48 0-.88-.1-1.2-.26-.33-.17-.6-.42-.8-.75a3.5 3.5 0 0 1-.42-1.22 9.8 9.8 0 0 1 .01-3.26c.1-.49.25-.9.46-1.25.21-.35.5-.61.84-.8.34-.2.76-.29 1.26-.29.49 0 .9.09 1.22.26.32.17.59.42.79.75.2.33.34.74.42 1.22.09.48.13 1.04.13 1.66Zm-1.04.07a11.53 11.53 0 0 0-.16-1.82 2.69 2.69 0 0 0-.2-.6 1.4 1.4 0 0 0-.3-.4 1.1 1.1 0 0 0-.4-.24 1.64 1.64 0 0 0-.51-.07c-.34 0-.6.08-.82.23-.2.16-.37.38-.49.65s-.2.6-.24.96a10.24 10.24 0 0 0 .02 2.64c.06.4.16.72.28.97a1.26 1.26 0 0 0 1.21.71c.22 0 .41-.03.58-.1.16-.07.3-.17.43-.3.12-.14.22-.3.3-.48a5.46 5.46 0 0 0 .28-1.34c.02-.25.02-.52.02-.8Z" style="fill-rule:nonzero"/>
    <path d="M539.83 161.49c0 .06 0 .13-.02.18a.58.58 0 0 1-.04.14.2.2 0 0 1-.07.08.18.18 0 0 1-.1.03h-4.2c-.05 0-.1 0-.14-.02a.25.25 0 0 1-.1-.07.29.29 0 0 1-.07-.13 2.06 2.06 0 0 1-.01-.42.5.5 0 0 1 .04-.16.91.91 0 0 1 .2-.28l1.51-1.56a7.86 7.86 0 0 0 1.34-1.75 2.6 2.6 0 0 0 .28-1.18c0-.17-.03-.33-.09-.48a1.15 1.15 0 0 0-.65-.67c-.16-.07-.34-.1-.55-.1a2 2 0 0 0-.67.1 3.63 3.63 0 0 0-.88.43c-.1.07-.17.1-.22.1-.03 0-.06 0-.08-.02a.17.17 0 0 1-.05-.08.61.61 0 0 1-.04-.14 1.6 1.6 0 0 1 .02-.47.43.43 0 0 1 .04-.09.47.47 0 0 1 .1-.1 2.79 2.79 0 0 1 .68-.38 3.94 3.94 0 0 1 1.22-.24c.37 0 .7.05.97.16a1.74 1.74 0 0 1 1.1 1.05c.09.24.13.5.13.76a2.97 2.97 0 0 1-.34 1.5 5 5 0 0 1-.6.94c-.26.35-.6.74-1.04 1.19l-1.2 1.25h3.3l.1.03c.02.02.05.04.07.08l.05.13v.19Z" style="fill-rule:nonzero"/>
    <path d="M528.19 174.17c0 .24-.03.46-.1.66a1.98 1.98 0 0 1-.64.97 2.98 2.98 0 0 1-1.14.49c-.23.04-.48.06-.77.06h-1.98a.42.42 0 0 1-.26-.09c-.08-.06-.12-.17-.12-.32v-6.78c0-.15.04-.25.12-.32a.43.43 0 0 1 .26-.09h1.72a4 4 0 0 1 1.12.13c.29.09.53.21.72.38.2.16.34.36.44.6a2.1 2.1 0 0 1-.1 1.78 1.55 1.55 0 0 1-.76.65 1.84 1.84 0 0 1 1.05.6 1.87 1.87 0 0 1 .44 1.28Zm-1.52-3.4c0-.18-.03-.35-.08-.5a.93.93 0 0 0-.24-.38.98.98 0 0 0-.43-.23 2.4 2.4 0 0 0-.7-.09h-1.04v2.47h1.15c.26 0 .47-.04.63-.1a1.07 1.07 0 0 0 .63-.68c.05-.16.08-.32.08-.49Zm.46 3.46c0-.23-.04-.43-.11-.6a1.14 1.14 0 0 0-.32-.43 1.4 1.4 0 0 0-.52-.27c-.2-.06-.47-.1-.79-.1h-1.2v2.68h1.46a2 2 0 0 0 .6-.08c.18-.05.33-.13.46-.24a1 1 0 0 0 .3-.4c.08-.16.12-.35.12-.56Z" style="fill-rule:nonzero"/>
    <path d="M530.9 169.13c0 .23-.04.39-.12.47-.09.08-.25.12-.48.12-.23 0-.38-.04-.47-.12-.08-.08-.12-.23-.12-.45 0-.23.04-.39.13-.47.08-.08.24-.12.47-.12.23 0 .39.04.47.12.08.08.13.23.13.45Zm-.1 7.07c0 .04-.01.06-.03.08a.18.18 0 0 1-.07.06.53.53 0 0 1-.15.03 1.97 1.97 0 0 1-.63-.03.15.15 0 0 1-.07-.06.15.15 0 0 1-.02-.08v-5.28c0-.03 0-.05.02-.08a.15.15 0 0 1 .07-.06.57.57 0 0 1 .15-.03 1.92 1.92 0 0 1 .63.03l.07.06c.02.03.02.05.02.08v5.28Z" style="fill-rule:nonzero"/>
    <path d="M536.97 173.5c0 .45-.05.86-.15 1.23-.1.36-.25.68-.44.93-.2.26-.43.46-.72.6a2.18 2.18 0 0 1-1.85 0 4.85 4.85 0 0 1-.85-.7v.64c0 .04 0 .06-.02.09a.15.15 0 0 1-.08.05.63.63 0 0 1-.13.03 1.4 1.4 0 0 1-.54-.03c-.03-.01-.06-.03-.07-.05a.2.2 0 0 1-.01-.09v-7.84c0-.03 0-.06.02-.08a.16.16 0 0 1 .07-.06.57.57 0 0 1 .15-.04 1.92 1.92 0 0 1 .62.04c.04.02.06.03.08.06l.02.08v3.16a4.02 4.02 0 0 1 .89-.67 1.86 1.86 0 0 1 .87-.2c.38 0 .7.08.98.23.27.16.5.36.66.62.17.25.3.56.38.9.08.34.12.7.12 1.1Zm-1 .1c0-.27-.03-.53-.07-.78a2.22 2.22 0 0 0-.22-.68c-.1-.2-.23-.35-.4-.47a1.07 1.07 0 0 0-.64-.18 1.34 1.34 0 0 0-.74.23c-.13.08-.26.19-.4.31-.13.13-.27.3-.43.5v2.1a4 4 0 0 0 .77.74c.25.17.5.26.76.26.25 0 .46-.06.63-.18.17-.12.31-.27.42-.47.1-.19.19-.4.24-.65.05-.24.07-.48.07-.73Z" style="fill-rule:nonzero"/>
  </g>
  <g id="leo3-022">
    <path d="m281.47 336.47-67.44-48.62-47.25 33.46 67.45 48.63 47.24-33.47Z" style="fill:#852339;stroke:#000;stroke-width:.8px"/>
    <path d="M220.96 329.23c0 .59-.05 1.12-.14 1.6-.1.48-.25.9-.46 1.24a2.25 2.25 0 0 1-2.1 1.1 2.6 2.6 0 0 1-1.22-.26 1.99 1.99 0 0 1-.79-.76c-.2-.33-.34-.73-.42-1.22a9.8 9.8 0 0 1 .01-3.26c.1-.48.25-.9.46-1.24.21-.35.49-.62.83-.8a2.6 2.6 0 0 1 1.27-.29c.48 0 .89.09 1.22.26.32.16.59.42.78.75.2.33.35.73.43 1.22.09.48.13 1.04.13 1.66Zm-1.04.07a11.51 11.51 0 0 0-.16-1.82 2.6 2.6 0 0 0-.2-.6 1.6 1.6 0 0 0-.3-.4 1.19 1.19 0 0 0-.4-.24 1.6 1.6 0 0 0-.52-.07c-.33 0-.6.08-.8.23-.21.16-.38.38-.5.65s-.2.6-.24.96a10.26 10.26 0 0 0 .02 2.64c.06.4.16.72.28.97.13.25.3.43.49.55.2.1.44.16.72.16.22 0 .41-.03.58-.1.16-.07.3-.17.43-.3.12-.13.21-.3.3-.48a5.15 5.15 0 0 0 .28-1.34c.02-.25.02-.52.02-.8Z" style="fill:#fff;fill-rule:nonzero"/>
    <path d="M226.72 332.62c0 .06 0 .13-.02.18a.54.54 0 0 1-.04.14.2.2 0 0 1-.07.08.18.18 0 0 1-.1.03h-4.2c-.05 0-.1 0-.14-.02a.25.25 0 0 1-.1-.07.28.28 0 0 1-.07-.13 2.05 2.05 0 0 1-.01-.42.5.5 0 0 1 .04-.16 1.14 1.14 0 0 1 .2-.28l1.51-1.56a7.86 7.86 0 0 0 1.34-1.75 2.59 2.59 0 0 0 .28-1.18c0-.17-.03-.33-.09-.48a1.15 1.15 0 0 0-.65-.67c-.16-.07-.34-.1-.55-.1a2 2 0 0 0-.67.1 3.46 3.46 0 0 0-.88.44c-.1.06-.18.1-.22.1a.11.11 0 0 1-.08-.03.17.17 0 0 1-.05-.07.62.62 0 0 1-.04-.14 1.6 1.6 0 0 1 .02-.48c0-.03.02-.06.04-.09a.47.47 0 0 1 .09-.1l.24-.17a4.02 4.02 0 0 1 1.67-.45c.37 0 .7.05.97.16a1.74 1.74 0 0 1 1.1 1.05c.09.24.13.5.13.76a2.94 2.94 0 0 1-.34 1.5c-.14.29-.34.6-.6.94-.26.35-.61.74-1.04 1.19l-1.2 1.25h3.3l.09.03c.03.02.05.04.07.08a.4.4 0 0 1 .05.13 1 1 0 0 1 .02.19Z" style="fill:#fff;fill-rule:nonzero"/>
    <path d="M232.73 332.62c0 .06 0 .13-.02.18a.54.54 0 0 1-.04.14.2.2 0 0 1-.07.08.18.18 0 0 1-.1.03h-4.2c-.05 0-.1 0-.14-.02a.25.25 0 0 1-.1-.07.28.28 0 0 1-.07-.13 2.05 2.05 0 0 1-.01-.42.5.5 0 0 1 .04-.16 1.14 1.14 0 0 1 .2-.28l1.51-1.56a7.86 7.86 0 0 0 1.34-1.75 2.59 2.59 0 0 0 .28-1.18c0-.17-.03-.33-.09-.48a1.15 1.15 0 0 0-.65-.67c-.16-.07-.34-.1-.55-.1a2 2 0 0 0-.67.1 3.46 3.46 0 0 0-.88.44c-.1.06-.17.1-.22.1a.11.11 0 0 1-.08-.03.17.17 0 0 1-.05-.07.62.62 0 0 1-.04-.14 1.6 1.6 0 0 1 .02-.48c0-.03.02-.06.04-.09a.47.47 0 0 1 .09-.1l.24-.17a4.02 4.02 0 0 1 1.67-.45c.37 0 .7.05.97.16a1.74 1.74 0 0 1 1.1 1.05c.09.24.13.5.13.76a2.94 2.94 0 0 1-.34 1.5c-.14.29-.34.6-.6.94-.26.35-.61.74-1.04 1.19l-1.2 1.25h3.3l.09.03c.03.02.05.04.07.08a.4.4 0 0 1 .05.13 1 1 0 0 1 .02.19Z" style="fill:#fff;fill-rule:nonzero"/>
  </g>
  <g id="leo3-020">
    <path d="m281.47 336.47 48.07-34.05-67.89-48.95-47.62 34.38 67.44 48.62Z" style="fill:#fff;stroke:#000;stroke-width:.8px"/>
    <path d="M268.66 288.03c0 .59-.05 1.12-.14 1.6-.1.48-.25.9-.46 1.24a2.25 2.25 0 0 1-2.1 1.1 2.6 2.6 0 0 1-1.22-.26 1.99 1.99 0 0 1-.79-.76c-.2-.33-.34-.73-.42-1.22a9.8 9.8 0 0 1 .01-3.26c.1-.48.25-.9.46-1.24.21-.35.49-.62.83-.8a2.6 2.6 0 0 1 1.27-.29c.48 0 .89.09 1.21.25.33.18.6.43.8.76.2.33.34.73.42 1.22.09.48.13 1.04.13 1.66Zm-1.04.07a11.51 11.51 0 0 0-.16-1.82 2.6 2.6 0 0 0-.2-.6 1.6 1.6 0 0 0-.3-.4 1.19 1.19 0 0 0-.4-.24 1.6 1.6 0 0 0-.51-.07c-.34 0-.6.08-.81.23-.21.16-.38.38-.5.65s-.2.6-.24.96a10.26 10.26 0 0 0 .02 2.64c.06.4.16.72.28.97a1.31 1.31 0 0 0 1.21.72c.22 0 .41-.04.58-.11.17-.07.3-.17.43-.3.12-.13.22-.3.3-.48a5.15 5.15 0 0 0 .29-1.34l.01-.8Z" style="fill-rule:nonzero"/>
    <path d="m274.44 291.42-.01.18a.54.54 0 0 1-.05.14.2.2 0 0 1-.07.08.18.18 0 0 1-.1.03h-4.2c-.05 0-.1 0-.13-.02a.25.25 0 0 1-.11-.07.28.28 0 0 1-.06-.13 2.05 2.05 0 0 1-.01-.42.5.5 0 0 1 .03-.16 1.14 1.14 0 0 1 .2-.28l1.52-1.56c.35-.36.63-.69.84-.97.21-.29.38-.55.49-.78a2.59 2.59 0 0 0 .28-1.18c0-.17-.03-.33-.08-.48a1.15 1.15 0 0 0-.65-.67 1.9 1.9 0 0 0-1.22 0 3.46 3.46 0 0 0-.89.44c-.1.06-.17.1-.22.1a.1.1 0 0 1-.07-.03.17.17 0 0 1-.06-.07.62.62 0 0 1-.03-.14 1.6 1.6 0 0 1 .01-.48l.04-.09a.47.47 0 0 1 .1-.1 2.74 2.74 0 0 1 .68-.38 4.02 4.02 0 0 1 1.23-.24c.37 0 .69.05.97.16a1.74 1.74 0 0 1 1.1 1.05c.08.24.13.5.13.76 0 .25-.03.49-.07.73-.04.24-.13.5-.27.78s-.34.59-.6.93c-.27.35-.62.74-1.05 1.19l-1.2 1.25h3.3l.1.03c.02.02.05.04.07.08a.4.4 0 0 1 .05.13 1 1 0 0 1 .01.19Z" style="fill-rule:nonzero"/>
    <path d="M280.73 288.03c0 .59-.05 1.12-.14 1.6-.1.48-.25.9-.46 1.24a2.25 2.25 0 0 1-2.11 1.1 2.6 2.6 0 0 1-1.2-.26 1.99 1.99 0 0 1-.8-.76c-.2-.33-.34-.73-.42-1.22a9.8 9.8 0 0 1 .01-3.26c.1-.48.25-.9.46-1.24.21-.35.49-.62.83-.8a2.6 2.6 0 0 1 1.27-.29c.48 0 .89.09 1.21.25.33.18.6.43.8.76.2.33.33.73.42 1.22.08.48.13 1.04.13 1.66Zm-1.04.07a11.51 11.51 0 0 0-.16-1.82 2.6 2.6 0 0 0-.2-.6 1.6 1.6 0 0 0-.3-.4 1.19 1.19 0 0 0-.4-.24 1.6 1.6 0 0 0-.52-.07c-.33 0-.6.08-.8.23-.21.16-.38.38-.5.65s-.2.6-.24.96a10.26 10.26 0 0 0 .02 2.64c.06.4.16.72.28.97.13.25.3.43.49.54.2.12.44.18.72.18.22 0 .41-.04.58-.11.16-.07.3-.17.43-.3.12-.13.21-.3.3-.48a5.15 5.15 0 0 0 .28-1.34l.02-.8Z" style="fill-rule:nonzero"/>
    <path d="M252.78 305.91c.03.09.05.16.05.21 0 .05-.01.1-.04.12a.29.29 0 0 1-.16.05 2.78 2.78 0 0 1-.75-.02.17.17 0 0 1-.08-.06.48.48 0 0 1-.05-.09l-.65-1.85h-3.16l-.62 1.83a.31.31 0 0 1-.05.09.22.22 0 0 1-.09.06.52.52 0 0 1-.15.04 2.4 2.4 0 0 1-.55 0c-.07-.01-.12-.03-.15-.06s-.05-.06-.04-.12c0-.05.02-.12.05-.2l2.54-7.06a.3.3 0 0 1 .07-.1.26.26 0 0 1 .1-.07 3.85 3.85 0 0 1 .99 0 .25.25 0 0 1 .19.17l2.55 7.06Zm-3.27-6.23-1.32 3.79h2.65l-1.33-3.79Z" style="fill-rule:nonzero"/>
    <path d="M258.26 306.12c0 .03 0 .06-.02.08a.17.17 0 0 1-.07.06.52.52 0 0 1-.14.03 1.51 1.51 0 0 1-.57-.03.14.14 0 0 1-.06-.06.16.16 0 0 1-.02-.08v-.7c-.3.34-.6.58-.9.73a2.03 2.03 0 0 1-1.78.05 1.55 1.55 0 0 1-.58-.47c-.15-.2-.26-.44-.32-.7-.06-.28-.1-.6-.1-.99v-3.2c0-.03 0-.06.02-.08a.19.19 0 0 1 .08-.06.48.48 0 0 1 .16-.03 2.54 2.54 0 0 1 .61.03.2.2 0 0 1 .08.06c.02.02.03.05.03.08v3.08c0 .3.02.55.06.74.05.18.12.34.21.47.1.13.2.24.35.3.14.08.3.12.5.12.24 0 .48-.09.72-.26s.5-.43.76-.76v-3.7a.1.1 0 0 1 .03-.07.19.19 0 0 1 .07-.06.47.47 0 0 1 .15-.03 2.52 2.52 0 0 1 .62.03c.04.02.07.04.08.06.02.02.03.05.03.08v5.28Z" style="fill-rule:nonzero"/>
    <path d="M263.35 298.67a1.07 1.07 0 0 1-.04.28c0 .03-.02.05-.03.06a.1.1 0 0 1-.06.01c-.03 0-.06 0-.1-.02a2.4 2.4 0 0 0-.36-.12 1.3 1.3 0 0 0-.28-.03.88.88 0 0 0-.37.07.57.57 0 0 0-.25.22c-.06.1-.1.23-.13.4a3.5 3.5 0 0 0-.04.57v.58h1.18c.03 0 .05 0 .07.02.03.01.05.03.06.07l.05.12a1 1 0 0 1 .01.2c0 .13-.02.23-.05.3-.04.06-.09.1-.14.1h-1.18v4.63a.1.1 0 0 1-.03.07.19.19 0 0 1-.08.06.58.58 0 0 1-.15.04 1.91 1.91 0 0 1-.62-.04.18.18 0 0 1-.07-.06.13.13 0 0 1-.03-.07v-4.64h-.74c-.07 0-.11-.03-.15-.1a1.24 1.24 0 0 1-.03-.5c0-.04.02-.08.04-.11a.14.14 0 0 1 .05-.07.17.17 0 0 1 .09-.02h.74v-.55c0-.37.04-.69.1-.95.07-.26.18-.48.32-.65.14-.17.32-.29.53-.37a2.14 2.14 0 0 1 1.15-.08c.13.02.23.05.3.08l.14.08a.3.3 0 0 1 .06.1c.02.03.03.07.04.13v.19Z" style="fill-rule:nonzero"/>
    <path d="M268.7 303.25c0 .15-.04.26-.12.33a.4.4 0 0 1-.26.1h-3.48c0 .29.03.55.09.79.06.23.16.43.3.6.13.17.31.3.53.39.22.09.49.14.8.14a3.23 3.23 0 0 0 1.2-.2l.35-.14a.47.47 0 0 1 .2-.07l.08.02.05.07.02.11a1.75 1.75 0 0 1 0 .41.26.26 0 0 1-.09.15 2.8 2.8 0 0 1-.6.25 5.66 5.66 0 0 1-1.3.18c-.43 0-.8-.06-1.14-.18a2.12 2.12 0 0 1-1.32-1.44 4.17 4.17 0 0 1-.18-1.26c0-.45.06-.86.18-1.22s.29-.67.5-.92c.23-.25.5-.45.81-.58.31-.14.66-.2 1.05-.2.42 0 .77.06 1.06.2a2.02 2.02 0 0 1 1.13 1.32c.1.3.14.63.14.97v.18Zm-.98-.29c.01-.5-.1-.9-.34-1.2-.24-.28-.59-.43-1.06-.43a1.36 1.36 0 0 0-1.09.5c-.12.14-.21.32-.28.51-.07.2-.1.4-.11.62h2.88Z" style="fill-rule:nonzero"/>
    <path d="M274.72 306.12c0 .03 0 .06-.02.08a.19.19 0 0 1-.08.06.53.53 0 0 1-.14.03 1.91 1.91 0 0 1-.63-.03.18.18 0 0 1-.07-.06.14.14 0 0 1-.03-.08v-3.1c0-.3-.02-.54-.07-.72a1.5 1.5 0 0 0-.2-.48.9.9 0 0 0-.35-.3c-.14-.07-.31-.1-.5-.1-.24 0-.48.08-.73.25-.24.17-.5.43-.76.76v3.7c0 .02 0 .05-.02.07a.19.19 0 0 1-.08.06.54.54 0 0 1-.15.03 1.97 1.97 0 0 1-.62-.03.15.15 0 0 1-.08-.06.15.15 0 0 1-.02-.08v-5.28c0-.03 0-.06.02-.08a.16.16 0 0 1 .07-.06.39.39 0 0 1 .13-.04 2.08 2.08 0 0 1 .44 0c.05.01.1.02.13.04l.06.06c.02.02.03.05.03.08v.7c.3-.34.59-.58.88-.74a2 2 0 0 1 .9-.23 2 2 0 0 1 .9.18c.23.12.43.28.57.48.15.2.26.44.32.7.07.27.1.6.1.97v3.22Z" style="fill-rule:nonzero"/>
    <path d="M278.94 305.74c0 .1-.01.2-.03.26a.3.3 0 0 1-.07.15.45.45 0 0 1-.14.09l-.21.07a3.07 3.07 0 0 1-.53.06c-.27 0-.5-.04-.7-.1-.2-.08-.36-.2-.48-.34a1.35 1.35 0 0 1-.28-.56 3.27 3.27 0 0 1-.08-.8v-3.08h-.74c-.06 0-.1-.03-.14-.1a.66.66 0 0 1-.06-.3 1 1 0 0 1 .02-.19c0-.05.02-.1.04-.13a.14.14 0 0 1 .06-.06.19.19 0 0 1 .08-.03h.74v-1.25c0-.03 0-.06.02-.08a.18.18 0 0 1 .07-.06.5.5 0 0 1 .16-.04 1.91 1.91 0 0 1 .62.04.2.2 0 0 1 .07.06c.02.02.03.05.03.08v1.25h1.35l.08.02.07.07a.4.4 0 0 1 .04.13v.19c0 .14-.01.24-.05.3-.03.07-.08.1-.14.1h-1.35v2.95c0 .36.05.64.16.82.1.19.3.28.58.28.09 0 .17 0 .24-.03a1.72 1.72 0 0 0 .33-.1.25.25 0 0 1 .1-.03l.06.01c.02.01.03.03.04.06l.03.1v.19Z" style="fill-rule:nonzero"/>
    <path d="M284.5 306.12c0 .03 0 .06-.02.08a.19.19 0 0 1-.08.06.53.53 0 0 1-.14.03 1.91 1.91 0 0 1-.63-.03.18.18 0 0 1-.07-.06.13.13 0 0 1-.03-.08v-3.1c0-.3-.02-.54-.07-.72a1.5 1.5 0 0 0-.2-.48.9.9 0 0 0-.35-.3c-.15-.07-.31-.1-.5-.1-.24 0-.48.08-.73.25-.24.17-.5.43-.76.76v3.7c0 .02 0 .05-.02.07a.19.19 0 0 1-.08.06.54.54 0 0 1-.14.03 1.97 1.97 0 0 1-.63-.03.15.15 0 0 1-.08-.06.15.15 0 0 1-.02-.08v-7.84c0-.03 0-.06.02-.08a.16.16 0 0 1 .08-.06.57.57 0 0 1 .15-.04 1.91 1.91 0 0 1 .62.04c.04.01.06.03.08.06l.02.08v3.16c.28-.3.56-.51.84-.65a2 2 0 0 1 1.74-.03c.24.11.44.27.59.47.15.2.25.44.32.7.06.27.1.6.1.97v3.22Z" style="fill-rule:nonzero"/>
    <path d="M290.66 306.13c0 .05-.02.08-.05.1a.35.35 0 0 1-.13.06 1.2 1.2 0 0 1-.24.01l-.24-.01a.28.28 0 0 1-.13-.06c-.03-.02-.04-.06-.04-.1v-.53c-.23.25-.5.44-.78.58-.28.13-.58.2-.9.2-.27 0-.53-.03-.75-.1a1.63 1.63 0 0 1-.58-.32c-.15-.14-.28-.3-.37-.5a1.84 1.84 0 0 1 .05-1.46c.12-.22.3-.4.52-.55.23-.14.51-.25.84-.32.33-.08.7-.11 1.1-.11h.74v-.41a2 2 0 0 0-.07-.54.93.93 0 0 0-.2-.4.88.88 0 0 0-.38-.23 2.24 2.24 0 0 0-1.2 0 3.4 3.4 0 0 0-.86.38.49.49 0 0 1-.22.09c-.03 0-.06 0-.08-.02a.2.2 0 0 1-.06-.07.37.37 0 0 1-.04-.13 1.01 1.01 0 0 1 0-.4.34.34 0 0 1 .11-.15c.05-.05.14-.1.27-.18a4.1 4.1 0 0 1 1.6-.38c.38 0 .7.04.98.13a1.47 1.47 0 0 1 1 1c.07.24.11.53.11.86v3.56Zm-.96-2.41h-.83c-.27 0-.5.02-.7.06a1.5 1.5 0 0 0-.48.2.83.83 0 0 0-.38.75c0 .27.09.49.26.65.18.16.42.24.74.24.25 0 .49-.06.7-.2.22-.12.45-.32.69-.58v-1.12Z" style="fill-rule:nonzero"/>
    <path d="M292.92 306.12c0 .03-.01.06-.03.08a.19.19 0 0 1-.07.06.54.54 0 0 1-.15.03 1.97 1.97 0 0 1-.63-.03.15.15 0 0 1-.07-.06.15.15 0 0 1-.02-.08v-7.84c0-.03 0-.06.02-.08a.16.16 0 0 1 .07-.06.57.57 0 0 1 .15-.04 1.91 1.91 0 0 1 .63.04c.03.01.06.03.07.06.02.02.03.05.03.08v7.84Z" style="fill-rule:nonzero"/>
    <path d="M297.67 305.74c0 .1 0 .2-.02.26a.3.3 0 0 1-.07.15.45.45 0 0 1-.14.09l-.22.07a3.07 3.07 0 0 1-.53.06c-.27 0-.5-.04-.7-.1-.2-.08-.36-.2-.48-.34a1.35 1.35 0 0 1-.27-.56 3.27 3.27 0 0 1-.09-.8v-3.08h-.74c-.06 0-.1-.03-.14-.1a.66.66 0 0 1-.05-.3 1 1 0 0 1 .01-.19c.01-.05.02-.1.04-.13a.14.14 0 0 1 .06-.06.19.19 0 0 1 .09-.03h.73v-1.25c0-.03 0-.06.02-.08a.18.18 0 0 1 .08-.06.5.5 0 0 1 .15-.04 1.91 1.91 0 0 1 .62.04.2.2 0 0 1 .08.06l.02.08v1.25h1.36l.08.02.06.07a.4.4 0 0 1 .04.13l.01.19a.7.7 0 0 1-.05.3c-.04.07-.08.1-.14.1h-1.36v2.95c0 .36.05.64.16.82.1.19.3.28.58.28.09 0 .17 0 .24-.03a1.72 1.72 0 0 0 .33-.1.26.26 0 0 1 .1-.03l.06.01c.02.01.03.03.04.06l.03.1.01.19Z" style="fill-rule:nonzero"/>
  </g>
  <g id="leo3-019">
    <path d="m329.54 302.42 42.3-29.95-66.78-48.98-43.41 29.98 67.89 48.95Z" style="fill:#fff;stroke:#000;stroke-width:.8px"/>
    <path d="M313.67 256a8.5 8.5 0 0 1-.14 1.58c-.1.49-.25.9-.46 1.24a2.25 2.25 0 0 1-2.1 1.1c-.48 0-.88-.1-1.2-.26a1.98 1.98 0 0 1-.8-.75c-.2-.33-.34-.74-.42-1.22a9.77 9.77 0 0 1 .01-3.25c.1-.49.25-.9.46-1.25.21-.34.49-.61.83-.8.35-.19.77-.28 1.27-.28.48 0 .88.08 1.2.25.33.17.6.42.8.75.2.33.34.74.42 1.22.08.48.13 1.04.13 1.66Zm-1.04.06a11.5 11.5 0 0 0-.16-1.81 2.61 2.61 0 0 0-.2-.6c-.08-.17-.19-.3-.3-.41-.12-.1-.25-.19-.4-.23a1.66 1.66 0 0 0-.51-.08c-.33 0-.6.08-.81.24-.2.15-.37.37-.49.64-.12.28-.2.6-.24.96a10.2 10.2 0 0 0 .02 2.63c.06.4.15.72.28.97.13.25.29.43.49.55a1.67 1.67 0 0 0 1.29.07c.17-.08.31-.18.43-.31s.22-.29.3-.47a5.26 5.26 0 0 0 .29-1.33l.01-.82Z" style="fill-rule:nonzero"/>
    <path d="M319.44 259.4c0 .08 0 .14-.02.19a.4.4 0 0 1-.04.12.19.19 0 0 1-.07.07.17.17 0 0 1-.08.02h-3.96c-.03 0-.05 0-.08-.02a.22.22 0 0 1-.06-.07.37.37 0 0 1-.05-.12.83.83 0 0 1-.02-.19c0-.07 0-.13.02-.18 0-.05.02-.1.04-.13a.21.21 0 0 1 .06-.07.15.15 0 0 1 .09-.03h1.58v-5.77l-1.46.88a.63.63 0 0 1-.18.07c-.05 0-.08 0-.11-.03-.03-.02-.05-.06-.06-.12a1.37 1.37 0 0 1 .02-.51.23.23 0 0 1 .05-.09.49.49 0 0 1 .09-.07l1.74-1.11a.2.2 0 0 1 .06-.03.73.73 0 0 1 .21-.04 4.24 4.24 0 0 1 .41 0l.15.04c.04.01.06.03.07.05l.02.07v6.66h1.37l.09.03a.2.2 0 0 1 .06.07l.05.13.01.18Z" style="fill-rule:nonzero"/>
    <path d="M325.5 255.71a8.55 8.55 0 0 1-.27 1.97c-.09.3-.22.6-.37.87a2.7 2.7 0 0 1-1.46 1.19 3.47 3.47 0 0 1-1.64.14 4.08 4.08 0 0 1-.74-.18.7.7 0 0 1-.2-.1.3.3 0 0 1-.08-.15 1.84 1.84 0 0 1-.02-.45l.03-.11a.1.1 0 0 1 .05-.06.19.19 0 0 1 .08-.01c.05 0 .1.01.18.04a4.53 4.53 0 0 0 .72.2c.16.02.34.04.54.04a1.9 1.9 0 0 0 1.64-.8 3 3 0 0 0 .39-.87c.08-.32.13-.66.14-1.02a3.25 3.25 0 0 1-1.74.46 3 3 0 0 1-1.07-.17 1.76 1.76 0 0 1-.69-.47c-.17-.2-.3-.44-.37-.71a3.33 3.33 0 0 1 .03-1.86 2.18 2.18 0 0 1 1.25-1.35c.32-.13.7-.2 1.15-.2.31 0 .6.04.84.12a1.9 1.9 0 0 1 1.09.89c.13.21.23.45.3.72a5.5 5.5 0 0 1 .21 1.87Zm-1.03-.11c0-.5-.04-.92-.1-1.26a2.52 2.52 0 0 0-.3-.83 1.18 1.18 0 0 0-.47-.46c-.19-.1-.4-.14-.65-.14s-.47.05-.65.14c-.18.09-.33.21-.44.37-.12.15-.2.33-.26.52a2.56 2.56 0 0 0 0 1.24 1.08 1.08 0 0 0 .67.8c.17.06.38.1.64.1a2.76 2.76 0 0 0 1.56-.48Z" style="fill-rule:nonzero"/>
    <path d="M315.02 268.87c0 .38-.07.72-.2 1.02a2.18 2.18 0 0 1-1.38 1.28 3.7 3.7 0 0 1-1.21.18h-.86v2.73c0 .03-.01.06-.03.08a.18.18 0 0 1-.08.05 1.63 1.63 0 0 1-.8 0 .16.16 0 0 1-.08-.05.14.14 0 0 1-.02-.08v-7c0-.15.04-.27.12-.33.08-.07.18-.1.28-.1h1.62a5.11 5.11 0 0 1 1 .1 2.2 2.2 0 0 1 1.18.71c.14.18.26.39.34.63.08.23.12.5.12.78Zm-1.06.08c0-.3-.06-.56-.18-.77a1.2 1.2 0 0 0-.43-.47c-.17-.1-.34-.16-.52-.19a3.6 3.6 0 0 0-.53-.04h-.94v3.04h.91c.3 0 .56-.04.76-.12a1.37 1.37 0 0 0 .82-.82c.07-.2.1-.4.1-.63Z" style="fill-rule:nonzero"/>
    <path d="M318.2 272.32c0 .3-.03.58-.09.83s-.15.46-.28.64c-.13.17-.3.3-.52.4a2 2 0 0 1-1.14.12 1.98 1.98 0 0 1-.53-.16.51.51 0 0 1-.13-.09.38.38 0 0 1-.09-.15 2.24 2.24 0 0 1-.02-.52c.01-.06.02-.1.04-.13a.15.15 0 0 1 .05-.07.15.15 0 0 1 .08-.03c.03 0 .07.02.12.05a3.04 3.04 0 0 0 .42.2 1 1 0 0 0 .31.04c.13 0 .25-.02.34-.05.1-.04.17-.1.24-.19.06-.09.1-.21.14-.37.03-.16.04-.36.04-.62v-5.43a.1.1 0 0 1 .03-.07.17.17 0 0 1 .08-.06l.15-.04a2.03 2.03 0 0 1 .64.04c.04.01.07.03.08.06a.1.1 0 0 1 .03.07v5.53Z" style="fill-rule:nonzero"/>
    <path d="M324.2 272.1a2.04 2.04 0 0 1-.74 1.66c-.24.2-.52.34-.83.44a3.4 3.4 0 0 1-1.72.08 3.92 3.92 0 0 1-1.01-.35c-.12-.07-.2-.13-.24-.17a.43.43 0 0 1-.1-.18 1.58 1.58 0 0 1-.02-.5c0-.06.02-.1.03-.14a.14.14 0 0 1 .06-.08.17.17 0 0 1 .08-.02c.06 0 .14.04.24.1a3.48 3.48 0 0 0 .94.44 2.57 2.57 0 0 0 1.37.01c.18-.06.34-.14.47-.25.13-.1.23-.23.3-.4.07-.15.1-.32.1-.52a1 1 0 0 0-.14-.56c-.1-.15-.23-.28-.39-.4a3.35 3.35 0 0 0-.54-.31l-.63-.3a4.7 4.7 0 0 1-1.18-.75 1.91 1.91 0 0 1-.54-1.37 2 2 0 0 1 .18-.85c.11-.25.27-.46.48-.63.2-.16.45-.3.73-.38a3.07 3.07 0 0 1 1.9.03 2.76 2.76 0 0 1 .64.3.4.4 0 0 1 .07.1l.03.08.02.12a2.22 2.22 0 0 1-.03.5.16.16 0 0 1-.05.09.11.11 0 0 1-.08.03.47.47 0 0 1-.2-.09l-.33-.18a2.93 2.93 0 0 0-.48-.19 2.04 2.04 0 0 0-1.16 0c-.16.06-.29.13-.39.23a.9.9 0 0 0-.23.33 1.1 1.1 0 0 0 .07.96c.1.15.23.28.4.4.16.12.34.22.55.32l.63.3c.22.1.43.2.63.32a2.38 2.38 0 0 1 .96 1c.1.22.14.48.14.78Z" style="fill-rule:nonzero"/>
  </g>
  <g id="leo3-hausmeister">
    <path d="m566.98 169.55 29.33-21.5-41.36-29.82-29.73 21.2 41.76 30.12Z" style="fill:#fff;stroke:#000;stroke-width:.8px"/>
    <path d="M553.37 141c0 .02 0 .04-.02.06a.13.13 0 0 1-.07.05 1.3 1.3 0 0 1-.64 0l-.07-.05a.13.13 0 0 1-.02-.06v-2.74h-2.8V141l-.03.06a.13.13 0 0 1-.07.05 1.52 1.52 0 0 1-.65 0l-.06-.05a.13.13 0 0 1-.02-.06v-5.93c0-.03 0-.05.02-.07a.13.13 0 0 1 .07-.04 1.36 1.36 0 0 1 .65 0c.03 0 .05.02.06.04l.02.07v2.47h2.81v-2.47l.02-.07a.12.12 0 0 1 .07-.04 1.34 1.34 0 0 1 .64 0c.03 0 .06.02.07.04l.02.07V141Z" style="fill-rule:nonzero"/>
    <path d="M558.07 141a.1.1 0 0 1-.04.1.26.26 0 0 1-.1.03.96.96 0 0 1-.2.02c-.08 0-.15 0-.2-.02a.22.22 0 0 1-.1-.04c-.03-.02-.04-.05-.04-.09v-.42c-.19.2-.4.35-.63.46-.23.12-.47.17-.73.17a1.9 1.9 0 0 1-.61-.09 1.32 1.32 0 0 1-.47-.25 1.14 1.14 0 0 1-.3-.41c-.07-.17-.1-.35-.1-.56 0-.24.04-.45.14-.63s.24-.32.42-.44c.19-.12.41-.2.68-.27.27-.06.57-.08.9-.08h.6v-.34c0-.16-.02-.31-.06-.44a.76.76 0 0 0-.16-.31.74.74 0 0 0-.3-.2 1.82 1.82 0 0 0-.98 0 2.7 2.7 0 0 0-.7.31.4.4 0 0 1-.18.07l-.07-.01a.17.17 0 0 1-.05-.06.31.31 0 0 1-.03-.1v-.13l.01-.19a.27.27 0 0 1 .08-.13.9.9 0 0 1 .22-.15l.37-.15a3.44 3.44 0 0 1 .93-.16c.31 0 .58.03.8.1.2.07.38.18.52.31.13.14.23.3.29.5.06.2.09.44.09.7v2.9Zm-.78-1.96h-.68c-.22 0-.4.02-.56.06-.16.04-.3.09-.4.16a.67.67 0 0 0-.3.6c0 .23.07.4.21.54.14.13.34.2.6.2.2 0 .4-.06.57-.16.18-.1.36-.27.56-.48v-.92Z" style="fill-rule:nonzero"/>
    <path d="m563.75 141-.01.06a.14.14 0 0 1-.07.05.44.44 0 0 1-.1.03h-.36a.38.38 0 0 1-.1-.03.12.12 0 0 1-.06-.05.13.13 0 0 1-.01-.06v-.57c-.25.27-.5.47-.73.6a1.74 1.74 0 0 1-1.45.04c-.2-.1-.35-.23-.48-.4a1.7 1.7 0 0 1-.26-.56 3.42 3.42 0 0 1-.08-.8v-2.6l.02-.07a.15.15 0 0 1 .07-.05.41.41 0 0 1 .12-.03 2.02 2.02 0 0 1 .5.03l.07.05.02.07v2.5c0 .25.01.45.05.6.04.15.1.28.17.39.07.1.17.19.28.25.12.05.25.08.4.08a1 1 0 0 0 .6-.2 4 4 0 0 0 .62-.62v-3l.01-.07c.01-.02.03-.03.07-.05a.4.4 0 0 1 .12-.03 2.03 2.03 0 0 1 .5.03.2.2 0 0 1 .07.05.1.1 0 0 1 .02.07v4.3Z" style="fill-rule:nonzero"/>
    <path d="M568 139.83c0 .22-.04.42-.12.59-.08.17-.2.32-.35.43-.15.12-.32.21-.53.27a2.45 2.45 0 0 1-1.12.06 2.48 2.48 0 0 1-.65-.2.82.82 0 0 1-.17-.12.28.28 0 0 1-.07-.13.9.9 0 0 1-.03-.23.93.93 0 0 1 .03-.26.11.11 0 0 1 .05-.05.1.1 0 0 1 .06-.02c.03 0 .08.02.15.07a3.06 3.06 0 0 0 .6.28 1.57 1.57 0 0 0 .84.02.8.8 0 0 0 .28-.13.56.56 0 0 0 .19-.21.68.68 0 0 0 .06-.3.5.5 0 0 0-.09-.31.89.89 0 0 0-.25-.22c-.1-.06-.21-.12-.34-.17a34.64 34.64 0 0 1-.79-.34 1.55 1.55 0 0 1-.35-.25 1.12 1.12 0 0 1-.34-.84 1.22 1.22 0 0 1 .4-.9c.13-.11.29-.2.49-.27a2.04 2.04 0 0 1 1.02-.08 2.27 2.27 0 0 1 .55.17l.15.08.07.07a.2.2 0 0 1 .02.06 1.43 1.43 0 0 1 .02.22v.14l-.03.1a.13.13 0 0 1-.04.06.09.09 0 0 1-.05.01.36.36 0 0 1-.13-.05 1.76 1.76 0 0 0-.51-.22 1.38 1.38 0 0 0-.75-.01.67.67 0 0 0-.25.13.56.56 0 0 0-.15.2.62.62 0 0 0-.05.24c0 .13.03.23.1.32a.9.9 0 0 0 .24.22c.1.06.22.12.35.17l.4.16c.13.05.27.11.4.18.13.07.25.15.35.24a1.1 1.1 0 0 1 .34.82Z" style="fill-rule:nonzero"/>
    <path d="M570.96 138.71c0 .12-.01.21-.04.26a.13.13 0 0 1-.12.07h-2a.14.14 0 0 1-.13-.07.55.55 0 0 1-.04-.26c0-.12.01-.2.04-.25a.14.14 0 0 1 .13-.08h2l.07.02c.02 0 .03.03.05.05l.03.1.01.16Z" style="fill-rule:nonzero"/>
    <path d="M551.32 153.03a.1.1 0 0 1-.02.06.16.16 0 0 1-.06.05.46.46 0 0 1-.12.03 1.44 1.44 0 0 1-.5-.03.15.15 0 0 1-.07-.04.1.1 0 0 1-.02-.07v-2.61c0-.18-.02-.35-.05-.5a1.14 1.14 0 0 0-.15-.38.7.7 0 0 0-.27-.25.8.8 0 0 0-.38-.09.9.9 0 0 0-.55.21 3.7 3.7 0 0 0-.6.62v3a.1.1 0 0 1-.02.06.16.16 0 0 1-.06.05.49.49 0 0 1-.13.03 1.44 1.44 0 0 1-.5-.03.14.14 0 0 1-.06-.05.12.12 0 0 1-.02-.06v-2.61c0-.18-.02-.35-.05-.5a1.22 1.22 0 0 0-.16-.38.71.71 0 0 0-.64-.34.9.9 0 0 0-.55.21c-.19.14-.39.35-.6.62v3a.1.1 0 0 1-.02.06.16.16 0 0 1-.07.05.45.45 0 0 1-.12.03 1.5 1.5 0 0 1-.5-.03.14.14 0 0 1-.06-.05.11.11 0 0 1-.02-.06v-4.3l.01-.06a.13.13 0 0 1 .06-.05.33.33 0 0 1 .11-.03 1.66 1.66 0 0 1 .46.03l.05.05.02.06v.57c.24-.27.48-.47.7-.6.23-.12.46-.18.7-.18.17 0 .33.02.47.06a1.16 1.16 0 0 1 .65.44c.08.1.14.22.2.35a4.48 4.48 0 0 1 .77-.66 1.29 1.29 0 0 1 .69-.2c.28 0 .51.06.7.16.19.1.34.22.46.38.11.17.2.36.25.57.04.22.07.45.07.7v2.71Z" style="fill-rule:nonzero"/>
    <path d="M556.88 150.7c0 .12-.03.2-.09.26a.32.32 0 0 1-.21.08h-2.83c0 .24.02.46.07.65s.13.35.24.49c.11.13.26.24.44.31.17.08.4.11.65.11a2.72 2.72 0 0 0 .96-.16 4.87 4.87 0 0 0 .46-.16c.02 0 .04 0 .06.02a.1.1 0 0 1 .04.05.3.3 0 0 1 .02.09 1.18 1.18 0 0 1 0 .33l-.03.07a.22.22 0 0 1-.04.05 2.2 2.2 0 0 1-.49.2 4.92 4.92 0 0 1-1.05.15c-.36 0-.66-.05-.93-.15a1.72 1.72 0 0 1-1.08-1.16c-.1-.3-.14-.64-.14-1.03 0-.36.05-.7.14-.99a1.9 1.9 0 0 1 1.07-1.22c.25-.11.54-.17.85-.17.34 0 .63.06.86.16a1.62 1.62 0 0 1 .92 1.09c.08.24.11.5.11.79v.14Zm-.79-.24c.01-.41-.08-.74-.27-.97-.2-.24-.49-.36-.87-.36-.2 0-.36.04-.51.12a1.1 1.1 0 0 0-.37.29 1.7 1.7 0 0 0-.33.92h2.35Z" style="fill-rule:nonzero"/>
    <path d="M558.6 147.28c0 .19-.04.31-.1.38-.08.07-.2.1-.4.1-.18 0-.3-.03-.37-.1-.07-.06-.1-.19-.1-.37s.03-.3.1-.37.2-.1.38-.1c.19 0 .32.03.38.1.07.06.1.18.1.36Zm-.1 5.75a.1.1 0 0 1-.01.06.16.16 0 0 1-.07.05.45.45 0 0 1-.11.03 1.5 1.5 0 0 1-.51-.03.14.14 0 0 1-.06-.04.11.11 0 0 1-.02-.07v-4.3c0-.02 0-.04.02-.06a.12.12 0 0 1 .06-.04.46.46 0 0 1 .12-.03 1.64 1.64 0 0 1 .5.03c.03 0 .06.02.07.04a.1.1 0 0 1 .02.07v4.3Z" style="fill-rule:nonzero"/>
    <path d="M562.66 151.86a1.21 1.21 0 0 1-.47 1.02c-.15.12-.33.21-.53.27a2.45 2.45 0 0 1-1.12.06 2.48 2.48 0 0 1-.65-.21.82.82 0 0 1-.17-.1.28.28 0 0 1-.08-.14.9.9 0 0 1-.02-.23.93.93 0 0 1 .03-.26.11.11 0 0 1 .04-.05.1.1 0 0 1 .06-.02c.04 0 .09.02.16.06a3.06 3.06 0 0 0 .6.29 1.57 1.57 0 0 0 .84.02.8.8 0 0 0 .28-.13.56.56 0 0 0 .19-.21.68.68 0 0 0 .06-.3.5.5 0 0 0-.1-.31.89.89 0 0 0-.24-.22c-.1-.06-.21-.12-.34-.17a34.64 34.64 0 0 1-.8-.34 1.55 1.55 0 0 1-.34-.25 1.12 1.12 0 0 1-.34-.84 1.22 1.22 0 0 1 .4-.9c.13-.11.29-.2.48-.27a2.04 2.04 0 0 1 1.03-.08 2.27 2.27 0 0 1 .55.16l.15.1.06.06a.2.2 0 0 1 .03.06 1.43 1.43 0 0 1 .02.22v.14l-.03.1a.13.13 0 0 1-.04.06.09.09 0 0 1-.06.01l-.12-.05a1.76 1.76 0 0 0-.51-.22 1.38 1.38 0 0 0-.75-.01.67.67 0 0 0-.26.13.56.56 0 0 0-.14.2.62.62 0 0 0-.05.24c0 .13.03.23.1.31a.9.9 0 0 0 .24.23c.1.06.22.12.35.17l.4.16c.13.05.27.11.4.18.13.06.25.15.35.24a1.1 1.1 0 0 1 .34.82Z" style="fill-rule:nonzero"/>
    <path d="m566.68 152.72-.01.22a.25.25 0 0 1-.06.12.37.37 0 0 1-.12.07 2.77 2.77 0 0 1-.6.1c-.22 0-.41-.03-.57-.09a.93.93 0 0 1-.4-.26c-.1-.12-.17-.28-.21-.46-.05-.18-.07-.4-.07-.64v-2.52h-.6c-.05 0-.1-.02-.12-.07a.54.54 0 0 1-.04-.25.73.73 0 0 1 .04-.25.12.12 0 0 1 .05-.06.14.14 0 0 1 .07-.02h.6v-1.02l.01-.06a.13.13 0 0 1 .07-.05.44.44 0 0 1 .12-.03 1.44 1.44 0 0 1 .5.03.1.1 0 0 1 .06.05.1.1 0 0 1 .02.06v1.02h1.1c.03 0 .06 0 .07.02.02 0 .04.03.05.06.02.02.03.06.03.1l.01.15c0 .12-.01.2-.04.25-.03.05-.06.07-.11.07h-1.1v2.4c0 .3.04.52.13.67.08.15.24.23.47.23.07 0 .13 0 .2-.02a1.49 1.49 0 0 0 .26-.1.22.22 0 0 1 .09-.01.1.1 0 0 1 .04 0l.03.05.02.1.01.13Z" style="fill-rule:nonzero"/>
    <path d="M571.13 150.7c0 .12-.03.2-.1.26a.32.32 0 0 1-.21.08h-2.83c0 .24.02.46.07.65s.13.35.24.49c.11.13.26.24.44.31.18.08.4.11.66.11a2.72 2.72 0 0 0 .96-.16 4.87 4.87 0 0 0 .46-.16c.02 0 .04 0 .06.02a.1.1 0 0 1 .04.05.3.3 0 0 1 .02.09 1.18 1.18 0 0 1-.01.33l-.02.07a.22.22 0 0 1-.05.05 2.2 2.2 0 0 1-.49.2 4.92 4.92 0 0 1-1.05.15c-.35 0-.66-.05-.93-.15a1.72 1.72 0 0 1-1.08-1.16c-.09-.3-.13-.64-.13-1.03 0-.36.04-.7.14-.99.1-.3.23-.54.41-.75.18-.2.4-.36.65-.47.26-.11.54-.17.86-.17.33 0 .62.06.86.16a1.62 1.62 0 0 1 .92 1.09c.07.24.1.5.1.79v.14Zm-.8-.24c.01-.41-.08-.74-.27-.97-.2-.24-.48-.36-.86-.36-.2 0-.37.04-.52.12a1.1 1.1 0 0 0-.37.29c-.1.12-.17.26-.23.42a2.1 2.1 0 0 0-.09.5h2.35Z" style="fill-rule:nonzero"/>
    <path d="M575.2 149.02a2.86 2.86 0 0 1-.02.29.17.17 0 0 1-.03.06l-.06.02c-.03 0-.06 0-.1-.02a2.46 2.46 0 0 0-.28-.09.84.84 0 0 0-.18-.02.6.6 0 0 0-.24.05.94.94 0 0 0-.24.16 6.43 6.43 0 0 0-.57.74v2.82a.1.1 0 0 1-.02.07.16.16 0 0 1-.06.04.45.45 0 0 1-.12.03 1.5 1.5 0 0 1-.5-.03.14.14 0 0 1-.07-.04.11.11 0 0 1-.02-.07v-4.3c0-.02 0-.04.02-.06a.13.13 0 0 1 .06-.05.33.33 0 0 1 .1-.02 1.66 1.66 0 0 1 .46.02l.06.05.02.07v.62c.11-.17.23-.31.33-.42.1-.1.2-.2.3-.25a.9.9 0 0 1 .26-.13 1.07 1.07 0 0 1 .42-.03 1.5 1.5 0 0 1 .32.07c.05.01.08.03.1.05l.04.04.01.06.01.1v.17Z" style="fill-rule:nonzero"/>
  </g>
  <g id="leo3-wc0">
    <path d="m511.52 149.08 43.43-30.85-17.71-12.77-43.53 30.84 17.81 12.78Z" style="fill:#fff;stroke:#000;stroke-width:.8px"/>
    <path d="M524.75 130.03a.23.23 0 0 1-.05.1.23.23 0 0 1-.1.06 2.29 2.29 0 0 1-.76 0 .2.2 0 0 1-.1-.06.26.26 0 0 1-.04-.1l-1.19-4.29h-.01l-1.1 4.3a.24.24 0 0 1-.04.1.2.2 0 0 1-.1.05 2.43 2.43 0 0 1-.78 0 .21.21 0 0 1-.08-.06.22.22 0 0 1-.05-.1l-1.5-5.25a.72.72 0 0 1-.03-.16.1.1 0 0 1 .04-.08c.02-.03.06-.04.12-.04a2.18 2.18 0 0 1 .56.02c.03.01.04.03.06.05l.02.08 1.28 4.76 1.21-4.76a.42.42 0 0 1 .04-.08.13.13 0 0 1 .06-.05 2.01 2.01 0 0 1 .65 0 .1.1 0 0 1 .06.05.3.3 0 0 1 .04.08l1.3 4.76h.01l1.25-4.76.03-.08c0-.02.03-.04.06-.05a.4.4 0 0 1 .11-.02 1.84 1.84 0 0 1 .42 0c.05 0 .09.02.1.04.03.02.04.05.04.09 0 .04 0 .09-.02.16l-1.51 5.24Z" style="fill-rule:nonzero"/>
    <path d="M531.37 129.4a1.44 1.44 0 0 1-.02.21c0 .03-.02.05-.03.07a.44.44 0 0 1-.06.08l-.18.13a2.36 2.36 0 0 1-.83.32 2.73 2.73 0 0 1-1.6-.12c-.3-.13-.55-.3-.75-.55a2.46 2.46 0 0 1-.49-.89 4 4 0 0 1-.17-1.22c0-.47.06-.9.18-1.26.13-.37.3-.68.52-.94.22-.25.48-.45.79-.59a2.5 2.5 0 0 1 1.5-.15 3.15 3.15 0 0 1 .78.28l.21.15.08.09a.3.3 0 0 1 .03.07.9.9 0 0 1 .02.24l-.01.15c0 .04-.01.07-.03.1a.15.15 0 0 1-.04.06.09.09 0 0 1-.06.02c-.04 0-.1-.03-.17-.08a2.76 2.76 0 0 0-.7-.38 1.83 1.83 0 0 0-1.3.06c-.2.1-.38.25-.53.45-.15.2-.26.44-.34.72a3.5 3.5 0 0 0-.01 1.92c.08.28.2.51.34.7.14.19.32.33.53.42.22.1.46.14.72.14a1.93 1.93 0 0 0 1.03-.27c.12-.06.22-.13.3-.18.07-.06.13-.09.18-.09a.1.1 0 0 1 .05.02c.02 0 .03.02.04.05l.02.1v.17Z" style="fill-rule:nonzero"/>
  </g>
  <g id="leo3-wc01">
    <path d="m537.24 105.46-10.79-7.78-43.58 30.69 10.84 7.93 43.53-30.84Z" style="fill:#fff;stroke:#000;stroke-width:.8px"/>
    <path d="M510.28 119.41a.26.26 0 0 1-.05.1.24.24 0 0 1-.1.06 2.29 2.29 0 0 1-.76 0 .19.19 0 0 1-.1-.06.26.26 0 0 1-.04-.1l-1.2-4.29-1.1 4.3c0 .03-.02.07-.04.1a.2.2 0 0 1-.09.05 2.44 2.44 0 0 1-.78 0 .21.21 0 0 1-.1-.06.22.22 0 0 1-.04-.1l-1.5-5.25a.72.72 0 0 1-.03-.16.1.1 0 0 1 .04-.08c.02-.03.06-.04.12-.04a2.22 2.22 0 0 1 .56.02c.03.01.04.03.06.05l.02.08 1.28 4.76 1.21-4.76.04-.08a.13.13 0 0 1 .06-.05 2.01 2.01 0 0 1 .65 0 .1.1 0 0 1 .06.05l.04.08 1.3 4.76h.01l1.25-4.76.03-.08a.1.1 0 0 1 .06-.05.4.4 0 0 1 .11-.02 1.85 1.85 0 0 1 .42 0c.05 0 .08.02.1.04.03.02.04.05.04.09 0 .04 0 .09-.02.16l-1.5 5.24Z" style="fill-rule:nonzero"/>
    <path d="M516.9 118.78a2.1 2.1 0 0 1-.02.21c0 .03-.02.05-.03.07a.4.4 0 0 1-.06.08l-.19.13a2.3 2.3 0 0 1-.82.32 2.73 2.73 0 0 1-1.6-.12c-.3-.13-.55-.3-.75-.55a2.46 2.46 0 0 1-.49-.89 4 4 0 0 1-.17-1.22c0-.47.06-.9.19-1.26.12-.37.29-.68.5-.94.23-.25.49-.45.8-.58a2.5 2.5 0 0 1 1.5-.16 3.08 3.08 0 0 1 .77.28c.1.06.18.11.22.15l.08.09.02.07a.9.9 0 0 1 .03.24l-.01.15c0 .04-.02.07-.03.1a.15.15 0 0 1-.04.06.09.09 0 0 1-.06.02c-.04 0-.1-.03-.17-.08a2.76 2.76 0 0 0-.71-.38 1.83 1.83 0 0 0-1.29.07c-.2.1-.39.25-.53.44-.15.2-.26.44-.34.72-.09.28-.13.6-.13.97 0 .36.04.68.12.95.08.28.19.51.34.7.14.19.32.33.53.42.22.1.46.14.72.14a1.93 1.93 0 0 0 1.03-.27c.12-.06.22-.13.3-.18.07-.06.13-.09.18-.09a.1.1 0 0 1 .05.02c.01 0 .03.02.03.05l.02.1.01.17Z" style="fill-rule:nonzero"/>
  </g>
  <g id="leo3-008">
    <path d="M482.95 66.32 450.48 42.9l-43.66 30.92 32.77 23.34 43.36-30.84Z" style="fill:#852339;stroke:#000;stroke-width:.8px"/>
    <path d="M441.98 69.93c0 .59-.05 1.12-.14 1.6-.1.48-.24.9-.46 1.24-.21.35-.49.62-.83.8-.35.2-.78.3-1.28.3-.48 0-.88-.1-1.2-.26a1.98 1.98 0 0 1-.8-.75c-.2-.33-.34-.74-.42-1.22a9.8 9.8 0 0 1 .01-3.26c.1-.49.25-.9.46-1.25.21-.35.5-.61.84-.8.34-.2.76-.29 1.26-.29.49 0 .9.09 1.22.26.32.17.59.42.79.75.2.33.34.73.42 1.22.09.48.13 1.04.13 1.66Zm-1.04.07a11.53 11.53 0 0 0-.16-1.82 2.69 2.69 0 0 0-.2-.6 1.4 1.4 0 0 0-.3-.4 1.1 1.1 0 0 0-.4-.24 1.64 1.64 0 0 0-.51-.07c-.34 0-.6.08-.82.23-.2.16-.37.38-.49.65s-.2.6-.24.96a10.24 10.24 0 0 0 .02 2.64c.06.4.16.72.28.97.13.25.3.43.49.54.2.12.44.17.72.17.22 0 .41-.03.58-.1.16-.07.3-.17.43-.3.12-.13.22-.3.3-.48a5.46 5.46 0 0 0 .29-1.34l.01-.8Z" style="fill:#fff;fill-rule:nonzero"/>
    <path d="M447.99 69.93c0 .59-.05 1.12-.14 1.6-.1.48-.25.9-.46 1.24-.21.35-.49.62-.83.8-.35.2-.77.3-1.28.3-.48 0-.88-.1-1.2-.26-.33-.17-.6-.42-.8-.75-.2-.33-.34-.74-.42-1.22a9.8 9.8 0 0 1 .01-3.26c.1-.49.25-.9.46-1.25.21-.35.5-.61.84-.8.34-.2.76-.29 1.26-.29.49 0 .9.09 1.22.26.32.17.59.42.79.75.2.33.34.73.42 1.22.09.48.13 1.04.13 1.66Zm-1.04.07a11.53 11.53 0 0 0-.16-1.82 2.69 2.69 0 0 0-.2-.6 1.4 1.4 0 0 0-.3-.4 1.1 1.1 0 0 0-.4-.24 1.64 1.64 0 0 0-.51-.07c-.34 0-.6.08-.81.23-.21.16-.38.38-.5.65s-.2.6-.24.96a10.24 10.24 0 0 0 .03 2.64c.05.4.15.72.27.97a1.26 1.26 0 0 0 1.21.71c.22 0 .41-.03.58-.1.16-.07.3-.17.43-.3.12-.13.22-.3.3-.48a5.46 5.46 0 0 0 .28-1.34c.02-.25.02-.52.02-.8Z" style="fill:#fff;fill-rule:nonzero"/>
    <path d="M453.92 71.8c0 .33-.06.62-.17.88-.12.25-.29.47-.51.65-.22.17-.5.3-.82.4-.32.09-.7.13-1.12.13-.39 0-.74-.04-1.05-.12a2.1 2.1 0 0 1-.78-.37 1.6 1.6 0 0 1-.5-.59c-.11-.23-.17-.5-.17-.8a1.79 1.79 0 0 1 .46-1.21c.14-.17.33-.33.54-.48.22-.14.46-.28.73-.42a4.53 4.53 0 0 1-.62-.38 2.5 2.5 0 0 1-.46-.44 1.74 1.74 0 0 1-.38-1.1c0-.26.05-.51.14-.74.1-.24.24-.44.44-.61.19-.17.44-.31.74-.4.3-.1.65-.16 1.05-.16.38 0 .71.05.99.14.28.1.51.22.7.37.18.16.3.35.4.56a1.85 1.85 0 0 1-.26 1.8c-.12.16-.28.31-.46.46-.18.14-.39.27-.63.4.28.14.53.28.75.42.21.15.4.3.54.47a1.61 1.61 0 0 1 .45 1.14Zm-1.02.1a1.17 1.17 0 0 0-.4-.9c-.14-.12-.3-.25-.5-.36-.2-.13-.44-.25-.7-.38-.25.12-.47.24-.66.37a1.94 1.94 0 0 0-.73.77c-.06.15-.09.3-.09.48 0 .38.13.68.4.88.25.21.64.31 1.16.31.5 0 .88-.1 1.14-.31.25-.2.38-.5.38-.85Zm-.25-4c0-.16-.02-.31-.08-.44a.91.91 0 0 0-.25-.34 1.1 1.1 0 0 0-.4-.22 1.93 1.93 0 0 0-.56-.07c-.43 0-.75.1-.96.29a1 1 0 0 0-.33.78 1.13 1.13 0 0 0 .33.8c.1.12.25.23.42.35.17.1.37.23.6.35.4-.2.7-.43.92-.68.2-.25.31-.52.31-.82Z" style="fill:#fff;fill-rule:nonzero"/>
  </g>
  <g id="leo3-009">
    <path d="m450.48 42.9-34.01-24.53-43.45 30.78 33.8 24.67 43.66-30.92Z" style="fill:#852339;stroke:#000;stroke-width:.8px"/>
    <path d="M408.78 45.95c0 .59-.05 1.12-.14 1.6-.1.48-.25.9-.46 1.24-.21.35-.5.62-.84.8-.34.2-.77.3-1.27.3-.48 0-.88-.1-1.2-.26-.33-.17-.6-.42-.8-.75a3.5 3.5 0 0 1-.42-1.23 9.8 9.8 0 0 1 .01-3.25c.1-.49.25-.9.46-1.25.21-.35.49-.61.83-.8.35-.2.77-.29 1.27-.29.48 0 .89.09 1.22.26.32.17.59.42.79.75.2.33.34.73.42 1.22.09.48.13 1.04.13 1.66Zm-1.04.07a11.53 11.53 0 0 0-.16-1.82 2.69 2.69 0 0 0-.2-.6 1.4 1.4 0 0 0-.3-.4 1.1 1.1 0 0 0-.4-.24 1.64 1.64 0 0 0-.51-.07c-.34 0-.6.08-.82.23-.2.16-.37.38-.49.65s-.2.6-.24.96a10.24 10.24 0 0 0 .02 2.64c.06.4.16.72.28.97.13.25.3.43.49.54.2.12.44.17.72.17.22 0 .41-.03.58-.1.16-.07.3-.17.43-.3.12-.13.22-.3.3-.48a5.46 5.46 0 0 0 .29-1.34l.01-.8Z" style="fill:#fff;fill-rule:nonzero"/>
    <path d="M414.81 45.95c0 .59-.04 1.12-.14 1.6-.09.48-.24.9-.45 1.24-.22.35-.5.62-.84.8-.35.2-.77.3-1.27.3-.48 0-.88-.1-1.21-.26a1.98 1.98 0 0 1-.8-.75 3.95 3.95 0 0 1-.42-1.23 9.8 9.8 0 0 1 .02-3.25c.1-.49.25-.9.46-1.25.2-.35.48-.61.83-.8.34-.2.77-.29 1.27-.29.48 0 .88.09 1.21.26.33.17.6.42.8.75.19.33.33.73.42 1.22.08.48.12 1.04.12 1.66Zm-1.03.07a11.53 11.53 0 0 0-.16-1.82 2.69 2.69 0 0 0-.2-.6 1.4 1.4 0 0 0-.31-.4 1.1 1.1 0 0 0-.4-.24 1.64 1.64 0 0 0-.51-.07c-.33 0-.6.08-.81.23-.21.16-.37.38-.5.65-.11.27-.2.6-.24.96a10.24 10.24 0 0 0 .03 2.64c.06.4.15.72.28.97.12.25.29.43.48.54.2.12.44.17.72.17.22 0 .41-.03.58-.1.17-.07.31-.17.43-.3.12-.13.22-.3.3-.48a5.46 5.46 0 0 0 .29-1.34l.02-.8Z" style="fill:#fff;fill-rule:nonzero"/>
    <path d="M420.65 45.67c0 .33-.02.66-.06 1a5.06 5.06 0 0 1-.58 1.85 2.68 2.68 0 0 1-1.45 1.19 3.5 3.5 0 0 1-1.64.14 4.05 4.05 0 0 1-.75-.18.7.7 0 0 1-.2-.1.3.3 0 0 1-.08-.15 1.59 1.59 0 0 1 0-.57.1.1 0 0 1 .06-.05.19.19 0 0 1 .08-.02c.05 0 .1.02.18.05a4.59 4.59 0 0 0 .72.2c.16.02.34.03.54.03a1.89 1.89 0 0 0 1.64-.81c.18-.24.3-.53.4-.85.08-.33.13-.67.13-1.03a3.23 3.23 0 0 1-1.74.46c-.42 0-.78-.05-1.06-.17a1.77 1.77 0 0 1-.7-.47c-.17-.2-.3-.44-.37-.71a3.35 3.35 0 0 1 .03-1.86 2.2 2.2 0 0 1 1.25-1.35c.32-.14.7-.2 1.15-.2.32 0 .6.03.84.11a1.92 1.92 0 0 1 1.1.9c.12.2.23.45.3.72a5.5 5.5 0 0 1 .21 1.88Zm-1.02-.11c0-.5-.04-.92-.1-1.27a2.5 2.5 0 0 0-.3-.83 1.19 1.19 0 0 0-.47-.45c-.2-.1-.4-.14-.66-.14a1.24 1.24 0 0 0-1.1.5c-.1.16-.2.33-.25.53a2.56 2.56 0 0 0 0 1.24 1.07 1.07 0 0 0 .67.8c.17.07.39.1.64.1a2.77 2.77 0 0 0 1.56-.48Z" style="fill:#fff;fill-rule:nonzero"/>
  </g>
  <g id="leo3-010">
    <path d="m406.82 73.82-16.39 11.61-34.23-24.89 16.82-11.39 33.8 24.67Z" style="fill:#852339;stroke:#000;stroke-width:.8px"/>
    <path d="M378.53 67.18c0 .59-.05 1.12-.14 1.6-.1.48-.25.9-.46 1.24-.21.35-.5.62-.84.8-.34.2-.77.3-1.27.3-.48 0-.88-.1-1.2-.26-.33-.17-.6-.42-.8-.75-.2-.33-.34-.74-.42-1.22a9.8 9.8 0 0 1 .01-3.26c.1-.49.25-.9.46-1.25.21-.35.49-.61.83-.8.35-.2.77-.29 1.27-.29.48 0 .89.09 1.22.26.32.17.59.42.79.75.2.33.34.73.42 1.22.09.48.13 1.04.13 1.66Zm-1.04.07a11.53 11.53 0 0 0-.16-1.82 2.69 2.69 0 0 0-.2-.6 1.4 1.4 0 0 0-.3-.4 1.1 1.1 0 0 0-.4-.24 1.64 1.64 0 0 0-.51-.07c-.34 0-.6.08-.82.23-.2.16-.37.38-.49.65s-.2.6-.24.96a10.24 10.24 0 0 0 .02 2.64c.06.4.16.72.28.97.13.25.3.43.49.54.2.12.44.17.72.17.22 0 .41-.03.58-.1.16-.07.3-.17.43-.3.12-.13.22-.3.3-.48a5.46 5.46 0 0 0 .29-1.34l.01-.8Z" style="fill:#fff;fill-rule:nonzero"/>
    <path d="m384.3 70.6-.01.19a.41.41 0 0 1-.05.12.18.18 0 0 1-.07.07.17.17 0 0 1-.08.02h-3.97c-.02 0-.05 0-.07-.02a.22.22 0 0 1-.07-.07.38.38 0 0 1-.05-.12.83.83 0 0 1-.02-.19c0-.07 0-.13.02-.18.01-.05.02-.1.04-.13a.2.2 0 0 1 .07-.07.14.14 0 0 1 .08-.03h1.59v-5.78l-1.47.88a.63.63 0 0 1-.18.07c-.05 0-.08 0-.1-.03-.03-.02-.05-.07-.06-.13a1.37 1.37 0 0 1 .02-.5.22.22 0 0 1 .05-.09.5.5 0 0 1 .08-.07l1.75-1.12a.2.2 0 0 1 .06-.03.75.75 0 0 1 .21-.04 4.24 4.24 0 0 1 .41.01l.15.04c.03 0 .06.03.07.05l.02.06v6.68h1.37l.09.03a.2.2 0 0 1 .07.07l.04.13.01.18Z" style="fill:#fff;fill-rule:nonzero"/>
    <path d="M390.55 67.18c0 .59-.05 1.12-.14 1.6-.1.48-.24.9-.46 1.24-.21.35-.49.62-.83.8-.35.2-.77.3-1.28.3-.48 0-.88-.1-1.2-.26-.33-.17-.6-.42-.8-.75-.2-.33-.34-.74-.42-1.22a9.8 9.8 0 0 1 .01-3.26c.1-.49.25-.9.46-1.25a2.3 2.3 0 0 1 2.11-1.09c.48 0 .88.09 1.2.26.34.17.6.42.8.75.2.33.34.73.42 1.22.09.48.13 1.04.13 1.66Zm-1.03.07a11.53 11.53 0 0 0-.16-1.82 2.69 2.69 0 0 0-.21-.6 1.4 1.4 0 0 0-.3-.4 1.1 1.1 0 0 0-.4-.24 1.64 1.64 0 0 0-.51-.07c-.34 0-.6.08-.81.23-.21.16-.38.38-.5.65-.11.27-.2.6-.24.96a10.24 10.24 0 0 0 .03 2.64c.06.4.15.72.27.97a1.26 1.26 0 0 0 1.21.71 1.28 1.28 0 0 0 1.01-.4c.12-.13.22-.3.3-.48a5.46 5.46 0 0 0 .29-1.34l.02-.8Z" style="fill:#fff;fill-rule:nonzero"/>
  </g>
  <g id="leo3-017">
    <path d="m282.81 207.82 37.1-26.02-43.92-31.68-36.84 26.44 43.66 31.26Z" style="fill:#852339;stroke:#000;stroke-width:.8px"/>
    <path d="M276.4 179.05a8.7 8.7 0 0 1-.13 1.6c-.1.48-.25.9-.46 1.24-.21.35-.5.62-.83.8a2.6 2.6 0 0 1-1.28.3 2.6 2.6 0 0 1-1.2-.26 1.98 1.98 0 0 1-.8-.75c-.2-.33-.34-.74-.42-1.22a9.8 9.8 0 0 1 .01-3.26c.1-.49.25-.9.46-1.25.21-.35.49-.61.83-.8a2.6 2.6 0 0 1 1.27-.29c.48 0 .89.09 1.21.26.33.17.6.42.8.75.2.33.34.74.42 1.22.09.48.13 1.04.13 1.66Zm-1.02.07a11.53 11.53 0 0 0-.17-1.82 2.6 2.6 0 0 0-.2-.6 1.6 1.6 0 0 0-.3-.4 1.1 1.1 0 0 0-.4-.24 1.64 1.64 0 0 0-.51-.07c-.34 0-.6.08-.81.23-.21.16-.38.38-.5.65s-.2.6-.24.96a10.24 10.24 0 0 0 .02 2.64c.06.4.16.72.28.97a1.26 1.26 0 0 0 1.21.71 1.28 1.28 0 0 0 1.01-.4c.12-.13.22-.3.3-.48a5.15 5.15 0 0 0 .29-1.34l.01-.8Z" style="fill:#fff;fill-rule:nonzero"/>
    <path d="m282.2 182.47-.01.19a.41.41 0 0 1-.05.12.18.18 0 0 1-.06.07.16.16 0 0 1-.08.02h-3.97c-.03 0-.06 0-.08-.02a.22.22 0 0 1-.07-.07.38.38 0 0 1-.05-.12.83.83 0 0 1-.01-.19l.01-.18.05-.13a.21.21 0 0 1 .06-.07.15.15 0 0 1 .09-.03h1.58v-5.78l-1.47.88a.64.64 0 0 1-.18.07c-.04 0-.08 0-.1-.03-.03-.02-.05-.06-.06-.12a1.37 1.37 0 0 1 .02-.52.26.26 0 0 1 .05-.08.5.5 0 0 1 .09-.07l1.75-1.12a.2.2 0 0 1 .06-.03.73.73 0 0 1 .2-.04 4.24 4.24 0 0 1 .42.01l.15.04a.1.1 0 0 1 .06.05c.02.02.02.04.02.07v6.67H282c.03 0 .06.01.08.03a.2.2 0 0 1 .07.07l.04.13.02.18Z" style="fill:#fff;fill-rule:nonzero"/>
    <path d="M288.34 175.7a1.8 1.8 0 0 1-.08.52l-.06.15-2.74 6.3a.37.37 0 0 1-.07.12.3.3 0 0 1-.11.07.62.62 0 0 1-.17.04 3.12 3.12 0 0 1-.57-.01.36.36 0 0 1-.16-.06.11.11 0 0 1-.05-.1l.04-.13 2.88-6.44h-3.65c-.07 0-.13-.04-.16-.12a1.1 1.1 0 0 1-.04-.52c0-.06.02-.1.04-.14a.22.22 0 0 1 .07-.08.17.17 0 0 1 .1-.03h4.42c.06 0 .1 0 .15.02.04.01.07.03.09.07l.05.13.02.22Z" style="fill:#fff;fill-rule:nonzero"/>
  </g>
  <g id="leo3-018">
    <path d="m282.81 207.82-35.86 25.29-43.21-31.15 35.41-25.4 43.66 31.26Z" style="fill:#852339;stroke:#000;stroke-width:.8px"/>
    <path d="M240.1 204.95a8.7 8.7 0 0 1-.13 1.6c-.1.48-.25.9-.46 1.24-.21.35-.5.62-.83.8a2.6 2.6 0 0 1-1.28.3 2.6 2.6 0 0 1-1.2-.26 1.98 1.98 0 0 1-.8-.75 3.5 3.5 0 0 1-.42-1.22 9.8 9.8 0 0 1 .01-3.26c.1-.49.25-.9.46-1.25.21-.35.49-.61.84-.8a2.6 2.6 0 0 1 1.26-.29c.48 0 .89.09 1.21.26.33.17.6.42.8.75.2.33.34.74.42 1.22.09.48.13 1.04.13 1.66Zm-1.03.07a11.53 11.53 0 0 0-.16-1.82 2.6 2.6 0 0 0-.2-.6 1.6 1.6 0 0 0-.3-.4 1.1 1.1 0 0 0-.4-.24 1.64 1.64 0 0 0-.51-.07c-.34 0-.6.08-.81.23-.21.16-.38.38-.5.65s-.2.6-.24.96a10.24 10.24 0 0 0 .03 2.64c.05.4.15.72.27.97a1.26 1.26 0 0 0 1.21.71 1.28 1.28 0 0 0 1.01-.4c.12-.14.22-.3.3-.48a5.15 5.15 0 0 0 .28-1.34c.02-.25.03-.52.03-.8Z" style="fill:#fff;fill-rule:nonzero"/>
    <path d="m245.9 208.37-.01.19a.41.41 0 0 1-.05.12.18.18 0 0 1-.06.07.16.16 0 0 1-.08.02h-3.97c-.03 0-.06 0-.08-.02a.22.22 0 0 1-.07-.07.38.38 0 0 1-.05-.12.83.83 0 0 1-.01-.19l.01-.18.05-.13a.21.21 0 0 1 .06-.07.15.15 0 0 1 .09-.03h1.58v-5.78l-1.47.88a.64.64 0 0 1-.18.07c-.04 0-.08 0-.1-.03-.03-.02-.05-.06-.06-.12a1.37 1.37 0 0 1 .02-.51.26.26 0 0 1 .05-.09.45.45 0 0 1 .09-.07l1.75-1.12a.2.2 0 0 1 .06-.03.73.73 0 0 1 .2-.04 4.24 4.24 0 0 1 .42.01l.15.04a.1.1 0 0 1 .06.05c.02.02.02.04.02.07v6.67h1.38l.09.03a.2.2 0 0 1 .06.07l.04.13.02.18Z" style="fill:#fff;fill-rule:nonzero"/>
    <path d="M252.1 206.82c0 .33-.06.62-.17.88-.12.26-.3.47-.51.65-.22.17-.5.3-.82.4-.33.09-.7.13-1.12.13-.39 0-.74-.04-1.05-.12a2.3 2.3 0 0 1-.78-.37 1.6 1.6 0 0 1-.5-.59c-.11-.23-.17-.5-.17-.8a1.77 1.77 0 0 1 .46-1.21c.14-.17.32-.33.54-.48.22-.14.46-.28.73-.41a4.46 4.46 0 0 1-.62-.39 2.47 2.47 0 0 1-.46-.44 1.72 1.72 0 0 1-.38-1.1c0-.26.04-.51.14-.74.1-.24.24-.44.44-.61.19-.17.43-.31.73-.4.3-.1.65-.16 1.05-.16.39 0 .72.05 1 .14a2 2 0 0 1 .7.37c.17.16.3.35.4.56a1.85 1.85 0 0 1-.26 1.8 3.33 3.33 0 0 1-1.09.86c.28.14.53.28.75.42.21.15.4.3.54.47a1.62 1.62 0 0 1 .45 1.14Zm-1.02.1a1.17 1.17 0 0 0-.4-.9 3.6 3.6 0 0 0-.5-.37l-.71-.37c-.25.12-.46.25-.65.37s-.34.24-.46.37-.2.27-.27.4c-.06.15-.09.3-.09.48 0 .38.13.67.4.88.25.21.64.31 1.16.31.5 0 .88-.1 1.13-.31.26-.21.39-.5.39-.85Zm-.25-4c0-.16-.03-.31-.08-.44a.9.9 0 0 0-.25-.34 1.1 1.1 0 0 0-.41-.22 1.92 1.92 0 0 0-.56-.07c-.42 0-.74.1-.96.29a1 1 0 0 0-.32.78 1.13 1.13 0 0 0 .33.8c.1.12.25.23.42.35a7 7 0 0 0 .6.34c.4-.2.7-.42.92-.67.2-.25.31-.52.31-.82Z" style="fill:#fff;fill-rule:nonzero"/>
  </g>
  <g id="leo3-034">
    <path d="m112.44 282.34-17.76 12.58-34.35-24.77 17.77-12.79 34.34 24.98Z" style="fill:#852339;stroke:#000;stroke-width:.8px"/>
    <path d="M83.03 276.38c0 .59-.05 1.12-.14 1.6-.1.48-.25.9-.46 1.24a2.25 2.25 0 0 1-2.1 1.1 2.6 2.6 0 0 1-1.22-.26 1.99 1.99 0 0 1-.79-.75 3.5 3.5 0 0 1-.42-1.23 9.8 9.8 0 0 1 .01-3.25c.1-.49.25-.9.46-1.25.21-.35.49-.61.83-.8a2.6 2.6 0 0 1 1.27-.29c.48 0 .89.09 1.22.26.32.17.59.42.78.75.2.33.35.74.43 1.22.09.48.13 1.04.13 1.66Zm-1.03.07a11.51 11.51 0 0 0-.17-1.82 2.6 2.6 0 0 0-.2-.6 1.6 1.6 0 0 0-.3-.4 1.19 1.19 0 0 0-.4-.24 1.6 1.6 0 0 0-.52-.07c-.33 0-.6.08-.8.23-.21.16-.38.38-.5.65-.11.27-.2.6-.24.96a10.26 10.26 0 0 0 .02 2.64c.06.4.16.72.28.97.13.25.3.43.5.55.19.1.43.17.71.17.22 0 .41-.04.58-.11.17-.07.3-.17.43-.3.12-.13.22-.3.3-.47a5.15 5.15 0 0 0 .28-1.34c.02-.26.03-.53.03-.82Z" style="fill:#fff;fill-rule:nonzero"/>
    <path d="M88.75 278.03a2.08 2.08 0 0 1-1.54 2.12 3.67 3.67 0 0 1-1.84.1 4.71 4.71 0 0 1-1.02-.32.68.68 0 0 1-.22-.14.37.37 0 0 1-.1-.18.72.72 0 0 1 0-.65c.03-.05.07-.08.12-.08.04 0 .11.03.22.1a3.64 3.64 0 0 0 1 .4 2.77 2.77 0 0 0 1.43 0c.2-.07.37-.16.5-.28.14-.13.25-.27.32-.44a1.43 1.43 0 0 0-.03-1.12 1.27 1.27 0 0 0-.38-.45 1.82 1.82 0 0 0-.62-.28 3.2 3.2 0 0 0-.84-.1h-.74a.2.2 0 0 1-.1-.03.2.2 0 0 1-.08-.06.4.4 0 0 1-.05-.13.77.77 0 0 1-.02-.2c0-.07 0-.13.02-.18a.32.32 0 0 1 .05-.12.2.2 0 0 1 .07-.06.22.22 0 0 1 .1-.02h.66c.26 0 .49-.04.7-.1.2-.07.37-.17.52-.3.14-.12.25-.27.33-.44a1.43 1.43 0 0 0 .03-1.03 1.02 1.02 0 0 0-.62-.63 1.8 1.8 0 0 0-1.17.01 4 4 0 0 0-.88.45c-.1.06-.16.1-.2.1-.03 0-.06 0-.08-.02a.12.12 0 0 1-.05-.05.4.4 0 0 1-.03-.13 1.92 1.92 0 0 1 .02-.48.5.5 0 0 1 .04-.09.49.49 0 0 1 .08-.1c.04-.03.11-.09.23-.16a3.48 3.48 0 0 1 2.63-.32c.26.1.48.22.66.39.18.16.31.36.4.59a2.26 2.26 0 0 1 .04 1.43 1.72 1.72 0 0 1-.73.94c-.17.12-.38.2-.6.24a2.19 2.19 0 0 1 1.27.6 1.7 1.7 0 0 1 .5 1.22Z" style="fill:#fff;fill-rule:nonzero"/>
    <path d="M95.17 278.04c0 .13-.02.23-.06.3-.04.08-.1.12-.17.12h-.85v1.6a.1.1 0 0 1-.03.07.2.2 0 0 1-.08.06.66.66 0 0 1-.16.03 2.08 2.08 0 0 1-.64-.03.17.17 0 0 1-.08-.06.14.14 0 0 1-.02-.08v-1.6h-3.11l-.12-.01a.2.2 0 0 1-.08-.07.3.3 0 0 1-.05-.13 2.94 2.94 0 0 1 .01-.59l.05-.14.07-.15 2.7-4.61a.27.27 0 0 1 .1-.08.57.57 0 0 1 .14-.06 4.65 4.65 0 0 1 1.11.01l.14.06c.03.03.05.06.05.1v4.84h.85a.2.2 0 0 1 .17.1.7.7 0 0 1 .06.32Zm-2.1-4.59-2.45 4.17h2.46v-4.17Z" style="fill:#fff;fill-rule:nonzero"/>
  </g>
  <g id="leo3-033">
    <path d="m60.33 270.15-41.95 30.21 34.36 24.33 41.94-29.77-34.35-24.77Z" style="fill:#852339;stroke:#000;stroke-width:.8px"/>
    <path d="M53.15 297.7a8.7 8.7 0 0 1-.13 1.6c-.1.48-.25.9-.46 1.24a2.25 2.25 0 0 1-2.11 1.1 2.6 2.6 0 0 1-1.21-.26 1.99 1.99 0 0 1-.8-.76c-.2-.33-.33-.73-.42-1.22a9.8 9.8 0 0 1 .02-3.26c.1-.48.24-.9.46-1.24.2-.35.48-.61.83-.8a2.6 2.6 0 0 1 1.27-.29c.48 0 .88.08 1.21.25.33.18.59.43.79.76.2.33.34.73.43 1.22.08.48.12 1.04.12 1.66Zm-1.03.07a11.51 11.51 0 0 0-.16-1.82 2.6 2.6 0 0 0-.2-.6c-.1-.16-.2-.3-.31-.4a1.1 1.1 0 0 0-.4-.24 1.6 1.6 0 0 0-.51-.07c-.33 0-.6.08-.81.23-.2.16-.37.38-.49.65s-.2.6-.24.96a10.26 10.26 0 0 0 .02 2.64c.06.4.15.72.28.97.13.25.29.43.49.54.2.12.43.17.72.17.21 0 .4-.03.57-.1.17-.07.31-.17.43-.3.12-.13.22-.3.3-.48.08-.18.14-.38.19-.6.04-.23.08-.47.1-.73l.02-.82Z" style="fill:#fff;fill-rule:nonzero"/>
    <path d="M58.85 299.35a2.08 2.08 0 0 1-1.54 2.12 3.67 3.67 0 0 1-1.84.1 4.71 4.71 0 0 1-1.02-.32c-.11-.06-.19-.1-.21-.14a.37.37 0 0 1-.11-.18.72.72 0 0 1 0-.65c.03-.05.07-.08.13-.08.03 0 .1.03.2.1a3.64 3.64 0 0 0 1 .4 2.77 2.77 0 0 0 1.45 0c.2-.07.37-.16.5-.28.14-.13.24-.27.3-.44a1.43 1.43 0 0 0-.02-1.12 1.27 1.27 0 0 0-.38-.45 1.82 1.82 0 0 0-.62-.29 3.2 3.2 0 0 0-.83-.1h-.75c-.03 0-.06 0-.1-.02a.2.2 0 0 1-.07-.06.4.4 0 0 1-.06-.13.77.77 0 0 1-.02-.2c0-.07 0-.13.02-.18a.32.32 0 0 1 .05-.12.2.2 0 0 1 .07-.06.22.22 0 0 1 .1-.02h.66c.26 0 .49-.04.7-.1a1.48 1.48 0 0 0 .85-.74 1.43 1.43 0 0 0 .03-1.03 1.02 1.02 0 0 0-.61-.63 1.8 1.8 0 0 0-1.17.01 4 4 0 0 0-.89.45c-.1.06-.16.1-.2.1-.03 0-.05 0-.07-.02a.12.12 0 0 1-.06-.05.4.4 0 0 1-.03-.13 1.92 1.92 0 0 1 .02-.48.58.58 0 0 1 .05-.09.49.49 0 0 1 .07-.1l.23-.16a3.48 3.48 0 0 1 2.63-.32c.26.1.48.22.66.39.18.16.31.36.4.59a2.26 2.26 0 0 1 .04 1.43 1.72 1.72 0 0 1-.72.94c-.18.12-.38.2-.61.24a2.19 2.19 0 0 1 1.28.6 1.7 1.7 0 0 1 .5 1.22Z" style="fill:#fff;fill-rule:nonzero"/>
    <path d="M64.86 299.35a2.08 2.08 0 0 1-1.54 2.12 3.67 3.67 0 0 1-1.84.1 4.71 4.71 0 0 1-1.02-.32c-.11-.06-.19-.1-.21-.14a.37.37 0 0 1-.11-.18.72.72 0 0 1 0-.65c.03-.05.07-.08.13-.08.03 0 .1.03.2.1a3.64 3.64 0 0 0 1 .4 2.77 2.77 0 0 0 1.45 0c.2-.07.36-.16.5-.28.14-.13.24-.27.3-.44a1.43 1.43 0 0 0-.02-1.12 1.27 1.27 0 0 0-.38-.45 1.82 1.82 0 0 0-.62-.29 3.2 3.2 0 0 0-.83-.1h-.75c-.03 0-.06 0-.1-.02a.2.2 0 0 1-.07-.06.4.4 0 0 1-.06-.13.77.77 0 0 1-.02-.2c0-.07 0-.13.02-.18a.32.32 0 0 1 .05-.12.2.2 0 0 1 .07-.06.22.22 0 0 1 .1-.02h.66c.26 0 .49-.04.7-.1a1.48 1.48 0 0 0 .85-.74 1.43 1.43 0 0 0 .03-1.03 1.02 1.02 0 0 0-.61-.63 1.8 1.8 0 0 0-1.17.01 4 4 0 0 0-.89.45c-.1.06-.16.1-.2.1-.03 0-.05 0-.07-.02a.12.12 0 0 1-.06-.05.4.4 0 0 1-.03-.13 1.92 1.92 0 0 1 .02-.48.5.5 0 0 1 .04-.09.49.49 0 0 1 .08-.1l.23-.16a3.48 3.48 0 0 1 2.63-.32c.26.1.48.22.66.39.18.16.31.36.4.59a2.26 2.26 0 0 1 .04 1.43 1.72 1.72 0 0 1-.72.94c-.18.12-.38.2-.62.24a2.19 2.19 0 0 1 1.28.6 1.7 1.7 0 0 1 .5 1.22Z" style="fill:#fff;fill-rule:nonzero"/>
  </g>
  <g id="leo3-032">
    <path d="m52.73 324.69 32.7 23.14 41.81-29.55-32.56-23.36-41.95 29.77Z" style="fill:#852339;stroke:#000;stroke-width:.8px"/>
    <path d="M86.65 321.7c0 .59-.04 1.12-.14 1.6-.09.48-.24.9-.45 1.24a2.25 2.25 0 0 1-2.11 1.1 2.6 2.6 0 0 1-1.21-.26 1.99 1.99 0 0 1-.8-.76c-.2-.33-.33-.73-.42-1.22a9.8 9.8 0 0 1 .02-3.26c.1-.48.24-.9.46-1.24.2-.35.48-.61.83-.8a2.6 2.6 0 0 1 1.27-.29c.48 0 .88.08 1.21.25.33.18.59.43.79.76.2.33.34.73.43 1.22.08.48.12 1.04.12 1.66Zm-1.03.07a11.51 11.51 0 0 0-.16-1.82 2.6 2.6 0 0 0-.2-.6c-.1-.16-.2-.3-.31-.4a1.1 1.1 0 0 0-.4-.24 1.6 1.6 0 0 0-.51-.07c-.33 0-.6.08-.81.23-.2.16-.37.38-.49.65s-.2.6-.24.96a10.26 10.26 0 0 0 .02 2.64c.06.4.15.72.28.97.13.25.29.43.49.54.2.12.43.17.71.17.22 0 .42-.03.58-.1.17-.07.31-.17.43-.3.12-.13.22-.3.3-.48.08-.18.14-.38.19-.6.04-.23.08-.47.1-.73l.02-.82Z" style="fill:#fff;fill-rule:nonzero"/>
    <path d="M92.35 323.35a2.08 2.08 0 0 1-1.54 2.12 3.67 3.67 0 0 1-1.84.1 4.71 4.71 0 0 1-1.02-.32c-.11-.06-.19-.1-.21-.14a.37.37 0 0 1-.11-.18.72.72 0 0 1 0-.65c.03-.05.07-.08.13-.08.03 0 .1.03.2.1a3.64 3.64 0 0 0 1 .4 2.77 2.77 0 0 0 1.45 0c.2-.07.37-.16.5-.28.14-.13.24-.27.3-.44a1.43 1.43 0 0 0-.02-1.12 1.27 1.27 0 0 0-.38-.45 1.82 1.82 0 0 0-.62-.29 3.2 3.2 0 0 0-.83-.1h-.75c-.03 0-.06 0-.1-.02a.2.2 0 0 1-.07-.06.4.4 0 0 1-.06-.13.77.77 0 0 1-.02-.2c0-.07 0-.13.02-.18a.32.32 0 0 1 .05-.12.2.2 0 0 1 .07-.06.22.22 0 0 1 .1-.02h.66c.26 0 .49-.04.7-.1a1.48 1.48 0 0 0 .85-.74 1.43 1.43 0 0 0 .03-1.03 1.02 1.02 0 0 0-.61-.63 1.8 1.8 0 0 0-1.17.01 4 4 0 0 0-.89.45c-.1.06-.16.1-.2.1-.03 0-.05 0-.08-.02a.12.12 0 0 1-.05-.05.4.4 0 0 1-.03-.13 1.92 1.92 0 0 1 .02-.48.58.58 0 0 1 .05-.09.49.49 0 0 1 .07-.1l.23-.16a3.48 3.48 0 0 1 2.63-.32c.26.1.48.22.66.39.18.16.31.36.4.59a2.26 2.26 0 0 1 .04 1.43 1.72 1.72 0 0 1-.72.94c-.18.12-.38.2-.61.24a2.19 2.19 0 0 1 1.28.6 1.7 1.7 0 0 1 .5 1.22Z" style="fill:#fff;fill-rule:nonzero"/>
    <path d="m98.42 325.08-.01.2a.54.54 0 0 1-.05.13.2.2 0 0 1-.06.08.18.18 0 0 1-.1.03H94c-.06 0-.1 0-.14-.02a.25.25 0 0 1-.11-.07.28.28 0 0 1-.06-.13 2.05 2.05 0 0 1-.01-.42.5.5 0 0 1 .03-.16 1.14 1.14 0 0 1 .2-.28l1.52-1.56c.35-.36.63-.69.84-.97.21-.29.38-.55.5-.78a2.59 2.59 0 0 0 .27-1.18c0-.17-.03-.33-.08-.48a1.15 1.15 0 0 0-.65-.67 1.9 1.9 0 0 0-1.22 0 3.46 3.46 0 0 0-.89.44c-.1.06-.17.1-.22.1a.1.1 0 0 1-.07-.03.17.17 0 0 1-.06-.07.62.62 0 0 1-.03-.14 1.6 1.6 0 0 1 .01-.48l.04-.09a.47.47 0 0 1 .1-.1 2.74 2.74 0 0 1 .68-.38 4.02 4.02 0 0 1 1.23-.24c.37 0 .69.05.97.15.27.1.5.25.68.43a1.97 1.97 0 0 1 .55 1.39c0 .25-.03.49-.07.73-.04.24-.13.5-.27.78s-.34.59-.6.93c-.27.35-.61.74-1.05 1.19l-1.2 1.25h3.3l.1.03c.02.02.05.04.07.08a.4.4 0 0 1 .05.13 1 1 0 0 1 .01.19Z" style="fill:#fff;fill-rule:nonzero"/>
  </g>
  <g id="leo3-023">
    <path d="m234.23 369.94-30.08 21.26 24.74 17.83 30.04-21.28-24.7-17.81Z" style="fill:#852339;stroke:#000;stroke-width:.8px"/>
    <path d="M228.37 389.94a8.5 8.5 0 0 1-.14 1.6c-.1.48-.25.89-.46 1.23a2.25 2.25 0 0 1-2.1 1.1c-.48 0-.88-.1-1.2-.26a1.98 1.98 0 0 1-.8-.75c-.2-.33-.34-.74-.42-1.22a9.77 9.77 0 0 1 .01-3.25c.1-.49.25-.9.46-1.25.21-.34.49-.61.83-.8.35-.19.77-.28 1.27-.28.48 0 .88.08 1.2.25.33.17.6.42.8.75.2.33.34.74.42 1.22.08.48.13 1.04.13 1.66Zm-1.03.07a11.5 11.5 0 0 0-.17-1.81 2.61 2.61 0 0 0-.2-.6c-.09-.17-.19-.3-.3-.41-.12-.1-.25-.19-.4-.23a1.66 1.66 0 0 0-.51-.08c-.33 0-.6.08-.81.24-.2.15-.37.37-.49.64-.12.28-.2.6-.24.96a10.2 10.2 0 0 0 .02 2.63c.06.4.15.72.28.97.13.25.29.43.49.55.2.1.43.17.71.17.22 0 .41-.04.58-.1.17-.08.31-.18.43-.31s.22-.29.3-.47a5.26 5.26 0 0 0 .28-1.33c.02-.27.03-.54.03-.82Z" style="fill:#fff;fill-rule:nonzero"/>
    <path d="m234.13 393.32-.02.18a.54.54 0 0 1-.04.14.2.2 0 0 1-.07.08.18.18 0 0 1-.1.03h-4.19c-.05 0-.1 0-.14-.02a.25.25 0 0 1-.1-.07.28.28 0 0 1-.07-.13 2.05 2.05 0 0 1-.01-.42.5.5 0 0 1 .04-.16.91.91 0 0 1 .19-.28l1.51-1.56a8.26 8.26 0 0 0 1.34-1.74 2.62 2.62 0 0 0 .28-1.18c0-.17-.03-.33-.09-.48a1.14 1.14 0 0 0-.65-.67c-.16-.06-.34-.1-.55-.1-.25 0-.47.04-.66.1a3.44 3.44 0 0 0-.89.44c-.1.06-.17.1-.22.1l-.07-.02a.17.17 0 0 1-.06-.08.61.61 0 0 1-.03-.14 1.6 1.6 0 0 1 .02-.48.43.43 0 0 1 .03-.08.47.47 0 0 1 .1-.1c.04-.05.13-.1.24-.17a3.97 3.97 0 0 1 1.67-.45c.37 0 .69.05.96.15.28.1.5.25.69.43a1.97 1.97 0 0 1 .54 1.38 2.94 2.94 0 0 1-.34 1.5 5 5 0 0 1-.6.94c-.26.34-.6.73-1.04 1.18l-1.2 1.25h3.3l.09.03c.03.02.05.04.07.08a.4.4 0 0 1 .05.13l.01.19Z" style="fill:#fff;fill-rule:nonzero"/>
    <path d="M240.08 391.58c0 .35-.07.66-.19.94a2.08 2.08 0 0 1-1.36 1.18 3.66 3.66 0 0 1-1.83.1 4.65 4.65 0 0 1-1.02-.32l-.21-.13a.37.37 0 0 1-.11-.19.7.7 0 0 1 0-.65c.03-.05.07-.07.13-.07.03 0 .1.03.2.09a3.72 3.72 0 0 0 1.74.5c.27 0 .5-.03.7-.1.2-.07.37-.16.5-.28.14-.12.24-.27.31-.43a1.42 1.42 0 0 0-.03-1.13 1.27 1.27 0 0 0-.38-.44 1.8 1.8 0 0 0-.61-.29c-.25-.06-.52-.1-.84-.1h-.74c-.03 0-.06 0-.1-.02a.2.2 0 0 1-.07-.07.4.4 0 0 1-.06-.12.77.77 0 0 1-.02-.2c0-.07 0-.13.02-.18a.32.32 0 0 1 .05-.12.2.2 0 0 1 .07-.06.22.22 0 0 1 .1-.03h.66c.25 0 .49-.03.7-.1.2-.06.37-.16.51-.28.14-.13.25-.28.33-.45a1.44 1.44 0 0 0 .04-1.03 1.02 1.02 0 0 0-.62-.62 1.8 1.8 0 0 0-1.17.01 4.2 4.2 0 0 0-.88.44c-.1.07-.16.1-.2.1l-.08-.01a.12.12 0 0 1-.05-.06.4.4 0 0 1-.03-.12 1.92 1.92 0 0 1 .02-.48.5.5 0 0 1 .04-.1.49.49 0 0 1 .08-.1l.23-.15a2.92 2.92 0 0 1 .99-.38 3.3 3.3 0 0 1 1.63.06c.26.1.48.22.66.38.18.17.31.36.4.6a2.26 2.26 0 0 1 .04 1.42 1.72 1.72 0 0 1-.72.94c-.18.12-.38.2-.61.24a2.18 2.18 0 0 1 1.28.6 1.7 1.7 0 0 1 .5 1.21Z" style="fill:#fff;fill-rule:nonzero"/>
  </g>
  <g id="leo3-024">
    <path d="m228.89 409.03-41.93-30.23-28.86 20.49 42.28 29.94 28.51-20.2Z" style="fill:#852339;stroke:#000;stroke-width:.8px"/>
    <path d="M190.28 404.48c0 .59-.05 1.12-.14 1.6-.1.48-.24.9-.46 1.24a2.25 2.25 0 0 1-2.1 1.1 2.6 2.6 0 0 1-1.22-.26 1.99 1.99 0 0 1-.79-.76c-.2-.33-.34-.73-.42-1.22a9.8 9.8 0 0 1 .01-3.26c.1-.48.25-.9.46-1.24.21-.35.49-.62.84-.8a2.6 2.6 0 0 1 1.26-.29c.48 0 .89.09 1.22.26.32.16.59.42.78.75.2.33.35.73.43 1.22.09.48.13 1.04.13 1.66Zm-1.03.07a11.51 11.51 0 0 0-.17-1.82 2.6 2.6 0 0 0-.2-.6 1.6 1.6 0 0 0-.3-.4 1.19 1.19 0 0 0-.4-.24 1.6 1.6 0 0 0-.52-.07c-.33 0-.6.08-.8.23-.21.16-.38.38-.5.65s-.2.6-.24.96a10.26 10.26 0 0 0 .03 2.64c.05.4.15.72.27.97.13.25.3.43.5.55.19.1.43.16.71.16.22 0 .41-.03.58-.1.16-.07.3-.17.43-.3.12-.13.22-.3.3-.48a5.15 5.15 0 0 0 .28-1.34c.02-.25.03-.52.03-.8Z" style="fill:#fff;fill-rule:nonzero"/>
    <path d="M196.04 407.87c0 .06 0 .13-.02.18a.54.54 0 0 1-.04.14.2.2 0 0 1-.07.08.18.18 0 0 1-.1.03h-4.2c-.05 0-.1 0-.14-.02a.25.25 0 0 1-.1-.07.28.28 0 0 1-.07-.13 2.05 2.05 0 0 1-.01-.42.5.5 0 0 1 .04-.16 1.14 1.14 0 0 1 .2-.28l1.51-1.56a7.86 7.86 0 0 0 1.34-1.75 2.59 2.59 0 0 0 .28-1.18c0-.17-.03-.33-.09-.48a1.15 1.15 0 0 0-.65-.67c-.16-.07-.34-.1-.55-.1a2 2 0 0 0-.67.1 3.46 3.46 0 0 0-.88.44c-.1.06-.17.1-.22.1a.11.11 0 0 1-.08-.03.17.17 0 0 1-.05-.07.62.62 0 0 1-.04-.14 1.6 1.6 0 0 1 .02-.48c0-.03.02-.06.04-.09a.47.47 0 0 1 .09-.1l.24-.17a4.02 4.02 0 0 1 1.67-.45c.37 0 .7.05.97.16a1.74 1.74 0 0 1 1.1 1.05c.09.24.13.5.13.76a2.94 2.94 0 0 1-.34 1.5c-.14.29-.34.6-.6.94-.26.35-.61.74-1.04 1.19l-1.2 1.25h3.3l.09.03c.03.02.05.04.07.08a.4.4 0 0 1 .05.13 1 1 0 0 1 .02.19Z" style="fill:#fff;fill-rule:nonzero"/>
    <path d="M202.37 406.14c0 .13-.02.23-.06.3-.04.08-.1.12-.16.12h-.86v1.6c0 .02 0 .05-.03.07a.2.2 0 0 1-.08.06.66.66 0 0 1-.16.03 2.08 2.08 0 0 1-.64-.03.17.17 0 0 1-.08-.06.14.14 0 0 1-.02-.08v-1.6h-3.1l-.13-.01a.2.2 0 0 1-.08-.07.3.3 0 0 1-.05-.13 2.94 2.94 0 0 1 .01-.59l.05-.14.07-.15 2.7-4.61a.27.27 0 0 1 .1-.08.57.57 0 0 1 .14-.06 4.65 4.65 0 0 1 1.11.01l.14.06c.03.03.05.06.05.1v4.84h.86c.06 0 .12.04.16.1a.7.7 0 0 1 .06.32Zm-2.1-4.59-2.45 4.17h2.46v-4.17Z" style="fill:#fff;fill-rule:nonzero"/>
  </g>
  <g id="leo3-027">
    <path d="m158.1 399.29 40.91-28.93-17.71-12.77-41.08 29.1 17.88 12.6Z" style="fill:#852339;stroke:#000;stroke-width:.8px"/>
    <path d="M166.36 378.86c0 .58-.05 1.11-.14 1.6-.1.48-.25.9-.46 1.24a2.25 2.25 0 0 1-2.1 1.09 2.6 2.6 0 0 1-1.22-.26 1.99 1.99 0 0 1-.79-.75c-.2-.33-.34-.74-.42-1.22a9.8 9.8 0 0 1 .01-3.26c.1-.48.25-.9.46-1.25.21-.34.49-.61.84-.8a2.6 2.6 0 0 1 1.26-.29c.48 0 .89.09 1.21.26.33.17.6.42.8.75.2.33.34.74.42 1.22.09.49.13 1.04.13 1.67Zm-1.04.07a11.51 11.51 0 0 0-.16-1.82 2.6 2.6 0 0 0-.2-.6 1.6 1.6 0 0 0-.3-.4.93.93 0 0 0-.4-.24 1.6 1.6 0 0 0-.51-.08c-.34 0-.6.08-.81.24-.21.16-.38.37-.5.65-.12.27-.2.6-.24.96a10.26 10.26 0 0 0 .03 2.63c.05.4.15.72.27.97.13.25.3.44.5.55.19.11.43.17.71.17.22 0 .41-.03.58-.1.17-.07.3-.18.43-.3.12-.14.22-.3.3-.48a5.15 5.15 0 0 0 .28-1.34c.02-.26.03-.53.03-.81Z" style="fill:#fff;fill-rule:nonzero"/>
    <path d="m172.14 382.24-.01.19a.54.54 0 0 1-.05.14.2.2 0 0 1-.07.08.18.18 0 0 1-.1.03h-4.2a.32.32 0 0 1-.14-.03.25.25 0 0 1-.1-.06.28.28 0 0 1-.06-.14 2.05 2.05 0 0 1-.01-.42.5.5 0 0 1 .03-.16 1.14 1.14 0 0 1 .2-.28l1.52-1.56c.35-.36.63-.68.84-.97.21-.28.38-.54.49-.78a2.59 2.59 0 0 0 .28-1.18c0-.17-.03-.33-.08-.48a1.15 1.15 0 0 0-.65-.67 1.6 1.6 0 0 0-.56-.1c-.25 0-.47.04-.66.1a3.46 3.46 0 0 0-.89.44c-.1.07-.17.1-.22.1-.03 0-.05 0-.07-.02a.17.17 0 0 1-.06-.08.62.62 0 0 1-.03-.14 1.6 1.6 0 0 1 .01-.48l.04-.08a.47.47 0 0 1 .1-.1 2.74 2.74 0 0 1 .68-.38 4.02 4.02 0 0 1 1.23-.25c.37 0 .69.06.97.16a1.88 1.88 0 0 1 1.09 1.05c.09.24.13.5.13.77a2.94 2.94 0 0 1-.34 1.5c-.13.28-.33.6-.6.94-.26.34-.6.74-1.04 1.18l-1.2 1.26h3.3a.2.2 0 0 1 .1.02l.07.08a.4.4 0 0 1 .05.14 1 1 0 0 1 .01.18Z" style="fill:#fff;fill-rule:nonzero"/>
    <path d="M178.29 375.51a1.8 1.8 0 0 1-.08.5c-.02.06-.03.11-.06.16l-2.74 6.31a.36.36 0 0 1-.07.12.31.31 0 0 1-.1.06.62.62 0 0 1-.18.04 3.12 3.12 0 0 1-.57 0 .36.36 0 0 1-.16-.06.11.11 0 0 1-.05-.1c0-.04.02-.08.04-.13l2.88-6.45h-3.64c-.08 0-.13-.04-.17-.12a1.1 1.1 0 0 1-.04-.52c0-.05.02-.1.04-.14a.22.22 0 0 1 .07-.08.17.17 0 0 1 .1-.02h4.42l.15.01c.04.02.07.04.09.07.02.04.04.08.05.14l.02.21Z" style="fill:#fff;fill-rule:nonzero"/>
  </g>
  <g id="leo3-wc02">
    <path d="m181.3 357.6-10.66-7.97-41.23 29.34 10.81 7.72 41.08-29.1Z" style="fill:#fff;stroke:#000;stroke-width:.8px"/>
    <path d="M155.1 371.2a.23.23 0 0 1-.06.1.23.23 0 0 1-.1.06 2.3 2.3 0 0 1-.76 0 .19.19 0 0 1-.09-.05.26.26 0 0 1-.05-.1l-1.19-4.3-1.11 4.3c0 .04-.02.07-.04.1a.2.2 0 0 1-.1.06 2.4 2.4 0 0 1-.78 0 .2.2 0 0 1-.09-.06.2.2 0 0 1-.04-.1l-1.5-5.27a.8.8 0 0 1-.04-.16.1.1 0 0 1 .04-.09c.02-.02.06-.03.12-.04a2.22 2.22 0 0 1 .56.03.1.1 0 0 1 .06.05l.02.07 1.28 4.78 1.22-4.77.04-.08a.13.13 0 0 1 .06-.05 2.33 2.33 0 0 1 .53-.03l.12.03a.1.1 0 0 1 .06.05l.04.08 1.3 4.77h.02l1.25-4.77.03-.08a.1.1 0 0 1 .05-.05.4.4 0 0 1 .12-.03 1.86 1.86 0 0 1 .42 0l.1.05c.03.02.04.05.04.09 0 .03 0 .09-.02.16l-1.51 5.26Z" style="fill-rule:nonzero"/>
    <path d="M161.72 370.57a1.52 1.52 0 0 1-.02.21l-.03.08a.38.38 0 0 1-.06.07l-.19.13a2.9 2.9 0 0 1-2.43.2c-.29-.12-.54-.3-.75-.55a2.49 2.49 0 0 1-.49-.89 4.02 4.02 0 0 1-.17-1.22c0-.48.06-.9.18-1.27.13-.37.3-.68.52-.94.22-.25.48-.45.79-.59a2.5 2.5 0 0 1 1.5-.15 3.08 3.08 0 0 1 .78.28c.1.06.18.11.22.15a.5.5 0 0 1 .08.09l.02.07a.92.92 0 0 1 .03.24l-.01.15c0 .04-.01.07-.03.1a.16.16 0 0 1-.04.06.09.09 0 0 1-.06.02c-.04 0-.1-.02-.17-.08a2.53 2.53 0 0 0-.71-.38 1.87 1.87 0 0 0-1.3.07c-.2.1-.38.25-.53.44-.15.2-.26.44-.34.72a3.63 3.63 0 0 0-.01 1.93c.08.28.2.51.34.7.15.19.32.33.54.42.21.1.45.15.72.15a1.9 1.9 0 0 0 1.03-.27l.3-.2c.07-.05.13-.08.18-.08a.1.1 0 0 1 .05.02.1.1 0 0 1 .03.05l.02.1v.17Z" style="fill-rule:nonzero"/>
  </g>
  <g id="leo3029">
    <path d="m170.64 349.63-21.61-15.62-41.5 29.48 21.88 15.48 41.23-29.34Z" style="fill:#852339;stroke:#000;stroke-width:.8px"/>
    <path d="M135.8 356.88a8.7 8.7 0 0 1-.13 1.6c-.1.48-.24.9-.46 1.24a2.25 2.25 0 0 1-2.1 1.1 2.6 2.6 0 0 1-1.22-.26 1.99 1.99 0 0 1-.79-.75 3.5 3.5 0 0 1-.42-1.23 9.8 9.8 0 0 1 .01-3.25c.1-.49.25-.9.46-1.25.21-.35.49-.61.84-.8a2.6 2.6 0 0 1 1.26-.29c.48 0 .89.09 1.22.26.32.17.59.42.78.75.2.33.35.74.43 1.22.09.48.13 1.04.13 1.66Zm-1.03.07a11.51 11.51 0 0 0-.16-1.82 2.6 2.6 0 0 0-.2-.6 1.6 1.6 0 0 0-.3-.4 1.19 1.19 0 0 0-.4-.24 1.6 1.6 0 0 0-.52-.07c-.33 0-.6.08-.8.23-.21.16-.38.38-.5.65s-.2.6-.24.96a10.26 10.26 0 0 0 .02 2.64c.06.4.16.72.28.97.13.25.3.43.49.55a1.6 1.6 0 0 0 1.3.06c.16-.07.3-.17.43-.3.12-.13.21-.3.3-.47a5.15 5.15 0 0 0 .29-1.34l.01-.82Z" style="fill:#fff;fill-rule:nonzero"/>
    <path d="M141.57 360.27c0 .07 0 .13-.02.18a.54.54 0 0 1-.04.14.2.2 0 0 1-.07.09.18.18 0 0 1-.1.02h-4.2c-.05 0-.1 0-.14-.02a.25.25 0 0 1-.1-.07.28.28 0 0 1-.07-.13 2.05 2.05 0 0 1-.01-.42.5.5 0 0 1 .04-.16 1.14 1.14 0 0 1 .2-.28l1.51-1.56a7.86 7.86 0 0 0 1.34-1.75 2.59 2.59 0 0 0 .28-1.18c0-.17-.03-.33-.09-.48a1.15 1.15 0 0 0-.65-.67c-.16-.06-.34-.1-.55-.1-.25 0-.47.04-.67.1a3.46 3.46 0 0 0-.88.44c-.1.06-.17.1-.22.1a.11.11 0 0 1-.08-.03.17.17 0 0 1-.05-.07.62.62 0 0 1-.04-.14 1.6 1.6 0 0 1 .02-.48c0-.03.02-.06.04-.09a.47.47 0 0 1 .09-.1l.24-.17a4.02 4.02 0 0 1 1.67-.45c.37 0 .7.05.97.16a1.74 1.74 0 0 1 1.1 1.05c.09.24.13.5.13.76a2.94 2.94 0 0 1-.34 1.5c-.14.29-.34.6-.6.94-.26.35-.61.74-1.04 1.19l-1.2 1.25h3.3l.09.03c.03.02.05.04.07.08a.4.4 0 0 1 .05.13 1 1 0 0 1 .02.19Z" style="fill:#fff;fill-rule:nonzero"/>
    <path d="M147.63 356.6c0 .33-.01.66-.05 1a5.06 5.06 0 0 1-.58 1.85 2.74 2.74 0 0 1-1.46 1.19 3.5 3.5 0 0 1-1.64.14 4.08 4.08 0 0 1-.75-.18.7.7 0 0 1-.19-.1.31.31 0 0 1-.08-.15 1.86 1.86 0 0 1-.02-.45c0-.05.02-.09.03-.11a.1.1 0 0 1 .05-.06.19.19 0 0 1 .08-.02 4.59 4.59 0 0 0 .9.24c.16.03.34.05.54.05a1.92 1.92 0 0 0 1.64-.81c.17-.25.3-.54.39-.86.08-.32.13-.67.14-1.03a3.76 3.76 0 0 1-1.75.47c-.42 0-.77-.06-1.06-.18a1.76 1.76 0 0 1-.7-.47 1.8 1.8 0 0 1-.37-.71 3.3 3.3 0 0 1 .03-1.86 2.2 2.2 0 0 1 1.25-1.35c.32-.14.7-.2 1.15-.2.32 0 .6.03.84.11a1.89 1.89 0 0 1 1.1.9c.13.2.23.45.3.72a5.5 5.5 0 0 1 .21 1.88Zm-1.02-.11c0-.5-.04-.92-.1-1.27a2.53 2.53 0 0 0-.3-.83 1.18 1.18 0 0 0-.47-.45c-.2-.1-.4-.15-.65-.15-.26 0-.48.05-.66.14-.18.1-.32.22-.44.37-.12.16-.2.33-.25.53a2.52 2.52 0 0 0 0 1.24 1.04 1.04 0 0 0 .65.79c.18.07.4.11.66.11a2.77 2.77 0 0 0 1.56-.48Z" style="fill:#fff;fill-rule:nonzero"/>
  </g>
  <g id="leo3-az">
    <path d="m482.87 128.37 13.78-9.58-21.88-15.73-13.41 9.72 21.51 15.59Z" style="fill:#fff;stroke:#000;stroke-width:.8px"/>
    <path d="m479.8 118.6.04.18c0 .04-.01.07-.04.1a.23.23 0 0 1-.13.04 2.4 2.4 0 0 1-.6-.02.14.14 0 0 1-.07-.05.42.42 0 0 1-.04-.07l-.53-1.5h-2.57l-.5 1.48a.27.27 0 0 1-.04.08.2.2 0 0 1-.07.05.45.45 0 0 1-.13.03 1.83 1.83 0 0 1-.44 0 .17.17 0 0 1-.13-.05c-.02-.02-.03-.05-.03-.1l.04-.16 2.07-5.74a.24.24 0 0 1 .05-.09.2.2 0 0 1 .1-.05l.15-.02a3.08 3.08 0 0 1 .65.02.2.2 0 0 1 .1.06.3.3 0 0 1 .05.08l2.07 5.74Zm-2.66-5.06-1.07 3.08h2.15l-1.08-3.08Z" style="fill-rule:nonzero"/>
    <path d="m484.72 118.56-.01.15c0 .04-.02.08-.03.1a.15.15 0 0 1-.05.07.14.14 0 0 1-.08.02h-3.64a.27.27 0 0 1-.2-.08c-.06-.05-.08-.13-.08-.24v-.18a.54.54 0 0 1 .04-.23l.06-.13.1-.17 2.86-4.46h-2.82c-.03 0-.06 0-.08-.02a.16.16 0 0 1-.05-.06.33.33 0 0 1-.03-.1l-.01-.15v-.17a.4.4 0 0 1 .04-.1.15.15 0 0 1 .05-.07.15.15 0 0 1 .08-.02h3.44c.09 0 .15.03.2.08a.3.3 0 0 1 .08.22v.19a.8.8 0 0 1-.05.26 2.3 2.3 0 0 1-.17.3l-2.83 4.44h3.01c.06 0 .1.02.13.08.03.05.04.14.04.27Z" style="fill-rule:nonzero"/>
  </g>
  <g id="leo3-013">
    <path d="m371.68 272.54 44.5-31.73 48.34-34.03 47.53-33.67-67.53-48.7-47.95 33.71-47.85 34.04-43.81 31.4 66.77 48.98Z" style="fill:#fff;stroke:#000;stroke-width:.8px"/>
    <path d="M390.37 207.44c0 .24-.03.46-.1.66a1.98 1.98 0 0 1-.64.97 2.98 2.98 0 0 1-1.14.49c-.23.04-.48.06-.77.06h-1.98a.42.42 0 0 1-.26-.09c-.08-.06-.12-.17-.12-.32v-6.78c0-.15.04-.25.12-.32a.43.43 0 0 1 .26-.09h1.72a4 4 0 0 1 1.12.13c.29.09.53.21.72.38.2.16.34.36.44.6a2.1 2.1 0 0 1-.1 1.78 1.55 1.55 0 0 1-.76.65 1.84 1.84 0 0 1 1.05.6 1.87 1.87 0 0 1 .44 1.28Zm-1.52-3.4c0-.18-.03-.35-.08-.5a.93.93 0 0 0-.24-.38.98.98 0 0 0-.43-.23 2.4 2.4 0 0 0-.7-.09h-1.04v2.46h1.15c.26 0 .48-.03.63-.1a1.06 1.06 0 0 0 .63-.68c.05-.15.08-.31.08-.48Zm.46 3.46c0-.23-.04-.43-.11-.6a1.14 1.14 0 0 0-.32-.43 1.4 1.4 0 0 0-.52-.27c-.2-.06-.47-.1-.79-.1h-1.2v2.69h1.46a2 2 0 0 0 .6-.09c.18-.05.33-.13.46-.24a1 1 0 0 0 .3-.4c.08-.16.12-.35.12-.56Z" style="fill-rule:nonzero"/>
    <path d="M393.09 202.4c0 .23-.05.39-.13.47-.09.08-.25.12-.48.12-.23 0-.38-.04-.47-.12-.08-.08-.12-.23-.12-.45 0-.23.04-.38.13-.47.08-.08.24-.12.47-.12.23 0 .39.04.47.12.08.08.13.23.13.45Zm-.11 7.07c0 .03-.01.06-.03.08a.18.18 0 0 1-.07.06.53.53 0 0 1-.15.03 1.97 1.97 0 0 1-.63-.03.15.15 0 0 1-.07-.06.15.15 0 0 1-.02-.08v-5.28c0-.03 0-.05.02-.08a.15.15 0 0 1 .08-.06.57.57 0 0 1 .14-.03 1.92 1.92 0 0 1 .63.03l.07.06c.02.03.03.05.03.08v5.28Z" style="fill-rule:nonzero"/>
    <path d="M399.12 206.76c0 .46-.05.87-.15 1.24-.1.36-.25.68-.44.93-.2.26-.43.46-.71.6a2.18 2.18 0 0 1-1.86 0 4.85 4.85 0 0 1-.85-.7v.64c0 .04 0 .06-.02.09a.15.15 0 0 1-.07.05.63.63 0 0 1-.13.03 1.4 1.4 0 0 1-.54-.03c-.04-.01-.06-.03-.07-.05a.2.2 0 0 1-.02-.09v-7.84c0-.03 0-.06.02-.08a.16.16 0 0 1 .08-.06.57.57 0 0 1 .15-.04 1.92 1.92 0 0 1 .62.04c.03.01.06.03.07.06.02.02.03.05.03.08v3.16a4.02 4.02 0 0 1 .88-.67 1.86 1.86 0 0 1 .87-.2 1.9 1.9 0 0 1 1.65.84c.17.26.3.56.37.9.08.35.12.72.12 1.1Zm-1 .11c0-.27-.02-.53-.06-.78a2.22 2.22 0 0 0-.22-.68c-.1-.2-.24-.35-.4-.47a1.07 1.07 0 0 0-.64-.18 1.34 1.34 0 0 0-.75.23 4.53 4.53 0 0 0-.83.8v2.1a4 4 0 0 0 .77.75c.25.17.5.26.77.26.24 0 .45-.06.62-.18.18-.12.32-.27.43-.47.1-.19.18-.4.23-.65.05-.24.08-.48.08-.73Z" style="fill-rule:nonzero"/>
    <path d="M401.98 209.47c0 .03 0 .06-.02.08a.18.18 0 0 1-.08.06.53.53 0 0 1-.15.03 1.97 1.97 0 0 1-.62-.03.15.15 0 0 1-.08-.06.15.15 0 0 1-.02-.08v-7.84c0-.03 0-.06.02-.08a.16.16 0 0 1 .08-.06.57.57 0 0 1 .15-.04 1.92 1.92 0 0 1 .62.04c.04.01.06.03.08.06l.02.08v7.84Z" style="fill-rule:nonzero"/>
    <path d="M404.35 202.4c0 .23-.05.39-.13.47-.09.08-.25.12-.48.12-.23 0-.38-.04-.47-.12-.08-.08-.12-.23-.12-.45 0-.23.04-.38.13-.47.08-.08.24-.12.47-.12.23 0 .39.04.47.12.08.08.13.23.13.45Zm-.12 7.07c0 .03 0 .06-.02.08a.18.18 0 0 1-.07.06.53.53 0 0 1-.15.03 1.97 1.97 0 0 1-.63-.03.15.15 0 0 1-.07-.06.15.15 0 0 1-.02-.08v-5.28c0-.03 0-.05.02-.08a.15.15 0 0 1 .07-.06.57.57 0 0 1 .15-.03 1.92 1.92 0 0 1 .63.03l.07.06c.02.03.02.05.02.08v5.28Z" style="fill-rule:nonzero"/>
    <path d="M411.15 206.77a3 3 0 0 1-.67 2.13c-.23.26-.51.47-.85.61-.34.15-.73.22-1.18.22-.43 0-.8-.06-1.13-.2-.32-.12-.6-.3-.81-.56a2.4 2.4 0 0 1-.48-.9 4.25 4.25 0 0 1 .01-2.38c.1-.36.28-.67.5-.94.23-.26.5-.46.84-.6.34-.15.74-.22 1.19-.22.43 0 .8.06 1.13.19a2.14 2.14 0 0 1 1.29 1.46 4 4 0 0 1 .16 1.2Zm-1 .07c0-.29-.02-.56-.08-.81a1.97 1.97 0 0 0-.26-.67 1.3 1.3 0 0 0-.5-.46 1.65 1.65 0 0 0-.78-.16c-.29 0-.54.05-.75.15-.2.1-.37.25-.5.43-.14.19-.24.4-.3.66a3.99 3.99 0 0 0-.02 1.65 2 2 0 0 0 .26.67c.13.19.3.34.5.45.21.11.47.17.78.17a1.53 1.53 0 0 0 1.26-.58c.13-.19.23-.4.3-.66.06-.26.1-.54.1-.84Z" style="fill-rule:nonzero"/>
    <path d="M415.74 209.09c0 .1 0 .2-.02.27a.3.3 0 0 1-.07.14.47.47 0 0 1-.15.1l-.21.06a3.4 3.4 0 0 1-.53.06c-.27 0-.5-.04-.7-.1-.2-.08-.36-.19-.48-.34a1.35 1.35 0 0 1-.27-.56 3.21 3.21 0 0 1-.09-.79v-3.09h-.74c-.06 0-.1-.03-.14-.1a.64.64 0 0 1-.05-.3 1 1 0 0 1 .01-.19l.04-.12a.15.15 0 0 1 .06-.07.18.18 0 0 1 .09-.02h.73v-1.26c0-.03 0-.05.02-.07a.17.17 0 0 1 .08-.07.5.5 0 0 1 .15-.03 1.9 1.9 0 0 1 .62.03c.03.02.06.04.07.07a.1.1 0 0 1 .03.07v1.26h1.35c.03 0 .06 0 .09.02l.06.07a.4.4 0 0 1 .04.13v.18c0 .14-.01.25-.05.3-.03.07-.08.1-.14.1h-1.35v2.95c0 .36.05.64.16.82.1.19.3.28.58.28.09 0 .17 0 .24-.02a2.06 2.06 0 0 0 .33-.12.27.27 0 0 1 .1-.02l.06.01c.02.01.03.03.04.06a1.15 1.15 0 0 1 .04.29Z" style="fill-rule:nonzero"/>
    <path d="M421.33 209.47c0 .03 0 .06-.02.08a.2.2 0 0 1-.08.06.53.53 0 0 1-.15.03 1.9 1.9 0 0 1-.62-.03.17.17 0 0 1-.07-.06.14.14 0 0 1-.03-.08v-3.1c0-.3-.02-.53-.07-.72a1.52 1.52 0 0 0-.2-.47.89.89 0 0 0-.35-.31 1.1 1.1 0 0 0-.5-.1c-.24 0-.48.08-.73.25-.24.17-.5.43-.76.76v3.7c0 .03 0 .05-.02.07a.18.18 0 0 1-.08.06.53.53 0 0 1-.15.03 1.97 1.97 0 0 1-.62-.03.15.15 0 0 1-.08-.06.15.15 0 0 1-.02-.08v-7.84l.02-.08a.16.16 0 0 1 .08-.06.57.57 0 0 1 .15-.04 1.92 1.92 0 0 1 .62.04c.04.01.06.03.08.06l.02.08v3.16c.28-.29.56-.5.84-.65a2 2 0 0 1 1.74-.03c.24.11.44.27.59.47.14.2.25.44.31.7.07.27.1.6.1.98v3.21Z" style="fill-rule:nonzero"/>
    <path d="M427.32 206.6c0 .16-.04.26-.12.33a.4.4 0 0 1-.26.1h-3.48c0 .29.03.55.09.79.06.23.16.43.3.6.13.17.31.3.53.39.22.09.49.13.81.13a3.3 3.3 0 0 0 1.18-.2l.36-.13a.6.6 0 0 1 .2-.07.13.13 0 0 1 .13.09.4.4 0 0 1 .03.11 1.5 1.5 0 0 1-.01.41.26.26 0 0 1-.09.15 2.74 2.74 0 0 1-.6.25 5.68 5.68 0 0 1-1.29.18 3.3 3.3 0 0 1-1.14-.18 2.12 2.12 0 0 1-1.33-1.44 4.17 4.17 0 0 1-.17-1.26c0-.45.06-.86.17-1.22.12-.36.29-.67.51-.92.22-.25.49-.45.8-.58.32-.14.67-.2 1.06-.2.4 0 .76.06 1.06.2a2 2 0 0 1 1.13 1.32c.09.3.13.63.13.97v.18Zm-.98-.29c.02-.5-.1-.9-.34-1.2-.23-.28-.59-.43-1.06-.43a1.36 1.36 0 0 0-1.09.5c-.12.14-.21.32-.28.51-.06.2-.1.4-.11.62h2.88Z" style="fill-rule:nonzero"/>
    <path d="M433.15 209.47c0 .03 0 .06-.02.08a.17.17 0 0 1-.08.06.59.59 0 0 1-.15.03 2.2 2.2 0 0 1-.52 0 .98.98 0 0 1-.17-.02.28.28 0 0 1-.11-.06.47.47 0 0 1-.08-.1l-2.23-2.92v2.93c0 .04-.01.06-.03.08a.18.18 0 0 1-.07.06.53.53 0 0 1-.15.03 1.97 1.97 0 0 1-.63-.03.15.15 0 0 1-.07-.06.15.15 0 0 1-.02-.08v-7.84c0-.03 0-.06.02-.08a.16.16 0 0 1 .08-.06.57.57 0 0 1 .14-.04 1.92 1.92 0 0 1 .63.04c.03.01.06.03.07.06.02.02.03.05.03.08v4.78l2-2.2a.5.5 0 0 1 .1-.1.56.56 0 0 1 .3-.1 2.73 2.73 0 0 1 .64.03.2.2 0 0 1 .09.06c.02.02.02.05.02.08a.3.3 0 0 1-.03.14.83.83 0 0 1-.13.17l-1.91 1.91 2.14 2.8c.06.06.1.11.11.15l.03.12Z" style="fill-rule:nonzero"/>
    <path d="M390.68 191.38c0 .59-.05 1.12-.14 1.6-.1.48-.25.9-.46 1.24-.21.35-.49.62-.83.8-.35.2-.77.3-1.28.3-.48 0-.88-.1-1.2-.26-.33-.17-.6-.42-.8-.75a3.5 3.5 0 0 1-.42-1.22 9.8 9.8 0 0 1 .01-3.26c.1-.49.25-.9.46-1.25.21-.35.5-.61.84-.8.34-.2.76-.29 1.26-.29.49 0 .9.09 1.22.26.32.17.59.42.79.75.2.33.34.74.42 1.22.09.48.13 1.04.13 1.66Zm-1.04.07a11.53 11.53 0 0 0-.16-1.82 2.69 2.69 0 0 0-.2-.6 1.4 1.4 0 0 0-.3-.4 1.1 1.1 0 0 0-.4-.24 1.64 1.64 0 0 0-.51-.07c-.34 0-.6.08-.81.23-.21.16-.38.38-.5.65s-.2.6-.24.96a10.24 10.24 0 0 0 .03 2.64c.05.4.15.72.27.97a1.26 1.26 0 0 0 1.21.71c.22 0 .41-.03.58-.1.16-.07.3-.17.43-.3.12-.14.22-.3.3-.48a5.46 5.46 0 0 0 .29-1.34l.01-.8Z" style="fill-rule:nonzero"/>
    <path d="m396.45 194.8-.01.19a.41.41 0 0 1-.05.12.18.18 0 0 1-.07.07.17.17 0 0 1-.08.02h-3.97c-.02 0-.05 0-.07-.02a.22.22 0 0 1-.07-.07.38.38 0 0 1-.05-.12.83.83 0 0 1-.02-.19c0-.07 0-.13.02-.18l.04-.13a.2.2 0 0 1 .07-.07.14.14 0 0 1 .08-.03h1.59v-5.78l-1.47.88a.63.63 0 0 1-.18.07c-.04 0-.08 0-.1-.03-.04-.02-.05-.06-.06-.12a1.37 1.37 0 0 1 .02-.51.22.22 0 0 1 .05-.09.5.5 0 0 1 .08-.07l1.75-1.12a.2.2 0 0 1 .06-.03.75.75 0 0 1 .21-.04 4.24 4.24 0 0 1 .41.01l.15.04c.03.01.06.03.07.05l.02.07v6.67h1.37l.09.03a.2.2 0 0 1 .07.07l.04.13.01.18Z" style="fill-rule:nonzero"/>
    <path d="M402.39 193.03a2.1 2.1 0 0 1-1.55 2.12 3.67 3.67 0 0 1-1.84.1 4.67 4.67 0 0 1-1.02-.32.73.73 0 0 1-.21-.14.35.35 0 0 1-.1-.18.72.72 0 0 1 0-.65.13.13 0 0 1 .12-.07c.03 0 .1.03.21.09a4.2 4.2 0 0 0 1 .4 2.74 2.74 0 0 0 1.44 0c.2-.07.37-.16.5-.28.14-.12.24-.27.31-.44a1.42 1.42 0 0 0-.02-1.12 1.28 1.28 0 0 0-.39-.44 1.84 1.84 0 0 0-.62-.3c-.24-.06-.52-.1-.83-.1h-.75l-.09-.01a.19.19 0 0 1-.08-.07.39.39 0 0 1-.05-.13.73.73 0 0 1-.02-.2l.01-.18a.33.33 0 0 1 .05-.12.2.2 0 0 1 .17-.08h.67c.25 0 .49-.04.69-.1.2-.07.38-.16.52-.3.15-.12.25-.27.33-.44a1.45 1.45 0 0 0 .04-1.03 1.03 1.03 0 0 0-.62-.63 1.82 1.82 0 0 0-1.18.01 4.3 4.3 0 0 0-.87.45c-.1.06-.17.1-.2.1-.04 0-.06 0-.08-.02a.12.12 0 0 1-.06-.05.4.4 0 0 1-.02-.13 1.93 1.93 0 0 1 .02-.48.47.47 0 0 1 .04-.09.52.52 0 0 1 .08-.1 2.87 2.87 0 0 1 1.22-.54 3.31 3.31 0 0 1 1.63.06c.26.1.49.22.66.39.18.16.31.36.4.59a2.24 2.24 0 0 1 .04 1.43 1.71 1.71 0 0 1-.72.94c-.18.12-.38.2-.61.24a2.17 2.17 0 0 1 1.28.6 1.68 1.68 0 0 1 .5 1.22Z" style="fill-rule:nonzero"/>
    <path d="M412 191.88c0 .15-.01.25-.05.32s-.1.1-.17.1h-5.64a.17.17 0 0 1-.17-.1.75.75 0 0 1-.05-.32c0-.15.02-.25.05-.32.04-.07.1-.1.17-.1h5.64a.2.2 0 0 1 .1.02.2.2 0 0 1 .07.08c.02.03.03.07.04.13l.01.19Z" style="fill-rule:nonzero"/>
    <path d="M420.36 191.38c0 .59-.05 1.12-.14 1.6-.1.48-.25.9-.46 1.24-.21.35-.5.62-.84.8-.34.2-.77.3-1.27.3-.48 0-.88-.1-1.2-.26-.33-.17-.6-.42-.8-.75a3.5 3.5 0 0 1-.42-1.22 9.8 9.8 0 0 1 .01-3.26c.1-.49.25-.9.46-1.25.21-.35.49-.61.84-.8.34-.2.76-.29 1.26-.29.49 0 .89.09 1.22.26.32.17.59.42.79.75.2.33.34.74.42 1.22.09.48.13 1.04.13 1.66Zm-1.04.07a11.53 11.53 0 0 0-.16-1.82 2.69 2.69 0 0 0-.2-.6 1.4 1.4 0 0 0-.3-.4 1.1 1.1 0 0 0-.4-.24 1.64 1.64 0 0 0-.51-.07c-.34 0-.6.08-.82.23-.2.16-.37.38-.49.65s-.2.6-.24.96a10.24 10.24 0 0 0 .02 2.64c.06.4.16.72.28.97.13.25.3.43.49.54.2.12.44.17.72.17.22 0 .41-.03.58-.1.16-.07.3-.17.43-.3.12-.14.21-.3.3-.48a5.46 5.46 0 0 0 .29-1.34l.01-.8Z" style="fill-rule:nonzero"/>
    <path d="M426.16 194.8c0 .08 0 .14-.02.19a.41.41 0 0 1-.05.12.18.18 0 0 1-.07.07.17.17 0 0 1-.07.02h-3.97c-.03 0-.06 0-.08-.02a.22.22 0 0 1-.07-.07.38.38 0 0 1-.05-.12.83.83 0 0 1-.02-.19l.02-.18.05-.13a.2.2 0 0 1 .06-.07.14.14 0 0 1 .09-.03h1.58v-5.78l-1.47.88a.63.63 0 0 1-.18.07c-.04 0-.08 0-.1-.03-.03-.02-.05-.06-.06-.12a1.37 1.37 0 0 1 .02-.51.22.22 0 0 1 .05-.09.5.5 0 0 1 .08-.07l1.75-1.12a.2.2 0 0 1 .06-.03.75.75 0 0 1 .22-.04 4.24 4.24 0 0 1 .4.01.4.4 0 0 1 .15.04c.04.01.06.03.07.05l.02.07v6.67h1.37c.04 0 .06.01.1.03a.2.2 0 0 1 .06.07l.04.13.02.18Z" style="fill-rule:nonzero"/>
    <path d="M432.14 192.76c0 .4-.07.77-.2 1.08-.14.32-.34.59-.59.8-.25.22-.55.39-.9.5a3.7 3.7 0 0 1-1.82.12 4.3 4.3 0 0 1-.96-.26.88.88 0 0 1-.2-.12.27.27 0 0 1-.07-.07.54.54 0 0 1-.05-.21 2.36 2.36 0 0 1 0-.36c0-.06.02-.1.03-.13a.18.18 0 0 1 .06-.08.13.13 0 0 1 .07-.02c.04 0 .1.02.19.07a3.78 3.78 0 0 0 .85.32 3.06 3.06 0 0 0 1.45-.01 1.51 1.51 0 0 0 .94-.8c.09-.2.13-.45.13-.74 0-.24-.04-.45-.11-.64a1.1 1.1 0 0 0-.36-.46 1.6 1.6 0 0 0-.6-.28 4.73 4.73 0 0 0-1.49-.06c-.17.03-.33.04-.47.04-.11 0-.2-.03-.24-.08-.05-.05-.07-.15-.07-.3V188c0-.13.03-.23.1-.3.05-.06.14-.09.25-.09h3.37l.09.03a.2.2 0 0 1 .07.08l.05.13a1.08 1.08 0 0 1-.05.53c-.03.07-.09.11-.15.11h-2.72v2.13a16.68 16.68 0 0 1 .88-.04c.42 0 .79.05 1.1.16.31.1.57.25.78.44.21.19.37.42.48.69.1.27.16.57.16.9Z" style="fill-rule:nonzero"/>
  </g>
</svg>
