<?xml version="1.0" encoding="UTF-8" standalone="no"?>
<!DOCTYPE svg PUBLIC "-//W3C//DTD SVG 1.1//EN" "http://www.w3.org/Graphics/SVG/1.1/DTD/svg11.dtd">
<svg width="100%" height="100%" viewBox="0 0 615 447" version="1.1" xmlns="http://www.w3.org/2000/svg" xmlns:xlink="http://www.w3.org/1999/xlink" xml:space="preserve" xmlns:serif="http://www.serif.com/" style="fill-rule:evenodd;clip-rule:evenodd;stroke-linejoin:round;stroke-miterlimit:2;">
    <path id="leo3-floor2" d="M596.31,148.05L537.04,190.94L512.21,173.03L234.23,369.93L258.93,387.75L200.38,429.23L18.38,300.36L78.1,257.36L145.07,305.65L246.95,233.11L203.74,201.96L275.99,150.12L319.6,181.57L423.05,108.75L356.2,60.54L416.47,18.37L596.31,148.05Z" style="fill:rgb(191,191,191);stroke:black;stroke-width:0.8px;"/>
    <path d="M228.42,219.84L246.95,233.11L227.62,246.88L217.11,239.24L217.09,227.87L228.42,219.84Z" style="fill:white;stroke:black;stroke-width:0.8px;"/>
    <g id="leo3-222">
        <path d="M281.47,336.47L214.03,287.85L166.78,321.31L234.23,369.94L281.47,336.47Z" style="fill:rgb(133,35,57);stroke:black;stroke-width:0.8px;"/>
        <g transform="matrix(1,0,0,1,215.895,332.489)">
            <text x="0px" y="0px" style="font-family:'ArialMT', 'Arial', sans-serif;font-size:10px;fill:white;">222</text>
        </g>
    </g>
    <g id="leo3-218">
        <path d="M371.84,272.47L305.06,223.49L348.87,192.09L416.33,240.73L371.84,272.47Z" style="fill:white;stroke:black;stroke-width:0.8px;"/>
        <g transform="matrix(1,0,0,1,352.421,235.813)">
            <text x="0px" y="0px" style="font-family:'ArialMT', 'Arial', sans-serif;font-size:10px;">218</text>
        </g>
    </g>
    <g id="leo3-214">
        <path d="M348.87,192.09L396.72,158.05L464.67,206.71L416.33,240.73L348.87,192.09Z" style="fill:rgb(133,35,57);stroke:black;stroke-width:0.8px;"/>
        <g transform="matrix(1,0,0,1,398.518,202.984)">
            <text x="0px" y="0px" style="font-family:'ArialMT', 'Arial', sans-serif;font-size:10px;fill:white;">214</text>
        </g>
    </g>
    <g id="leo3-213">
        <path d="M464.67,206.71L512.21,173.03L444.67,124.34L396.72,158.05L464.67,206.71Z" style="fill:rgb(133,35,57);stroke:black;stroke-width:0.8px;"/>
        <g transform="matrix(1,0,0,1,446.199,169.055)">
            <text x="0px" y="0px" style="font-family:'ArialMT', 'Arial', sans-serif;font-size:10px;fill:white;">213</text>
        </g>
    </g>
    <g id="leo3-201">
        <path d="M566.98,169.55L596.31,148.05L554.95,118.23L525.22,139.43L566.98,169.55Z" style="fill:rgb(133,35,57);stroke:black;stroke-width:0.8px;"/>
        <g transform="matrix(1,0,0,1,553.19,147.423)">
            <text x="0px" y="0px" style="font-family:'ArialMT', 'Arial', sans-serif;font-size:10px;fill:white;">201</text>
        </g>
    </g>
    <g id="leo3-wc2">
        <path d="M511.52,149.08L554.95,118.23L537.24,105.46L493.71,136.3L511.52,149.08Z" style="fill:white;stroke:black;stroke-width:0.8px;"/>
        <g transform="matrix(1,0,0,1,517.775,130.133)">
            <text x="0px" y="0px" style="font-family:'ArialMT', 'Arial', sans-serif;font-size:8px;">WC</text>
        </g>
    </g>
    <g id="leo3-wc21" serif:id="leo3-wc2">
        <path d="M537.24,105.46L526.45,97.68L482.87,128.37L493.71,136.3L537.24,105.46Z" style="fill:white;stroke:black;stroke-width:0.8px;"/>
        <g transform="matrix(1,0,0,1,503.5,119.853)">
            <text x="0px" y="0px" style="font-family:'ArialMT', 'Arial', sans-serif;font-size:8px;">WC</text>
        </g>
    </g>
    <g id="leo3-208">
        <path d="M482.95,66.32L450.48,42.9L406.82,73.82L439.59,97.16L482.95,66.32Z" style="fill:rgb(133,35,57);stroke:black;stroke-width:0.8px;"/>
        <g transform="matrix(1,0,0,1,436.611,73.5627)">
            <text x="0px" y="0px" style="font-family:'ArialMT', 'Arial', sans-serif;font-size:10px;fill:white;">208</text>
        </g>
    </g>
    <g id="leo3-209">
        <path d="M450.48,42.9L416.47,18.37L373.02,49.15L406.82,73.82L450.48,42.9Z" style="fill:rgb(133,35,57);stroke:black;stroke-width:0.8px;"/>
        <g transform="matrix(1,0,0,1,403.476,49.6277)">
            <text x="0px" y="0px" style="font-family:'ArialMT', 'Arial', sans-serif;font-size:10px;fill:white;">209</text>
        </g>
    </g>
    <g id="leo3-210">
        <path d="M406.82,73.82L390.43,85.43L356.2,60.54L373.02,49.15L406.82,73.82Z" style="fill:rgb(133,35,57);stroke:black;stroke-width:0.8px;"/>
        <g transform="matrix(1,0,0,1,373.256,70.8227)">
            <text x="0px" y="0px" style="font-family:'ArialMT', 'Arial', sans-serif;font-size:10px;fill:white;">210</text>
        </g>
    </g>
    <g id="leo3-217">
        <path d="M282.81,207.82L319.91,181.8L275.99,150.12L239.15,176.56L282.81,207.82Z" style="fill:rgb(133,35,57);stroke:black;stroke-width:0.8px;"/>
        <g transform="matrix(1,0,0,1,271.264,182.564)">
            <text x="0px" y="0px" style="font-family:'ArialMT', 'Arial', sans-serif;font-size:10px;fill:white;">217</text>
        </g>
    </g>
    <g id="leo3-220">
        <path d="M282.81,207.82L246.95,233.11L203.74,201.96L239.15,176.56L282.81,207.82Z" style="fill:rgb(133,35,57);stroke:black;stroke-width:0.8px;"/>
        <g transform="matrix(1,0,0,1,235.021,208.368)">
            <text x="0px" y="0px" style="font-family:'ArialMT', 'Arial', sans-serif;font-size:10px;fill:white;">220</text>
        </g>
    </g>
    <g id="leo3-234">
        <path d="M112.44,282.34L94.68,294.92L60.33,270.15L78.1,257.36L112.44,282.34Z" style="fill:rgb(133,35,57);stroke:black;stroke-width:0.8px;"/>
        <g transform="matrix(1,0,0,1,78.1334,279.67)">
            <text x="0px" y="0px" style="font-family:'ArialMT', 'Arial', sans-serif;font-size:10px;fill:white;">234</text>
        </g>
    </g>
    <g id="leo3-233">
        <path d="M60.33,270.15L18.38,300.36L52.74,324.69L94.68,294.92L60.33,270.15Z" style="fill:rgb(133,35,57);stroke:black;stroke-width:0.8px;"/>
        <g transform="matrix(1,0,0,1,48.2638,300.95)">
            <text x="0px" y="0px" style="font-family:'ArialMT', 'Arial', sans-serif;font-size:10px;fill:white;">233</text>
        </g>
    </g>
    <g id="leo3-232">
        <path d="M52.73,324.69L85.43,347.83L127.24,318.28L94.68,294.92L52.73,324.69Z" style="fill:rgb(133,35,57);stroke:black;stroke-width:0.8px;"/>
        <g transform="matrix(1,0,0,1,81.7554,324.905)">
            <text x="0px" y="0px" style="font-family:'ArialMT', 'Arial', sans-serif;font-size:10px;fill:white;">232</text>
        </g>
    </g>
    <g id="leo3-223">
        <path d="M234.23,369.94L204.15,391.2L228.89,409.03L258.93,387.75L234.23,369.94Z" style="fill:rgb(133,35,57);stroke:black;stroke-width:0.8px;"/>
        <g transform="matrix(1,0,0,1,223.274,393.015)">
            <text x="0px" y="0px" style="font-family:'ArialMT', 'Arial', sans-serif;font-size:10px;fill:white;">223</text>
        </g>
    </g>
    <g id="leo3-224">
        <path d="M228.89,409.03L186.96,378.8L158.1,399.29L200.38,429.23L228.89,409.03Z" style="fill:rgb(133,35,57);stroke:black;stroke-width:0.8px;"/>
        <g transform="matrix(1,0,0,1,185.243,407.609)">
            <text x="0px" y="0px" style="font-family:'ArialMT', 'Arial', sans-serif;font-size:10px;fill:white;">224</text>
        </g>
    </g>
    <g id="leo3-227">
        <path d="M158.1,399.29L199.01,370.36L181.3,357.59L140.22,386.69L158.1,399.29Z" style="fill:rgb(133,35,57);stroke:black;stroke-width:0.8px;"/>
        <g transform="matrix(1,0,0,1,161.349,382.034)">
            <text x="0px" y="0px" style="font-family:'ArialMT', 'Arial', sans-serif;font-size:10px;fill:white;">227</text>
        </g>
    </g>
    <g id="leo3-wc22">
        <path d="M181.3,357.6L170.64,349.63L129.41,378.97L140.22,386.69L181.3,357.59L181.3,357.6Z" style="fill:white;stroke:black;stroke-width:0.8px;"/>
        <g transform="matrix(1,0,0,1,148.8,371.023)">
            <text x="0px" y="0px" style="font-family:'ArialMT', 'Arial', sans-serif;font-size:8px;">WC</text>
        </g>
    </g>
    <g id="leo3-229">
        <path d="M170.64,349.63L149.03,334.01L107.53,363.49L129.41,378.97L170.64,349.63Z" style="fill:rgb(133,35,57);stroke:black;stroke-width:0.8px;"/>
        <g transform="matrix(1,0,0,1,130.811,360.023)">
            <text x="0px" y="0px" style="font-family:'ArialMT', 'Arial', sans-serif;font-size:10px;fill:white;">229</text>
        </g>
    </g>
    <g id="leo3-az2">
        <path d="M482.87,128.37L496.65,118.79L474.77,103.06L461.36,112.78L482.87,128.37Z" style="fill:white;stroke:black;stroke-width:0.8px;"/>
    </g>
    <g id="leo3-202">
        <path d="M542.24,151.7L566.98,169.55L537.04,190.94L512.21,173.03L542.24,151.7Z" style="fill:rgb(133,35,57);stroke:black;stroke-width:0.8px;"/>
        <g transform="matrix(1,0,0,1,531.365,174.853)">
            <text x="0px" y="0px" style="font-family:'ArialMT', 'Arial', sans-serif;font-size:10px;fill:white;">202</text>
        </g>
    </g>
    <path d="M509.58,109.62L526.45,97.68L504.79,82.06L487.84,94.02L509.58,109.62Z" style="fill:white;stroke:black;stroke-width:0.8px;"/>
    <g id="leo3-219">
        <path d="M305.06,223.49L214.03,287.85L281.47,336.47L371.84,272.47L305.06,223.49Z" style="fill:white;stroke:black;stroke-width:0.8px;"/>
        <g transform="matrix(1,0,0,1,284.661,283.513)">
            <text x="0px" y="0px" style="font-family:'ArialMT', 'Arial', sans-serif;font-size:10px;">219</text>
        </g>
    </g>
    <path d="M338.85,167.97L319.91,181.8L301.19,168.3L313.49,159.59L327.24,159.59L338.85,167.97Z" style="fill:white;stroke:black;stroke-width:0.8px;"/>
    <g id="leo3-215">
        <path d="M360.69,183.68L378.5,196.56L356.01,212.45L338.25,199.7L360.69,183.68Z" style="fill:white;stroke:black;stroke-width:0.8px;"/>
        <g transform="matrix(1,0,0,1,350.082,201.598)">
            <text x="0px" y="0px" style="font-family:'ArialMT', 'Arial', sans-serif;font-size:10px;">215</text>
        </g>
    </g>
</svg>
