<?xml version="1.0" encoding="utf-8"?>
<!-- Generator: Adobe Illustrator 15.0.0, SVG Export Plug-In . SVG Version: 6.00 Build 0)  -->
<!DOCTYPE svg PUBLIC "-//W3C//DTD SVG 1.1//EN" "http://www.w3.org/Graphics/SVG/1.1/DTD/svg11.dtd">
<svg version="1.1" id="Ebene_1" xmlns="http://www.w3.org/2000/svg" x="0px" y="0px"
     width="6491px" height="3059.234px" viewBox="0 0 6491 3059.234" enable-background="new 0 0 6491 3059.234"
     xml:space="preserve">
<g>
	<g>
		<path fill-rule="evenodd" clip-rule="evenodd" fill="#FFFFFF" d="M2769,3059.234c309.085-19.633,477.33-184.342,523-464
			c11.936-73.088,15.704-159.46,4-229c-34.222-203.322-186.809-314-426-314c-317.126,0-497.523,168.631-552,435
			c-14.332,70.079-21.022,155.215-13,228c19.825,179.869,124.873,290.272,288,329c32.756,7.776,70.114,12.28,109,15
			c-324.991,0-650.012,0-975,0c161.746-8.889,299.125-47.845,375-145c37.695-48.268,63.218-118.395,61-198
			c-4.624-165.971-121.66-219.868-248-270c-29.318-11.633-61.359-24.086-88-42c-26.619-17.9-49.08-42.818-40-85
			c14.566-67.667,102.359-73.995,185-74c86.73-0.006,153.355,16.35,214,44c21.808-63.525,41.824-128.843,63-193
			c-69.617-32.475-165.952-41.243-265-44c-203.333-5.66-368.889,46.279-436,182c-33.252,67.246-45.898,179.96-6,253
			c33.883,62.029,108.156,100.492,180,129c35.334,14.021,73.803,28.017,108,47c32.285,17.922,65.156,41.788,65,89
			c-0.296,89.797-103.867,113.999-195,114c-100.423,0.001-187.296-17.538-253-55c-20.272,65.729-40.675,131.324-61,197
			c80.077,26.922,169.981,44.021,270,51c-539.983,0.016-1091.38-0.021-1638,0c-5.78,0-9.91,0.898-13,0c-6.545-1.904-4.277-1.146-5-7
			c-0.439-3.555,0.33-4.785,0-10c127.064-0.352,253.766-3.322,380-4c132.044-0.709,237.038-13.535,321-62
			c81.793-47.213,139.213-119.286,143-240c3.83-122.102-81.914-174.639-188-195c25.499-6.326,49.286-10.643,72-18
			c67.155-21.752,118.544-58.866,152-116c23.207-39.631,35.408-92.678,29-146c-12.103-100.703-83.505-158.132-177-181
			c-47.759-11.682-104.43-10.997-168-11c-119.578-0.005-240.299,0.004-359,0c-19.927,79.766-35.3,160.92-52,242
			c-16.599,80.59-33.649,161.4-51,242c-34.876,162.011-66.847,326.216-102,486c0-977.615,0-1955.441,0-2933
			c2163.895,0,4327.044,0,6491,0c0,984.242,0,1968.786,0,2953C5250.193,3059.234,4009.857,3059.234,2769,3059.234z M3061,1347.234
			c196.079-64.892,344.659-176.226,496-281c100.656-69.685,199.118-145.356,302-216c102.215-70.185,205.581-140.367,313-205
			c107.924-64.937,221.599-122.54,342-176c121.412-53.909,249.183-97.959,396-122c144.447-23.653,337.094-32.773,467,9
			c63.415,20.392,119.645,53.38,172,87c38.271,24.575,77.174,53.578,107,88c3.649,4.211,22.577,34.38,34,31
			c9.87-2.921,7.417-36.948,4-56c-10.412-58.05-34.209-102.352-61-140c-38.815-54.546-78.46-99.297-132-135
			c-51.881-34.597-107.986-66.125-182-85c-68.593-17.493-161.369-26.983-247-23c-134.109,6.239-253.791,34.782-365,69
			c-222.299,68.399-411.113,170.916-585,284c-87.535,56.927-169.254,120.3-250,185c-80.828,64.767-160.716,129.189-241,193
			c-241.563,191.995-461.1,411.511-789,515C2919.475,1388.923,2996.26,1368.66,3061,1347.234z M6394,1163.234
			c1.723,61.995-19.017,106.265-57,133c-14.312,10.073-49.527,26.17-62,9c-4.326-5.955-1.158-23.725,0-36
			c3.385-35.896,7.174-71.64,6-109c-4.59-146.136-44.914-261.499-102-358c-75.099-126.95-186.728-224.984-398-215
			c-80.14,3.787-155.184,27.242-236,42c-81.127,14.814-206.168,27.482-254-24c-3.541-3.812-8.543-11.528-17-11
			c-4.949,40.8,17.318,68.857,39,88c23.89,21.093,54.041,33.877,87,44c70.263,21.579,159.05,15.225,242,11
			c92.522-4.712,164.984,5.827,225,36c115.803,58.22,198.383,152.409,232,294c24.98,105.209,23.432,259.016-11,349
			c-11.881,31.051-28.855,56.078-48,84c-18.771,27.377-31.504,54.202-36,95c-4.214,38.239-2.666,81.94-8,124
			c-9.559,75.368-31.786,142.928-56,206c-36.783,95.815-84.229,178.035-132,262c-33.338,58.597-68.08,105.097-141,122
			c-76.205,17.665-165.613-5.598-233-18c-37.074-6.823-80.453-12.141-121-5c-76.33,13.442-112.174,59.469-157,106
			c-42.177,43.782-90.402,82.616-139,124c-47.959,40.84-108.669,67.539-176,87c89.797,24.06,175.596,2.577,240-25
			c100.771-43.149,159.373-131.92,276-153c41.814-7.558,84.948,3.058,127,10c79.526,13.129,189.723,20.448,259-7
			c31.266-12.389,59.037-35.109,85-58c25.765-22.717,48.209-49.135,68-75c42.595-55.667,79.898-113.133,111-175
			c32.479-64.608,62.572-131.937,90-196c25.559-59.699,52.441-115.211,58-192c0.795-10.976-0.045-27.757,3-36
			c9.706-26.274,31.77-52.753,44-79c9.236-19.821,11.64-31.629,31-39c30.265-11.522,60.046-11.781,87-19
			c27.552-7.379,49.439-21.87,69-37c39.511-30.561,69.297-73.884,85-128c17.24-59.416,9.58-127.682-8-185
			c-17.207-56.101-36.488-102.781-89-124C6382.116,1108.763,6393.156,1132.85,6394,1163.234z M5100,947.234
			c-87.643,55.729-165.346,144.193-164,284c1.033,107.388,41.888,182.052,102,234c19.872,17.173,40.408,35.262,68,44
			c57.399,18.178,115.661-4.663,146-35c30.582-30.58,54.505-84.603,49-141c-6.879-70.478-78.927-84.747-117-126
			c-26.788-29.026-43.938-66.441-36-117c6.734-42.896,27.727-77.819,49-108c19.125-27.134,40.816-51.69,64-73
			c2.4-2.206,7.505-4.523,7-9C5200.396,887.198,5142.504,920.208,5100,947.234z M1992,1769.234c51.337-39.283,99.712-84.438,142-131
			c43.604-48.012,82.788-99.546,126-147c43.575-47.853,89.907-92.384,146-128c112.115-71.188,275.623-89.055,429-118
			c75.504-14.249,151.086-30.944,216-57c63.788-25.604,126.797-57.193,159-115c-0.224-0.776-0.027-1.973-1-2
			c-56.207,31.547-139.069,49.718-214,64c-79.287,15.112-159.605,24.313-243,30c-87.161,5.943-172.013,8.959-249,24
			c-75.144,14.681-143.638,36.841-201,72c-112.476,68.94-182.576,184.826-252,294c-35.394,55.66-73.874,108.653-114,159
			c-20.257,25.417-39.277,52.271-61,76c-19.678,21.494-41.546,38.009-65,54c-2.187,1.491-8.232,2.387-7,7
			C1881.958,1849.47,1940.771,1808.435,1992,1769.234z M5350,1638.234c0.195,40.624,17.303,84.754,44,109
			c20.596,18.704,52.341,36.366,87,36c44.744-0.473,79.746-31.654,101-63c10.439-15.397,19.008-34.622,25-57
			c4.986-18.618,14.348-50.458,5-70c-6.543-13.679-27.421-21.296-43-29c-50.406-24.925-94.342-50.174-142-75
			c0.004-0.555-0.81-1.135-1,0C5386,1515.377,5349.712,1578.077,5350,1638.234z M1696,1671.234c-33.396,16.414-68.651,30.921-106,44
			c-37.236,13.039-79.313,24.758-123,27c-97.156,4.987-187.559-8.672-263-34c-68.802-23.099-135.093-55.41-185-96
			c-2.483-2.02-4.968-6.565-9-6c17.008,38.246,49.13,67.545,79,95c30.085,27.654,62.388,54.591,99,76
			c71.575,41.853,169.016,74.753,282,66c51.025-3.953,96.919-18.108,139-35c85.919-34.489,149.184-82.908,204-146
			c27.436-31.578,54.509-65.823,68-107c0-0.667,0-1.333,0-2c-0.057-0.61-0.149-1.184-1-1
			C1826.043,1593.585,1766.437,1636.614,1696,1671.234z M941,3042.234c87.667,0,175.333,0,263,0
			c66.08-325.267,135.095-647.563,201-973c-87.001,0-173.999,0-261,0C1074.822,2392.042,1008.872,2718.115,941,3042.234z
			 M3535,2072.234c-68.843,323.466-137.893,646.785-207,970c82,0,164,0,246,0c39.083-195.559,79.332-394.944,118-590
			c5.492-27.702,10.34-56.098,19-83c68.91,223.408,135.842,448.832,204,673c108.002,0,215.999,0,324,0
			c68.606-324.388,137.822-648.18,206-973c-82,0-164,0-246,0c-45.086,225.588-90.087,451.241-137,675
			c-69.33-222.665-133.424-450.577-201-675c-108.002,0-215.999,0-324,0C3535.744,2069.644,3534.955,2070.523,3535,2072.234z
			 M5094,2696.234c-29.42,15.744-54.324,31.639-78,51c-23.479,19.2-43.012,42.4-63,66c-39.135,46.205-80.01,92.307-125,133
			c-46.063,41.664-99.502,71.768-165,93c87.8,13.63,166.33-12.154,226-40c127.721-59.604,197.375-171.597,297-257
			c50.188-43.023,107.828-75.156,174-103C5255.689,2619.137,5161.791,2659.957,5094,2696.234z"/>
		<path fill-rule="evenodd" clip-rule="evenodd" fill="#1D1D1B" d="M2842,1369.234c327.9-103.489,547.438-323.005,789-515
			c80.284-63.811,160.172-128.233,241-193c80.746-64.7,162.465-128.073,250-185c173.887-113.084,362.701-215.601,585-284
			c111.209-34.218,230.891-62.761,365-69c85.631-3.983,178.407,5.507,247,23c74.014,18.875,130.119,50.403,182,85
			c53.54,35.703,93.185,80.454,132,135c26.791,37.648,50.588,81.95,61,140c3.417,19.052,5.87,53.079-4,56
			c-11.423,3.38-30.351-26.789-34-31c-29.826-34.422-68.729-63.425-107-88c-52.355-33.62-108.585-66.608-172-87
			c-129.906-41.773-322.553-32.653-467-9c-146.817,24.041-274.588,68.091-396,122c-120.401,53.46-234.076,111.063-342,176
			c-107.419,64.633-210.785,134.815-313,205c-102.882,70.644-201.344,146.315-302,216c-151.341,104.774-299.921,216.108-496,281
			C2996.26,1368.66,2919.475,1388.923,2842,1369.234z"/>
		<path fill-rule="evenodd" clip-rule="evenodd" fill="#1D1D1B" d="M6377,1085.234c52.512,21.219,71.793,67.899,89,124
			c17.58,57.318,25.24,125.584,8,185c-15.703,54.116-45.489,97.439-85,128c-19.561,15.13-41.448,29.621-69,37
			c-26.954,7.219-56.735,7.478-87,19c-19.36,7.371-21.764,19.179-31,39c-12.23,26.247-34.294,52.726-44,79
			c-3.045,8.243-2.205,25.024-3,36c-5.559,76.789-32.441,132.301-58,192c-27.428,64.063-57.521,131.392-90,196
			c-31.102,61.867-68.405,119.333-111,175c-19.791,25.865-42.235,52.283-68,75c-25.963,22.891-53.734,45.611-85,58
			c-69.277,27.448-179.474,20.129-259,7c-42.052-6.942-85.186-17.558-127-10c-116.627,21.08-175.229,109.851-276,153
			c-64.404,27.577-150.203,49.06-240,25c67.331-19.461,128.041-46.16,176-87c48.598-41.384,96.823-80.218,139-124
			c44.826-46.531,80.67-92.558,157-106c40.547-7.141,83.926-1.823,121,5c67.387,12.402,156.795,35.665,233,18
			c72.92-16.903,107.662-63.403,141-122c47.771-83.965,95.217-166.185,132-262c24.214-63.072,46.441-130.632,56-206
			c5.334-42.06,3.786-85.761,8-124c4.496-40.798,17.229-67.623,36-95c19.145-27.922,36.119-52.949,48-84
			c34.432-89.984,35.98-243.791,11-349c-33.617-141.591-116.197-235.78-232-294c-60.016-30.173-132.478-40.712-225-36
			c-82.95,4.225-171.737,10.579-242-11c-32.959-10.123-63.11-22.907-87-44c-21.682-19.143-43.949-47.2-39-88
			c8.457-0.528,13.459,7.188,17,11c47.832,51.482,172.873,38.814,254,24c80.816-14.758,155.86-38.213,236-42
			c211.272-9.984,322.901,88.05,398,215c57.086,96.501,97.41,211.864,102,358c1.174,37.36-2.615,73.104-6,109
			c-1.158,12.275-4.326,30.045,0,36c12.473,17.17,47.688,1.073,62-9c37.983-26.735,58.723-71.005,57-133
			C6393.156,1132.85,6382.116,1108.763,6377,1085.234z"/>
		<path fill-rule="evenodd" clip-rule="evenodd" fill="#1D1D1B" d="M5268,900.234c0.505,4.477-4.6,6.794-7,9
			c-23.184,21.31-44.875,45.866-64,73c-21.273,30.181-42.266,65.104-49,108c-7.938,50.559,9.212,87.974,36,117
			c38.073,41.253,110.121,55.522,117,126c5.505,56.397-18.418,110.42-49,141c-30.339,30.337-88.601,53.178-146,35
			c-27.592-8.738-48.128-26.827-68-44c-60.112-51.948-100.967-126.612-102-234c-1.346-139.807,76.357-228.271,164-284
			C5142.504,920.208,5200.396,887.198,5268,900.234z"/>
		<path fill-rule="evenodd" clip-rule="evenodd" fill="#1D1D1B" d="M1803,1851.234c-1.232-4.613,4.813-5.509,7-7
			c23.454-15.991,45.322-32.506,65-54c21.723-23.729,40.743-50.583,61-76c40.126-50.347,78.606-103.34,114-159
			c69.424-109.174,139.524-225.06,252-294c57.362-35.159,125.856-57.319,201-72c76.987-15.041,161.839-18.057,249-24
			c83.395-5.687,163.713-14.888,243-30c74.931-14.282,157.793-32.453,214-64c0.973,0.027,0.776,1.224,1,2
			c-32.203,57.807-95.212,89.396-159,115c-64.914,26.056-140.496,42.751-216,57c-153.377,28.945-316.885,46.813-429,118
			c-56.093,35.616-102.425,80.147-146,128c-43.212,47.454-82.396,98.988-126,147c-42.288,46.562-90.663,91.717-142,131
			C1940.771,1808.435,1881.958,1849.47,1803,1851.234z"/>
		<path fill-rule="evenodd" clip-rule="evenodd" fill="#1D1D1B" d="M5426,1489.234c0.19-1.135,1.004-0.555,1,0
			c47.658,24.826,91.594,50.075,142,75c15.579,7.704,36.457,15.321,43,29c9.348,19.542-0.014,51.382-5,70
			c-5.992,22.378-14.561,41.603-25,57c-21.254,31.346-56.256,62.527-101,63c-34.659,0.366-66.404-17.296-87-36
			c-26.697-24.246-43.805-68.376-44-109C5349.712,1578.077,5386,1515.377,5426,1489.234z"/>
		<path fill-rule="evenodd" clip-rule="evenodd" fill="#1D1D1B" d="M1880,1552.234c0.851-0.184,0.943,0.39,1,1c0,0.667,0,1.333,0,2
			c-13.491,41.177-40.564,75.422-68,107c-54.816,63.092-118.081,111.511-204,146c-42.081,16.892-87.975,31.047-139,35
			c-112.984,8.753-210.425-24.147-282-66c-36.612-21.409-68.915-48.346-99-76c-29.87-27.455-61.992-56.754-79-95
			c4.032-0.565,6.517,3.98,9,6c49.907,40.59,116.198,72.901,185,96c75.441,25.328,165.844,38.987,263,34
			c43.687-2.242,85.764-13.961,123-27c37.349-13.079,72.604-27.586,106-44C1766.437,1636.614,1826.043,1593.585,1880,1552.234z"/>
		<path fill-rule="evenodd" clip-rule="evenodd" fill="#E50040" d="M1727,3059.234c-23.667,0-47.333,0-71,0
			c-100.019-6.979-189.923-24.078-270-51c20.325-65.676,40.728-131.271,61-197c65.704,37.462,152.577,55.001,253,55
			c91.133-0.001,194.704-24.203,195-114c0.156-47.212-32.715-71.078-65-89c-34.197-18.983-72.666-32.979-108-47
			c-71.844-28.508-146.117-66.971-180-129c-39.898-73.04-27.252-185.754,6-253c67.111-135.721,232.667-187.66,436-182
			c99.048,2.757,195.383,11.525,265,44c-21.176,64.157-41.192,129.475-63,193c-60.645-27.65-127.27-44.006-214-44
			c-82.641,0.005-170.434,6.333-185,74c-9.08,42.182,13.381,67.1,40,85c26.641,17.914,58.682,30.367,88,42
			c126.34,50.132,243.376,104.029,248,270c2.218,79.605-23.305,149.732-61,198C2026.125,3011.389,1888.746,3050.345,1727,3059.234z"
			/>
		<path fill-rule="evenodd" clip-rule="evenodd" fill="#E50040" d="M2769,3059.234c-22.333,0-44.667,0-67,0
			c-38.886-2.72-76.244-7.224-109-15c-163.127-38.728-268.175-149.131-288-329c-8.022-72.785-1.332-157.921,13-228
			c54.477-266.369,234.874-435,552-435c239.191,0,391.778,110.678,426,314c11.704,69.54,7.936,155.912-4,229
			C3246.33,2874.892,3078.085,3039.601,2769,3059.234z M2732,2279.234c-29.139,18.09-51.102,41.405-70,66
			c-40.142,52.241-65.236,110.486-81,190c-7.042,35.52-12.67,79.405-11,124c4.724,126.137,61.456,216.553,200,207
			c74.009-5.104,132.404-45.944,173-98c39.922-51.191,65.951-115.551,81-190c15.229-75.341,14.747-175.614-12-237
			c-27.899-64.031-88.524-101.471-176-95C2794.823,2249.28,2760.217,2261.716,2732,2279.234z"/>
		<path fill-rule="evenodd" clip-rule="evenodd" fill="#E50040" d="M0,3042.234c0-1,0-2,0-3c35.153-159.784,67.124-323.989,102-486
			c17.351-80.6,34.401-161.41,51-242c16.7-81.08,32.073-162.234,52-242c118.701,0.004,239.422-0.005,359,0
			c63.57,0.003,120.241-0.682,168,11c93.495,22.868,164.897,80.297,177,181c6.408,53.322-5.793,106.369-29,146
			c-33.456,57.134-84.845,94.248-152,116c-22.714,7.357-46.501,11.674-72,18c106.086,20.361,191.83,72.898,188,195
			c-3.787,120.714-61.207,192.787-143,240c-83.962,48.465-188.956,61.291-321,62C253.766,3038.912,127.064,3041.882,0,3042.234z
			 M381,2454.234c60.049-1.067,126.491,4.102,178-10c48.462-13.268,89.9-42.15,92-97c4.122-107.664-122.29-92.829-227-94
			C407.457,2318.024,395.301,2387.202,381,2454.234z M296,2858.234c115.654,2.852,241.051-1.427,278-80
			c11.463-24.375,15.637-62.284,4-92c-26.659-68.074-139.057-53.994-234-56C326.517,2704.75,311.887,2782.121,296,2858.234z"/>
		<path fill-rule="evenodd" clip-rule="evenodd" fill="#E50040" d="M1144,2069.234c87.001,0,173.999,0,261,0
			c-65.905,325.437-134.92,647.733-201,973c-87.667,0-175.333,0-263,0C1008.872,2718.115,1074.822,2392.042,1144,2069.234z"/>
		<path fill-rule="evenodd" clip-rule="evenodd" fill="#E50040" d="M3537,2069.234c108.001,0,215.998,0,324,0
			c67.576,224.423,131.67,452.335,201,675c46.913-223.759,91.914-449.412,137-675c82,0,164,0,246,0
			c-68.178,324.82-137.394,648.612-206,973c-108.001,0-215.998,0-324,0c-68.158-224.168-135.09-449.592-204-673
			c-8.66,26.902-13.508,55.298-19,83c-38.668,195.056-78.917,394.441-118,590c-82,0-164,0-246,0
			c69.107-323.215,138.157-646.534,207-970C3534.955,2070.523,3535.744,2069.644,3537,2069.234z"/>
		<path fill-rule="evenodd" clip-rule="evenodd" fill="#FFFFFF" d="M2836,2246.234c87.476-6.471,148.101,30.969,176,95
			c26.747,61.386,27.229,161.659,12,237c-15.049,74.449-41.078,138.809-81,190c-40.596,52.056-98.991,92.896-173,98
			c-138.544,9.553-195.276-80.863-200-207c-1.67-44.595,3.958-88.48,11-124c15.764-79.514,40.858-137.759,81-190
			c18.898-24.595,40.861-47.91,70-66C2760.217,2261.716,2794.823,2249.28,2836,2246.234z"/>
		<path fill-rule="evenodd" clip-rule="evenodd" fill="#FFFFFF" d="M424,2253.234c104.71,1.171,231.122-13.664,227,94
			c-2.1,54.85-43.538,83.732-92,97c-51.509,14.102-117.951,8.933-178,10C395.301,2387.202,407.457,2318.024,424,2253.234z"/>
		<path fill-rule="evenodd" clip-rule="evenodd" fill="#FFFFFF" d="M344,2630.234c94.943,2.006,207.341-12.074,234,56
			c11.637,29.716,7.463,67.625-4,92c-36.949,78.573-162.346,82.852-278,80C311.887,2782.121,326.517,2704.75,344,2630.234z"/>
		<path fill-rule="evenodd" clip-rule="evenodd" fill="#1D1D1B" d="M5360,2639.234c-66.172,27.844-123.813,59.977-174,103
			c-99.625,85.403-169.279,197.396-297,257c-59.67,27.846-138.2,53.63-226,40c65.498-21.232,118.937-51.336,165-93
			c44.99-40.693,85.865-86.795,125-133c19.988-23.6,39.521-46.8,63-66c23.676-19.361,48.58-35.256,78-51
			C5161.791,2659.957,5255.689,2619.137,5360,2639.234z"/>
	</g>
</g>
</svg>
