<?xml version="1.0" encoding="utf-8"?>
<!-- Generator: Adobe Illustrator 22.1.0, SVG Export Plug-In . SVG Version: 6.00 Build 0)  -->
<svg version="1.1"
     id="svg2"
     xmlns="http://www.w3.org/2000/svg" x="0px" y="0px" width="377.5px" height="169.8px"
     viewBox="0 0 377.5 169.8" style="enable-background:new 0 0 377.5 169.8;" xml:space="preserve">
<g id="g10" transform="matrix(1.3333333,0,0,-1.3333333,0,169.76)">
	<g id="g12" transform="scale(0.1)">
		<path id="path14" style="fill:#2A4FA9;" d="M179.8,2.1h25.6l-83,247.6H85.3L2.3,2.1h25.2l19,57.3h114.7L179.8,2.1 M53.9,82.5
			l47,143.6h5.4l47.5-143.6H53.9z M455.1,162.2v36.3c0,7.8-2.1,15.3-6.2,21.5c-2.9,4.5-15.7,17.7-21.1,21.9
			c-6.6,4.9-15.7,7.8-24.3,7.8H292.1V2.1h23.9v109.3H378L439,2.1h27.2l-61.5,109.3c8.3,0,16.5,2.9,23.1,7.9
			c5.4,4.1,18.2,16.9,21.1,21.4C453.1,146.9,455.1,154.3,455.1,162.2z M431.2,163c0-2.5,0-5.4-0.8-7c-3.7-7-13.6-16.1-20.2-19.8
			c-2.1-1.2-4.5-1.6-7-1.6h-87.1v92h87.1c2.5,0,5,0,7-1.2c6.6-3.7,16.5-13.6,20.2-20.6c0.8-1.7,0.8-4.5,0.8-7V163z M716.5,48.7
			l-23.9,6.6c-5.8-11.1-19-26.4-27.6-31c-1.2-0.8-3.7-1.2-5.8-1.2h-51.6c-2.1,0-4.1,0.4-5.4,1.2c-6.6,3.3-20.6,16.5-26,26
			c-0.8,1.7-1.2,3.3-1.2,5.4v139.5c0,2.1,0.4,4.1,1.2,5.8c5.4,9.5,19.4,22.7,26,26c1.2,0.8,3.3,1.2,5.4,1.2h51.6
			c2.1,0,4.5-0.4,5.8-1.2c8.7-4.5,22.7-19.8,27.6-31.4l23.9,7c-2.5,5.8-6.6,12-9.5,16.1c-5.8,7.8-16.9,20.6-25.6,26
			c-5.8,3.7-14.5,6.6-21,6.6h-54.9c-6.6,0-15.3-2.9-21-6.6c-7.4-4.5-23.5-21.9-28-28.9C552.7,210,551,203,551,196V54.9
			c0-7,1.7-14,5.4-19.8c4.5-7,20.6-23.9,28-28.5c5.8-3.7,14.9-6.6,21.5-6.6h54.5c6.6,0,15.3,2.9,21,6.6c8.7,5.4,19.8,18.2,25.6,26
			C709.9,36.7,714,42.9,716.5,48.7z M974.4,2.1v247.6h-23.9V137.4H833.7v112.3h-23.9V2.1h23.9v112.2h116.8V2.1H974.4z M1080.4,2.1
			h23.9v247.6h-23.9V2.1z M1390.6,249.6h-25.2l-68.9-222h-5.8l-69.3,222h-25.2L1275,2.1h37.2L1390.6,249.6z M1482.4,2.1h23.9v247.6
			h-23.9V2.1z M1754.8,2.1v23.1h-118v89.1h111.8v23.1h-111.8v89.1h118v23.1h-141.9V2.1H1754.8z M2022.6,162.2v36.3
			c0,7.8-2.1,15.3-6.2,21.5c-2.9,4.5-15.7,17.7-21,21.9c-6.6,4.9-15.7,7.8-24.3,7.8h-111.4V2.1h23.9v109.3h61.9l61.1-109.3h27.2
			l-61.5,109.3c8.3,0,16.5,2.9,23.1,7.9c5.4,4.1,18.2,16.9,21,21.4C2020.5,146.9,2022.6,154.3,2022.6,162.2z M1998.7,163
			c0-2.5,0-5.4-0.8-7c-3.7-7-13.6-16.1-20.2-19.8c-2.1-1.2-4.5-1.6-7-1.6h-87.1v92h87.1c2.5,0,4.9,0,7-1.2
			c6.6-3.7,16.5-13.6,20.2-20.6c0.8-1.7,0.8-4.5,0.8-7V163z M2292.4,54.9v194.8h-23.9V55.7c0-2.1-0.8-3.7-1.7-5.4
			c-5.4-9.5-18.6-22.7-25.2-26c-1.2-0.8-3.3-1.2-5.4-1.2h-51.1c-2.1,0-4.1,0.4-5.4,1.2c-6.6,3.3-20.6,16.5-26,26
			c-0.8,1.7-1.6,3.3-1.6,5.4v193.9h-23.9V54.9c0-7,1.6-14,5.4-19.8c4.5-7,20.6-23.9,28.1-28.5c5.8-3.7,14.9-6.6,21.4-6.6h55.3
			c6.6,0,15.3,2.9,21.1,6.6c7.4,4.5,23.5,21.5,28.1,28.5C2291.2,40.8,2292.4,47.9,2292.4,54.9L2292.4,54.9z M2557.4,2.1v247.6h-23.1
			V36.3l-106.9,213.3h-31.8V2.1h23.1v211.3L2526.4,2.1H2557.4z M2829.8,55.7v83h-80.5v-22.7h56.5V56.1c0-2.1-0.4-3.7-1.2-5.3
			c-5.4-9.5-19.8-23.1-26.4-26.4c-1.2-0.8-3.3-1.2-5.4-1.2h-59.4c-2.1,0-4.5,0.4-5.8,1.2c-6.6,3.3-20.6,16.5-26,26
			c-0.8,1.7-1.2,3.3-1.2,5.4v139.1c0,2.1,0.4,4.5,1.2,6.2c5.4,9.5,19.4,22.7,26,26c1.2,0.8,3.3,1.2,5.4,1.2h60.7
			c2.1,0,4.5-0.4,5.8-1.2c8.7-4.5,23.1-19.8,28.1-31.4l23.9,7c-2.5,5.8-6.6,11.6-9.5,15.7c-5.8,7.8-16.9,21-25.6,26.4
			c-5.8,3.7-14.9,6.6-21.5,6.6h-63.5c-6.6,0-15.7-2.9-21.5-6.6c-7.4-4.5-23.5-21.9-28.1-28.9c-3.7-5.8-5.4-13.2-5.4-20.2V54.9
			c0-7,1.7-14,5.4-19.8c4.6-7,20.6-23.9,28.1-28.5c5.8-3.7,14.9-6.6,21.5-6.6h63.5c6.6,0,15.3,2.9,21,6.6c3.3,2.1,9.7,7.8,18.2,18.8
			C2822.7,36.5,2829.8,43.9,2829.8,55.7"/>
		<path id="path16" style="fill:#45AADE;" d="M2728.2,910.8v226.1c0,88.4,0,116.9,102.7,116.9v19.7h-378.9v-19.7
			c102.6,0,102.6-28.4,102.6-116.9v-225h0V688c0-88.5,0-116.8-102.7-116.8v-19.7h378.9v19.7c-102.6,0-102.6,28.4-102.6,116.8
			L2728.2,910.8L2728.2,910.8 M2268.2,999.3c-48.8,0-87.9-38.8-88.4-87.5h-0.1c0-49.2,39.3-88.5,88.5-88.5
			c48.8,0,87.9,38.8,88.4,87.5h0.1C2356.6,960,2317.3,999.3,2268.2,999.3L2268.2,999.3z M1636.5,911.9h-0.5l-47-114.8l-49.1,114.8
			h-0.3l-154.7,361.5h-295.9v-19.7c102.6,0,102.6-28.4,102.6-116.9v-225h-0.1V660.7c0-60.1-29.5-89.5-102.6-89.5v-19.7h245.7v19.7
			c-73.2,0-102.7,29.5-102.7,89.5v250.1h0.1v289.4l2.2-2.2l124-287.3h0.3l155.2-359.4h13.1l150.3,359.4h0.4l123.4,294.9l2.2,2.2
			v-296h-0.1V688c0-88.5,0-116.8-102.6-116.8v-19.7h378.9v19.7c-102.7,0-102.7,28.4-102.7,116.8v222.9h0.1v226.1
			c0,88.4,0,116.9,102.6,116.9v19.7h-294.8L1636.5,911.9z M931.6,999.3c-48.8,0-87.9-38.8-88.4-87.5h-0.1
			c0-49.2,39.3-88.5,88.4-88.5c48.8,0,87.9,38.8,88.4,87.5h0.1C1020,960,980.7,999.3,931.6,999.3z M536.2,911.9v-4.4
			c0-137.6-28.4-314.5-202-314.5c-38.2,0-57.9,9.8-57.9,50.2v267.6h0.1v321.1h44.8C427.4,1231.9,534.7,1160.9,536.2,911.9
			L536.2,911.9z M340.8,1273.4H0.1v-19.7c102.6,0,102.6-28.4,102.6-116.9l0-225h-0.1V688c0-88.5,0-116.8-102.7-116.8v-19.7h329.8
			c304.5,0,397.8,186.3,398.6,359.4h0.1v1.1C728.5,1044.1,664,1273.4,340.8,1273.4"/>
	</g>
</g>
</svg>
