<?xml version="1.0" encoding="UTF-8" standalone="no"?>
<!-- Created with Inkscape (http://www.inkscape.org/) -->
<svg
   xmlns:dc="http://purl.org/dc/elements/1.1/"
   xmlns:cc="http://web.resource.org/cc/"
   xmlns:rdf="http://www.w3.org/1999/02/22-rdf-syntax-ns#"
   xmlns:svg="http://www.w3.org/2000/svg"
   xmlns="http://www.w3.org/2000/svg"
   xmlns:sodipodi="http://sodipodi.sourceforge.net/DTD/sodipodi-0.dtd"
   xmlns:inkscape="http://www.inkscape.org/namespaces/inkscape"
   id="svg2"
   sodipodi:version="0.32"
   inkscape:version="0.44.1"
   width="142"
   height="30"
   version="1.0"
   sodipodi:docbase="/home/mik/Documents/wikipedia/hilti"
   sodipodi:docname="hilti.svg">
  <metadata
     id="metadata7">
    <rdf:RDF>
      <cc:Work
         rdf:about="">
        <dc:format>image/svg+xml</dc:format>
        <dc:type
           rdf:resource="http://purl.org/dc/dcmitype/StillImage" />
      </cc:Work>
    </rdf:RDF>
  </metadata>
  <defs
     id="defs5" />
  <sodipodi:namedview
     inkscape:window-height="959"
     inkscape:window-width="1280"
     inkscape:pageshadow="2"
     inkscape:pageopacity="0.0"
     guidetolerance="10.0"
     gridtolerance="10.0"
     objecttolerance="10.0"
     borderopacity="1.0"
     bordercolor="#666666"
     pagecolor="#ffffff"
     id="base"
     gridspacingx="1px"
     gridspacingy="1px"
     showgrid="true"
     inkscape:zoom="13.43662"
     inkscape:cx="14.40424"
     inkscape:cy="14.925577"
     inkscape:window-x="0"
     inkscape:window-y="0"
     inkscape:current-layer="layer2" />
  <g
     inkscape:groupmode="layer"
     id="layer2"
     inkscape:label="vektor"
     style="display:inline">
    <path
       style="fill:red;fill-opacity:1;fill-rule:evenodd;stroke:none;stroke-width:1px;stroke-linecap:butt;stroke-linejoin:miter;stroke-opacity:1"
       d="M 0,30 L 142,30 L 142,0 L 0,0 L 0,30 z "
       id="path1893" />
    <path
       style="opacity:1;fill:white;fill-opacity:1;fill-rule:evenodd;stroke:none;stroke-width:1px;stroke-linecap:butt;stroke-linejoin:miter;stroke-opacity:1"
       d="M 6,5.9999995 L 6,24 L 16,24 L 16,20 L 16,19 L 34,19 L 34,24 L 44,24 L 44,5.9999995 L 34,5.9999995 L 34,11 L 16,11 L 16,5.9999995 L 6,5.9999995 z "
       id="path1879" />
    <path
       style="fill:white;fill-opacity:1;fill-rule:evenodd;stroke:none;stroke-width:1px;stroke-linecap:butt;stroke-linejoin:miter;stroke-opacity:1"
       d="M 46,6 L 46,24 L 56,24 L 56,6 L 46,6 z "
       id="path1885" />
    <path
       style="fill:white;fill-opacity:1;fill-rule:evenodd;stroke:none;stroke-width:1px;stroke-linecap:butt;stroke-linejoin:miter;stroke-opacity:1"
       d="M 58,24 L 90,24 L 90,16 L 68,16 L 68,6 L 58,6 L 58,24 z "
       id="path1887" />
    <path
       style="fill:white;fill-opacity:1;fill-rule:evenodd;stroke:none;stroke-width:1px;stroke-linecap:butt;stroke-linejoin:miter;stroke-opacity:1"
       d="M 98,24 L 108,24 L 108,14 L 124,14 L 124,6 L 82,6 L 82,14 L 98,14 L 98,24 z "
       id="path1889" />
    <path
       style="fill:white;fill-opacity:1;fill-rule:evenodd;stroke:none;stroke-width:1px;stroke-linecap:butt;stroke-linejoin:miter;stroke-opacity:1"
       d="M 126,24 L 136,24 L 136,6 L 126,6 L 126,24"
       id="path1891" />
  </g>
</svg>
