<?xml version="1.0" encoding="utf-8"?>
<!-- Generator: Adobe Illustrator 15.0.0, SVG Export Plug-In . SVG Version: 6.00 Build 0)  -->
<!DOCTYPE svg PUBLIC "-//W3C//DTD SVG 1.1//EN" "http://www.w3.org/Graphics/SVG/1.1/DTD/svg11.dtd">
<svg version="1.1" id="Ebene_1" xmlns="http://www.w3.org/2000/svg" xmlns:xlink="http://www.w3.org/1999/xlink" x="0px" y="0px"
	 width="285px" height="160px" viewBox="0 0 285 160" enable-background="new 0 0 285 160" xml:space="preserve">
<g>
	<path fill="#14387F" d="M237.638,111.875h16.621v4.285h-10.404v3.193h9.652v4.094h-9.652v3.955h10.708v4.547h-16.925V111.875
		L237.638,111.875z M222.148,120.008h2.617c0.28,0,0.827-0.09,1.641-0.271c0.411-0.084,0.748-0.295,1.01-0.631
		c0.257-0.336,0.388-0.725,0.388-1.164c0-0.65-0.206-1.145-0.617-1.49c-0.411-0.352-1.183-0.523-2.313-0.523h-2.725V120.008
		L222.148,120.008z M215.917,131.949v-20.074h10.34c1.916,0,3.384,0.162,4.394,0.494c1.014,0.328,1.832,0.936,2.454,1.828
		c0.621,0.889,0.93,1.973,0.93,3.248c0,1.117-0.238,2.076-0.711,2.885c-0.477,0.809-1.131,1.463-1.958,1.967
		c-0.533,0.318-1.257,0.586-2.179,0.791c0.739,0.248,1.276,0.494,1.618,0.742c0.224,0.164,0.556,0.516,0.99,1.053
		c0.435,0.541,0.725,0.953,0.87,1.248l3,5.818h-7.011l-3.313-6.137c-0.421-0.789-0.795-1.309-1.127-1.547
		c-0.444-0.309-0.953-0.463-1.52-0.463h-0.546v8.146H215.917L215.917,131.949z M205.536,111.875h6.193v11.971
		c0,1.186-0.188,2.303-0.557,3.359c-0.369,1.053-0.948,1.977-1.738,2.768c-0.79,0.789-1.617,1.342-2.487,1.664
		c-1.206,0.443-2.65,0.668-4.342,0.668c-0.977,0-2.043-0.064-3.197-0.205c-1.154-0.135-2.117-0.406-2.894-0.813
		c-0.775-0.408-1.486-0.986-2.131-1.734c-0.646-0.748-1.085-1.52-1.323-2.314c-0.383-1.275-0.574-2.406-0.574-3.393v-11.971h6.192
		v12.256c0,1.098,0.305,1.953,0.907,2.564c0.607,0.617,1.449,0.926,2.528,0.926c1.066,0,1.907-0.303,2.515-0.91
		c0.604-0.604,0.907-1.469,0.907-2.58V111.875L205.536,111.875z M170.812,111.875h18.855v4.959h-6.328v15.115h-6.203v-15.115h-6.324
		V111.875L170.812,111.875z M139.738,111.875h6.217v20.074h-6.217V111.875L139.738,111.875z M125.445,120.432h1.519
		c1.196,0,2.033-0.205,2.519-0.621c0.481-0.416,0.725-0.949,0.725-1.594c0-0.631-0.21-1.168-0.631-1.604
		c-0.416-0.439-1.206-0.658-2.365-0.658h-1.767V120.432L125.445,120.432z M119.214,111.875h10.311c2.244,0,3.926,0.531,5.043,1.602
		c1.117,1.066,1.678,2.59,1.678,4.559c0,2.029-0.608,3.613-1.828,4.754s-3.08,1.711-5.581,1.711h-3.393v7.449h-6.231V111.875
		L119.214,111.875z M169.007,125.869c-0.318,1.275-0.849,2.336-1.593,3.293c-0.743,1.061-1.806,1.805-2.867,2.336
		c-1.168,0.531-2.654,0.742-4.46,0.742c-2.23,0-4.035-0.318-5.416-0.955s-2.549-1.699-3.505-3.293
		c-1.062-1.592-1.486-3.717-1.486-6.158c0-3.293,0.85-5.84,2.549-7.646c1.805-1.805,4.354-2.654,7.54-2.654
		c2.549,0,4.566,0.424,5.947,1.486c1.486,1.063,2.548,2.549,3.186,4.672l0.105,0.107h-5.946c-0.106,0-0.106-0.107-0.213-0.213
		c-0.318-0.424-0.743-0.85-1.273-1.063c-0.425-0.318-1.063-0.424-1.699-0.424c-1.381,0-2.442,0.637-3.187,1.699
		c-0.531,0.85-0.85,2.23-0.85,3.928c0,2.232,0.318,3.824,1.063,4.674c0.637,0.744,1.593,1.168,2.761,1.168
		c1.274,0,2.124-0.318,2.761-0.955c0.213-0.213,0.319-0.426,0.531-0.744H169.007L169.007,125.869z"/>
	<polygon fill-rule="evenodd" clip-rule="evenodd" fill="#C6C6C6" points="48.346,29.669 59.684,29.669 59.684,41.008 
		48.346,41.008 48.346,29.669 	"/>
	<polygon fill-rule="evenodd" clip-rule="evenodd" fill="#C6C6C6" points="76.693,29.669 88.031,29.669 88.031,41.008 
		76.693,41.008 76.693,29.669 	"/>
	<polygon fill-rule="evenodd" clip-rule="evenodd" fill="#C6C6C6" points="102.205,29.669 90.867,29.669 90.867,41.008 
		102.205,41.008 102.205,29.669 	"/>
	<polygon fill-rule="evenodd" clip-rule="evenodd" fill="#C6C6C6" points="105.04,29.669 116.378,29.669 116.378,41.008 
		105.04,41.008 105.04,29.669 	"/>
	<polygon fill-rule="evenodd" clip-rule="evenodd" fill="#14387F" points="136.221,29.669 124.883,29.669 124.883,41.008 
		136.221,41.008 136.221,29.669 	"/>
	<polygon fill-rule="evenodd" clip-rule="evenodd" fill="#14387F" points="164.568,29.669 153.229,29.669 153.229,41.008 
		164.568,41.008 164.568,29.669 	"/>
	<polygon fill-rule="evenodd" clip-rule="evenodd" fill="#14387F" points="167.403,29.669 178.741,29.669 178.741,41.008 
		167.403,41.008 167.403,29.669 	"/>
	<polygon fill-rule="evenodd" clip-rule="evenodd" fill="#14387F" points="192.915,29.669 181.577,29.669 181.577,41.008 
		192.915,41.008 192.915,29.669 	"/>
	<polygon fill-rule="evenodd" clip-rule="evenodd" fill="#C6C6C6" points="201.419,29.669 212.758,29.669 212.758,41.008 
		201.419,41.008 201.419,29.669 	"/>
	<polygon fill-rule="evenodd" clip-rule="evenodd" fill="#C6C6C6" points="226.932,29.669 215.593,29.669 215.593,41.008 
		226.932,41.008 226.932,29.669 	"/>
	<polygon fill-rule="evenodd" clip-rule="evenodd" fill="#C6C6C6" points="229.767,29.669 241.104,29.669 241.104,41.008 
		229.767,41.008 229.767,29.669 	"/>
	<polygon fill-rule="evenodd" clip-rule="evenodd" fill="#C6C6C6" points="255.278,29.669 243.94,29.669 243.94,41.008 
		255.278,41.008 255.278,29.669 	"/>
	<polygon fill-rule="evenodd" clip-rule="evenodd" fill="#C6C6C6" points="20,55.182 31.338,55.182 31.338,43.843 20,43.843 
		20,55.182 	"/>
	<polygon fill-rule="evenodd" clip-rule="evenodd" fill="#C6C6C6" points="45.511,55.182 34.172,55.182 34.172,43.843 
		45.511,43.843 45.511,55.182 	"/>
	<polygon fill-rule="evenodd" clip-rule="evenodd" fill="#C6C6C6" points="73.858,55.182 62.52,55.182 62.52,43.843 73.858,43.843 
		73.858,55.182 	"/>
	<polygon fill-rule="evenodd" clip-rule="evenodd" fill="#C6C6C6" points="76.693,55.182 88.031,55.182 88.031,43.843 
		76.693,43.843 76.693,55.182 	"/>
	<polygon fill-rule="evenodd" clip-rule="evenodd" fill="#C6C6C6" points="105.04,55.182 116.378,55.182 116.378,43.843 
		105.04,43.843 105.04,55.182 	"/>
	<polygon fill-rule="evenodd" clip-rule="evenodd" fill="#14387F" points="139.056,55.182 150.395,55.182 150.395,43.843 
		139.056,43.843 139.056,55.182 	"/>
	<polygon fill-rule="evenodd" clip-rule="evenodd" fill="#14387F" points="164.568,55.182 153.229,55.182 153.229,43.843 
		164.568,43.843 164.568,55.182 	"/>
	<polygon fill-rule="evenodd" clip-rule="evenodd" fill="#14387F" points="167.403,55.182 178.741,55.182 178.741,43.843 
		167.403,43.843 167.403,55.182 	"/>
	<polygon fill-rule="evenodd" clip-rule="evenodd" fill="#14387F" points="192.915,55.182 181.577,55.182 181.577,43.843 
		192.915,43.843 192.915,55.182 	"/>
	<polygon fill-rule="evenodd" clip-rule="evenodd" fill="#C6C6C6" points="201.419,55.182 212.758,55.182 212.758,43.843 
		201.419,43.843 201.419,55.182 	"/>
	<polygon fill-rule="evenodd" clip-rule="evenodd" fill="#C6C6C6" points="226.932,55.182 215.593,55.182 215.593,43.843 
		226.932,43.843 226.932,55.182 	"/>
	<polygon fill-rule="evenodd" clip-rule="evenodd" fill="#C6C6C6" points="229.767,55.182 241.104,55.182 241.104,43.843 
		229.767,43.843 229.767,55.182 	"/>
	<polygon fill-rule="evenodd" clip-rule="evenodd" fill="#C6C6C6" points="255.278,55.182 243.94,55.182 243.94,43.843 
		255.278,43.843 255.278,55.182 	"/>
	<polygon fill-rule="evenodd" clip-rule="evenodd" fill="#C6C6C6" points="48.346,58.016 59.684,58.016 59.684,69.355 
		48.346,69.355 48.346,58.016 	"/>
	<polygon fill-rule="evenodd" clip-rule="evenodd" fill="#C6C6C6" points="73.858,58.016 62.52,58.016 62.52,69.355 73.858,69.355 
		73.858,58.016 	"/>
	<polygon fill-rule="evenodd" clip-rule="evenodd" fill="#C6C6C6" points="102.205,58.016 90.867,58.016 90.867,69.355 
		102.205,69.355 102.205,58.016 	"/>
	<polygon fill-rule="evenodd" clip-rule="evenodd" fill="#14387F" points="139.056,58.016 150.395,58.016 150.395,69.355 
		139.056,69.355 139.056,58.016 	"/>
	<polygon fill-rule="evenodd" clip-rule="evenodd" fill="#14387F" points="164.568,58.016 153.229,58.016 153.229,69.355 
		164.568,69.355 164.568,58.016 	"/>
	<polygon fill-rule="evenodd" clip-rule="evenodd" fill="#14387F" points="167.403,58.016 178.741,58.016 178.741,69.355 
		167.403,69.355 167.403,58.016 	"/>
	<polygon fill-rule="evenodd" clip-rule="evenodd" fill="#14387F" points="192.915,58.016 181.577,58.016 181.577,69.355 
		192.915,69.355 192.915,58.016 	"/>
	<polygon fill-rule="evenodd" clip-rule="evenodd" fill="#C6C6C6" points="201.419,58.016 212.758,58.016 212.758,69.355 
		201.419,69.355 201.419,58.016 	"/>
	<polygon fill-rule="evenodd" clip-rule="evenodd" fill="#C6C6C6" points="226.932,58.016 215.593,58.016 215.593,69.355 
		226.932,69.355 226.932,58.016 	"/>
	<polygon fill-rule="evenodd" clip-rule="evenodd" fill="#C6C6C6" points="229.767,58.016 241.104,58.016 241.104,69.355 
		229.767,69.355 229.767,58.016 	"/>
	<polygon fill-rule="evenodd" clip-rule="evenodd" fill="#C6C6C6" points="255.278,58.016 243.94,58.016 243.94,69.355 
		255.278,69.355 255.278,58.016 	"/>
	<polygon fill-rule="evenodd" clip-rule="evenodd" fill="#C6C6C6" points="45.511,83.529 34.172,83.529 34.172,72.19 45.511,72.19 
		45.511,83.529 	"/>
	<polygon fill-rule="evenodd" clip-rule="evenodd" fill="#C6C6C6" points="73.858,83.529 62.52,83.529 62.52,72.19 73.858,72.19 
		73.858,83.529 	"/>
	<polygon fill-rule="evenodd" clip-rule="evenodd" fill="#C6C6C6" points="102.205,83.529 90.867,83.529 90.867,72.19 
		102.205,72.19 102.205,83.529 	"/>
	<polygon fill-rule="evenodd" clip-rule="evenodd" fill="#C6C6C6" points="105.04,83.529 116.378,83.529 116.378,72.19 
		105.04,72.19 105.04,83.529 	"/>
	<polygon fill-rule="evenodd" clip-rule="evenodd" fill="#14387F" points="136.221,83.529 124.883,83.529 124.883,72.19 
		136.221,72.19 136.221,83.529 	"/>
	<polygon fill-rule="evenodd" clip-rule="evenodd" fill="#14387F" points="164.568,83.529 153.229,83.529 153.229,72.19 
		164.568,72.19 164.568,83.529 	"/>
	<polygon fill-rule="evenodd" clip-rule="evenodd" fill="#14387F" points="167.403,83.529 178.741,83.529 178.741,72.19 
		167.403,72.19 167.403,83.529 	"/>
	<polygon fill-rule="evenodd" clip-rule="evenodd" fill="#14387F" points="192.915,83.529 181.577,83.529 181.577,72.19 
		192.915,72.19 192.915,83.529 	"/>
	<polygon fill-rule="evenodd" clip-rule="evenodd" fill="#C6C6C6" points="201.419,83.529 212.758,83.529 212.758,72.19 
		201.419,72.19 201.419,83.529 	"/>
	<polygon fill-rule="evenodd" clip-rule="evenodd" fill="#C6C6C6" points="226.932,83.529 215.593,83.529 215.593,72.19 
		226.932,72.19 226.932,83.529 	"/>
	<polygon fill-rule="evenodd" clip-rule="evenodd" fill="#C6C6C6" points="229.767,83.529 241.104,83.529 241.104,72.19 
		229.767,72.19 229.767,83.529 	"/>
	<polygon fill-rule="evenodd" clip-rule="evenodd" fill="#C6C6C6" points="255.278,83.529 243.94,83.529 243.94,72.19 
		255.278,72.19 255.278,83.529 	"/>
	<polygon fill-rule="evenodd" clip-rule="evenodd" fill="#C6C6C6" points="45.511,86.363 34.172,86.363 34.172,97.701 
		45.511,97.701 45.511,86.363 	"/>
	<polygon fill-rule="evenodd" clip-rule="evenodd" fill="#C6C6C6" points="73.858,86.363 62.52,86.363 62.52,97.701 73.858,97.701 
		73.858,86.363 	"/>
	<polygon fill-rule="evenodd" clip-rule="evenodd" fill="#C6C6C6" points="76.693,86.363 88.031,86.363 88.031,97.701 
		76.693,97.701 76.693,86.363 	"/>
	<polygon fill-rule="evenodd" clip-rule="evenodd" fill="#C6C6C6" points="102.205,86.363 90.867,86.363 90.867,97.701 
		102.205,97.701 102.205,86.363 	"/>
	<polygon fill-rule="evenodd" clip-rule="evenodd" fill="#14387F" points="139.056,86.363 150.395,86.363 150.395,97.701 
		139.056,97.701 139.056,86.363 	"/>
	<polygon fill-rule="evenodd" clip-rule="evenodd" fill="#14387F" points="164.568,86.363 153.229,86.363 153.229,97.701 
		164.568,97.701 164.568,86.363 	"/>
	<polygon fill-rule="evenodd" clip-rule="evenodd" fill="#14387F" points="167.403,86.363 178.741,86.363 178.741,97.701 
		167.403,97.701 167.403,86.363 	"/>
	<polygon fill-rule="evenodd" clip-rule="evenodd" fill="#14387F" points="192.915,86.363 181.577,86.363 181.577,97.701 
		192.915,97.701 192.915,86.363 	"/>
	<polygon fill-rule="evenodd" clip-rule="evenodd" fill="#C6C6C6" points="201.419,86.363 212.758,86.363 212.758,97.701 
		201.419,97.701 201.419,86.363 	"/>
	<polygon fill-rule="evenodd" clip-rule="evenodd" fill="#C6C6C6" points="226.932,86.363 215.593,86.363 215.593,97.701 
		226.932,97.701 226.932,86.363 	"/>
	<polygon fill-rule="evenodd" clip-rule="evenodd" fill="#C6C6C6" points="229.767,86.363 241.104,86.363 241.104,97.701 
		229.767,97.701 229.767,86.363 	"/>
	<polygon fill-rule="evenodd" clip-rule="evenodd" fill="#C6C6C6" points="255.278,86.363 243.94,86.363 243.94,97.701 
		255.278,97.701 255.278,86.363 	"/>
	<path fill-rule="evenodd" clip-rule="evenodd" fill="#14387F" d="M119.214,24h79.37v79.371h-79.37V24L119.214,24z M122.049,26.835
		h73.7v73.7h-73.7V26.835L122.049,26.835z"/>
	<polygon fill-rule="evenodd" clip-rule="evenodd" fill="#14387F" points="164.568,97.701 153.229,97.701 153.229,86.363 
		164.568,86.363 164.568,97.701 	"/>
</g>
</svg>
