<?xml version="1.0" encoding="utf-8"?>
<!-- Generator: Adobe Illustrator 15.0.0, SVG Export Plug-In . SVG Version: 6.00 Build 0)  -->
<!DOCTYPE svg PUBLIC "-//W3C//DTD SVG 1.1//EN" "http://www.w3.org/Graphics/SVG/1.1/DTD/svg11.dtd">
<svg version="1.1" id="Ebene_1" xmlns="http://www.w3.org/2000/svg" x="0px" y="0px"
     width="1351.333px" height="398.2px" viewBox="-681.476 -302.139 1351.333 398.2"
     enable-background="new -681.476 -302.139 1351.333 398.2" xml:space="preserve">
<g>
	<g>
		<path fill="#FFFFFF" d="M-681.476-302.139c450.427,0,900.908,0,1351.333,0c0,132.736,0,265.463,0,398.2
			c-450.681,0-901.42,0-1352.083,0c0-131.982,0-263.967,0-395.951C-682.291-300.953-682.35-302.013-681.476-302.139z
			 M-476.001-294.64c-39.342,2.311-65.601,17.968-84.74,37.495c-4.793,4.891-13.061,18.54-18.748,21.748
			c-5.731,3.233-13.047,3.176-18.748,5.25c-41.383,15.052-79.795,54.598-74.989,113.985c1.415,17.485,7.604,32.367,14.998,44.245
			c3.287,5.278,15.18,15.259,16.498,20.997c1.631,7.104-1.363,15.284-0.75,23.247c1.95,25.311,16.299,50.045,31.496,65.241
			c25.681,25.682,76.077,45.279,126.733,31.496c5.31-1.444,12.459-6.006,17.998-6c5.37,0.009,11.702,3.992,17.248,5.25
			c48.95,11.099,91.525-6.437,116.985-29.996c20.987-19.42,39.201-48.833,34.496-89.988c20.16-20.989,36.597-47.563,32.996-88.489
			c-4.697-53.371-49.842-88.162-97.488-97.488C-385.997-269.433-419.046-297.985-476.001-294.64z M-23.059-171.655
			c-0.34,15.021,24.347,14.882,23.998,0c-0.188-7.908-7.311-12.007-15.749-9.749C-21.672-179.567-22.973-175.439-23.059-171.655z
			 M21.936-160.407c24.334-1.745,0.615-37.669-12.748-14.998c0,2.75,0,5.499,0,8.249C12.576-162.926,15.219-159.925,21.936-160.407z
			 M95.426-100.414c-4.344,42.415,39.988,72.777,80.99,53.993c0-7.499,0-14.998,0-22.497c-6.631,3.265-14.391,9.832-25.498,9.749
			c-19.633-0.146-31.471-15.892-32.994-30.746c-2.961-28.867,24.566-46.792,47.992-36.746c4.309,1.847,7.678,7.229,10.5,6
			c0-7.25,0-14.499,0-21.748C137.154-159.061,99.088-136.15,95.426-100.414z M-2.811-146.909
			C-18.012-112.116-32.94-77.051-47.056-41.172c7.5,0,14.999,0,22.498,0c3.918-6.831,5.6-15.897,10.499-21.748
			c12.999,0,25.997,0,38.997,0c2.176,7.823,6.119,13.878,8.248,21.748c7.748,0,15.498,0,23.248,0
			c-13.567-35.926-28.49-70.498-42.746-105.737C8.188-146.909,2.688-146.909-2.811-146.909z M654.107-135.66
			c-0.554-3.023-12.673-7.941-13.498-8.249c-6.316-2.349-12.695-3.373-19.498-3c-15.646,0.857-39.687,17.218-29.246,41.995
			c7.896,18.737,45.184,14.266,43.494,35.245c-1.693,21.021-33.427,11.938-35.996-1.5c-4.283,4.466-9.822,7.676-13.498,12.749
			c10.063,19.372,42.162,25.734,59.992,11.998c9.77-7.525,17.414-27.055,9-41.994c-7.406-13.146-41.67-16.745-41.996-29.997
			c-0.4-16.415,27.301-11.792,31.496-3.75C645.402-126.945,654.871-131.466,654.107-135.66z M-92.05-107.913
			c6.521-38.743-32.395-40.571-67.492-38.245c0,34.496,0,68.991,0,103.487c7.249,0,14.498,0,21.748,0
			c0.499-13.5-0.999-28.995,0.75-41.245c9.55,13.448,18.448,27.547,27.747,41.245c8.499,0,16.998,0,25.497,0
			c-7.096-14.161-23.37-29.61-29.996-44.245C-101.561-89.119-93.768-97.7-92.05-107.913z M227.41-42.671c7.25,0,14.498,0,21.748,0
			c0-15.498,0-30.996,0-46.494c6.125,6.317,11.67,14.111,18.746,23.247c3.693,4.767,14.025,21.516,19.498,23.247
			c8.037,2.542,15.676-1.812,26.248,0c-13.707-19.79-30.611-36.381-44.246-56.243c13.809-15.939,28.721-30.772,41.996-47.244
			c-8.75,0-17.498,0-26.248,0c-12.355,13.39-23.639,31.854-35.994,42.745c0-14.248,0-28.497,0-42.745c-7.25,0-14.498,0-21.748,0
			C227.41-111.663,227.41-77.167,227.41-42.671z M359.395-146.159c0,34.496,0,68.991,0,103.487c19.496,0,38.994,0,58.492,0
			c0-5.749,0-11.499,0-17.248c-12-0.498-25.994,0.998-36.746-0.75c0-9.249,0-18.498,0-27.746c11.748,0,23.498,0,35.246,0
			c0-5.75,0-11.499,0-17.248c-11.5-0.499-24.994,0.998-35.246-0.75c0-7.499,0-14.998,0-22.497c12.248,0,24.498,0,36.746,0
			c0-5.75,0-11.499,0-17.248C398.389-146.159,378.891-146.159,359.395-146.159z M537.871-106.413
			c6.576-39.073-32.354-40.426-67.49-38.245c0,34.496,0,68.991,0,103.487c7.25,0,14.498,0,21.748,0
			c0.498-13.5-0.998-28.995,0.75-41.245c4.236,5.729,8.764,12.692,14.248,20.997c3.52,5.334,9.063,18.326,14.998,20.248
			c6.854,2.22,14.252-1.583,23.996,0c-7.129-14.129-23.312-29.672-29.996-44.245C528.273-87.472,536.141-96.135,537.871-106.413z"/>
		<path fill="#EE1C25" d="M-362.016-237.646c47.646,9.326,92.791,44.117,97.488,97.488c3.602,40.925-12.835,67.5-32.996,88.489
			c4.705,41.155-13.509,70.567-34.496,89.987c-25.46,23.562-68.036,41.096-116.985,29.998c-5.545-1.26-11.877-5.242-17.248-5.25
			c-5.541-0.008-12.688,4.555-17.998,5.998c-50.656,13.783-101.053-5.813-126.733-31.494
			c-15.197-15.197-29.546-39.932-31.496-65.242c-0.613-7.963,2.381-16.144,0.75-23.247c-1.318-5.738-13.211-15.719-16.498-20.997
			c-7.396-11.878-13.583-26.76-14.998-44.245c-4.806-59.387,33.606-98.933,74.989-113.985c5.701-2.073,13.017-2.017,18.748-5.25
			c5.688-3.208,13.955-16.857,18.748-21.748c19.141-19.527,45.398-35.184,84.74-37.495
			C-419.046-297.985-385.997-269.433-362.016-237.646z M-477.501-283.391c-38.096,2.802-67.181,21.968-83.99,45.745
			c41.035-1.789,68.293,10.198,89.99,27.746c22.784-17.778,51.778-32.269,92.237-29.996
			C-398.458-265.146-432.914-286.671-477.501-283.391z M-371.765-227.897c-38.193-5.213-68.889,8.754-89.988,25.497
			c12.137,14.859,24.198,29.794,28.495,52.494c24.817-1.673,47.032,2.008,65.242,8.999
			C-355.31-164.206-355.409-208.576-371.765-227.897z M-488.75-190.403c1.875-2.609,9.146-10.061,8.998-11.249
			c-0.091-0.739-8.629-6.946-11.998-8.999c-20.914-12.747-46.817-17.921-77.24-14.999c-14.139,19.606-14.612,63.604-1.5,84.74
			c17.281-6.682,39.672-11.524,63.742-8.999C-503.564-165.761-497.192-178.654-488.75-190.403z M-356.767-135.66
			c26.059,15.436,46.742,36.247,56.243,68.242c15.331-14.321,25.979-41.023,23.997-68.242c-3.416-46.931-40.012-78.096-78.74-89.239
			C-342.712-201.229-344.306-158.11-356.767-135.66z M-586.988-221.898c-37.021,13.298-70.947,42.509-74.241,88.489
			c-1.923,26.843,7.765,49.654,22.497,65.992c10.023-31.471,29.459-53.531,56.992-67.492c-11.95-20.635-14.68-63.669-3-86.989
			c-0.5,0-1,0-1.5,0C-586.488-221.898-586.738-221.898-586.988-221.898z M-470.751-193.403
			c-11.068,11.929-19.459,26.537-23.998,44.995c9.865,0.2,17.617,7.59,26.248,7.499c7.973-0.084,14.146-6.877,23.246-6.75
			C-449.474-167.188-459.028-181.38-470.751-193.403z M-564.492-131.16c9.47,16.278,23.543,27.95,40.496,36.745
			c1.896-8.826,13.752-12.443,15.748-20.997c1.523-6.537-2.574-13.554-0.75-23.247C-529.791-141.306-549.041-136.316-564.492-131.16
			z M-431.007-138.66c1.008,6.406,1.276,16.143,0,22.497c6.202,6.546,12.229,13.268,17.248,20.998
			c16.342-8.656,30.22-19.774,38.995-35.996C-390.513-136.813-409.902-140.583-431.007-138.66z M-497-125.161
			c5.395-2.105,9.642-5.357,13.498-8.999c-4.625-0.624-8.709-1.79-12.748-3C-496.789-133.449-497.279-129.689-497-125.161z
			 M-453.505-134.16c1.881,4.369,7.629,4.87,10.5,8.249c0-3.5,0-6.999,0-10.499C-446.928-136.082-449.582-134.488-453.505-134.16z
			 M-469.251-127.411c-6.515,0.135-24.85,14.739-25.498,17.998c-1.722,8.662,9.307,21.437,10.5,27.747
			c11.334,1.061,19.959,0.499,29.996,0c4.293-9.206,8.262-18.734,10.5-29.997C-450.744-114.603-460.167-127.599-469.251-127.411z
			 M-576.49-125.161c-25.786,14.708-44.967,36.023-52.493,68.992c20.255,18.524,52.062,31.687,89.239,28.496
			c-1.524-23.771,2.933-41.562,9.748-56.993C-549.966-93.691-563.789-108.866-576.49-125.161z M-344.018-35.922
			c7.859-2.977,31.362-13.121,32.996-20.997c1.006-4.852-4.124-16.991-6.749-22.497c-9.833-20.623-28.491-36.649-44.995-45.745
			c-11.558,17.188-27.464,30.029-44.994,41.245c7.575,14.423,11.646,32.35,10.499,55.493
			C-378.21-26.893-361.572-29.272-344.018-35.922z M-439.255-85.416c5.875-0.123,9.106-2.892,14.247-3.749
			c-2.393-4.356-4.397-9.101-8.999-11.249C-435.207-94.866-437.069-89.978-439.255-85.416z M-512.748-89.165
			c4.189,1.311,7.627,3.372,12.748,3.749c-2.142-4.607-2.973-10.524-5.998-14.248C-507.642-95.559-511.345-93.513-512.748-89.165z
			 M-420.509-79.416c-7.339,3.908-16.545,5.951-26.246,7.499c-3.342,7.157-8.609,12.389-13.5,17.997
			c13.586,10.911,29.273,19.722,50.244,23.247C-408.212-49.238-411.858-68.806-420.509-79.416z M-492.5-71.917
			c-9.99-1.01-17.504-4.494-26.248-6.75c-5.898,12.642-10.92,30.018-8.248,48.744c19.662-4.334,35.35-12.644,48.744-23.247
			C-482.72-59.701-488.223-65.197-492.5-71.917z M-468.503-62.169c1.457-2.794,4.246-4.253,5.25-7.499c-4,0-7.998,0-11.998,0
			C-474.039-66.132-470.962-64.458-468.503-62.169z M-468.503-44.921c-14.797,9.7-33.48,22.012-56.242,26.247
			c5.408,25.14,19.455,43.486,37.494,56.992c5.176,3.875,15.733,11.541,20.998,11.248c5.155-0.284,14.144-8.394,18.748-11.998
			c18.36-14.377,30.064-32.375,35.996-56.242C-434.205-23.726-452.848-32.829-468.503-44.921z M-630.482-31.423
			c4.918,68.542,77.333,109.608,149.23,86.989c-27.533-15.211-47.621-37.869-56.242-71.991
			c-39.699,2.888-70.733-8.527-92.988-25.496C-630.296-38.13-630.733-34.917-630.482-31.423z M-309.522-41.171
			c-22.646,15.349-49.534,26.457-89.989,23.997c-7.071,34.674-27.596,55.895-52.494,72.74
			C-379.293,76.486-307.628,26.655-309.522-41.171z"/>
		<path fill="#FFFFFF" d="M-379.264-239.896c-40.459-2.272-69.454,12.218-92.237,29.996c-21.697-17.548-48.955-29.535-89.99-27.746
			c16.81-23.777,45.895-42.942,83.99-45.745C-432.914-286.671-398.458-265.146-379.264-239.896z"/>
		<path fill="#FFFFFF" d="M-368.015-140.909c-18.21-6.991-40.425-10.672-65.242-8.999c-4.297-22.7-16.359-37.634-28.496-52.494
			c21.101-16.742,51.795-30.71,89.989-25.497C-355.409-208.576-355.31-164.206-368.015-140.909z"/>
		<path fill="#FFFFFF" d="M-506.748-149.908c-24.07-2.525-46.461,2.317-63.742,8.999c-13.112-21.134-12.639-65.132,1.5-84.74
			c30.423-2.922,56.326,2.252,77.24,14.999c3.367,2.053,11.906,8.259,11.998,8.999c0.147,1.188-7.123,8.64-8.998,11.249
			C-497.192-178.654-503.564-165.761-506.748-149.908z"/>
		<path fill="#FFFFFF" d="M-355.267-224.898c38.729,11.143,75.324,42.308,78.74,89.239c1.98,27.219-8.667,53.92-23.997,68.242
			c-9.5-31.995-30.185-52.806-56.243-68.242C-344.306-158.11-342.712-201.229-355.267-224.898z"/>
		<path fill="#FFFFFF" d="M-586.238-221.898c0.5,0,1,0,1.5,0c-11.68,23.32-8.952,66.354,3,86.989
			c-27.534,13.961-46.969,36.021-56.993,67.492c-14.731-16.338-24.42-39.147-22.497-65.992c3.293-45.98,37.219-75.19,74.241-88.489
			C-586.738-221.898-586.488-221.898-586.238-221.898z"/>
		<path fill="#FFFFFF" d="M-445.255-147.659c-9.102-0.128-15.275,6.665-23.248,6.75c-8.629,0.091-16.382-7.299-26.246-7.499
			c4.539-18.458,12.928-33.065,23.996-44.995C-459.028-181.38-449.474-167.188-445.255-147.659z"/>
		<path fill="#EE1C25" d="M-14.809-181.404c8.438-2.258,15.563,1.841,15.749,9.749c0.35,14.882-24.338,15.021-23.998,0
			C-22.973-175.439-21.672-179.567-14.809-181.404z"/>
		<path fill="#EE1C25" d="M9.188-167.156c0-2.75,0-5.499,0-8.249c13.363-22.671,37.082,13.253,12.748,14.998
			C15.219-159.925,12.576-162.926,9.188-167.156z"/>
		<path fill="#EE1C25" d="M176.416-142.409c0,7.249,0,14.498,0,21.748c-2.82,1.229-6.189-4.152-10.498-6
			c-23.428-10.047-50.955,7.879-47.992,36.746c1.521,14.854,13.361,30.6,32.994,30.746c11.107,0.083,18.867-6.484,25.496-9.749
			c0,7.499,0,14.998,0,22.497c-41,18.784-85.334-11.578-80.988-53.993C99.088-136.15,137.154-159.061,176.416-142.409z"/>
		<path fill="#EE1C25" d="M13.688-146.909C27.941-111.67,42.863-77.097,56.432-41.172c-7.75,0-15.498,0-23.248,0
			c-2.129-7.87-6.072-13.925-8.248-21.748c-12.998,0-25.997,0-38.996,0c-4.899,5.851-6.581,14.917-10.499,21.748
			c-7.499,0-14.998,0-22.498,0c14.115-35.879,29.044-70.944,44.245-105.737C2.688-146.909,8.188-146.909,13.688-146.909z
			 M-8.81-79.416c8.999,0,17.998,0,26.996,0c-4.481-12.766-9.054-25.441-14.248-37.496C-0.438-104.54-4.397-91.751-8.81-79.416z"/>
		<path fill="#EE1C25" d="M644.357-122.161c-4.195-8.043-31.896-12.665-31.496,3.75c0.325,13.252,34.59,16.85,41.996,29.997
			c8.413,14.939,0.77,34.469-9,41.994c-17.83,13.736-49.931,7.374-59.992-11.998c3.678-5.073,9.215-8.283,13.498-12.749
			c2.569,13.437,34.305,22.521,35.996,1.5c1.688-20.979-35.601-16.508-43.494-35.245c-10.439-24.777,13.602-41.138,29.246-41.995
			c6.803-0.373,13.182,0.651,19.497,3c0.826,0.308,12.945,5.226,13.498,8.249C654.871-131.466,645.402-126.945,644.357-122.161z"/>
		<path fill="#EE1C25" d="M-113.797-86.916c6.626,14.635,22.9,30.084,29.996,44.245c-8.499,0-16.998,0-25.497,0
			c-9.298-13.698-18.198-27.797-27.747-41.245c-1.748,12.25-0.251,27.745-0.75,41.245c-7.25,0-14.499,0-21.748,0
			c0-34.496,0-68.992,0-103.487c35.098-2.326,74.013-0.498,67.492,38.245C-93.768-97.7-101.561-89.119-113.797-86.916z
			 M-137.794-129.66c0,10.499,0,20.997,0,31.496C-105.84-92.369-106.307-137.718-137.794-129.66z"/>
		<path fill="#EE1C25" d="M227.41-146.159c7.25,0,14.498,0,21.748,0c0,14.248,0,28.497,0,42.745
			c12.355-10.891,23.639-29.355,35.994-42.745c8.75,0,17.498,0,26.248,0c-13.275,16.472-28.188,31.305-41.996,47.244
			c13.635,19.862,30.539,36.453,44.246,56.243c-10.572-1.812-18.211,2.542-26.248,0c-5.473-1.731-15.805-18.48-19.498-23.247
			c-7.076-9.136-12.621-16.93-18.746-23.247c0,15.498,0,30.996,0,46.494c-7.25,0-14.498,0-21.748,0
			C227.41-77.167,227.41-111.663,227.41-146.159z"/>
		<path fill="#EE1C25" d="M417.887-146.159c0,5.75,0,11.499,0,17.248c-12.248,0-24.498,0-36.746,0c0,7.499,0,14.998,0,22.497
			c10.252,1.748,23.746,0.251,35.246,0.75c0,5.749,0,11.498,0,17.248c-11.748,0-23.498,0-35.246,0c0,9.248,0,18.497,0,27.746
			c10.752,1.748,24.746,0.252,36.746,0.75c0,5.749,0,11.499,0,17.248c-19.498,0-38.996,0-58.492,0c0-34.496,0-68.992,0-103.487
			C378.891-146.159,398.389-146.159,417.887-146.159z"/>
		<path fill="#EE1C25" d="M516.125-85.416c6.688,14.573,22.867,30.116,29.996,44.245c-9.744-1.583-17.144,2.22-23.998,0
			c-5.935-1.922-11.478-14.914-14.998-20.248c-5.482-8.305-10.01-15.269-14.248-20.997c-1.748,12.25-0.252,27.745-0.75,41.245
			c-7.248,0-14.498,0-21.748,0c0-34.496,0-68.992,0-103.487c35.139-2.181,74.068-0.828,67.492,38.245
			C536.141-96.135,528.273-87.472,516.125-85.416z M492.129-128.16c0,10.499,0,20.997,0,31.496
			C523.994-91.041,523.688-136,492.129-128.16z"/>
		<path fill="#FFFFFF" d="M-508.998-138.66c-1.824,9.693,2.273,16.71,0.75,23.247c-1.994,8.554-13.851,12.171-15.748,20.997
			c-16.951-8.795-31.025-20.467-40.494-36.745C-549.041-136.316-529.791-141.306-508.998-138.66z"/>
		<path fill="#FFFFFF" d="M-374.765-131.16c-8.775,16.222-22.653,27.34-38.995,35.996c-5.018-7.73-11.045-14.452-17.248-20.998
			c1.276-6.354,1.007-16.091,0-22.497C-409.902-140.583-390.513-136.813-374.765-131.16z"/>
		<path fill="#FFFFFF" d="M-496.25-137.16c4.041,1.21,8.123,2.376,12.75,3c-3.857,3.642-8.104,6.894-13.498,8.999
			C-497.279-129.689-496.789-133.449-496.25-137.16z"/>
		<path fill="#FFFFFF" d="M-443.005-136.41c0,3.5,0,6.999,0,10.499c-2.871-3.379-8.619-3.88-10.5-8.249
			C-449.582-134.488-446.928-136.082-443.005-136.41z"/>
		<path fill="#FFFFFF" d="M-137.794-98.164c0-10.499,0-20.998,0-31.496C-106.307-137.718-105.84-92.369-137.794-98.164z"/>
		<path fill="#FFFFFF" d="M492.129-96.664c0-10.499,0-20.998,0-31.496C523.688-136,523.994-91.041,492.129-96.664z"/>
		<path fill="#FFFFFF" d="M-443.755-111.663c-2.238,11.262-6.207,20.791-10.5,29.997c-10.037,0.499-18.662,1.061-29.996,0
			c-1.193-6.31-12.222-19.085-10.5-27.747c0.648-3.259,18.983-17.863,25.498-17.998
			C-460.167-127.599-450.744-114.603-443.755-111.663z"/>
		<path fill="#FFFFFF" d="M-529.996-84.666c-6.815,15.432-11.272,33.222-9.748,56.993c-37.18,3.189-68.984-9.972-89.239-28.496
			c7.526-32.969,26.707-54.284,52.493-68.992C-563.789-108.866-549.966-93.691-529.996-84.666z"/>
		<path fill="#FFFFFF" d="M-397.262-28.423c1.147-23.144-2.924-41.07-10.499-55.493c17.53-11.216,33.437-24.057,44.994-41.245
			c16.503,9.095,35.162,25.122,44.995,45.745c2.625,5.506,7.755,17.646,6.749,22.497c-1.634,7.876-25.137,18.021-32.996,20.997
			C-361.572-29.272-378.21-26.893-397.262-28.423z"/>
		<path fill="#FFFFFF" d="M3.938-116.912c5.193,12.055,9.765,24.73,14.248,37.496c-8.998,0-17.997,0-26.996,0
			C-4.397-91.751-0.438-104.54,3.938-116.912z"/>
		<path fill="#FFFFFF" d="M-434.007-100.414c4.602,2.148,6.606,6.893,8.999,11.249c-5.141,0.857-8.372,3.626-14.247,3.749
			C-437.069-89.978-435.207-94.866-434.007-100.414z"/>
		<path fill="#FFFFFF" d="M-505.998-99.664c3.025,3.724,3.856,9.641,5.998,14.248c-5.121-0.377-8.559-2.438-12.748-3.749
			C-511.345-93.513-507.642-95.559-505.998-99.664z"/>
		<path fill="#FFFFFF" d="M-410.01-30.673c-20.971-3.525-36.657-12.336-50.243-23.247c4.889-5.608,10.157-10.84,13.498-17.997
			c9.701-1.548,18.907-3.591,26.247-7.499C-411.858-68.806-408.212-49.238-410.01-30.673z"/>
		<path fill="#FFFFFF" d="M-478.251-53.17c-13.394,10.604-29.08,18.913-48.744,23.247c-2.67-18.727,2.351-36.103,8.25-48.744
			c8.744,2.256,16.256,5.74,26.246,6.75C-488.223-65.197-482.72-59.701-478.251-53.17z"/>
		<path fill="#FFFFFF" d="M-475.251-69.667c4,0,7.998,0,11.998,0c-1.002,3.246-3.793,4.705-5.25,7.499
			C-470.962-64.458-474.039-66.132-475.251-69.667z"/>
		<path fill="#FFFFFF" d="M-411.51-18.674c-5.931,23.867-17.635,41.865-35.995,56.242c-4.604,3.604-13.594,11.714-18.748,11.998
			c-5.265,0.293-15.822-7.373-20.998-11.248c-18.041-13.506-32.086-31.854-37.496-56.992c22.763-4.235,41.445-16.547,56.244-26.247
			C-452.848-32.829-434.205-23.726-411.51-18.674z"/>
		<path fill="#FFFFFF" d="M-630.482-41.921c22.255,16.969,53.29,28.384,92.988,25.496c8.623,34.122,28.709,56.78,56.242,71.991
			c-71.897,22.619-144.313-18.447-149.23-86.989C-630.733-34.917-630.296-38.13-630.482-41.921z"/>
		<path fill="#FFFFFF" d="M-452.005,55.566c24.897-16.849,45.422-38.066,52.494-72.74c40.455,2.46,67.342-8.648,89.989-23.997
			C-307.628,26.655-379.293,76.486-452.005,55.566z"/>
	</g>
</g>
</svg>
