<?xml version="1.0" encoding="utf-8"?>
<!-- Generator: Adobe Illustrator 22.1.0, SVG Export Plug-In . SVG Version: 6.00 Build 0)  -->
<svg version="1.1"
	 id="svg1036" xmlns:cc="http://creativecommons.org/ns#" xmlns:dc="http://purl.org/dc/elements/1.1/" xmlns:rdf="http://www.w3.org/1999/02/22-rdf-syntax-ns#" xmlns:svg="http://www.w3.org/2000/svg"
	 xmlns="http://www.w3.org/2000/svg" xmlns:xlink="http://www.w3.org/1999/xlink" x="0px" y="0px" width="1102.9px"
	 height="582.4px" viewBox="0 0 1102.9 582.4" style="enable-background:new 0 0 1102.9 582.4;" xml:space="preserve">
<g id="g1044" transform="matrix(1.3333333,0,0,-1.3333333,0,582.392)">
	<g id="g1046" transform="translate(287.668,413.745)">
		<path id="path1048" style="fill:#EF724A;" d="M0,0c0,12.7,10.3,23,23,23c12.7,0,23-10.3,23-23c0-12.7-10.3-23-23-23
			C10.3-23,0-12.7,0,0"/>
	</g>
	<g id="g1050" transform="translate(237.664,310.745)">
		<path id="path1052" style="fill:#EF724A;" d="M0,0c0,12.7,10.3,23,23,23c12.7,0,23-10.3,23-23S35.8-23,23-23C10.3-23,0-12.7,0,0"
			/>
	</g>
	<g id="g1054" transform="translate(148.668,354.745)">
		<path id="path1056" style="fill:#EF724A;" d="M0,0c0,12.7,10.3,23,23,23c12.7,0,23-10.3,23-23S35.8-23,23-23C10.3-23,0-12.7,0,0"
			/>
	</g>
	<g id="g1058" transform="translate(127.668,268.245)">
		<path id="path1060" style="fill:#EF724A;" d="M0,0c0,12.7,10.3,23,23,23c12.7,0,23-10.3,23-23S35.8-23,23-23C10.3-23,0-12.7,0,0"
			/>
	</g>
	<g id="g1062" transform="translate(253.543,213.995)">
		<path id="path1064" style="fill:#EF724A;" d="M0,0c0,12.7,10.3,23,23,23c12.7,0,23-10.3,23-23S35.8-23,23-23C10.3-23,0-12.7,0,0"
			/>
	</g>
	<g id="g1066" transform="translate(181.918,163.495)">
		<path id="path1068" style="fill:#EF724A;" d="M0,0c0,12.7,10.3,23,23,23c12.7,0,23-10.3,23-23c0-12.7-10.3-23-23-23
			C10.3-23,0-12.7,0,0"/>
	</g>
	<g id="g1070" transform="translate(271.596,112.439)">
		<path id="path1072" style="fill:#EF724A;" d="M0,0c0,9.5,7.7,17.2,17.2,17.2c9.5,0,17.2-7.7,17.2-17.2c0-9.5-7.7-17.2-17.2-17.2
			C7.7-17.2,0-9.5,0,0"/>
	</g>
	<g id="g1074" transform="translate(95.763,70.398)">
		<path id="path1076" style="fill:#EF724A;" d="M0,0c0,9.5,7.7,17.2,17.2,17.2c9.5,0,17.2-7.7,17.2-17.2c0-9.5-7.7-17.2-17.2-17.2
			C7.7-17.2,0-9.5,0,0"/>
	</g>
	<g id="g1078">
		<g>
			<defs>
				<rect id="SVGID_1_" x="-137.8" y="-72.7" width="1102.8" height="582.3"/>
			</defs>
			<clipPath id="SVGID_2_">
				<use xlink:href="#SVGID_1_"  style="overflow:visible;"/>
			</clipPath>
			<g id="g1080" style="clip-path:url(#SVGID_2_);">
				<g id="g1086" transform="translate(-3.1e-5,126.475)">
					<path id="path1088" style="fill:#EF724A;" d="M0,0c0,9.5,7.7,17.2,17.2,17.2c9.5,0,17.2-7.7,17.2-17.2
						c0-9.5-7.7-17.2-17.2-17.2C7.7-17.2,0-9.5,0,0"/>
				</g>
			</g>
		</g>
	</g>
	<g id="g1090" transform="translate(108.429,192.231)">
		<path id="path1092" style="fill:#EF724A;" d="M0,0c0,9.5,7.7,17.3,17.3,17.3c9.5,0,17.3-7.7,17.3-17.3c0-9.5-7.7-17.3-17.3-17.3
			C7.7-17.3,0-9.5,0,0"/>
	</g>
	<g id="g1094" transform="translate(36.083,264.163)">
		<path id="path1096" style="fill:#EF724A;" d="M0,0c0,9.5,7.7,17.2,17.2,17.2c9.5,0,17.2-7.7,17.2-17.2s-7.7-17.2-17.2-17.2
			C7.7-17.2,0-9.5,0,0"/>
	</g>
	<g id="g1098" transform="translate(75.543,132.12)">
		<path id="path1100" style="fill:#EF724A;" d="M0,0c0,12.7,10.3,23,23,23s23-10.3,23-23c0-12.7-10.3-23-23-23S0-12.7,0,0"/>
	</g>
	<g id="g1102" transform="translate(246.668,25.075)">
		<path id="path1104" style="fill:#EF724A;" d="M0,0c0,12.7,10.3,23,23,23c12.7,0,23-10.3,23-23c0-12.7-10.3-23-23-23
			C10.3-23,0-12.7,0,0"/>
	</g>
	<g id="g1106" transform="translate(127.413,62.076)">
		<path id="path1108" style="fill:#EF724A;" d="M0,0l2.2,7.6l119.6-34.5l-2.2-7.6L0,0"/>
	</g>
	<g id="g1110" transform="translate(205.896,151.223)">
		<path id="path1112" style="fill:#EF724A;" d="M0,0l7.2,3.4l53.3-112.5l-7.2-3.4L0,0"/>
	</g>
	<g id="g1114" transform="translate(219.073,150.53)">
		<path id="path1116" style="fill:#EF724A;" d="M0,0l4.2,6.8l55-33.8L55-33.8L0,0"/>
	</g>
	<g id="g1118" transform="translate(136.943,183.856)">
		<path id="path1120" style="fill:#EF724A;" d="M0,0l2.7,7.5l49.6-18L49.6-18L0,0"/>
	</g>
	<g id="g1122" transform="translate(223.63,171.841)">
		<path id="path1124" style="fill:#EF724A;" d="M0,0l-4.6,6.5l43.1,30.4l4.6-6.5L0,0"/>
	</g>
	<g id="g1126" transform="translate(169.283,255.686)">
		<path id="path1128" style="fill:#EF724A;" d="M0,0l3.1,7.3l85.3-36.5l-3.1-7.3L0,0"/>
	</g>
	<g id="g1130" transform="translate(260.283,289.538)">
		<path id="path1132" style="fill:#EF724A;" d="M0,0l7.8,1.3l9.1-56L9.1-56L0,0"/>
	</g>
	<g id="g1134" transform="translate(239.09,306.63)">
		<path id="path1136" style="fill:#EF724A;" d="M0,0l2.9-7.4l-69.1-26.8l-2.9,7.4L0,0"/>
	</g>
	<g id="g1138" transform="translate(162.918,335.727)">
		<path id="path1140" style="fill:#EF724A;" d="M0,0l7.7-1.9L-3.8-49.1l-7.7,1.9L0,0"/>
	</g>
	<g id="g1142" transform="translate(140.749,250.644)">
		<path id="path1144" style="fill:#EF724A;" d="M0,0l7.5-2.5L-7.9-48.6l-7.5,2.5L0,0"/>
	</g>
	<g id="g1146" transform="translate(128.89,271.177)">
		<path id="path1148" style="fill:#EF724A;" d="M0,0l0.3-7.9l-59.9-2.2l-0.3,7.9L0,0"/>
	</g>
	<g id="g1150" transform="translate(243.961,323.724)">
		<path id="path1152" style="fill:#EF724A;" d="M0,0l-3.5-7.1l-53.7,26.6l3.5,7.1L0,0"/>
	</g>
	<g id="g1154" transform="translate(126.962,78.709)">
		<path id="path1156" style="fill:#EF724A;" d="M0,0l-5.7,5.6L61,73.2l5.7-5.6L0,0"/>
	</g>
	<g id="g1158" transform="translate(113.909,82.938)">
		<path id="path1160" style="fill:#EF724A;" d="M0,0l-7.7-1.8l-7.7,32.7l7.7,1.8L0,0"/>
	</g>
	<g id="g1162" transform="translate(111.318,148.832)">
		<path id="path1164" style="fill:#EF724A;" d="M0,0l-7.3,3.1L5.9,34l7.3-3.1L0,0"/>
	</g>
	<g id="g1166" transform="translate(33.779,123.73)">
		<path id="path1168" style="fill:#EF724A;" d="M0,0l-0.5,7.9l44.1,2.9l0.5-7.9L0,0"/>
	</g>
	<g id="g1170" transform="translate(297.912,396.211)">
		<path id="path1172" style="fill:#EF724A;" d="M0,0l7.1-3.5L-25-69.2l-7.1,3.5L0,0"/>
	</g>
	<g id="text1176" transform="matrix(1,0,0,-1,338.167,249.728)">
		<path id="path5418" style="fill:#231F20;" d="M92.3-71.1L73.8,0H63.2L48.2-59L33.6,0H23.2L4.4-71.1h9.7L29-12l14.7-59.1h9.6
			l14.9,59.7L83-71.1H92.3z"/>
		<path id="path5420" style="fill:#231F20;" d="M138.8-25.7H99.5c0,3.3,0.5,6.1,1.5,8.6c1,2.4,2.3,4.4,4.1,6
			c1.7,1.5,3.6,2.7,5.9,3.4c2.3,0.8,4.8,1.1,7.5,1.1c3.6,0,7.3-0.7,10.9-2.1c3.7-1.5,6.3-2.9,7.9-4.3h0.5v9.8
			c-3,1.3-6.1,2.3-9.3,3.2c-3.2,0.9-6.5,1.3-9.9,1.3c-8.9,0-15.8-2.4-20.7-7.2c-5-4.8-7.4-11.6-7.4-20.4c0-8.7,2.4-15.6,7.1-20.8
			c4.8-5.1,11-7.7,18.8-7.7c7.2,0,12.7,2.1,16.6,6.3c3.9,4.2,5.9,10.2,5.9,17.9L138.8-25.7z M130-32.6c0-4.7-1.2-8.4-3.6-10.9
			c-2.3-2.6-5.9-3.9-10.6-3.9c-4.8,0-8.6,1.4-11.5,4.3c-2.8,2.8-4.4,6.4-4.8,10.6L130-32.6z"/>
		<path id="path5422" style="fill:#231F20;" d="M186.6-15.4c0,4.9-2,8.9-6.1,12c-4,3.1-9.5,4.7-16.5,4.7c-3.9,0-7.6-0.5-10.9-1.4
			c-3.3-1-6-2-8.3-3.1v-10.1h0.5c2.8,2.1,6,3.8,9.5,5.1c3.5,1.2,6.8,1.9,10,1.9c3.9,0,7-0.6,9.3-1.9s3.3-3.3,3.3-6
			c0-2.1-0.6-3.7-1.8-4.8c-1.2-1.1-3.5-2-7-2.8c-1.3-0.3-2.9-0.6-5-1c-2-0.4-3.9-0.8-5.6-1.2c-4.7-1.2-8-3.1-10-5.4
			c-1.9-2.4-2.9-5.4-2.9-8.9c0-2.2,0.4-4.3,1.3-6.2c0.9-1.9,2.3-3.7,4.2-5.2c1.8-1.5,4-2.7,6.8-3.5c2.8-0.9,5.9-1.3,9.3-1.3
			c3.2,0,6.4,0.4,9.6,1.2c3.3,0.8,6,1.7,8.2,2.8v9.6H184c-2.3-1.7-5.1-3.1-8.4-4.3c-3.3-1.2-6.5-1.8-9.6-1.8c-3.3,0-6,0.6-8.3,1.9
			c-2.3,1.2-3.4,3.1-3.4,5.6c0,2.2,0.7,3.9,2.1,5c1.3,1.1,3.5,2,6.5,2.7c1.7,0.4,3.5,0.8,5.5,1.1c2.1,0.4,3.8,0.7,5.2,1.1
			c4.2,1,7.4,2.6,9.6,4.9C185.5-22.4,186.6-19.3,186.6-15.4z"/>
		<path id="path5424" style="fill:#231F20;" d="M220.4-0.5c-1.7,0.4-3.5,0.8-5.5,1.1c-2,0.3-3.7,0.4-5.3,0.4
			c-5.4,0-9.6-1.5-12.4-4.4s-4.3-7.6-4.3-14.1v-28.4h-6.1v-7.5h6.1v-15.3h9v15.3h18.5v7.5h-18.5v24.3c0,2.8,0.1,5,0.2,6.6
			c0.1,1.6,0.6,3,1.3,4.4c0.7,1.3,1.7,2.2,2.9,2.8c1.2,0.6,3.1,0.9,5.6,0.9c1.5,0,3-0.2,4.6-0.6c1.6-0.4,2.7-0.8,3.4-1.1h0.5
			L220.4-0.5z"/>
		<path id="path5426" style="fill:#231F20;" d="M273.6-27.3c0,4.3-0.6,8.3-1.9,11.9c-1.2,3.6-3,6.6-5.3,9.1
			c-2.1,2.4-4.6,4.2-7.4,5.5c-2.8,1.3-5.8,1.9-9,1.9c-2.8,0-5.3-0.3-7.5-0.9c-2.2-0.6-4.5-1.5-6.8-2.8v22.3h-9v-73h9v5.6
			c2.4-2,5.1-3.7,8-5c3-1.4,6.2-2.1,9.6-2.1c6.4,0,11.4,2.4,15,7.3C271.8-42.7,273.6-35.9,273.6-27.3z M264.3-27.1
			c0-6.4-1.1-11.2-3.3-14.4c-2.2-3.2-5.6-4.8-10.1-4.8c-2.6,0-5.2,0.6-7.8,1.7c-2.6,1.1-5.1,2.6-7.5,4.4V-10
			c2.5,1.1,4.7,1.9,6.5,2.3c1.8,0.4,3.9,0.6,6.3,0.6c5,0,8.9-1.7,11.7-5.1C262.9-15.5,264.3-20.5,264.3-27.1z"/>
		<path id="path5428" style="fill:#231F20;" d="M325.4,0h-9v-30.4c0-2.5-0.1-4.7-0.4-6.9c-0.3-2.2-0.8-3.9-1.6-5.1
			c-0.8-1.3-1.9-2.3-3.4-3c-1.5-0.7-3.4-1-5.8-1c-2.5,0-5,0.6-7.7,1.8c-2.7,1.2-5.2,2.8-7.7,4.6V0h-9v-74.3h9v26.9
			c2.8-2.3,5.7-4.1,8.7-5.4s6.1-2,9.2-2c5.8,0,10.2,1.7,13.2,5.2s4.5,8.5,4.5,15V0z"/>
		<path id="path5430" style="fill:#231F20;" d="M376.9,0H368v-5.7c-0.8,0.5-1.9,1.3-3.2,2.3c-1.3,1-2.6,1.7-3.9,2.3
			c-1.5,0.7-3.2,1.3-5.2,1.8c-1.9,0.5-4.2,0.8-6.8,0.8c-4.8,0-8.9-1.6-12.2-4.8s-5-7.2-5-12.2c0-4,0.9-7.3,2.6-9.8
			c1.8-2.5,4.2-4.5,7.4-5.9c3.2-1.4,7.1-2.4,11.7-2.9c4.6-0.5,9.4-0.9,14.7-1.1v-1.4c0-2-0.4-3.7-1.1-5.1c-0.7-1.3-1.7-2.4-3.1-3.2
			c-1.3-0.7-2.8-1.2-4.6-1.5s-3.6-0.4-5.6-0.4c-2.4,0-5,0.3-7.9,1c-2.9,0.6-5.9,1.5-9,2.7h-0.5v-9.1c1.8-0.5,4.3-1,7.6-1.6
			c3.3-0.6,6.6-0.9,9.8-0.9c3.8,0,7,0.3,9.8,1c2.8,0.6,5.2,1.7,7.3,3.2c2,1.5,3.5,3.4,4.6,5.7c1.1,2.3,1.6,5.2,1.6,8.6L376.9,0z
			 M368-13.1V-28c-2.7,0.2-6,0.4-9.7,0.7c-3.7,0.3-6.6,0.8-8.8,1.4c-2.6,0.7-4.7,1.9-6.3,3.4c-1.6,1.5-2.4,3.6-2.4,6.4
			c0,3.1,0.9,5.4,2.8,6.9c1.8,1.5,4.7,2.3,8.5,2.3c3.2,0,6-0.6,8.6-1.8C363.3-9.9,365.7-11.4,368-13.1L368-13.1z"/>
		<path id="path5432" style="fill:#231F20;" d="M396.1,0h-9v-74.3h9V0z"/>
		<path id="path5434" style="fill:#231F20;" d="M419.9-62.3h-10.1v-9.3h10.1V-62.3z M419.3,0h-9v-53.3h9V0z"/>
		<path id="path5436" style="fill:#231F20;" d="M474.9,0H466v-5.7c-0.8,0.5-1.9,1.3-3.2,2.3c-1.3,1-2.6,1.7-3.9,2.3
			c-1.5,0.7-3.2,1.3-5.2,1.8c-1.9,0.5-4.2,0.8-6.8,0.8c-4.8,0-8.9-1.6-12.2-4.8s-5-7.2-5-12.2c0-4,0.9-7.3,2.6-9.8
			c1.8-2.5,4.2-4.5,7.4-5.9c3.2-1.4,7.1-2.4,11.7-2.9c4.6-0.5,9.4-0.9,14.7-1.1v-1.4c0-2-0.4-3.7-1.1-5.1c-0.7-1.3-1.7-2.4-3.1-3.2
			c-1.3-0.7-2.8-1.2-4.6-1.5s-3.6-0.4-5.6-0.4c-2.4,0-5,0.3-7.9,1c-2.9,0.6-5.9,1.5-9,2.7h-0.5v-9.1c1.8-0.5,4.3-1,7.6-1.6
			c3.3-0.6,6.6-0.9,9.8-0.9c3.8,0,7,0.3,9.8,1c2.8,0.6,5.2,1.7,7.3,3.2c2,1.5,3.5,3.4,4.6,5.7c1.1,2.3,1.6,5.2,1.6,8.6L474.9,0z
			 M466-13.1V-28c-2.7,0.2-6,0.4-9.7,0.7c-3.7,0.3-6.6,0.8-8.8,1.4c-2.6,0.7-4.7,1.9-6.3,3.4c-1.6,1.5-2.4,3.6-2.4,6.4
			c0,3.1,0.9,5.4,2.8,6.9c1.8,1.5,4.7,2.3,8.5,2.3c3.2,0,6-0.6,8.6-1.8C461.3-9.9,463.8-11.4,466-13.1z"/>
	</g>
	<g id="text1180" transform="matrix(1,0,0,-1,340.667,138.558)">
		<path id="path5439" style="fill:#231F20;" d="M101.8-47.3c0,8.8-2,16.8-6.1,23.8c-4,7-9.1,12.3-15.3,16.1
			c-4.6,2.8-9.7,4.8-15.2,5.9S53.1,0,45.6,0H12.1v-94.9h34.4c7.7,0,14.4,0.7,20,2c5.6,1.3,10.3,3.1,14.1,5.5
			c6.5,4,11.7,9.4,15.4,16.2C99.9-64.5,101.8-56.5,101.8-47.3z M76.5-47.5c0-6.2-1.1-11.6-3.4-16C70.8-68,67.2-71.5,62.3-74
			c-2.5-1.2-5.1-2.1-7.7-2.5c-2.6-0.5-6.5-0.7-11.8-0.7h-6.2v59.4h6.2c5.8,0,10.1-0.3,12.8-0.8c2.7-0.6,5.4-1.5,8-2.9
			c4.5-2.5,7.7-5.9,9.8-10.2C75.4-36,76.5-41.2,76.5-47.5z"/>
		<path id="path5441" style="fill:#231F20;" d="M136.8-18.7v-14.9c-3.1,0.3-6.5,0.6-10.1,1.1c-3.6,0.4-6.4,0.9-8.2,1.5
			c-2.3,0.7-4.1,1.8-5.3,3.2c-1.2,1.4-1.8,3.2-1.8,5.4c0,1.5,0.1,2.7,0.4,3.6c0.3,0.9,0.9,1.8,1.9,2.7c1,0.8,2.1,1.5,3.5,1.9
			c1.4,0.4,3.5,0.6,6.4,0.6c2.3,0,4.6-0.5,6.9-1.4C132.9-15.9,135-17.1,136.8-18.7z M136.8-7.6c-1.2,0.9-2.8,2.1-4.6,3.4
			s-3.5,2.4-5.2,3.1c-2.3,1-4.6,1.8-7,2.2c-2.4,0.5-5.1,0.8-8,0.8c-6.8,0-12.5-2.1-17.1-6.3s-6.9-9.6-6.9-16.1
			c0-5.2,1.2-9.5,3.5-12.8c2.3-3.3,5.6-5.9,9.9-7.8c4.2-1.9,9.5-3.3,15.8-4.1s12.8-1.4,19.6-1.8v-0.4c0-4-1.6-6.7-4.8-8.2
			c-3.2-1.5-8-2.3-14.3-2.3c-3.8,0-7.8,0.7-12.1,2c-4.3,1.3-7.4,2.3-9.2,3.1h-2.1V-70c2.4-0.6,6.4-1.4,11.8-2.2
			c5.5-0.9,11-1.3,16.4-1.3c13,0,22.5,2,28.2,6.1c5.8,4,8.7,10.3,8.7,18.9V0h-22.7L136.8-7.6z"/>
		<path id="path5443" style="fill:#231F20;" d="M208.8-0.6c-2.5,0.6-5.1,1.1-7.8,1.5c-2.8,0.4-6.1,0.6-10.1,0.6
			c-8.9,0-15.6-1.8-19.9-5.4c-4.3-3.6-6.5-9.8-6.5-18.5V-56h-9.4v-15.5h9.4V-92h22.9v20.5h21.5V-56h-21.5v25.4c0,2.5,0,4.7,0.1,6.6
			c0,1.9,0.4,3.5,1,5c0.6,1.5,1.6,2.7,3.1,3.6c1.5,0.8,3.7,1.3,6.6,1.3c1.2,0,2.7-0.3,4.7-0.8c2-0.5,3.3-1,4.1-1.4h1.9L208.8-0.6z"
			/>
		<path id="path5445" style="fill:#231F20;" d="M254.6-18.7v-14.9c-3.1,0.3-6.5,0.6-10.1,1.1c-3.6,0.4-6.4,0.9-8.2,1.5
			c-2.3,0.7-4.1,1.8-5.3,3.2c-1.2,1.4-1.8,3.2-1.8,5.4c0,1.5,0.1,2.7,0.4,3.6c0.3,0.9,0.9,1.8,1.9,2.7c1,0.8,2.1,1.5,3.5,1.9
			c1.4,0.4,3.5,0.6,6.4,0.6c2.3,0,4.6-0.5,6.9-1.4C250.7-15.9,252.8-17.1,254.6-18.7z M254.6-7.6c-1.2,0.9-2.8,2.1-4.6,3.4
			c-1.8,1.3-3.5,2.4-5.2,3.1c-2.3,1-4.6,1.8-7,2.2c-2.4,0.5-5.1,0.8-8,0.8c-6.8,0-12.5-2.1-17.1-6.3c-4.6-4.2-6.9-9.6-6.9-16.1
			c0-5.2,1.2-9.5,3.5-12.8c2.3-3.3,5.6-5.9,9.9-7.8c4.2-1.9,9.5-3.3,15.8-4.1c6.3-0.8,12.8-1.4,19.6-1.8v-0.4c0-4-1.6-6.7-4.8-8.2
			c-3.2-1.5-8-2.3-14.3-2.3c-3.8,0-7.8,0.7-12.1,2c-4.3,1.3-7.4,2.3-9.2,3.1h-2.1V-70c2.4-0.6,6.4-1.4,11.8-2.2
			c5.5-0.9,11-1.3,16.4-1.3c13,0,22.5,2,28.2,6.1c5.8,4,8.7,10.3,8.7,18.9V0h-22.7V-7.6z"/>
		<path id="path5447" style="fill:#231F20;" d="M351.7,0h-68.4v-94.9h24.5v76.5h44V0z"/>
		<path id="path5449" style="fill:#231F20;" d="M386.7-18.7v-14.9c-3.1,0.3-6.5,0.6-10.1,1.1c-3.6,0.4-6.4,0.9-8.2,1.5
			c-2.3,0.7-4.1,1.8-5.3,3.2c-1.2,1.4-1.8,3.2-1.8,5.4c0,1.5,0.1,2.7,0.4,3.6c0.3,0.9,0.9,1.8,1.9,2.7c1,0.8,2.1,1.5,3.5,1.9
			c1.4,0.4,3.5,0.6,6.4,0.6c2.3,0,4.6-0.5,6.9-1.4C382.8-15.9,384.9-17.1,386.7-18.7z M386.7-7.6c-1.2,0.9-2.8,2.1-4.6,3.4
			s-3.5,2.4-5.2,3.1c-2.3,1-4.6,1.8-7,2.2c-2.4,0.5-5.1,0.8-8,0.8c-6.8,0-12.5-2.1-17.1-6.3S338-14,338-20.5c0-5.2,1.2-9.5,3.5-12.8
			c2.3-3.3,5.6-5.9,9.9-7.8c4.2-1.9,9.5-3.3,15.8-4.1s12.8-1.4,19.6-1.8v-0.4c0-4-1.6-6.7-4.8-8.2c-3.2-1.5-8-2.3-14.3-2.3
			c-3.8,0-7.8,0.7-12.1,2c-4.3,1.3-7.4,2.3-9.2,3.1h-2.1V-70c2.4-0.6,6.4-1.4,11.8-2.2c5.5-0.9,11-1.3,16.4-1.3
			c13,0,22.5,2,28.2,6.1c5.8,4,8.7,10.3,8.7,18.9V0h-22.7V-7.6z"/>
		<path id="path5451" style="fill:#231F20;" d="M488.6-36.8c0,11.3-3.1,20.4-9.4,27.5C473-2.1,465.3,1.4,456,1.4
			c-4,0-7.5-0.4-10.5-1.3s-5.9-2.1-8.6-3.7l-1,3.6h-22v-99.1h22.9v35c3.5-2.8,7.1-5.1,10.8-6.8c3.7-1.7,7.9-2.6,12.7-2.6
			c9,0,16,3.3,20.9,9.8C486.2-57.2,488.6-48.2,488.6-36.8z M465-36.3c0-6.4-1.1-11.3-3.2-14.7c-2.2-3.4-6-5.2-11.6-5.2
			c-2.2,0-4.4,0.3-6.7,1c-2.3,0.6-4.5,1.6-6.6,2.8v35.9c1.7,0.6,3.2,1,4.7,1.2s3.3,0.3,5.4,0.3c6.1,0,10.6-1.8,13.6-5.4
			S465-29.2,465-36.3z"/>
	</g>
	<g id="text1184" transform="matrix(1,0,0,-1,346.667,95.5)">
		<path id="path5454" style="fill:#231F20;" d="M26.2-13.4c0,2.4-0.5,4.6-1.6,6.6c-1.1,2-2.5,3.5-4.2,4.6c-1.2,0.8-2.6,1.3-4.1,1.6
			C14.8-0.2,12.8,0,10.4,0H3.6v-26.8h6.7c2.6,0,4.7,0.2,6.2,0.6c1.5,0.4,2.9,0.9,3.9,1.5c1.8,1.1,3.2,2.7,4.3,4.5S26.2-16,26.2-13.4
			z M22.5-13.4c0-2.1-0.4-3.9-1.1-5.3c-0.7-1.4-1.8-2.6-3.3-3.4c-1.1-0.6-2.2-1-3.4-1.2c-1.2-0.2-2.6-0.4-4.3-0.4H7.2v20.6h3.3
			c1.7,0,3.2-0.1,4.5-0.4c1.3-0.3,2.5-0.7,3.5-1.4c1.3-0.9,2.3-2,3-3.4C22.1-9.6,22.5-11.3,22.5-13.4z"/>
		<path id="path5456" style="fill:#231F20;" d="M42.3,0H39v-2.1c-0.3,0.2-0.7,0.5-1.2,0.9c-0.5,0.4-1,0.6-1.5,0.9
			c-0.6,0.3-1.2,0.5-1.9,0.7c-0.7,0.2-1.6,0.3-2.6,0.3c-1.8,0-3.3-0.6-4.6-1.8c-1.3-1.2-1.9-2.7-1.9-4.6c0-1.5,0.3-2.7,1-3.7
			c0.7-0.9,1.6-1.7,2.8-2.2c1.2-0.5,2.7-0.9,4.4-1.1c1.7-0.2,3.6-0.3,5.5-0.4v-0.5c0-0.8-0.1-1.4-0.4-1.9c-0.3-0.5-0.6-0.9-1.2-1.2
			c-0.5-0.3-1.1-0.5-1.7-0.6c-0.7-0.1-1.4-0.1-2.1-0.1c-0.9,0-1.9,0.1-3,0.4c-1.1,0.2-2.2,0.6-3.4,1h-0.2v-3.4
			c0.7-0.2,1.6-0.4,2.9-0.6c1.2-0.2,2.5-0.3,3.7-0.3c1.4,0,2.6,0.1,3.7,0.4c1.1,0.2,2,0.6,2.7,1.2c0.8,0.6,1.3,1.3,1.7,2.1
			c0.4,0.9,0.6,2,0.6,3.3V0z M39-4.9v-5.6c-1,0.1-2.2,0.1-3.6,0.3c-1.4,0.1-2.5,0.3-3.3,0.5c-1,0.3-1.8,0.7-2.4,1.3
			c-0.6,0.6-0.9,1.4-0.9,2.4c0,1.2,0.3,2,1,2.6c0.7,0.6,1.8,0.9,3.2,0.9c1.2,0,2.3-0.2,3.3-0.7C37.2-3.7,38.1-4.3,39-4.9z"/>
		<path id="path5458" style="fill:#231F20;" d="M56.3-0.2C55.7,0,55,0.1,54.3,0.2c-0.7,0.1-1.4,0.2-2,0.2c-2,0-3.6-0.6-4.7-1.7
			C46.5-2.4,46-4.1,46-6.6v-10.7h-2.3v-2.8H46v-5.8h3.4v5.8h7v2.8h-7v9.1c0,1.1,0,1.9,0.1,2.5c0,0.6,0.2,1.1,0.5,1.7
			c0.3,0.5,0.6,0.8,1.1,1.1c0.5,0.2,1.2,0.3,2.1,0.3c0.6,0,1.1-0.1,1.7-0.2c0.6-0.2,1-0.3,1.3-0.4h0.2L56.3-0.2z"/>
		<path id="path5460" style="fill:#231F20;" d="M74.3,0h-3.4v-2.1c-0.3,0.2-0.7,0.5-1.2,0.9c-0.5,0.4-1,0.6-1.5,0.9
			c-0.6,0.3-1.2,0.5-1.9,0.7c-0.7,0.2-1.6,0.3-2.6,0.3c-1.8,0-3.3-0.6-4.6-1.8S57.2-4,57.2-5.8c0-1.5,0.3-2.7,1-3.7
			c0.7-0.9,1.6-1.7,2.8-2.2c1.2-0.5,2.7-0.9,4.4-1.1c1.7-0.2,3.6-0.3,5.5-0.4v-0.5c0-0.8-0.1-1.4-0.4-1.9c-0.3-0.5-0.6-0.9-1.2-1.2
			c-0.5-0.3-1.1-0.5-1.7-0.6c-0.7-0.1-1.4-0.1-2.1-0.1c-0.9,0-1.9,0.1-3,0.4c-1.1,0.2-2.2,0.6-3.4,1H59v-3.4
			c0.7-0.2,1.6-0.4,2.9-0.6c1.2-0.2,2.5-0.3,3.7-0.3c1.4,0,2.6,0.1,3.7,0.4c1.1,0.2,2,0.6,2.7,1.2c0.8,0.6,1.3,1.3,1.7,2.1
			c0.4,0.9,0.6,2,0.6,3.3V0z M70.9-4.9v-5.6c-1,0.1-2.2,0.1-3.6,0.3c-1.4,0.1-2.5,0.3-3.3,0.5c-1,0.3-1.8,0.7-2.4,1.3
			c-0.6,0.6-0.9,1.4-0.9,2.4c0,1.2,0.3,2,1,2.6c0.7,0.6,1.8,0.9,3.2,0.9c1.2,0,2.3-0.2,3.3-0.7C69.2-3.7,70.1-4.3,70.9-4.9L70.9-4.9
			z"/>
		<path id="path5462" style="fill:#231F20;" d="M108.1,0h-3.8l-2.6-7.5H90.1L87.5,0h-3.6l9.7-26.8h4.7L108.1,0z M100.6-10.5
			l-4.7-13.1l-4.7,13.1L100.6-10.5z"/>
		<path id="path5464" style="fill:#231F20;" d="M127.7,0h-3.4v-11.4c0-0.9-0.1-1.8-0.2-2.6c-0.1-0.8-0.3-1.4-0.6-1.9
			c-0.3-0.5-0.7-0.9-1.3-1.1c-0.6-0.3-1.3-0.4-2.2-0.4c-0.9,0-1.9,0.2-2.9,0.7c-1,0.5-2,1-2.9,1.7V0h-3.4v-20.1h3.4v2.2
			c1.1-0.9,2.1-1.6,3.3-2c1.1-0.5,2.3-0.7,3.5-0.7c2.2,0,3.8,0.7,5,2c1.1,1.3,1.7,3.2,1.7,5.6L127.7,0z"/>
		<path id="path5466" style="fill:#231F20;" d="M147.1,0h-3.4v-2.1c-0.3,0.2-0.7,0.5-1.2,0.9c-0.5,0.4-1,0.6-1.5,0.9
			c-0.6,0.3-1.2,0.5-1.9,0.7c-0.7,0.2-1.6,0.3-2.6,0.3c-1.8,0-3.3-0.6-4.6-1.8C130.7-2.4,130-4,130-5.8c0-1.5,0.3-2.7,1-3.7
			c0.7-0.9,1.6-1.7,2.8-2.2c1.2-0.5,2.7-0.9,4.4-1.1c1.7-0.2,3.6-0.3,5.5-0.4v-0.5c0-0.8-0.1-1.4-0.4-1.9c-0.3-0.5-0.6-0.9-1.1-1.2
			c-0.5-0.3-1.1-0.5-1.7-0.6c-0.7-0.1-1.4-0.1-2.1-0.1c-0.9,0-1.9,0.1-3,0.4c-1.1,0.2-2.2,0.6-3.4,1h-0.2v-3.4
			c0.7-0.2,1.6-0.4,2.9-0.6c1.2-0.2,2.5-0.3,3.7-0.3c1.4,0,2.6,0.1,3.7,0.4c1.1,0.2,2,0.6,2.7,1.2c0.8,0.6,1.3,1.3,1.7,2.1
			c0.4,0.9,0.6,2,0.6,3.3V0z M143.7-4.9v-5.6c-1,0.1-2.2,0.1-3.6,0.3c-1.4,0.1-2.5,0.3-3.3,0.5c-1,0.3-1.8,0.7-2.4,1.3
			c-0.6,0.6-0.9,1.4-0.9,2.4c0,1.2,0.3,2,1,2.6c0.7,0.6,1.8,0.9,3.2,0.9c1.2,0,2.3-0.2,3.3-0.7C142-3.7,142.9-4.3,143.7-4.9z"/>
		<path id="path5468" style="fill:#231F20;" d="M154.3,0H151v-28h3.4V0z"/>
		<path id="path5470" style="fill:#231F20;" d="M177-20.1L165.3,7.4h-3.6l3.7-8.4l-8-19.1h3.7l6.2,14.9l6.2-14.9H177z"/>
		<path id="path5472" style="fill:#231F20;" d="M190.4-0.2c-0.6,0.2-1.3,0.3-2.1,0.4c-0.7,0.1-1.4,0.2-2,0.2c-2,0-3.6-0.6-4.7-1.7
			c-1.1-1.1-1.6-2.9-1.6-5.3v-10.7h-2.3v-2.8h2.3v-5.8h3.4v5.8h7v2.8h-7v9.1c0,1.1,0,1.9,0.1,2.5c0,0.6,0.2,1.1,0.5,1.7
			c0.3,0.5,0.6,0.8,1.1,1.1c0.5,0.2,1.2,0.3,2.1,0.3c0.6,0,1.1-0.1,1.7-0.2c0.6-0.2,1-0.3,1.3-0.4h0.2L190.4-0.2z"/>
		<path id="path5474" style="fill:#231F20;" d="M196.4-23.4h-3.8v-3.5h3.8V-23.4z M196.1,0h-3.4v-20.1h3.4V0z"/>
		<path id="path5476" style="fill:#231F20;" d="M216.3-1.3c-1.1,0.5-2.2,1-3.2,1.3c-1,0.3-2.1,0.4-3.2,0.4c-1.4,0-2.8-0.2-4-0.6
			c-1.2-0.4-2.2-1.1-3.1-1.9c-0.9-0.9-1.6-2-2-3.3c-0.5-1.3-0.7-2.9-0.7-4.6c0-3.3,0.9-5.9,2.7-7.7c1.8-1.9,4.2-2.8,7.2-2.8
			c1.2,0,2.3,0.2,3.4,0.5c1.1,0.3,2.1,0.7,3.1,1.2v3.8h-0.2c-1-0.8-2.1-1.4-3.2-1.9c-1.1-0.4-2.2-0.6-3.2-0.6
			c-1.9,0-3.4,0.6-4.5,1.9c-1.1,1.3-1.7,3.2-1.7,5.7c0,2.4,0.5,4.3,1.6,5.6c1.1,1.3,2.6,1.9,4.6,1.9c0.7,0,1.4-0.1,2.1-0.3
			c0.7-0.2,1.3-0.4,1.9-0.7c0.5-0.3,1-0.5,1.4-0.8c0.4-0.3,0.8-0.5,1-0.7h0.2L216.3-1.3z"/>
		<path id="path5478" style="fill:#231F20;" d="M232.8-5.8c0,1.8-0.8,3.3-2.3,4.5c-1.5,1.2-3.6,1.8-6.2,1.8c-1.5,0-2.9-0.2-4.1-0.5
			c-1.2-0.4-2.3-0.7-3.1-1.2V-5h0.2c1.1,0.8,2.3,1.4,3.6,1.9c1.3,0.5,2.6,0.7,3.8,0.7c1.5,0,2.6-0.2,3.5-0.7
			c0.8-0.5,1.3-1.2,1.3-2.3c0-0.8-0.2-1.4-0.7-1.8c-0.5-0.4-1.3-0.8-2.6-1c-0.5-0.1-1.1-0.2-1.9-0.4c-0.8-0.1-1.5-0.3-2.1-0.5
			c-1.8-0.5-3-1.1-3.8-2c-0.7-0.9-1.1-2-1.1-3.3c0-0.8,0.2-1.6,0.5-2.3c0.3-0.7,0.9-1.4,1.6-2c0.7-0.6,1.5-1,2.6-1.3
			c1-0.3,2.2-0.5,3.5-0.5c1.2,0,2.4,0.1,3.6,0.4c1.2,0.3,2.3,0.6,3.1,1.1v3.6h-0.2c-0.9-0.6-1.9-1.2-3.1-1.6
			c-1.2-0.4-2.4-0.7-3.6-0.7c-1.2,0-2.3,0.2-3.1,0.7c-0.9,0.5-1.3,1.2-1.3,2.1c0,0.8,0.3,1.4,0.8,1.9c0.5,0.4,1.3,0.8,2.4,1
			c0.6,0.1,1.3,0.3,2.1,0.4c0.8,0.1,1.4,0.3,1.9,0.4c1.6,0.4,2.8,1,3.6,1.9C232.3-8.4,232.8-7.2,232.8-5.8L232.8-5.8z"/>
		<path id="path5480" style="fill:#231F20;" d="M255.9-24.7h-0.2c-0.4-0.1-0.9-0.2-1.5-0.3c-0.6-0.1-1.1-0.2-1.6-0.2
			c-1.4,0-2.5,0.3-3.2,1c-0.6,0.6-1,1.8-1,3.5v0.7h6.1v2.8h-6V0h-3.4v-17.2H243v-2.8h2.3v-0.7c0-2.4,0.6-4.2,1.8-5.5
			c1.2-1.3,2.9-1.9,5.1-1.9c0.8,0,1.4,0,2,0.1c0.6,0.1,1.2,0.2,1.7,0.3L255.9-24.7z"/>
		<path id="path5482" style="fill:#231F20;" d="M274.3-10c0,3.3-0.8,5.9-2.5,7.7s-3.9,2.8-6.7,2.8c-2.8,0-5.1-0.9-6.8-2.8
			c-1.7-1.9-2.5-4.5-2.5-7.7s0.8-5.9,2.5-7.7c1.7-1.9,3.9-2.9,6.8-2.9c2.8,0,5.1,1,6.7,2.9C273.5-15.9,274.3-13.3,274.3-10z
			 M270.8-10c0-2.6-0.5-4.5-1.5-5.8c-1-1.3-2.4-1.9-4.2-1.9c-1.8,0-3.3,0.6-4.3,1.9c-1,1.3-1.5,3.2-1.5,5.8c0,2.5,0.5,4.4,1.5,5.7
			c1,1.3,2.4,1.9,4.3,1.9c1.8,0,3.2-0.6,4.2-1.9C270.3-5.6,270.8-7.5,270.8-10z"/>
		<path id="path5484" style="fill:#231F20;" d="M290.5-16.4h-0.2c-0.5-0.1-1-0.2-1.5-0.3c-0.5-0.1-1-0.1-1.7-0.1c-1,0-2,0.2-3,0.7
			c-1,0.5-1.9,1-2.8,1.8V0h-3.4v-20.1h3.4v3c1.3-1.1,2.5-1.8,3.5-2.3c1-0.5,2.1-0.7,3.1-0.7c0.6,0,1,0,1.3,0.1
			c0.3,0,0.7,0.1,1.2,0.2L290.5-16.4z"/>
		<path id="path5486" style="fill:#231F20;" d="M316.6-9.7h-14.8c0,1.2,0.2,2.3,0.6,3.2c0.4,0.9,0.9,1.7,1.5,2.2
			c0.6,0.6,1.4,1,2.2,1.3c0.9,0.3,1.8,0.4,2.8,0.4c1.4,0,2.7-0.3,4.1-0.8c1.4-0.6,2.4-1.1,3-1.6h0.2v3.7c-1.1,0.5-2.3,0.9-3.5,1.2
			c-1.2,0.3-2.4,0.5-3.7,0.5c-3.3,0-5.9-0.9-7.8-2.7c-1.9-1.8-2.8-4.4-2.8-7.7c0-3.3,0.9-5.9,2.7-7.8c1.8-1.9,4.2-2.9,7.1-2.9
			c2.7,0,4.8,0.8,6.3,2.4c1.5,1.6,2.2,3.8,2.2,6.7L316.6-9.7z M313.4-12.3c0-1.8-0.5-3.1-1.3-4.1c-0.9-1-2.2-1.5-4-1.5
			c-1.8,0-3.3,0.5-4.3,1.6c-1.1,1.1-1.7,2.4-1.8,4L313.4-12.3z"/>
		<path id="path5488" style="fill:#231F20;" d="M337.4-20.1L329.2,0h-3.4l-8.1-20.1h3.7l6.2,16l6.2-16H337.4z"/>
		<path id="path5490" style="fill:#231F20;" d="M356.6-9.7h-14.8c0,1.2,0.2,2.3,0.6,3.2c0.4,0.9,0.9,1.7,1.5,2.2
			c0.6,0.6,1.4,1,2.2,1.3c0.9,0.3,1.8,0.4,2.8,0.4c1.4,0,2.7-0.3,4.1-0.8c1.4-0.6,2.4-1.1,3-1.6h0.2v3.7c-1.1,0.5-2.3,0.9-3.5,1.2
			s-2.4,0.5-3.7,0.5c-3.3,0-5.9-0.9-7.8-2.7c-1.9-1.8-2.8-4.4-2.8-7.7c0-3.3,0.9-5.9,2.7-7.8c1.8-1.9,4.2-2.9,7.1-2.9
			c2.7,0,4.8,0.8,6.3,2.4c1.5,1.6,2.2,3.8,2.2,6.7L356.6-9.7z M353.3-12.3c0-1.8-0.5-3.1-1.3-4.1c-0.9-1-2.2-1.5-4-1.5
			c-1.8,0-3.3,0.5-4.3,1.6c-1.1,1.1-1.7,2.4-1.8,4L353.3-12.3z"/>
		<path id="path5492" style="fill:#231F20;" d="M372.8-16.4h-0.2c-0.5-0.1-1-0.2-1.5-0.3c-0.5-0.1-1-0.1-1.7-0.1c-1,0-2,0.2-3,0.7
			c-1,0.5-1.9,1-2.8,1.8V0h-3.4v-20.1h3.4v3c1.3-1.1,2.5-1.8,3.5-2.3c1-0.5,2.1-0.7,3.1-0.7c0.6,0,1,0,1.3,0.1
			c0.3,0,0.7,0.1,1.2,0.2V-16.4z"/>
		<path id="path5494" style="fill:#231F20;" d="M390.6-20.1L378.9,7.4h-3.6L379-1l-8-19.1h3.7l6.2,14.9l6.2-14.9H390.6z"/>
		<path id="path5496" style="fill:#231F20;" d="M410.1-10c0,3.3-0.8,5.9-2.5,7.7c-1.7,1.9-3.9,2.8-6.7,2.8c-2.8,0-5.1-0.9-6.8-2.8
			c-1.7-1.9-2.5-4.5-2.5-7.7c0-3.3,0.8-5.9,2.5-7.7c1.7-1.9,3.9-2.9,6.8-2.9c2.8,0,5.1,1,6.7,2.9C409.3-15.9,410.1-13.3,410.1-10z
			 M406.6-10c0-2.6-0.5-4.5-1.5-5.8c-1-1.3-2.4-1.9-4.2-1.9c-1.8,0-3.3,0.6-4.3,1.9c-1,1.3-1.5,3.2-1.5,5.8c0,2.5,0.5,4.4,1.5,5.7
			c1,1.3,2.4,1.9,4.3,1.9c1.8,0,3.2-0.6,4.2-1.9C406.1-5.6,406.6-7.5,406.6-10L406.6-10z"/>
		<path id="path5498" style="fill:#231F20;" d="M430.6,0h-3.4v-11.4c0-0.9-0.1-1.8-0.2-2.6c-0.1-0.8-0.3-1.4-0.6-1.9
			c-0.3-0.5-0.7-0.9-1.3-1.1c-0.6-0.3-1.3-0.4-2.2-0.4c-0.9,0-1.9,0.2-2.9,0.7c-1,0.5-2,1-2.9,1.7V0h-3.4v-20.1h3.4v2.2
			c1.1-0.9,2.1-1.6,3.3-2c1.1-0.5,2.3-0.7,3.5-0.7c2.2,0,3.8,0.7,5,2c1.1,1.3,1.7,3.2,1.7,5.6V0z"/>
		<path id="path5500" style="fill:#231F20;" d="M451.2-9.7h-14.8c0,1.2,0.2,2.3,0.6,3.2c0.4,0.9,0.9,1.7,1.5,2.2
			c0.6,0.6,1.4,1,2.2,1.3c0.9,0.3,1.8,0.4,2.8,0.4c1.4,0,2.7-0.3,4.1-0.8c1.4-0.6,2.4-1.1,3-1.6h0.2v3.7c-1.1,0.5-2.3,0.9-3.5,1.2
			c-1.2,0.3-2.4,0.5-3.7,0.5c-3.3,0-5.9-0.9-7.8-2.7c-1.9-1.8-2.8-4.4-2.8-7.7c0-3.3,0.9-5.9,2.7-7.8c1.8-1.9,4.2-2.9,7.1-2.9
			c2.7,0,4.8,0.8,6.3,2.4c1.5,1.6,2.2,3.8,2.2,6.7L451.2-9.7z M447.9-12.3c0-1.8-0.5-3.1-1.3-4.1c-0.9-1-2.2-1.5-4-1.5
			c-1.8,0-3.3,0.5-4.3,1.6c-1.1,1.1-1.7,2.4-1.8,4L447.9-12.3z"/>
	</g>
</g>
</svg>
