<?xml version="1.0" encoding="UTF-8" standalone="no"?>
<svg
        xmlns="http://www.w3.org/2000/svg"
        version="1.1"
        id="svg4358"
        viewBox="0 0 606.54377 606.54377"
        height="606.54376"
        width="606.54376">
  <defs
     id="defs4360" />
  <g
     transform="translate(63.271875,-151.94747)"
     id="layer1">
    <path
       id="path44"
       d="m 347.92323,436.56441 0,187.15624 13.37695,0 8.02539,-21.40039 c 7.22168,10.96479 16.58627,24.07227 40.93164,24.07227 16.85684,0 28.63067,-5.61426 39.06641,-19.26172 10.96712,-14.71256 15.24609,-33.17279 15.24609,-51.90234 0,-48.95997 -25.41347,-69.56055 -50.29492,-69.56055 -21.93425,0 -29.70182,12.30534 -36.6543,24.08008 l 0,-73.18359 -29.69726,0 z m -76.09375,52.57812 c -38.79109,0 -62.07422,30.23314 -62.07422,69.03125 0,33.17292 17.13001,68.2207 60.73633,68.2207 25.87398,0 48.8216,-11.70635 58.23437,-40.67968 l -28.38672,0 c -3.47625,7.4745 -10.28245,17.40429 -27.97265,17.40429 -10.70494,0 -18.99943,-3.74759 -24.61524,-12.03906 -7.49324,-10.4334 -7.22466,-20.86738 -6.95312,-29.69727 l 90.42773,0 c 0.79825,-38.26437 -16.5931,-72.24023 -59.39648,-72.24023 z m -160.64063,2.67383 0,23.27734 58.85938,0 -65.01368,85.34571 0,23.28124 99.5254,0 0,-23.28124 -64.20899,0 64.20899,-87.48243 0,-21.14062 -93.3711,0 z m 159.56836,18.19726 c 10.16889,0 17.65847,4.54441 23.00977,11.50391 5.61817,7.75775 6.15267,13.91166 6.42187,20.59961 l -59.39062,0 c 0.79825,-6.95481 1.6024,-12.57806 6.14843,-19.26367 5.6205,-8.56303 13.64168,-12.83985 23.81055,-12.83985 z m 134.95508,1.33399 c 25.41751,0 27.02253,29.4373 27.55859,43.08008 -0.26686,14.44336 -1.07344,47.62304 -28.36133,47.62304 -14.97943,0 -27.28906,-9.36731 -27.28906,-34.51562 l 0,-19.79883 c 0,-27.02805 15.24727,-36.38867 28.09179,-36.38867 z"
       style="fill:#000000;fill-opacity:1;fill-rule:nonzero;stroke:none" />
    <path
       d="m 430.08475,660.28353 c -49.88929,46.26558 -116.67757,74.56943 -190.08592,74.56943 -154.433985,0 -279.627761,-125.19847 -279.627761,-279.63244 0,-154.43399 125.193776,-279.62776 279.627761,-279.62776 154.43633,0 279.63011,125.19377 279.63011,279.62776 0,62.94919 -20.80828,121.04335 -55.91245,167.77946 l 22.91275,0 c 32.58534,-47.80824 51.64264,-105.56297 51.64264,-167.77946 0,-164.73161 -133.53909,-298.27305 -298.27306,-298.27305 -164.731605,0 -298.270695,133.54144 -298.270695,298.27305 0,164.72926 133.53909,298.2707 298.270695,298.2707 85.2978,0 162.22686,-35.81111 216.58962,-93.20769 l -26.50369,0 z"
       style="fill:#0063a6;fill-opacity:1;fill-rule:nonzero;stroke:none"
       id="path52" />
  </g>
</svg>
