<svg width="422" height="147" viewBox="0 0 422 147" fill="none" xmlns="http://www.w3.org/2000/svg">
<circle cx="40.5555" cy="130.333" r="16" fill="#262626"/>
<circle cx="40.5555" cy="130.333" r="12" fill="#555555"/>
<circle cx="382.556" cy="130.333" r="16" fill="#262626"/>
<circle cx="382.556" cy="130.333" r="12" fill="#555555"/>
<path d="M420.556 130.333H3.12203C3.12203 130.333 -1.65254 7.2299 3.12203 3.60921C7.8966 -0.0114838 392.286 3.55096 392.286 3.55096C392.286 3.55096 403.928 19.2406 408 88.7042C408.809 88.7042 409.703 88.7059 410.63 88.7086C416.123 88.725 420.556 93.1941 420.556 98.6877V130.333Z" fill="#C0C2C2"/>
<path d="M396.001 9.83333H1.75785C1.75785 9.83333 0.393699 6.33333 3.12202 3.33333C5.85035 0.333333 392.59 3.33333 392.59 3.33333L396.001 9.83333Z" fill="#B9EC78"/>
<path d="M1.75787 9.33331L396.001 10.3333" stroke="#262626" stroke-width="2"/>
<path d="M420.556 130.333H3.12202C3.12202 130.333 1.99998 93.2376 2 89C2.00002 84.7624 408.258 88.7624 408.258 88.7624H410.555C416.078 88.7624 420.556 93.2395 420.556 98.7624V130.333Z" fill="#414141" stroke="#262626" stroke-width="2" stroke-miterlimit="3.8637" stroke-linecap="round"/>
<path d="M420.556 130.333H3.12203C3.12203 130.333 -1.65254 7.2299 3.12203 3.60921C7.8966 -0.0114836 392.286 3.55096 392.286 3.55096C392.286 3.55096 403.928 19.2406 408 88.7042C408.809 88.7042 409.703 88.7059 410.63 88.7086C416.123 88.725 420.556 93.1941 420.556 98.6877V130.333Z" stroke="#262626" stroke-width="2" stroke-miterlimit="3.8637" stroke-linecap="round"/>
<path d="M349 21.0001C349 20.4349 349.441 20.0001 349.98 20.0001C357.111 20.0001 381.48 19.9999 389.536 20.0001C389.973 20.0001 390.345 20.2787 390.468 20.6921C395.589 37.9737 398.101 60.0351 398.799 66.9422C398.855 67.5045 398.416 68 397.82 68H350C349.448 68 349 67.5523 349 67V21.0001Z" fill="#EDF5F9" stroke="#262626" stroke-width="2"/>
<path d="M352 32.0003L358 23.0003" stroke="#FF5C00" stroke-opacity="0.45" stroke-width="2" stroke-linecap="round"/>
<path d="M351 28.0003L355 22.0003" stroke="#FF5C00" stroke-opacity="0.45" stroke-width="2" stroke-linecap="round"/>
<rect x="12" y="20" width="33" height="48" rx="1" fill="#EDF5F9" stroke="#262626" stroke-width="2"/>
<path d="M15 32L21 23" stroke="#FF5C00" stroke-opacity="0.45" stroke-width="2" stroke-linecap="round"/>
<path d="M14 28L18 22" stroke="#FF5C00" stroke-opacity="0.45" stroke-width="2" stroke-linecap="round"/>
<rect x="65.2" y="20" width="33" height="48" rx="1" fill="#EDF5F9" stroke="#262626" stroke-width="2"/>
<path d="M68.2 32L74.2 23" stroke="#FF5C00" stroke-opacity="0.45" stroke-width="2" stroke-linecap="round"/>
<path d="M67.2 28L71.2 22" stroke="#FF5C00" stroke-opacity="0.45" stroke-width="2" stroke-linecap="round"/>
<rect x="118.4" y="20" width="33" height="48" rx="1" fill="#EDF5F9" stroke="#262626" stroke-width="2"/>
<path d="M121.4 32L127.4 23" stroke="#FF5C00" stroke-opacity="0.45" stroke-width="2" stroke-linecap="round"/>
<path d="M120.4 28L124.4 22" stroke="#FF5C00" stroke-opacity="0.45" stroke-width="2" stroke-linecap="round"/>
<rect x="171.6" y="20" width="33" height="48" rx="1" fill="#EDF5F9" stroke="#262626" stroke-width="2"/>
<path d="M174.6 32L180.6 23" stroke="#FF5C00" stroke-opacity="0.45" stroke-width="2" stroke-linecap="round"/>
<path d="M173.6 28L177.6 22" stroke="#FF5C00" stroke-opacity="0.45" stroke-width="2" stroke-linecap="round"/>
<rect x="224.8" y="20" width="33" height="48" rx="1" fill="#EDF5F9" stroke="#262626" stroke-width="2"/>
<path d="M227.8 32L233.8 23" stroke="#FF5C00" stroke-opacity="0.45" stroke-width="2" stroke-linecap="round"/>
<path d="M226.8 28L230.8 22" stroke="#FF5C00" stroke-opacity="0.45" stroke-width="2" stroke-linecap="round"/>
<path d="M277.333 20.806C277.333 20.2537 277.781 19.806 278.333 19.806H329.333C329.886 19.806 330.333 20.2537 330.333 20.806V128.806H277.333V20.806Z" fill="#EDF5F9" stroke="#262626" stroke-width="2"/>
<path d="M281.333 32L287.333 23" stroke="#FF5C00" stroke-opacity="0.45" stroke-width="2" stroke-linecap="round"/>
<path d="M280.333 28L284.333 22" stroke="#FF5C00" stroke-opacity="0.45" stroke-width="2" stroke-linecap="round"/>
<path d="M44.4814 117.75H41.979V110.255H29.7476V107.752H41.979V100.245H44.4814V117.75ZM28.5024 117.75H26V100.245H28.5024V117.75Z" fill="#EDF5F9"/>
<path d="M64.9282 110.877C64.9282 111.821 64.7492 112.708 64.3911 113.539C64.033 114.369 63.5448 115.097 62.9263 115.724C62.3159 116.342 61.5957 116.834 60.7656 117.201C59.9355 117.559 59.0485 117.742 58.1045 117.75H54.2593C53.3153 117.742 52.4282 117.559 51.5981 117.201C50.7681 116.834 50.0438 116.342 49.4253 115.724C48.8149 115.097 48.3307 114.369 47.9727 113.539C47.6146 112.708 47.4355 111.821 47.4355 110.877C47.4355 109.933 47.6146 109.046 47.9727 108.216C48.3307 107.378 48.8149 106.65 49.4253 106.031C50.0438 105.405 50.7681 104.912 51.5981 104.554C52.4282 104.188 53.3153 104.005 54.2593 104.005H58.1045C58.7311 104.005 59.3374 104.086 59.9233 104.249C60.5093 104.412 61.0545 104.644 61.5591 104.945C62.0636 105.246 62.5234 105.608 62.9385 106.031C63.3535 106.446 63.7075 106.91 64.0005 107.423C64.2935 107.927 64.5213 108.473 64.6841 109.059C64.8468 109.645 64.9282 110.251 64.9282 110.877ZM62.438 110.877C62.438 110.275 62.3241 109.71 62.0962 109.181C61.8683 108.652 61.5591 108.192 61.1685 107.801C60.7778 107.403 60.318 107.089 59.7891 106.861C59.2682 106.625 58.7067 106.503 58.1045 106.495H54.2593C53.6571 106.503 53.0915 106.625 52.5625 106.861C52.0417 107.089 51.5859 107.403 51.1953 107.801C50.8047 108.192 50.4954 108.652 50.2676 109.181C50.0479 109.71 49.938 110.275 49.938 110.877C49.938 111.48 50.0479 112.045 50.2676 112.574C50.4954 113.103 50.8047 113.567 51.1953 113.966C51.5859 114.356 52.0417 114.67 52.5625 114.906C53.0915 115.134 53.6571 115.248 54.2593 115.248H58.1045C58.7067 115.248 59.2682 115.134 59.7891 114.906C60.318 114.67 60.7778 114.356 61.1685 113.966C61.5591 113.567 61.8683 113.103 62.0962 112.574C62.3241 112.045 62.438 111.48 62.438 110.877Z" fill="#EDF5F9"/>
<path d="M83.6416 117.75H74.2666C73.3226 117.75 72.4355 117.571 71.6055 117.213C70.7754 116.847 70.0511 116.354 69.4326 115.736C68.8223 115.109 68.3381 114.381 67.98 113.551C67.6219 112.713 67.4429 111.821 67.4429 110.877V104.005H69.9453V110.877C69.9453 111.48 70.0552 112.045 70.2749 112.574C70.5028 113.095 70.812 113.555 71.2026 113.954C71.5933 114.344 72.049 114.658 72.5698 114.894C73.0988 115.121 73.6644 115.239 74.2666 115.248H81.1392V104.005H83.6416V117.75Z" fill="#EDF5F9"/>
<path d="M101.598 113.38C101.598 113.982 101.484 114.552 101.256 115.089C101.028 115.618 100.715 116.082 100.316 116.48C99.9258 116.871 99.4619 117.18 98.9248 117.408C98.3958 117.636 97.8302 117.75 97.228 117.75H86.5957V115.248H97.228C97.4803 115.248 97.7204 115.199 97.9482 115.101C98.1761 115.003 98.3755 114.869 98.5464 114.698C98.7173 114.527 98.8516 114.332 98.9492 114.112C99.0469 113.884 99.0957 113.64 99.0957 113.38C99.0957 113.128 99.0469 112.888 98.9492 112.66C98.8516 112.432 98.7173 112.232 98.5464 112.062C98.3755 111.891 98.1761 111.756 97.9482 111.659C97.7204 111.553 97.4803 111.5 97.228 111.5H90.3433C89.8224 111.5 89.3341 111.402 88.8784 111.207C88.4227 111.012 88.0239 110.747 87.6821 110.414C87.3485 110.072 87.084 109.673 86.8887 109.217C86.6934 108.762 86.5957 108.273 86.5957 107.752C86.5957 107.232 86.6934 106.743 86.8887 106.288C87.084 105.832 87.3485 105.437 87.6821 105.104C88.0239 104.762 88.4227 104.493 88.8784 104.298C89.3341 104.103 89.8224 104.005 90.3433 104.005H100.353V106.495H90.3433C89.9933 106.495 89.6963 106.617 89.4521 106.861C89.2161 107.097 89.0981 107.394 89.0981 107.752C89.0981 108.102 89.2161 108.399 89.4521 108.644C89.6963 108.88 89.9933 108.998 90.3433 108.998H97.228C97.8302 108.998 98.3958 109.111 98.9248 109.339C99.4619 109.567 99.9258 109.881 100.316 110.279C100.715 110.678 101.028 111.142 101.256 111.671C101.484 112.2 101.598 112.77 101.598 113.38Z" fill="#EDF5F9"/>
<path d="M120.165 108.375C120.165 108.985 120.051 109.555 119.823 110.084C119.595 110.613 119.282 111.077 118.883 111.476C118.493 111.866 118.029 112.175 117.492 112.403C116.963 112.631 116.397 112.745 115.795 112.745H106.212C106.391 113.111 106.615 113.449 106.884 113.758C107.152 114.068 107.453 114.332 107.787 114.552C108.121 114.771 108.483 114.942 108.874 115.064C109.272 115.187 109.687 115.248 110.119 115.248H118.297V117.75H110.119C109.175 117.742 108.288 117.559 107.458 117.201C106.627 116.834 105.903 116.342 105.285 115.724C104.674 115.097 104.19 114.369 103.832 113.539C103.474 112.708 103.295 111.821 103.295 110.877C103.295 109.933 103.474 109.046 103.832 108.216C104.19 107.386 104.674 106.662 105.285 106.043C105.903 105.417 106.627 104.924 107.458 104.566C108.288 104.2 109.175 104.013 110.119 104.005H115.795C116.397 104.005 116.963 104.119 117.492 104.347C118.029 104.575 118.493 104.888 118.883 105.287C119.282 105.677 119.595 106.137 119.823 106.666C120.051 107.195 120.165 107.765 120.165 108.375ZM115.795 110.255C116.047 110.255 116.287 110.206 116.515 110.108C116.743 110.011 116.942 109.876 117.113 109.706C117.284 109.535 117.418 109.335 117.516 109.107C117.614 108.88 117.663 108.635 117.663 108.375C117.663 108.123 117.614 107.883 117.516 107.655C117.418 107.427 117.284 107.228 117.113 107.057C116.942 106.886 116.743 106.751 116.515 106.654C116.287 106.548 116.047 106.495 115.795 106.495H110.119C109.565 106.495 109.044 106.593 108.556 106.788C108.076 106.983 107.645 107.252 107.262 107.594C106.888 107.927 106.575 108.326 106.322 108.79C106.078 109.246 105.919 109.734 105.846 110.255H115.795Z" fill="#EDF5F9"/>
<path d="M141.405 117.75H138.903V102.748H130.053V100.245H150.255V102.748H141.405V117.75Z" fill="#EDF5F9"/>
<path d="M166.869 108.375C166.869 108.985 166.755 109.555 166.527 110.084C166.299 110.613 165.986 111.077 165.587 111.476C165.197 111.866 164.733 112.175 164.196 112.403C163.667 112.631 163.101 112.745 162.499 112.745H152.917C153.096 113.111 153.319 113.449 153.588 113.758C153.856 114.068 154.158 114.332 154.491 114.552C154.825 114.771 155.187 114.942 155.578 115.064C155.976 115.187 156.391 115.248 156.823 115.248H165.001V117.75H156.823C155.879 117.742 154.992 117.559 154.162 117.201C153.332 116.834 152.607 116.342 151.989 115.724C151.378 115.097 150.894 114.369 150.536 113.539C150.178 112.708 149.999 111.821 149.999 110.877C149.999 109.933 150.178 109.046 150.536 108.216C150.894 107.386 151.378 106.662 151.989 106.043C152.607 105.417 153.332 104.924 154.162 104.566C154.992 104.2 155.879 104.013 156.823 104.005H162.499C163.101 104.005 163.667 104.119 164.196 104.347C164.733 104.575 165.197 104.888 165.587 105.287C165.986 105.677 166.299 106.137 166.527 106.666C166.755 107.195 166.869 107.765 166.869 108.375ZM162.499 110.255C162.751 110.255 162.991 110.206 163.219 110.108C163.447 110.011 163.646 109.876 163.817 109.706C163.988 109.535 164.123 109.335 164.22 109.107C164.318 108.88 164.367 108.635 164.367 108.375C164.367 108.123 164.318 107.883 164.22 107.655C164.123 107.427 163.988 107.228 163.817 107.057C163.646 106.886 163.447 106.751 163.219 106.654C162.991 106.548 162.751 106.495 162.499 106.495H156.823C156.269 106.495 155.749 106.593 155.26 106.788C154.78 106.983 154.349 107.252 153.966 107.594C153.592 107.927 153.279 108.326 153.026 108.79C152.782 109.246 152.624 109.734 152.55 110.255H162.499Z" fill="#EDF5F9"/>
<path d="M183.458 117.75H175.28C174.336 117.742 173.449 117.559 172.619 117.201C171.789 116.834 171.064 116.342 170.446 115.724C169.835 115.097 169.351 114.369 168.993 113.539C168.635 112.708 168.456 111.821 168.456 110.877C168.456 109.933 168.635 109.046 168.993 108.216C169.351 107.378 169.835 106.65 170.446 106.031C171.064 105.405 171.789 104.912 172.619 104.554C173.449 104.188 174.336 104.005 175.28 104.005H183.458V106.495H175.28C174.678 106.503 174.112 106.625 173.583 106.861C173.062 107.089 172.606 107.403 172.216 107.801C171.825 108.192 171.516 108.652 171.288 109.181C171.068 109.71 170.958 110.275 170.958 110.877C170.958 111.48 171.068 112.045 171.288 112.574C171.516 113.103 171.825 113.567 172.216 113.966C172.606 114.356 173.062 114.67 173.583 114.906C174.112 115.134 174.678 115.248 175.28 115.248H183.458V117.75Z" fill="#EDF5F9"/>
<path d="M202.404 117.75H199.901V110.877C199.901 110.275 199.787 109.71 199.56 109.181C199.332 108.652 199.022 108.192 198.632 107.801C198.241 107.403 197.781 107.089 197.252 106.861C196.732 106.625 196.17 106.503 195.568 106.495H188.695V117.75H186.193V99H188.695V104.005H195.568C196.512 104.005 197.399 104.188 198.229 104.554C199.059 104.912 199.783 105.405 200.402 106.031C201.02 106.65 201.509 107.378 201.867 108.216C202.225 109.046 202.404 109.933 202.404 110.877V117.75Z" fill="#EDF5F9"/>
</svg>
