<?xml version="1.0" encoding="utf-8"?>
<!-- Generator: Adobe Illustrator 15.0.0, SVG Export Plug-In . SVG Version: 6.00 Build 0)  -->
<!DOCTYPE svg PUBLIC "-//W3C//DTD SVG 1.1//EN" "http://www.w3.org/Graphics/SVG/1.1/DTD/svg11.dtd">
<svg version="1.1" id="Ebene_1" xmlns="http://www.w3.org/2000/svg" x="0px" y="0px"
     width="66.732px" height="38.268px" viewBox="0 0 66.732 38.268" enable-background="new 0 0 66.732 38.268"
     xml:space="preserve">
<polygon fill-rule="evenodd" clip-rule="evenodd" fill="#8797A3" points="14.497,20.97 15.274,20.97 15.274,20.659 15.617,20.659 
	15.617,19.85 14.497,19.85 "/>
<rect x="16.052" y="19.85" fill-rule="evenodd" clip-rule="evenodd" fill="#8797A3" width="1.12" height="0.809"/>
<polygon fill-rule="evenodd" clip-rule="evenodd" fill="#8797A3" points="17.95,20.97 18.759,20.97 18.759,19.85 17.639,19.85 
	17.639,20.659 17.95,20.659 "/>
<rect x="17.95" y="21.437" fill-rule="evenodd" clip-rule="evenodd" fill="#8797A3" width="0.809" height="1.12"/>
<rect x="16.052" y="23.334" fill-rule="evenodd" clip-rule="evenodd" fill="#8797A3" width="1.12" height="0.778"/>
<polygon fill-rule="evenodd" clip-rule="evenodd" fill="#8797A3" points="14.497,24.113 15.617,24.113 15.617,23.334 15.274,23.334 
	15.274,22.993 14.497,22.993 "/>
<rect x="14.497" y="21.437" fill-rule="evenodd" clip-rule="evenodd" fill="#8797A3" width="0.778" height="1.12"/>
<rect x="9.768" y="24.58" fill-rule="evenodd" clip-rule="evenodd" fill="#8797A3" width="1.12" height="1.12"/>
<rect x="11.354" y="24.58" fill-rule="evenodd" clip-rule="evenodd" fill="#8797A3" width="1.12" height="1.12"/>
<rect x="12.91" y="22.993" fill-rule="evenodd" clip-rule="evenodd" fill="#8797A3" width="1.12" height="1.12"/>
<rect x="19.195" y="19.85" fill-rule="evenodd" clip-rule="evenodd" fill="#8797A3" width="1.12" height="1.12"/>
<rect x="20.781" y="19.85" fill-rule="evenodd" clip-rule="evenodd" fill="#8797A3" width="1.12" height="1.12"/>
<rect x="20.781" y="21.437" fill-rule="evenodd" clip-rule="evenodd" fill="#8797A3" width="1.12" height="1.12"/>
<rect x="20.781" y="22.993" fill-rule="evenodd" clip-rule="evenodd" fill="#8797A3" width="1.12" height="1.12"/>
<rect x="20.781" y="24.58" fill-rule="evenodd" clip-rule="evenodd" fill="#8797A3" width="1.12" height="1.12"/>
<rect x="20.781" y="26.134" fill-rule="evenodd" clip-rule="evenodd" fill="#8797A3" width="1.12" height="1.12"/>
<rect x="20.781" y="27.722" fill-rule="evenodd" clip-rule="evenodd" fill="#8797A3" width="1.12" height="1.119"/>
<rect x="9.768" y="22.993" fill-rule="evenodd" clip-rule="evenodd" fill="#8797A3" width="1.12" height="1.12"/>
<rect x="10.328" y="21.437" fill-rule="evenodd" clip-rule="evenodd" fill="#8797A3" width="0.56" height="0.56"/>
<rect x="9.768" y="19.85" fill-rule="evenodd" clip-rule="evenodd" fill="#8797A3" width="1.12" height="1.12"/>
<rect x="8.181" y="19.85" fill-rule="evenodd" clip-rule="evenodd" fill="#8797A3" width="1.151" height="1.12"/>
<rect x="8.492" y="21.375" fill-rule="evenodd" clip-rule="evenodd" fill="#8797A3" width="0.84" height="0.84"/>
<rect x="7.652" y="21.437" fill-rule="evenodd" clip-rule="evenodd" fill="#8797A3" width="0.56" height="0.56"/>
<rect x="11.354" y="18.294" fill-rule="evenodd" clip-rule="evenodd" fill="#8797A3" width="0.84" height="0.84"/>
<rect x="11.354" y="19.85" fill-rule="evenodd" clip-rule="evenodd" fill="#8797A3" width="1.12" height="1.12"/>
<rect x="11.354" y="21.437" fill-rule="evenodd" clip-rule="evenodd" fill="#8797A3" width="0.871" height="0.902"/>
<rect x="11.354" y="16.987" fill-rule="evenodd" clip-rule="evenodd" fill="#8797A3" width="0.84" height="0.84"/>
<rect x="11.354" y="13.845" fill-rule="evenodd" clip-rule="evenodd" fill="#8797A3" width="0.84" height="0.84"/>
<rect x="9.768" y="18.294" fill-rule="evenodd" clip-rule="evenodd" fill="#8797A3" width="1.12" height="1.12"/>
<rect x="8.772" y="18.854" fill-rule="evenodd" clip-rule="evenodd" fill="#8797A3" width="0.56" height="0.56"/>
<rect x="9.768" y="16.708" fill-rule="evenodd" clip-rule="evenodd" fill="#8797A3" width="1.12" height="1.12"/>
<rect x="6.625" y="18.294" fill-rule="evenodd" clip-rule="evenodd" fill="#8797A3" width="1.12" height="1.12"/>
<rect x="8.181" y="17.268" fill-rule="evenodd" clip-rule="evenodd" fill="#8797A3" width="0.591" height="0.56"/>
<rect x="5.039" y="18.294" fill-rule="evenodd" clip-rule="evenodd" fill="#8797A3" width="1.151" height="1.12"/>
<rect x="6.625" y="16.708" fill-rule="evenodd" clip-rule="evenodd" fill="#8797A3" width="1.12" height="1.12"/>
<rect x="5.319" y="15.868" fill-rule="evenodd" clip-rule="evenodd" fill="#8797A3" width="0.871" height="0.84"/>
<rect x="6.625" y="4.138" fill-rule="evenodd" clip-rule="evenodd" fill="#8797A3" width="1.12" height="1.12"/>
<rect x="6.625" y="5.725" fill-rule="evenodd" clip-rule="evenodd" fill="#8797A3" width="0.56" height="0.56"/>
<rect x="6.625" y="2.583" fill-rule="evenodd" clip-rule="evenodd" fill="#8797A3" width="1.12" height="1.12"/>
<rect x="8.181" y="4.138" fill-rule="evenodd" clip-rule="evenodd" fill="#8797A3" width="1.151" height="1.12"/>
<rect x="8.181" y="2.583" fill-rule="evenodd" clip-rule="evenodd" fill="#8797A3" width="1.151" height="1.12"/>
<rect x="5.039" y="2.583" fill-rule="evenodd" clip-rule="evenodd" fill="#8797A3" width="1.151" height="1.12"/>
<rect x="3.763" y="2.863" fill-rule="evenodd" clip-rule="evenodd" fill="#8797A3" width="0.84" height="0.84"/>
<rect x="4.51" y="1.556" fill-rule="evenodd" clip-rule="evenodd" fill="#8797A3" width="0.56" height="0.56"/>
<rect x="5.63" y="1.556" fill-rule="evenodd" clip-rule="evenodd" fill="#8797A3" width="0.56" height="0.56"/>
<rect x="5.039" y="4.138" fill-rule="evenodd" clip-rule="evenodd" fill="#8797A3" width="1.151" height="1.12"/>
<rect x="5.319" y="16.987" fill-rule="evenodd" clip-rule="evenodd" fill="#8797A3" width="0.871" height="0.84"/>
<rect x="9.768" y="15.152" fill-rule="evenodd" clip-rule="evenodd" fill="#8797A3" width="1.12" height="1.12"/>
<rect x="11.354" y="15.152" fill-rule="evenodd" clip-rule="evenodd" fill="#8797A3" width="0.56" height="0.56"/>
<rect x="8.492" y="14.405" fill-rule="evenodd" clip-rule="evenodd" fill="#8797A3" width="0.84" height="0.84"/>
<rect x="8.772" y="15.712" fill-rule="evenodd" clip-rule="evenodd" fill="#8797A3" width="0.56" height="0.561"/>
<rect x="9.768" y="13.565" fill-rule="evenodd" clip-rule="evenodd" fill="#8797A3" width="1.12" height="1.12"/>
<rect x="9.768" y="12.01" fill-rule="evenodd" clip-rule="evenodd" fill="#8797A3" width="1.12" height="1.12"/>
<rect x="11.354" y="22.993" fill-rule="evenodd" clip-rule="evenodd" fill="#8797A3" width="1.12" height="1.12"/>
<rect x="12.91" y="21.437" fill-rule="evenodd" clip-rule="evenodd" fill="#8797A3" width="1.12" height="1.12"/>
<rect x="17.639" y="18.294" fill-rule="evenodd" clip-rule="evenodd" fill="#8797A3" width="1.12" height="1.12"/>
<rect x="19.195" y="18.294" fill-rule="evenodd" clip-rule="evenodd" fill="#8797A3" width="0.56" height="0.56"/>
<rect x="17.639" y="16.708" fill-rule="evenodd" clip-rule="evenodd" fill="#8797A3" width="1.12" height="1.12"/>
<rect x="17.639" y="13.565" fill-rule="evenodd" clip-rule="evenodd" fill="#8797A3" width="1.12" height="1.12"/>
<rect x="19.195" y="12.01" fill-rule="evenodd" clip-rule="evenodd" fill="#8797A3" width="1.12" height="1.12"/>
<rect x="19.475" y="13.565" fill-rule="evenodd" clip-rule="evenodd" fill="#8797A3" width="0.84" height="0.84"/>
<rect x="20.781" y="10.423" fill-rule="evenodd" clip-rule="evenodd" fill="#8797A3" width="1.12" height="1.12"/>
<rect x="20.781" y="12.01" fill-rule="evenodd" clip-rule="evenodd" fill="#8797A3" width="1.12" height="1.12"/>
<rect x="20.781" y="13.565" fill-rule="evenodd" clip-rule="evenodd" fill="#8797A3" width="1.12" height="1.12"/>
<rect x="20.781" y="15.152" fill-rule="evenodd" clip-rule="evenodd" fill="#8797A3" width="1.12" height="1.12"/>
<rect x="19.475" y="15.152" fill-rule="evenodd" clip-rule="evenodd" fill="#8797A3" width="0.84" height="0.84"/>
<rect x="20.781" y="16.708" fill-rule="evenodd" clip-rule="evenodd" fill="#8797A3" width="1.12" height="1.12"/>
<rect x="22.337" y="8.868" fill-rule="evenodd" clip-rule="evenodd" fill="#8797A3" width="1.12" height="1.12"/>
<rect x="22.337" y="10.423" fill-rule="evenodd" clip-rule="evenodd" fill="#8797A3" width="0.56" height="0.56"/>
<rect x="22.337" y="12.29" fill-rule="evenodd" clip-rule="evenodd" fill="#8797A3" width="0.84" height="0.84"/>
<rect x="22.337" y="13.565" fill-rule="evenodd" clip-rule="evenodd" fill="#8797A3" width="1.12" height="1.12"/>
<rect x="22.337" y="15.152" fill-rule="evenodd" clip-rule="evenodd" fill="#8797A3" width="1.12" height="1.12"/>
<rect x="16.612" y="13.565" fill-rule="evenodd" clip-rule="evenodd" fill="#8797A3" width="0.561" height="0.56"/>
<rect x="17.639" y="12.01" fill-rule="evenodd" clip-rule="evenodd" fill="#8797A3" width="1.12" height="1.12"/>
<rect x="19.195" y="10.423" fill-rule="evenodd" clip-rule="evenodd" fill="#8797A3" width="1.12" height="1.12"/>
<rect x="20.781" y="8.868" fill-rule="evenodd" clip-rule="evenodd" fill="#8797A3" width="1.12" height="1.12"/>
<rect x="22.337" y="7.281" fill-rule="evenodd" clip-rule="evenodd" fill="#8797A3" width="1.12" height="1.12"/>
<rect x="16.052" y="12.01" fill-rule="evenodd" clip-rule="evenodd" fill="#8797A3" width="1.12" height="1.12"/>
<rect x="17.639" y="10.423" fill-rule="evenodd" clip-rule="evenodd" fill="#8797A3" width="1.12" height="1.12"/>
<rect x="19.195" y="8.868" fill-rule="evenodd" clip-rule="evenodd" fill="#8797A3" width="1.12" height="1.12"/>
<rect x="20.781" y="7.281" fill-rule="evenodd" clip-rule="evenodd" fill="#8797A3" width="1.12" height="1.12"/>
<rect x="22.337" y="5.725" fill-rule="evenodd" clip-rule="evenodd" fill="#8797A3" width="1.12" height="1.12"/>
<rect x="16.052" y="10.423" fill-rule="evenodd" clip-rule="evenodd" fill="#8797A3" width="1.12" height="1.12"/>
<rect x="17.639" y="8.868" fill-rule="evenodd" clip-rule="evenodd" fill="#8797A3" width="1.12" height="1.12"/>
<rect x="19.195" y="7.281" fill-rule="evenodd" clip-rule="evenodd" fill="#8797A3" width="1.12" height="1.12"/>
<rect x="20.781" y="5.725" fill-rule="evenodd" clip-rule="evenodd" fill="#8797A3" width="1.12" height="1.12"/>
<rect x="22.337" y="4.138" fill-rule="evenodd" clip-rule="evenodd" fill="#8797A3" width="1.12" height="1.12"/>
<rect x="21.062" y="4.418" fill-rule="evenodd" clip-rule="evenodd" fill="#8797A3" width="0.84" height="0.84"/>
<rect x="22.337" y="2.583" fill-rule="evenodd" clip-rule="evenodd" fill="#8797A3" width="1.12" height="1.12"/>
<rect x="23.924" y="2.583" fill-rule="evenodd" clip-rule="evenodd" fill="#8797A3" width="1.12" height="1.12"/>
<rect x="25.479" y="0.996" fill-rule="evenodd" clip-rule="evenodd" fill="#8797A3" width="1.12" height="1.12"/>
<rect x="27.066" y="0.996" fill-rule="evenodd" clip-rule="evenodd" fill="#8797A3" width="1.12" height="1.12"/>
<rect x="27.066" y="2.583" fill-rule="evenodd" clip-rule="evenodd" fill="#8797A3" width="1.12" height="1.12"/>
<rect x="27.066" y="4.138" fill-rule="evenodd" clip-rule="evenodd" fill="#8797A3" width="1.12" height="1.12"/>
<rect x="27.066" y="5.725" fill-rule="evenodd" clip-rule="evenodd" fill="#8797A3" width="1.12" height="1.12"/>
<rect x="28.622" y="4.138" fill-rule="evenodd" clip-rule="evenodd" fill="#8797A3" width="1.12" height="1.12"/>
<rect x="28.622" y="2.583" fill-rule="evenodd" clip-rule="evenodd" fill="#8797A3" width="1.12" height="1.12"/>
<rect x="30.208" y="2.583" fill-rule="evenodd" clip-rule="evenodd" fill="#8797A3" width="1.12" height="1.12"/>
<rect x="31.764" y="2.583" fill-rule="evenodd" clip-rule="evenodd" fill="#8797A3" width="1.12" height="1.12"/>
<rect x="31.764" y="4.138" fill-rule="evenodd" clip-rule="evenodd" fill="#8797A3" width="0.56" height="0.56"/>
<rect x="30.769" y="4.138" fill-rule="evenodd" clip-rule="evenodd" fill="#8797A3" width="0.56" height="0.56"/>
<rect x="28.622" y="5.725" fill-rule="evenodd" clip-rule="evenodd" fill="#8797A3" width="1.12" height="1.12"/>
<rect x="30.208" y="5.725" fill-rule="evenodd" clip-rule="evenodd" fill="#8797A3" width="1.12" height="1.12"/>
<rect x="31.764" y="5.725" fill-rule="evenodd" clip-rule="evenodd" fill="#8797A3" width="1.12" height="1.12"/>
<rect x="33.351" y="4.138" fill-rule="evenodd" clip-rule="evenodd" fill="#8797A3" width="1.12" height="1.12"/>
<rect x="33.351" y="5.725" fill-rule="evenodd" clip-rule="evenodd" fill="#8797A3" width="1.12" height="1.12"/>
<rect x="34.906" y="5.725" fill-rule="evenodd" clip-rule="evenodd" fill="#8797A3" width="1.12" height="1.12"/>
<rect x="36.493" y="4.138" fill-rule="evenodd" clip-rule="evenodd" fill="#8797A3" width="1.12" height="1.12"/>
<rect x="37.053" y="3.143" fill-rule="evenodd" clip-rule="evenodd" fill="#8797A3" width="0.561" height="0.56"/>
<rect x="34.906" y="4.138" fill-rule="evenodd" clip-rule="evenodd" fill="#8797A3" width="1.12" height="1.12"/>
<rect x="34.906" y="2.863" fill-rule="evenodd" clip-rule="evenodd" fill="#8797A3" width="0.841" height="0.84"/>
<rect x="28.622" y="7.281" fill-rule="evenodd" clip-rule="evenodd" fill="#8797A3" width="1.12" height="1.12"/>
<rect x="30.208" y="7.281" fill-rule="evenodd" clip-rule="evenodd" fill="#8797A3" width="1.12" height="1.12"/>
<rect x="31.764" y="7.281" fill-rule="evenodd" clip-rule="evenodd" fill="#8797A3" width="1.12" height="1.12"/>
<rect x="33.351" y="7.281" fill-rule="evenodd" clip-rule="evenodd" fill="#8797A3" width="1.12" height="1.12"/>
<rect x="34.906" y="7.281" fill-rule="evenodd" clip-rule="evenodd" fill="#8797A3" width="1.12" height="1.12"/>
<rect x="36.493" y="7.281" fill-rule="evenodd" clip-rule="evenodd" fill="#8797A3" width="1.12" height="1.12"/>
<rect x="28.622" y="8.868" fill-rule="evenodd" clip-rule="evenodd" fill="#8797A3" width="1.12" height="1.12"/>
<rect x="30.208" y="8.868" fill-rule="evenodd" clip-rule="evenodd" fill="#8797A3" width="1.12" height="1.12"/>
<rect x="31.764" y="8.868" fill-rule="evenodd" clip-rule="evenodd" fill="#8797A3" width="1.12" height="1.12"/>
<rect x="33.351" y="8.868" fill-rule="evenodd" clip-rule="evenodd" fill="#8797A3" width="1.12" height="1.12"/>
<rect x="34.906" y="8.868" fill-rule="evenodd" clip-rule="evenodd" fill="#8797A3" width="1.12" height="1.12"/>
<rect x="36.493" y="8.868" fill-rule="evenodd" clip-rule="evenodd" fill="#8797A3" width="1.12" height="1.12"/>
<rect x="28.622" y="10.423" fill-rule="evenodd" clip-rule="evenodd" fill="#8797A3" width="1.12" height="1.12"/>
<rect x="30.208" y="10.423" fill-rule="evenodd" clip-rule="evenodd" fill="#8797A3" width="1.12" height="1.12"/>
<rect x="31.764" y="10.423" fill-rule="evenodd" clip-rule="evenodd" fill="#8797A3" width="1.12" height="1.12"/>
<rect x="33.351" y="10.423" fill-rule="evenodd" clip-rule="evenodd" fill="#8797A3" width="1.12" height="1.12"/>
<rect x="38.049" y="10.423" fill-rule="evenodd" clip-rule="evenodd" fill="#8797A3" width="1.12" height="1.12"/>
<rect x="39.636" y="8.867" fill-rule="evenodd" clip-rule="evenodd" fill="#8797A3" width="0.84" height="0.84"/>
<rect x="28.622" y="12.01" fill-rule="evenodd" clip-rule="evenodd" fill="#8797A3" width="1.12" height="1.12"/>
<rect x="27.066" y="13.565" fill-rule="evenodd" clip-rule="evenodd" fill="#8797A3" width="1.12" height="1.12"/>
<rect x="25.759" y="13.565" fill-rule="evenodd" clip-rule="evenodd" fill="#8797A3" width="0.84" height="0.84"/>
<rect x="25.479" y="15.152" fill-rule="evenodd" clip-rule="evenodd" fill="#8797A3" width="1.12" height="1.12"/>
<rect x="24.484" y="17.268" fill-rule="evenodd" clip-rule="evenodd" fill="#8797A3" width="0.56" height="0.56"/>
<rect x="30.208" y="12.01" fill-rule="evenodd" clip-rule="evenodd" fill="#8797A3" width="1.12" height="1.12"/>
<rect x="31.764" y="12.01" fill-rule="evenodd" clip-rule="evenodd" fill="#8797A3" width="1.12" height="1.12"/>
<rect x="33.351" y="12.01" fill-rule="evenodd" clip-rule="evenodd" fill="#8797A3" width="1.12" height="1.12"/>
<rect x="34.906" y="12.01" fill-rule="evenodd" clip-rule="evenodd" fill="#8797A3" width="1.12" height="1.12"/>
<rect x="36.493" y="12.01" fill-rule="evenodd" clip-rule="evenodd" fill="#8797A3" width="1.12" height="1.12"/>
<rect x="28.622" y="13.565" fill-rule="evenodd" clip-rule="evenodd" fill="#8797A3" width="1.12" height="1.12"/>
<rect x="27.066" y="15.152" fill-rule="evenodd" clip-rule="evenodd" fill="#8797A3" width="1.12" height="1.12"/>
<rect x="25.479" y="16.708" fill-rule="evenodd" clip-rule="evenodd" fill="#8797A3" width="1.12" height="1.12"/>
<rect x="30.208" y="13.565" fill-rule="evenodd" clip-rule="evenodd" fill="#8797A3" width="1.12" height="1.12"/>
<rect x="31.764" y="13.565" fill-rule="evenodd" clip-rule="evenodd" fill="#8797A3" width="1.12" height="1.12"/>
<rect x="33.351" y="13.565" fill-rule="evenodd" clip-rule="evenodd" fill="#8797A3" width="1.12" height="1.12"/>
<rect x="34.906" y="13.565" fill-rule="evenodd" clip-rule="evenodd" fill="#8797A3" width="1.12" height="1.12"/>
<rect x="38.049" y="13.565" fill-rule="evenodd" clip-rule="evenodd" fill="#8797A3" width="1.12" height="1.12"/>
<rect x="39.636" y="13.565" fill-rule="evenodd" clip-rule="evenodd" fill="#8797A3" width="1.12" height="1.12"/>
<rect x="28.622" y="15.152" fill-rule="evenodd" clip-rule="evenodd" fill="#8797A3" width="1.12" height="1.12"/>
<rect x="27.066" y="16.708" fill-rule="evenodd" clip-rule="evenodd" fill="#8797A3" width="1.12" height="1.12"/>
<rect x="25.479" y="18.294" fill-rule="evenodd" clip-rule="evenodd" fill="#8797A3" width="1.12" height="1.12"/>
<rect x="26.04" y="19.85" fill-rule="evenodd" clip-rule="evenodd" fill="#8797A3" width="0.56" height="0.56"/>
<rect x="24.204" y="18.575" fill-rule="evenodd" clip-rule="evenodd" fill="#8797A3" width="0.84" height="0.84"/>
<rect x="30.208" y="15.152" fill-rule="evenodd" clip-rule="evenodd" fill="#8797A3" width="1.12" height="1.12"/>
<rect x="31.764" y="15.152" fill-rule="evenodd" clip-rule="evenodd" fill="#8797A3" width="1.12" height="1.12"/>
<rect x="33.351" y="15.152" fill-rule="evenodd" clip-rule="evenodd" fill="#8797A3" width="1.12" height="1.12"/>
<rect x="34.906" y="15.152" fill-rule="evenodd" clip-rule="evenodd" fill="#8797A3" width="1.12" height="1.12"/>
<rect x="28.622" y="16.708" fill-rule="evenodd" clip-rule="evenodd" fill="#8797A3" width="1.12" height="1.12"/>
<rect x="27.066" y="18.294" fill-rule="evenodd" clip-rule="evenodd" fill="#8797A3" width="1.12" height="1.12"/>
<rect x="27.066" y="19.85" fill-rule="evenodd" clip-rule="evenodd" fill="#8797A3" width="0.56" height="0.56"/>
<rect x="23.924" y="30.864" fill-rule="evenodd" clip-rule="evenodd" fill="#8797A3" width="1.12" height="1.12"/>
<rect x="22.337" y="19.85" fill-rule="evenodd" clip-rule="evenodd" fill="#8797A3" width="1.12" height="1.12"/>
<rect x="23.924" y="19.85" fill-rule="evenodd" clip-rule="evenodd" fill="#8797A3" width="0.902" height="0.902"/>
<rect x="22.337" y="21.437" fill-rule="evenodd" clip-rule="evenodd" fill="#8797A3" width="1.12" height="1.12"/>
<rect x="22.337" y="22.993" fill-rule="evenodd" clip-rule="evenodd" fill="#8797A3" width="1.12" height="1.12"/>
<rect x="22.337" y="24.58" fill-rule="evenodd" clip-rule="evenodd" fill="#8797A3" width="1.12" height="1.12"/>
<rect x="22.337" y="26.134" fill-rule="evenodd" clip-rule="evenodd" fill="#8797A3" width="1.12" height="1.12"/>
<rect x="22.337" y="27.722" fill-rule="evenodd" clip-rule="evenodd" fill="#8797A3" width="1.12" height="1.119"/>
<rect x="22.337" y="29.277" fill-rule="evenodd" clip-rule="evenodd" fill="#8797A3" width="1.12" height="1.12"/>
<rect x="22.617" y="30.864" fill-rule="evenodd" clip-rule="evenodd" fill="#8797A3" width="0.84" height="0.84"/>
<rect x="21.341" y="29.277" fill-rule="evenodd" clip-rule="evenodd" fill="#8797A3" width="0.56" height="0.561"/>
<rect x="30.208" y="16.708" fill-rule="evenodd" clip-rule="evenodd" fill="#8797A3" width="1.12" height="1.12"/>
<rect x="31.764" y="16.708" fill-rule="evenodd" clip-rule="evenodd" fill="#8797A3" width="1.12" height="1.12"/>
<rect x="33.351" y="16.708" fill-rule="evenodd" clip-rule="evenodd" fill="#8797A3" width="1.12" height="1.12"/>
<rect x="34.906" y="16.708" fill-rule="evenodd" clip-rule="evenodd" fill="#8797A3" width="1.12" height="1.12"/>
<rect x="36.493" y="16.708" fill-rule="evenodd" clip-rule="evenodd" fill="#8797A3" width="1.12" height="1.12"/>
<rect x="39.636" y="16.708" fill-rule="evenodd" clip-rule="evenodd" fill="#8797A3" width="1.12" height="1.12"/>
<rect x="28.622" y="18.294" fill-rule="evenodd" clip-rule="evenodd" fill="#8797A3" width="1.12" height="1.12"/>
<rect x="30.208" y="18.294" fill-rule="evenodd" clip-rule="evenodd" fill="#8797A3" width="1.12" height="1.12"/>
<rect x="31.764" y="18.294" fill-rule="evenodd" clip-rule="evenodd" fill="#8797A3" width="1.12" height="1.12"/>
<rect x="33.351" y="18.294" fill-rule="evenodd" clip-rule="evenodd" fill="#8797A3" width="1.12" height="1.12"/>
<rect x="34.906" y="18.294" fill-rule="evenodd" clip-rule="evenodd" fill="#8797A3" width="1.12" height="1.12"/>
<rect x="36.493" y="18.294" fill-rule="evenodd" clip-rule="evenodd" fill="#8797A3" width="1.12" height="1.12"/>
<rect x="25.479" y="32.419" fill-rule="evenodd" clip-rule="evenodd" fill="#8797A3" width="1.12" height="1.151"/>
<rect x="34.906" y="30.864" fill-rule="evenodd" clip-rule="evenodd" fill="#8797A3" width="0.561" height="0.56"/>
<rect x="27.066" y="32.419" fill-rule="evenodd" clip-rule="evenodd" fill="#8797A3" width="1.12" height="1.151"/>
<rect x="25.479" y="34.006" fill-rule="evenodd" clip-rule="evenodd" fill="#8797A3" width="1.12" height="1.12"/>
<rect x="30.208" y="19.85" fill-rule="evenodd" clip-rule="evenodd" fill="#8797A3" width="0.84" height="0.84"/>
<rect x="33.351" y="30.864" fill-rule="evenodd" clip-rule="evenodd" fill="#8797A3" width="1.12" height="1.12"/>
<rect x="32.044" y="31.144" fill-rule="evenodd" clip-rule="evenodd" fill="#8797A3" width="0.84" height="0.84"/>
<rect x="28.622" y="32.419" fill-rule="evenodd" clip-rule="evenodd" fill="#8797A3" width="1.12" height="1.151"/>
<rect x="27.066" y="34.006" fill-rule="evenodd" clip-rule="evenodd" fill="#8797A3" width="1.12" height="1.12"/>
<rect x="27.066" y="35.562" fill-rule="evenodd" clip-rule="evenodd" fill="#8797A3" width="1.12" height="1.151"/>
<rect x="27.066" y="37.149" fill="#8797A3" width="1.12" height="1.119"/>
<rect x="28.622" y="37.149" fill-rule="evenodd" clip-rule="evenodd" fill="#8797A3" width="0.56" height="0.56"/>
<rect x="28.622" y="35.562" fill-rule="evenodd" clip-rule="evenodd" fill="#8797A3" width="1.12" height="1.151"/>
<rect x="28.622" y="34.566" fill-rule="evenodd" clip-rule="evenodd" fill="#8797A3" width="0.56" height="0.561"/>
<rect x="26.04" y="35.562" fill-rule="evenodd" clip-rule="evenodd" fill="#8797A3" width="0.56" height="0.591"/>
<rect x="30.208" y="32.419" fill-rule="evenodd" clip-rule="evenodd" fill="#8797A3" width="0.56" height="0.56"/>
<rect x="27.066" y="7.281" fill-rule="evenodd" clip-rule="evenodd" fill="#8797A3" width="1.12" height="1.12"/>
<rect x="27.066" y="8.868" fill-rule="evenodd" clip-rule="evenodd" fill="#8797A3" width="1.12" height="1.12"/>
<rect x="27.066" y="10.423" fill-rule="evenodd" clip-rule="evenodd" fill="#8797A3" width="1.12" height="1.12"/>
<rect x="27.066" y="12.01" fill-rule="evenodd" clip-rule="evenodd" fill="#8797A3" width="0.56" height="0.56"/>
<rect x="25.479" y="10.423" fill-rule="evenodd" clip-rule="evenodd" fill="#8797A3" width="1.12" height="1.12"/>
<rect x="24.919" y="12.01" fill-rule="evenodd" clip-rule="evenodd" fill="#8797A3" width="0.56" height="0.56"/>
<rect x="25.759" y="12.01" fill-rule="evenodd" clip-rule="evenodd" fill="#8797A3" width="0.84" height="0.84"/>
<rect x="25.479" y="8.868" fill-rule="evenodd" clip-rule="evenodd" fill="#8797A3" width="1.12" height="1.12"/>
<rect x="25.759" y="7.561" fill-rule="evenodd" clip-rule="evenodd" fill="#8797A3" width="0.84" height="0.84"/>
<rect x="25.479" y="0" fill-rule="evenodd" clip-rule="evenodd" fill="#8797A3" width="0.56" height="0.56"/>
<rect x="25.479" y="2.583" fill-rule="evenodd" clip-rule="evenodd" fill="#8797A3" width="1.12" height="1.12"/>
<rect x="25.479" y="4.138" fill-rule="evenodd" clip-rule="evenodd" fill="#8797A3" width="1.12" height="1.12"/>
<rect x="25.479" y="5.725" fill-rule="evenodd" clip-rule="evenodd" fill="#8797A3" width="0.56" height="0.56"/>
<rect x="23.924" y="4.138" fill-rule="evenodd" clip-rule="evenodd" fill="#8797A3" width="1.12" height="1.12"/>
<rect x="23.924" y="5.725" fill-rule="evenodd" clip-rule="evenodd" fill="#8797A3" width="1.12" height="1.12"/>
<rect x="23.924" y="7.281" fill-rule="evenodd" clip-rule="evenodd" fill="#8797A3" width="0.84" height="0.84"/>
<rect x="23.924" y="0.996" fill-rule="evenodd" clip-rule="evenodd" fill="#8797A3" width="1.12" height="1.12"/>
<rect x="22.897" y="1.556" fill-rule="evenodd" clip-rule="evenodd" fill="#8797A3" width="0.56" height="0.56"/>
<rect x="21.062" y="2.863" fill-rule="evenodd" clip-rule="evenodd" fill="#8797A3" width="0.84" height="0.84"/>
<rect x="16.612" y="9.428" fill-rule="evenodd" clip-rule="evenodd" fill="#8797A3" width="0.561" height="0.56"/>
<rect x="19.195" y="17.268" fill-rule="evenodd" clip-rule="evenodd" fill="#8797A3" width="0.56" height="0.56"/>
<rect x="18.199" y="15.712" fill-rule="evenodd" clip-rule="evenodd" fill="#8797A3" width="0.56" height="0.561"/>
<rect x="8.616" y="24.61" fill-rule="evenodd" clip-rule="evenodd" fill="#8797A3" width="0.84" height="0.841"/>
<rect x="7.808" y="23.273" fill-rule="evenodd" clip-rule="evenodd" fill="#8797A3" width="0.84" height="0.84"/>
<rect x="8.928" y="23.552" fill-rule="evenodd" clip-rule="evenodd" fill="#8797A3" width="0.56" height="0.561"/>
<rect x="8.865" y="25.699" fill-rule="evenodd" clip-rule="evenodd" fill="#8797A3" width="0.56" height="0.561"/>
<rect x="9.768" y="26.134" fill-rule="evenodd" clip-rule="evenodd" fill="#8797A3" width="1.12" height="1.12"/>
<rect x="11.354" y="26.134" fill-rule="evenodd" clip-rule="evenodd" fill="#8797A3" width="1.12" height="1.12"/>
<rect x="12.91" y="24.58" fill-rule="evenodd" clip-rule="evenodd" fill="#8797A3" width="1.12" height="1.12"/>
<rect x="14.497" y="24.58" fill-rule="evenodd" clip-rule="evenodd" fill="#8797A3" width="1.12" height="1.12"/>
<rect x="19.195" y="21.437" fill-rule="evenodd" clip-rule="evenodd" fill="#8797A3" width="1.12" height="1.12"/>
<rect x="9.768" y="27.722" fill-rule="evenodd" clip-rule="evenodd" fill="#8797A3" width="1.12" height="1.119"/>
<rect x="11.354" y="27.722" fill-rule="evenodd" clip-rule="evenodd" fill="#8797A3" width="1.12" height="1.119"/>
<rect x="12.91" y="26.134" fill-rule="evenodd" clip-rule="evenodd" fill="#8797A3" width="1.12" height="1.12"/>
<rect x="14.497" y="26.134" fill-rule="evenodd" clip-rule="evenodd" fill="#8797A3" width="1.12" height="1.12"/>
<rect x="16.052" y="24.58" fill-rule="evenodd" clip-rule="evenodd" fill="#8797A3" width="1.12" height="1.12"/>
<rect x="19.195" y="22.993" fill-rule="evenodd" clip-rule="evenodd" fill="#8797A3" width="1.12" height="1.12"/>
<rect x="9.768" y="29.277" fill-rule="evenodd" clip-rule="evenodd" fill="#8797A3" width="1.12" height="1.12"/>
<rect x="11.354" y="29.277" fill-rule="evenodd" clip-rule="evenodd" fill="#8797A3" width="1.12" height="1.12"/>
<rect x="11.354" y="34.006" fill-rule="evenodd" clip-rule="evenodd" fill="#8797A3" width="1.12" height="1.12"/>
<rect x="12.91" y="27.722" fill-rule="evenodd" clip-rule="evenodd" fill="#8797A3" width="1.12" height="1.119"/>
<rect x="14.497" y="27.722" fill-rule="evenodd" clip-rule="evenodd" fill="#8797A3" width="1.12" height="1.119"/>
<rect x="16.052" y="26.134" fill-rule="evenodd" clip-rule="evenodd" fill="#8797A3" width="1.12" height="1.12"/>
<rect x="17.639" y="24.58" fill-rule="evenodd" clip-rule="evenodd" fill="#8797A3" width="1.12" height="1.12"/>
<rect x="19.195" y="24.58" fill-rule="evenodd" clip-rule="evenodd" fill="#8797A3" width="1.12" height="1.12"/>
<rect x="12.91" y="29.277" fill-rule="evenodd" clip-rule="evenodd" fill="#8797A3" width="1.12" height="1.12"/>
<rect x="14.497" y="29.277" fill-rule="evenodd" clip-rule="evenodd" fill="#8797A3" width="1.12" height="1.12"/>
<rect x="16.052" y="27.722" fill-rule="evenodd" clip-rule="evenodd" fill="#8797A3" width="1.12" height="1.119"/>
<rect x="17.639" y="26.134" fill-rule="evenodd" clip-rule="evenodd" fill="#8797A3" width="1.12" height="1.12"/>
<rect x="19.195" y="26.134" fill-rule="evenodd" clip-rule="evenodd" fill="#8797A3" width="1.12" height="1.12"/>
<rect x="17.639" y="27.722" fill-rule="evenodd" clip-rule="evenodd" fill="#8797A3" width="1.12" height="1.119"/>
<rect x="19.195" y="27.722" fill-rule="evenodd" clip-rule="evenodd" fill="#8797A3" width="1.12" height="1.119"/>
<rect x="17.639" y="29.277" fill-rule="evenodd" clip-rule="evenodd" fill="#8797A3" width="1.12" height="1.12"/>
<rect x="19.195" y="29.557" fill-rule="evenodd" clip-rule="evenodd" fill="#8797A3" width="0.84" height="0.84"/>
<rect x="19.195" y="30.864" fill-rule="evenodd" clip-rule="evenodd" fill="#8797A3" width="1.12" height="1.12"/>
<rect x="18.199" y="31.984" fill-rule="evenodd" clip-rule="evenodd" fill="#8797A3" width="0.56" height="0.56"/>
<rect x="20.781" y="31.424" fill-rule="evenodd" clip-rule="evenodd" fill="#8797A3" width="0.56" height="0.56"/>
<rect x="20.781" y="32.419" fill-rule="evenodd" clip-rule="evenodd" fill="#8797A3" width="1.12" height="1.151"/>
<rect x="22.337" y="32.7" fill-rule="evenodd" clip-rule="evenodd" fill="#8797A3" width="0.84" height="0.871"/>
<rect x="22.337" y="34.006" fill-rule="evenodd" clip-rule="evenodd" fill="#8797A3" width="1.12" height="1.12"/>
<rect x="23.924" y="34.006" fill-rule="evenodd" clip-rule="evenodd" fill="#8797A3" width="0.84" height="0.84"/>
<rect x="19.195" y="32.419" fill-rule="evenodd" clip-rule="evenodd" fill="#8797A3" width="1.12" height="1.151"/>
<rect x="21.341" y="34.006" fill-rule="evenodd" clip-rule="evenodd" fill="#8797A3" width="0.56" height="0.56"/>
<rect x="22.337" y="35.562" fill-rule="evenodd" clip-rule="evenodd" fill="#8797A3" width="1.12" height="1.151"/>
<rect x="20.781" y="37.149" fill="#8797A3" width="1.12" height="1.119"/>
<rect x="19.755" y="36.153" fill-rule="evenodd" clip-rule="evenodd" fill="#8797A3" width="0.56" height="0.561"/>
<rect x="19.755" y="37.149" fill-rule="evenodd" clip-rule="evenodd" fill="#8797A3" width="0.56" height="0.56"/>
<rect x="21.062" y="35.841" fill-rule="evenodd" clip-rule="evenodd" fill="#8797A3" width="0.84" height="0.872"/>
<rect x="17.919" y="30.864" fill-rule="evenodd" clip-rule="evenodd" fill="#8797A3" width="0.84" height="0.84"/>
<rect x="16.052" y="30.864" fill-rule="evenodd" clip-rule="evenodd" fill="#8797A3" width="1.12" height="1.12"/>
<rect x="16.052" y="32.7" fill-rule="evenodd" clip-rule="evenodd" fill="#8797A3" width="0.84" height="0.871"/>
<rect x="16.052" y="34.006" fill-rule="evenodd" clip-rule="evenodd" fill="#8797A3" width="1.12" height="1.12"/>
<rect x="15.057" y="34.566" fill-rule="evenodd" clip-rule="evenodd" fill="#8797A3" width="0.56" height="0.561"/>
<rect x="15.057" y="33.446" fill-rule="evenodd" clip-rule="evenodd" fill="#8797A3" width="0.56" height="0.561"/>
<rect x="16.052" y="35.562" fill-rule="evenodd" clip-rule="evenodd" fill="#8797A3" width="0.56" height="0.591"/>
<rect x="16.333" y="29.277" fill-rule="evenodd" clip-rule="evenodd" fill="#8797A3" width="0.84" height="0.84"/>
<rect x="14.497" y="30.864" fill-rule="evenodd" clip-rule="evenodd" fill="#8797A3" width="0.56" height="0.56"/>
<rect x="13.47" y="30.864" fill-rule="evenodd" clip-rule="evenodd" fill="#8797A3" width="0.56" height="0.56"/>
<rect x="8.181" y="29.277" fill-rule="evenodd" clip-rule="evenodd" fill="#8797A3" width="1.151" height="1.12"/>
<rect x="8.772" y="27.254" fill-rule="evenodd" clip-rule="evenodd" fill="#8797A3" width="0.56" height="0.561"/>
<rect x="8.772" y="28.282" fill-rule="evenodd" clip-rule="evenodd" fill="#8797A3" width="0.56" height="0.56"/>
<rect x="6.625" y="29.277" fill-rule="evenodd" clip-rule="evenodd" fill="#8797A3" width="1.12" height="1.12"/>
<rect x="5.039" y="29.277" fill-rule="evenodd" clip-rule="evenodd" fill="#8797A3" width="1.151" height="1.12"/>
<rect x="5.039" y="28.282" fill-rule="evenodd" clip-rule="evenodd" fill="#8797A3" width="0.591" height="0.56"/>
<rect x="3.483" y="29.277" fill-rule="evenodd" clip-rule="evenodd" fill="#8797A3" width="1.12" height="1.12"/>
<rect x="3.483" y="27.722" fill-rule="evenodd" clip-rule="evenodd" fill="#8797A3" width="1.12" height="1.119"/>
<rect x="2.176" y="29.557" fill-rule="evenodd" clip-rule="evenodd" fill="#8797A3" width="0.84" height="0.84"/>
<rect x="9.768" y="30.864" fill-rule="evenodd" clip-rule="evenodd" fill="#8797A3" width="1.12" height="1.12"/>
<rect x="11.354" y="30.864" fill-rule="evenodd" clip-rule="evenodd" fill="#8797A3" width="0.56" height="0.56"/>
<rect x="11.354" y="31.984" fill-rule="evenodd" clip-rule="evenodd" fill="#8797A3" width="0.56" height="0.56"/>
<rect x="9.768" y="32.419" fill-rule="evenodd" clip-rule="evenodd" fill="#8797A3" width="0.84" height="0.84"/>
<rect x="8.181" y="30.864" fill-rule="evenodd" clip-rule="evenodd" fill="#8797A3" width="1.151" height="1.12"/>
<rect x="8.181" y="32.419" fill-rule="evenodd" clip-rule="evenodd" fill="#8797A3" width="1.151" height="1.151"/>
<rect x="8.181" y="34.006" fill-rule="evenodd" clip-rule="evenodd" fill="#8797A3" width="0.591" height="0.56"/>
<rect x="6.625" y="30.864" fill-rule="evenodd" clip-rule="evenodd" fill="#8797A3" width="1.12" height="1.12"/>
<rect x="6.625" y="32.419" fill-rule="evenodd" clip-rule="evenodd" fill="#8797A3" width="1.12" height="1.151"/>
<rect x="6.625" y="34.006" fill-rule="evenodd" clip-rule="evenodd" fill="#8797A3" width="1.12" height="1.12"/>
<rect x="5.039" y="30.864" fill-rule="evenodd" clip-rule="evenodd" fill="#8797A3" width="1.151" height="1.12"/>
<rect x="5.039" y="32.419" fill-rule="evenodd" clip-rule="evenodd" fill="#8797A3" width="1.151" height="1.151"/>
<rect x="5.039" y="34.006" fill-rule="evenodd" clip-rule="evenodd" fill="#8797A3" width="1.151" height="1.12"/>
<rect x="5.039" y="35.562" fill-rule="evenodd" clip-rule="evenodd" fill="#8797A3" width="0.56" height="0.591"/>
<rect x="3.483" y="30.864" fill-rule="evenodd" clip-rule="evenodd" fill="#8797A3" width="1.12" height="1.12"/>
<rect x="3.483" y="32.419" fill-rule="evenodd" clip-rule="evenodd" fill="#8797A3" width="1.12" height="1.151"/>
<rect x="3.483" y="34.006" fill-rule="evenodd" clip-rule="evenodd" fill="#8797A3" width="1.12" height="1.12"/>
<rect x="3.763" y="35.562" fill-rule="evenodd" clip-rule="evenodd" fill="#8797A3" width="0.84" height="0.871"/>
<rect x="2.923" y="35.562" fill-rule="evenodd" clip-rule="evenodd" fill="#8797A3" width="0.56" height="0.591"/>
<rect x="1.896" y="30.864" fill-rule="evenodd" clip-rule="evenodd" fill="#8797A3" width="1.121" height="1.12"/>
<rect x="0.621" y="31.58" fill="#8797A3" width="0.84" height="0.84"/>
<rect x="1.896" y="32.419" fill-rule="evenodd" clip-rule="evenodd" fill="#8797A3" width="1.121" height="1.151"/>
<rect x="0.621" y="32.7" fill="#8797A3" width="0.84" height="0.871"/>
<rect x="2.176" y="34.006" fill-rule="evenodd" clip-rule="evenodd" fill="#8797A3" width="0.84" height="0.84"/>
<rect x="1.056" y="34.006" fill-rule="evenodd" clip-rule="evenodd" fill="#8797A3" width="0.84" height="0.84"/>
<polygon fill-rule="evenodd" clip-rule="evenodd" fill="#8797A3" points="17.639,24.113 18.759,24.113 18.759,22.993 17.95,22.993 
	17.95,23.334 17.639,23.334 "/>
<rect x="15.274" y="20.659" fill-rule="evenodd" clip-rule="evenodd" fill="#852339" width="2.676" height="2.676"/>
<polygon fill="#852339" points="25.035,21.365 32.503,21.365 32.503,23.291 27.828,23.291 27.828,24.724 32.165,24.724 
	32.165,26.563 27.828,26.563 27.828,28.341 32.639,28.341 32.639,30.384 25.035,30.384 "/>
<path fill="#852339" d="M34.177,30.384v-9.02h4.645c0.861,0,1.52,0.074,1.975,0.222c0.456,0.147,0.822,0.421,1.102,0.821
	c0.278,0.399,0.418,0.887,0.418,1.461c0,0.5-0.106,0.933-0.32,1.295c-0.213,0.363-0.506,0.657-0.88,0.883
	c-0.238,0.144-0.564,0.263-0.979,0.357c0.332,0.11,0.574,0.221,0.726,0.332c0.103,0.074,0.251,0.232,0.445,0.475
	c0.195,0.242,0.325,0.429,0.391,0.56l1.35,2.614h-3.149l-1.489-2.757c-0.188-0.356-0.356-0.589-0.504-0.695
	c-0.201-0.139-0.43-0.209-0.684-0.209h-0.246v3.661H34.177z M36.976,25.019h1.175c0.127,0,0.374-0.041,0.738-0.123
	c0.185-0.037,0.336-0.131,0.452-0.283c0.117-0.151,0.176-0.326,0.176-0.522c0-0.291-0.093-0.515-0.276-0.671
	c-0.185-0.156-0.532-0.233-1.04-0.233h-1.225V25.019z"/>
<path fill="#852339" d="M49.717,26.693l2.442,0.738c-0.164,0.685-0.423,1.257-0.775,1.716s-0.79,0.806-1.313,1.04
	c-0.522,0.233-1.188,0.351-1.996,0.351c-0.98,0-1.781-0.143-2.402-0.428c-0.621-0.284-1.158-0.785-1.608-1.503
	c-0.452-0.717-0.677-1.635-0.677-2.754c0-1.492,0.396-2.639,1.19-3.44c0.793-0.801,1.916-1.201,3.368-1.201
	c1.136,0,2.029,0.229,2.679,0.688c0.65,0.46,1.133,1.165,1.449,2.116l-2.461,0.548c-0.086-0.274-0.177-0.476-0.271-0.603
	c-0.156-0.214-0.347-0.378-0.572-0.492c-0.226-0.115-0.479-0.173-0.757-0.173c-0.632,0-1.116,0.254-1.452,0.762
	c-0.254,0.377-0.381,0.97-0.381,1.776c0,1,0.151,1.685,0.455,2.056c0.304,0.37,0.73,0.556,1.279,0.556
	c0.533,0,0.937-0.149,1.209-0.449C49.396,27.698,49.594,27.262,49.717,26.693"/>
<rect x="53.623" y="21.365" fill="#852339" width="2.794" height="9.019"/>
<path fill="#852339" d="M57.93,27.4l2.651-0.166c0.058,0.431,0.175,0.759,0.352,0.984c0.286,0.365,0.697,0.547,1.23,0.547
	c0.397,0,0.704-0.093,0.919-0.279c0.216-0.187,0.323-0.403,0.323-0.649c0-0.233-0.103-0.442-0.308-0.627s-0.681-0.359-1.428-0.523
	c-1.222-0.274-2.094-0.64-2.614-1.095c-0.524-0.455-0.787-1.035-0.787-1.741c0-0.464,0.134-0.901,0.402-1.313
	c0.27-0.412,0.673-0.736,1.212-0.972c0.539-0.236,1.278-0.354,2.219-0.354c1.152,0,2.03,0.215,2.636,0.644
	c0.604,0.429,0.965,1.11,1.08,2.045l-2.627,0.154c-0.07-0.406-0.217-0.701-0.44-0.886s-0.532-0.277-0.926-0.277
	c-0.324,0-0.568,0.069-0.732,0.206c-0.164,0.138-0.246,0.305-0.246,0.502c0,0.144,0.067,0.272,0.203,0.388
	c0.132,0.118,0.443,0.229,0.936,0.332c1.218,0.263,2.091,0.528,2.617,0.797c0.527,0.269,0.911,0.602,1.15,0.999
	c0.24,0.398,0.36,0.844,0.36,1.336c0,0.578-0.16,1.111-0.48,1.599c-0.319,0.488-0.767,0.859-1.341,1.11
	c-0.574,0.253-1.298,0.379-2.172,0.379c-1.533,0-2.596-0.295-3.187-0.886S58.008,28.31,57.93,27.4"/>
</svg>
