<?xml version="1.0" encoding="UTF-8" standalone="no"?>
<!DOCTYPE svg PUBLIC "-//W3C//DTD SVG 1.1//EN" "http://www.w3.org/Graphics/SVG/1.1/DTD/svg11.dtd">
<svg width="100%" height="100%" viewBox="0 0 129 62" version="1.1" xmlns="http://www.w3.org/2000/svg"
     xml:space="preserve" xmlns:serif="http://www.serif.com/"
     style="fill-rule:evenodd;clip-rule:evenodd;stroke-linejoin:round;stroke-miterlimit:2;">
    <g transform="matrix(0.992308,0,0,1,0,0)">
        <rect id="ArtBoard1" x="0" y="0" width="130" height="61.2" style="fill:none;"/>
        <clipPath id="_clip1">
            <rect id="ArtBoard11" serif:id="ArtBoard1" x="0" y="0" width="130" height="61.2"/>
        </clipPath>
        <g clip-path="url(#_clip1)">
            <g id="rect38" transform="matrix(1.00775,0,0,1,0,0)">
                <rect x="63.7" y="0" width="2" height="4.6" style="fill:rgb(62,62,59);"/>
            </g>
            <g id="rect40" transform="matrix(1.00775,0,0,1,0,0)">
                <rect x="60.4" y="6.4" width="8.7" height="2.2" style="fill:rgb(62,62,59);"/>
            </g>
            <g id="rect42" transform="matrix(1.00775,0,0,1,0,0)">
                <rect x="57.4" y="15.8" width="14.7" height="4.6" style="fill:rgb(62,62,59);"/>
            </g>
            <g id="a" transform="matrix(1.00775,0,0,1,0,0)">
                <rect x="0" y="24.8" width="50.3" height="4.6" style="fill:rgb(62,62,59);"/>
            </g>
            <g id="use45" transform="matrix(1.00775,0,0,1,0,0)">
                <rect x="79.199" y="24.801" width="50.301" height="4.6" style="fill:rgb(62,62,59);fill-rule:nonzero;"/>
            </g>
            <g id="rect47" transform="matrix(1.00775,0,0,1,0,0)">
                <rect x="0" y="37.6" width="129.6" height="2.2" style="fill:rgb(62,62,59);"/>
            </g>
            <g id="rect49" transform="matrix(1.00775,0,0,1,0,0)">
                <rect x="0" y="56.6" width="129.6" height="4.6" style="fill:rgb(62,62,59);"/>
            </g>
        </g>
    </g>
</svg>
