<?xml version="1.0" encoding="UTF-8" standalone="no"?>
<svg
   version="1.1"
   x="0px"
   y="0px"
   viewBox="0 0 212.6 61.5"
   xml:space="preserve"
   width="212.60001"
   height="61.5"
   style="fill:#3e3e3b"
   id="svg51"
   sodipodi:docname="wwu.svg"
   inkscape:version="1.1.1 (3bf5ae0d25, 2021-09-20)"
   xmlns:inkscape="http://www.inkscape.org/namespaces/inkscape"
   xmlns:sodipodi="http://sodipodi.sourceforge.net/DTD/sodipodi-0.dtd"
   xmlns="http://www.w3.org/2000/svg"
   xmlns:svg="http://www.w3.org/2000/svg"><defs
   id="defs55" /><sodipodi:namedview
   id="namedview53"
   pagecolor="#ffffff"
   bordercolor="#666666"
   borderopacity="1.0"
   inkscape:pageshadow="2"
   inkscape:pageopacity="0.0"
   inkscape:pagecheckerboard="0"
   showgrid="false"
   inkscape:zoom="17.060206"
   inkscape:cx="142.58327"
   inkscape:cy="30.773367"
   inkscape:window-width="3840"
   inkscape:window-height="2066"
   inkscape:window-x="-11"
   inkscape:window-y="-11"
   inkscape:window-maximized="1"
   inkscape:current-layer="svg51" />
<path
   style="image-rendering:auto;fill-opacity:1"
   d="M 212.6,39.1 V 24.8 h -4.3 v 13.6 c 0,1.1 0,1.4 -0.1,1.9 -0.2,1.6 -1.4,2.5 -3.2,2.5 -1.4,0 -2.4,-0.5 -2.9,-1.5 -0.2,-0.5 -0.4,-1.2 -0.4,-2.5 v -14 h -4.4 v 14.8 c 0,2 0.2,2.9 0.9,4 1.2,1.9 3.6,2.8 6.8,2.8 4.6,0 6.7,-2.3 7.2,-4 0.4,-0.9 0.4,-1.3 0.4,-3.3"
   id="path1151" /><path
   style="image-rendering:auto;fill-opacity:1"
   d="m 169.8,52.5 h -1.3 v 8.7 h 1.1 l -0.1,-5.1 c 0,-1.1 -0.1,-2.4 -0.1,-2.4 0,0 0.5,1 1,2.1 l 3,5.3 h 1.2 v -8.7 h -1.1 v 4.8 c 0,1.2 0.1,2.6 0.1,2.7 0,-0.1 -0.4,-1 -0.9,-1.8 z"
   id="path1149" /><path
   style="image-rendering:auto;fill-opacity:1"
   d="m 145.9,52.5 -0.8,8.7 h 1.1 l 0.5,-6.2 c 0,-0.5 0.1,-1.5 0.1,-1.7 0,0.2 0.2,0.8 0.5,1.7 l 1.8,6.2 h 0.9 l 2,-6.5 c 0.2,-0.5 0.3,-1.3 0.4,-1.4 0,0.1 0,0.9 0.1,1.5 l 0.5,6.4 h 1.1 l -0.8,-8.7 h -1.6 l -1.7,5.8 c -0.2,0.7 -0.3,1.3 -0.3,1.4 0,-0.1 -0.1,-0.7 -0.4,-1.5 l -1.7,-5.7 z"
   id="path1147" /><path
   style="image-rendering:auto;fill-opacity:1"
   d="m 159.6,51.9 c 0.4,0 0.7,-0.3 0.7,-0.7 0,-0.4 -0.3,-0.6 -0.7,-0.6 -0.4,0 -0.7,0.3 -0.7,0.6 0,0.4 0.4,0.7 0.7,0.7"
   id="path1145" /><path
   style="image-rendering:auto;fill-opacity:1"
   d="m 163.1,51.3 c 0,-0.4 -0.3,-0.6 -0.7,-0.6 -0.4,0 -0.7,0.3 -0.7,0.6 0,0.4 0.3,0.7 0.7,0.7 0.4,0 0.7,-0.4 0.7,-0.7"
   id="path1143" /><path
   style="image-rendering:auto;fill-opacity:1"
   d="M 159.1,52.5 H 158 v 6.3 c 0,0.4 0,0.9 0.3,1.4 0.5,0.9 1.3,1.3 2.7,1.3 1.1,0 1.9,-0.2 2.4,-0.7 0.5,-0.4 0.7,-0.9 0.7,-2 V 52.6 H 163 v 6.1 c 0,0.6 0,1 -0.3,1.4 -0.3,0.4 -0.9,0.5 -1.6,0.5 -1.1,0 -1.6,-0.5 -1.8,-0.9 -0.1,-0.3 -0.2,-0.8 -0.2,-1.3 z"
   id="path1141" /><path
   style="image-rendering:auto;fill-opacity:1"
   d="m 179.1,59.8 -0.5,0.8 c 0.9,0.5 1.8,0.8 2.9,0.8 0.8,0 1.5,-0.2 2.1,-0.5 0.8,-0.5 1.3,-1.3 1.3,-2.1 0,-0.5 -0.2,-1.1 -0.6,-1.5 -0.4,-0.4 -0.8,-0.6 -1.6,-0.9 l -1.1,-0.3 c -1.1,-0.3 -1.5,-0.7 -1.5,-1.4 0,-0.9 0.7,-1.4 1.8,-1.4 0.8,0 1.4,0.2 2.2,0.7 l 0.5,-0.8 c -0.9,-0.6 -1.8,-0.8 -2.8,-0.8 -1.8,0 -3,1 -3,2.5 0,0.6 0.2,1 0.6,1.4 0.4,0.4 0.8,0.5 1.6,0.8 l 0.9,0.3 c 1.1,0.3 1.6,0.9 1.6,1.6 0,0.5 -0.2,0.9 -0.7,1.2 -0.4,0.3 -0.8,0.4 -1.5,0.4 -0.7,-0.1 -1.4,-0.3 -2.2,-0.8"
   id="path1139" /><path
   style="image-rendering:auto;fill-opacity:1"
   d="m 194.3,52.5 h -6.1 v 0.9 h 2.5 v 7.9 h 1.1 v -7.9 h 2.5 z"
   id="path1137" /><path
   style="image-rendering:auto;fill-opacity:1"
   d="m 202.8,52.5 h -5 v 8.7 h 5.2 v -0.9 h -4 v -3.2 h 3.2 v -0.9 h -3.3 v -2.9 h 3.8 z"
   id="path1135" /><path
   id="path1133"
   style="image-rendering:auto;fill-opacity:1"
   d="M 206.80078 52.5 L 206.80078 61.199219 L 207.90039 61.199219 L 207.90039 57.300781 C 208.40039 57.300781 208.60039 57.400391 208.90039 57.900391 C 210.10039 59.400391 210.99922 60.700781 211.19922 61.300781 L 212.59961 61.300781 C 212.59961 61.300781 210.9 58.800781 210.5 58.300781 C 210.3 58.100781 209.99961 57.700781 209.59961 57.300781 L 209.69922 57.300781 C 211.19922 57.300781 212.09961 56.300391 212.09961 54.900391 C 212.09961 54.000391 211.59922 53.399609 211.19922 53.099609 C 210.69922 52.699609 210.10039 52.5 208.90039 52.5 L 206.80078 52.5 z M 207.80078 53.300781 L 208.90039 53.300781 C 209.40039 53.300781 209.79961 53.4 210.09961 53.5 C 210.59961 53.7 211 54.300781 211 54.800781 C 211 55.400781 210.8 55.799609 210.5 56.099609 C 210.2 56.399609 209.70078 56.5 208.80078 56.5 L 207.80078 56.5 L 207.80078 53.300781 z " /><path
   d="m162.3,46.2 5.1,-21.5-4.5,0-1.7,8.1c-0.5,2.1-1.1,6.4-1.2,7.1 0,0-0.5,-3.6-0.9,-5.6l-2,-9.5-4.7,0-1.9,8.6c-0.6,2.9-1,6-1.1,6.8 0,0-0.3,-3-1.1,-7l-1.8,-8.4-4.5,0 5.1,21.5 4.9,0 1.8,-8.7c0.6,-2.8 0.9,-5.5 1,-6 0.1,0.8 0.4,3.4 1,6.1l1.9,8.7 4.6,0z"
   id="w" /><path
   d="m 189.5,46.2 5.1,-21.5 h -4.5 l -1.7,8.1 c -0.5,2.1 -1.1,6.4 -1.2,7.1 0,0 -0.5,-3.6 -0.9,-5.6 l -2,-9.5 h -4.7 l -1.9,8.6 c -0.6,2.9 -1,6 -1.1,6.8 0,0 -0.3,-3 -1.1,-7 l -1.8,-8.4 h -4.5 l 5.1,21.5 h 4.9 l 1.8,-8.7 c 0.6,-2.8 0.9,-5.5 1,-6 0.1,0.8 0.4,3.4 1,6.1 l 1.9,8.7 h 4.6 z"
   id="w-4"
   style="fill:#3e3e3b" /><path
   d="m 189.5,46.2 5.1,-21.5 h -4.5 l -1.7,8.1 c -0.5,2.1 -1.1,6.4 -1.2,7.1 0,0 -0.5,-3.6 -0.9,-5.6 l -2,-9.5 h -4.7 l -1.9,8.6 c -0.6,2.9 -1,6 -1.1,6.8 0,0 -0.3,-3 -1.1,-7 l -1.8,-8.4 h -4.5 l 5.1,21.5 h 4.9 l 1.8,-8.7 c 0.6,-2.8 0.9,-5.5 1,-6 0.1,0.8 0.4,3.4 1,6.1 l 1.9,8.7 h 4.6 z"
   id="use36" /><rect
   x="63.7"
   y="0"
   width="2"
   height="4.6"
   id="rect38" /><rect
   x="60.4"
   y="6.4"
   width="8.7"
   height="2.2"
   id="rect40" /><rect
   x="57.4"
   y="15.8"
   width="14.7"
   height="4.6"
   id="rect42" /><rect
   x="0"
   y="24.8"
   width="50.3"
   height="4.6"
   id="a" /><path
   id="use45"
   d="M 79.199219 24.800781 L 79.199219 29.400391 L 129.5 29.400391 L 129.5 24.800781 L 79.199219 24.800781 z " /><rect
   x="0"
   y="37.6"
   width="129.6"
   height="2.2"
   id="rect47" /><rect
   x="0"
   y="56.6"
   width="129.6"
   height="4.6"
   id="rect49" /></svg>
