<svg xmlns="http://www.w3.org/2000/svg" xml:space="preserve" style="fill-rule: evenodd; clip-rule: evenodd; stroke-linecap: round; stroke-linejoin: round; stroke-miterlimit: 3; opacity: 1;" viewBox="0 0 1030 1115"><path d="m365.11 177.291-84.439 90.49-169.061 142.98-87.76 21.66 14.93 151.741 8.3 257.52L0 1088.82l451.77 25.22 195.09-14.79 19.46-37.19 43.4-82.669 105.27-202.559-108.11-114.92 79.42-79.41-8.261-6.991-412.929-398.22Z" style="fill:#f2f2f2;fill-rule:nonzero;stroke:#bfbfbf;stroke-width:.75px" transform="translate(83.89 -18.75)"></path><path d="m0 992.381 130.04 121.659 44.34-47.38L44.35 945.001 0 992.381Z" style="fill:#a5a5a5;fill-rule:nonzero;stroke:#15171b;stroke-width:.75px" transform="translate(320.222 -634.394)"></path><path d="m0 926.721 198.22 187.319 52.63-61.1-38.01-34.87 68.14-68.889 37.15 35.639 29.28-29.318-191.801-186-66.8 66.8-14.95 13.33L0 926.721Z" style="fill:rgb(133,183,104);fill-rule:nonzero" transform="translate(171.569 -382.514)"></path><path d="m0 1114.04 33.06-184.729-9.17-284.649 4.24 22.62 9.09 20.75 42.15 38.939-36.31 41.031v4.219l27.89 28.352 65.25 59.859-61.28 68.26 48.19 48.76 77.1 64.338 1.32 13.82-128.03-1.34-37.7 5.67-20.41 28.34-12.6 25.24-2.79.52Z" style="fill:rgb(133,183,104);fill-rule:nonzero" transform="translate(97.903 -106.379)"></path><path d="m0 1090.94 1.42 14.17 150.79 8.93-45.8-48.98-18.39 3.2-14.391-1.61-10.399-7.98-12.9-21.84L0 1090.94Z" style="fill:rgb(133,183,104);fill-rule:nonzero" transform="translate(304.632 -155.806)"></path><path d="M344.81 937.521 175.75 1080.5l-135.91 33.54H0v-17.67l46.81.25 124.97-31.43 163.84-138.899 83.71-88.83 9.91 9.57-84.43 90.49Z" style="fill:#fafafa;fill-rule:nonzero;stroke:#595959;stroke-width:.75px" transform="translate(19.75 -688.486)"></path><text style="font-family:&amp;quot;font-size:12px" transform="rotate(-41.001 575.59 -181.615)">Johann-Krane-Weg</text><path d="m47.51 1034.07 34.241 30.34 10.74-12.13 13.05 11.54-44.52 50.22-12.57-11.16 11.86-13.4-34.509-30.56-11.581 13.06L0 1059.37l42.769-48.26 14.03 12.44-9.289 10.52Z" style="fill:#a5a5a5;fill-rule:nonzero;stroke:#15171b;stroke-width:.75px" transform="rotate(2.9 11348.18 10040.045)"></path><path d="m0 1018.1 30.84 28.64 24.4-24.65 94.62 91.95 34.279-6.5-22.02-23.11 10.45-11.2-73.54-68.97-10.86 11.29-15.27-14.66 17.77-20.088-30.1-28.64L0 1018.1Z" style="fill:#fafafa;fill-rule:nonzero;stroke:#15171b;stroke-width:.75px" transform="translate(532.999 -429.585)"></path><path d="m0 1049.76.551-10.03L176.03 846.941l13.01-3.379 13.82 4.49 15.64 12.84 14.54 20.68 2.23 16.76-114 215.708L0 1049.76Z" style="fill:rgb(133,183,104);fill-rule:nonzero" transform="translate(542.561 -132.14)"></path><path d="m0 1077.91 37.52-38.95 37.53 36.1-37.53 38.98L0 1077.91Z" style="fill:#a5a5a5;fill-rule:nonzero;stroke:#15171b;stroke-width:.75px" transform="translate(254.353 -210.089)"></path><path d="m0 1100.25 24.72-26.48 19.37 17.89-11.78 12.83-4.6-4.32-12.94 13.87L0 1100.25Z" style="fill:#d8d8d8;fill-rule:nonzero;stroke:#bfbfbf;stroke-width:.75px" transform="translate(832.87 -486.417)"></path><path d="m0 1090.28 11.771-12.83 25.899 24.17-11.77 12.42L0 1090.28Z" style="fill:#d8d8d8;fill-rule:nonzero;stroke:#bfbfbf;stroke-width:.75px" transform="translate(865.182 -472.21)"></path><path d="m42.39 1100.17-12.78 13.87L0 1086.73l12.021-13.04 6.3 5.81 23.58-25.58-11.44-10.55 15.021-16.25 33.25 30.65-17.32 18.78-7.31-6.75-20.53 22.24 8.818 8.13Z" style="fill:#a5a5a5;fill-rule:nonzero;stroke:#15171b;stroke-width:.75px" transform="translate(762.299 -491.71)"></path><path d="M20.79 1025.11 0 1068.4l95.021 45.64 20.8-43.29-95.031-45.64Z" style="fill:#a5a5a5;fill-rule:nonzero;stroke:#15171b;stroke-width:.75px" transform="translate(523.186 -62.01)"></path><path d="M12.93 1063.73 0 1090.56l47.91 23.48 12.83-27.85-47.81-22.46Z" style="fill:#a5a5a5;fill-rule:nonzero;stroke:#15171b;stroke-width:.75px" transform="translate(510.26 -57.335)"></path><path d="m58.25 1087.3-.189 26.74L0 1113.65l.19-26.77 58.06.42Z" style="fill:#a5a5a5;fill-rule:nonzero;stroke:#15171b;stroke-width:.75px" transform="translate(363.467 -114.183)"></path><path d="m82.95 1079.94-.729 34.1L0 1112.3l.73-34.13 82.22 1.77Z" style="fill:#a5a5a5;fill-rule:nonzero;stroke:#15171b;stroke-width:.75px" transform="translate(228.471 -98.741)"></path><path d="m229.93 1114.04 19.199-20.28L20.05 876.931 0 898.101l97.74 92.568-67.18 71.731 34.43 32.6 68.43-72.32 96.51 91.36Z" style="fill:#a5a5a5;fill-rule:nonzero;stroke:#15171b;stroke-width:.75px" transform="translate(154.803 -237.112)"></path><path d="M175.68 898.361 2.12 1080.22 0 1114.04l209.96-222.179-34.28 6.5Z" style="fill:#a5a5a5;fill-rule:nonzero;stroke:#15171b;stroke-width:.75px" transform="translate(507.182 -213.905)"></path><path d="m184.51 1080.22-164.569-159L0 941.57l182.39 172.47 2.12-33.82Z" style="fill:#a5a5a5;fill-rule:nonzero;stroke:#15171b;stroke-width:.75px" transform="translate(324.792 -213.905)"></path><path d="m180.9 1114.04-53.72-51.33-11.13 11.62-5.71-5.48 11.16-11.6-61.88-59.08-10.47 10.75-4.27-4.14 10.49-10.739L0 941.161l39.06 3.26 158.88 151.809-17.04 17.81Z" style="fill:#a5a5a5;fill-rule:nonzero;stroke:#15171b;stroke-width:.75px" transform="translate(132.506 -400.218)"></path><path d="m0 1093.23 21.63 20.81 24.72-25.16L25 1067.21l-25 26.02Z" style="fill:#a5a5a5;fill-rule:nonzero;stroke:#15171b;stroke-width:.75px" transform="translate(199.077 -621.765)"></path><path d="M2.23 1083.88 0 1106.43l76.86 7.61 2.24-22.53-76.87-7.63Z" style="fill:#a5a5a5;fill-rule:nonzero;stroke:#15171b;stroke-width:.75px" transform="translate(402.463 -30.554)"></path><path d="M.72 1083.67 0 1112.39l66.1 1.65.21-8.14 23.99.61.52-20.57-90.1-2.27Z" style="fill:#a5a5a5;fill-rule:nonzero;stroke:#15171b;stroke-width:.75px" transform="translate(98.08 -45.433)"></path><path d="m20.41 1019.28 104.37 94.76 98.811-108.82-107.551-97.678L98.8 926.52l6.819 6.17-6.3 6.951-52-47.221L0 944.561l48.37 43.91-27.96 30.809Z" style="fill:#a5a5a5;fill-rule:nonzero;stroke:#15171b;stroke-width:.75px" transform="translate(404.389 -304.39)"></path><path d="m0 1091.06 22.6 22.98 66.81-66.8-23.069-22.05L0 1091.06Z" style="fill:#a5a5a5;fill-rule:nonzero;stroke:#15171b;stroke-width:.75px" transform="translate(237.776 -660.252)"></path><path d="m0 1111.17 34.37-36.74 2.771 1.95-34.021 37.66-3.12-2.87Z" style="fill:#fafafa;fill-rule:nonzero;stroke:#bfbfbf;stroke-width:.75px" transform="translate(307.227 -379.725)"></path><path d="m63.27 1045.85-60.44 68.19L0 1111.2l60.78-67.71 2.49 2.36Z" style="fill:#fafafa;fill-rule:nonzero;stroke:#15171b;stroke-width:.75px" transform="translate(448.348 -614.026)"></path><path d="m20.17 1047.25 1.8 1.31 45.35 45.35-17.54 20.13L0 1065.8l20.17-18.55Z" style="fill:#d8d8d8;fill-rule:nonzero;stroke:#bfbfbf;stroke-width:.75px" transform="translate(801.938 -424.104)"></path><path d="m0 1093.06 24.02 20.98 26.84-30.76-24.01-20.98L0 1093.06Z" style="fill:#d8d8d8;fill-rule:nonzero;stroke:#bfbfbf;stroke-width:.75px" transform="translate(858.983 -395.909)"></path><path d="m87.92 983.261.949.93 19.841 19.839v.01l-21.36 23.76 20.3 18.24 9.48-10.57 22.859 20.54-5.659 6.3 15.989 14.36 5.101-5.67 20.18 18.12-7.811 8.69 18.08 16.23 36.681-40.79-20.811-18.71-5.729 6.39-56.93-51.16 6.59-7.33-19.66-17.67-13.721 15.27-18.659-18.559-2-2.24 13.439-14.55-23.81-21.98-3.16 3.44-26.48-24.45 3.631-3.9-19.641-18.09L0 938.301l14.739 14.13 10.891-11.42 12 10.87-10.5 10.5 17.85 17.42 9.4-10.2 13.21 12.18-10.65 11.56 11.72 10.779 19.26-20.859Z" style="fill:#a5a5a5;fill-rule:nonzero" transform="translate(579.565 -567.806)"></path><path d="m87.92 983.261.949.93 19.841 19.839v.01l-21.36 23.76 20.3 18.24 9.48-10.57 22.859 20.54-5.659 6.3 15.989 14.36 5.101-5.67 20.18 18.12-7.811 8.69 18.08 16.23 36.681-40.79-20.811-18.71-5.729 6.39-56.93-51.16 6.59-7.33-19.66-17.67-13.721 15.27-18.659-18.559-2-2.24 13.439-14.55-23.81-21.98-3.16 3.44-26.48-24.45 3.631-3.9-19.641-18.09L0 938.301l14.739 14.13 10.891-11.42 12 10.87-10.5 10.5 17.85 17.42 9.4-10.2 13.21 12.18-10.65 11.56 11.72 10.779 19.26-20.859" style="fill:none;fill-rule:nonzero;stroke:#15171b;stroke-width:.75px" transform="translate(579.565 -567.806)"></path><path d="m352.39 875.9 75.13 69.4-29.82 33.24-172.35-10.199-1.41-14.18 56.69-60.941 22.68 11.34h23.24l22-24.76 3.84-3.9Zm-209.44 7.33-43.74-41.879 62.79-70.31-69.22-62.439-4.62 4.619 65.25 59.861-61.28 68.27 48.18 48.75 75.12 62.359 1.99 1.99 1.32 13.82-128.03-1.35-37.7 5.67-20.41 28.349-21.88 45.45L0 1107.23l6.52 1.42 9.7-58.33 98.58 6.46h31.75v-6.8H114.8l-96.64-5.71 19.26-39.93 18.99-26.36 34.02-5.109 133.51 1.99 175.75 10.49 33.82-37.07 34.21 10.141 201.79 103.928 1.109-2.02-24.6 46.9 13.04 6.81 65.19-128.689-11.341-5.67-40.17 76.599-76.05-38.62 109.99-224.498 1.979-16.16-9.35-26.932-17.58-19.84-23.96-40.959 9.79-18 9.92-28.92-1.42-15.59-7.08-15.021-3.61-4.379 41.521-43.86-2.93-2.931-17.95 19.021-114.288-104.79 51.82-51.08L909.92 699.9l20.649-20.648-606-585.401-24.1 18.31 318.85 307.49-51.87 51.23L369.6 286.631l33.31-34.91-4.64-4.8-54.14 56.56-18.15-16.87-25.83-36-4.41 4.72 24.29 35.53 18.971 17.6-23.971 23.25-10.31-10.24-26.92-3.68-23.25 9.35-82.9 85.53-24.13-29.29-6.49 5.49 24.69 29.91-28.76 29.67-36.9 3.409-54.99 53.301-.57 37.979-3.4 14.17 4.24 22.621 9.09 20.75L346.68 870.63l.03.02-.03-.02-2.42 2.951-19.69 23.889h-21.26l-21.26-11.34-75.4-70.859-59.86 64.129-3.84 3.83Zm296.3 58.76 188.62-215.729 25.58-30.561 22.61 38.779 17.58 19.271 8.79 23.25-2.271 14.17-109.739 223.26-119.87-61.68-31.52-10.51.22-.25Zm203.92-351.328 20.14 24.199 6.23 12.75 1.699 13.891-9.35 26.359-2.26 4.289L519.02 526.74l26.79-26.409 97.36 90.331Zm19.6 13.549-15.05-18.27-97.101-90.34 17.761-17.51 114.8 104.491-20.41 21.629Zm-147.87-81.41-194.8-186.52 23.88-23.2 197.62 183.34-26.7 26.38Zm-165.8-214.69 17.88-18.74 197.12 184.83-17.7 17.479-197.3-183.569ZM48.47 539.74v-32.029l54.12-52.181 30.58-3.17-84.7 87.38Zm383.86 400.191L59.81 597.002l-8.62-19.861-3.74-20.62 4.85-11.85 205.649-211.86 21.261-9.07 22.109 3.97 13.851 13.37 195.75 185.65-54.91 54.24-48.86 49.541 3.79 4.029 49.32-49.891 54.8-54 142.39 145.63-5.38 10.189-219.74 253.462Zm-281.56-55.429 56.16-60.73 68.6 66.049-55.84 58.67-71.87-60.799 2.95-3.19Z" style="fill:#fafafa;fill-rule:nonzero;stroke:#15171b;stroke-width:.75px" transform="translate(80.695 -19.034)"></path><path d="M0 1085.69h175.748v28.347H0z" style="fill:none" transform="rotate(44 1280.227 1514.805)"></path><text style="font-family:&amp;quot;font-size:14px" transform="rotate(44 -104.55 1008.453)">Steinfurter Straße</text><g id="campus-leo18-tag" transform="matrix(1,0,0,1,-595,219.743)"><g id="shape1579-492" transform="matrix(1,0,0,1,632.979,-617.523)"><g id="rect1203" transform="matrix(1.14089,0,0,0.382408,-6,661.762)"><rect x="0" y="1029" width="170.079" height="85.04" style="fill:#25519d;stroke:rgb(21,23,27);stroke-width:0.75px;stroke-miterlimit:1"></rect></g><g id="text1205" transform="matrix(1,0,0,1,6.73383,1076.31)"><g transform="matrix(18,0,0,18,167.792,0)"></g><text x="0px" y="0px" style="font-family:'TrebuchetMS', 'Trebuchet MS', sans-serif;font-size:18px;fill:rgb(250,250,250)">Leonardo-Campus 18</text></g></g><g id="shape1580-505" transform="matrix(0.411355,0.455167,-0.741911,0.670498,1352.48,-267.069)"><path id="path1230" d="M154.53,946.266L61.268,840.641" style="fill:none;fill-rule:nonzero;stroke:rgb(21,23,27);stroke-width:0.75px"></path></g></g><g id="campus-leo18" transform="matrix(1,0,0,1,131.506,-569.831)" class=""><path id="path952" d="M0,1110.77L66.57,1041.3L88.2,1062.1L39.06,1114.04L0,1110.77Z" style="fill:#25519d;fill-rule:nonzero;stroke:rgb(21,23,27);stroke-width:0.75px"></path></g><g id="campus-leo11-tag" transform="matrix(1,0,0,1,153.037,410)"><g id="shape1579-4921" transform="matrix(1,0,0,1,674.942,-471.52)"><g id="rect12031" transform="matrix(1.14089,0,0,0.382408,-6,661.762)"><rect x="0" y="1029" width="170.079" height="85.04" style="fill:#25519d;stroke:rgb(21,23,27);stroke-width:0.75px;stroke-miterlimit:1"></rect></g><g id="text12051" transform="matrix(1,0,0,1,6.73383,1076.31)"><g transform="matrix(18,0,0,18,167.792,0)"></g><text x="0px" y="0px" style="font-family:'TrebuchetMS', 'Trebuchet MS', sans-serif;font-size:18px;fill:rgb(250,250,250)">Leonardo-Campus 11</text></g></g><g transform="matrix(0.352658,0.479045,-0.478602,0.563384,1076.12,-154.648)"><g id="shape1580-5051"><path id="path12301" d="M417.461,955.664L168.116,1081.17" style="fill:none;fill-rule:nonzero;stroke:#15171b;stroke-width:0.75px"></path></g></g></g><g id="campus-leo11" transform="matrix(1,0,0,1,695.639,-102.612)" class=""><path id="path1042" d="M0,1093.56L14.601,1065.15L31.361,1032.55L68.341,960.621L108.181,981.092L39.83,1114.04L0,1093.56Z" style="fill:#25519d;fill-rule:nonzero;stroke:rgb(21,23,27);stroke-width:0.75px"></path></g><g transform="matrix(1,0,0,1,145.958,330.26)"><g id="shape1579-4922" transform="matrix(1,0,0,1,662.021,-989.628)"><g id="rect12032" transform="matrix(1.14089,0,0,0.382408,-6,661.762)"><rect x="0" y="1029" width="170.079" height="85.04" style="fill:#25519d;stroke:rgb(21,23,27);stroke-width:0.75px;stroke-miterlimit:1"></rect></g><g id="text12052" transform="matrix(1,0,0,1,6.73383,1076.31)"><g transform="matrix(18,0,0,18,167.792,0)"></g><text x="0px" y="0px" style="font-family:'TrebuchetMS', 'Trebuchet MS', sans-serif;font-size:18px;fill:rgb(250,250,250)">Leonardo-Campus 10</text></g></g><g id="shape1580-5052" transform="matrix(0.525944,0.58196,-0.948581,0.857275,1411.69,-822.221)"><path id="path12302" d="M300.59,869.548L171.363,1087.74" style="fill:none;fill-rule:nonzero;stroke:rgb(21,23,27);stroke-width:0.75px"></path></g></g><g id="campus-leo10" transform="matrix(1,0,0,1,531.999,-496.886)" class=""><path id="path1133" d="M68.62,1102.4L55.24,1089.39L30.84,1114.04L0,1085.4L60.57,1019.46L90.67,1048.1L72.9,1068.19L88.17,1082.85L68.62,1102.4Z" style="fill:#25519d;fill-rule:nonzero;stroke:rgb(21,23,27);stroke-width:0.75px"></path></g><g id="campus-leo3-tag"><g id="shape1579-4923" transform="matrix(1,0,0,1,600,-965.52)"><g id="rect12033" transform="matrix(1.07056,0,0,0.382408,-6,661.762)"><rect x="0" y="1029" width="170.079" height="85.04" style="fill:#25519d;stroke:rgb(21,23,27);stroke-width:0.75px;stroke-miterlimit:1"></rect></g><g id="text12053" transform="matrix(1,0,0,1,6.85639,1076.31)"><text x="0px" y="0px" style="font-family:'TrebuchetMS', 'Trebuchet MS', sans-serif;font-size:18px;fill:rgb(250,250,250)">Leonardo-Campus 1</text></g></g><g id="shape1580-5053" transform="matrix(0.411355,0.455167,-0.741911,0.670498,1206.52,-597.329)"><path id="path12303" d="M300.59,869.548L171.363,1087.74" style="fill:none;fill-rule:nonzero;stroke:rgb(21,23,27);stroke-width:0.75px"></path></g></g><g id="campus-leo3" transform="matrix(1,0,0,1,459.19,-755.487)" class=""><path id="path897" d="M50.69,1044.84L37.59,1032.94L24.569,1047.24L0,1024.88L41.859,978.881L68.149,1002.81L64.819,1006.49L110.63,1048.19L114.659,1043.76L140.8,1067.53L98.48,1114.04L77.72,1095.16L89.47,1082.23L73.01,1067.29L61.27,1080.18L37.87,1058.91L50.69,1044.84Z" style="fill:#25519d;fill-rule:nonzero;stroke:rgb(21,23,27);stroke-width:0.75px"></path></g><g id="campus-leo1-tag" transform="matrix(1,0,0,1,93.921,78.0027)"><g id="shape1579-4924" transform="matrix(1,0,0,1,600,-965.52)"><g id="rect12034" transform="matrix(1.07056,0,0,0.382408,-6,661.762)"><rect x="0" y="1029" width="170.079" height="85.04" style="fill:#25519d;stroke:rgb(21,23,27);stroke-width:0.75px;stroke-miterlimit:1"></rect></g><g id="text12054" transform="matrix(1,0,0,1,6.85639,1076.31)"><g transform="matrix(18,0,0,18,158.353,0)"></g><text x="0px" y="0px" style="font-family:'TrebuchetMS', 'Trebuchet MS', sans-serif;font-size:18px;fill:rgb(250,250,250)">Leonardo-Campus 3</text></g></g><g id="shape1580-5054" transform="matrix(0.411355,0.455167,-0.741911,0.670498,1206.52,-597.329)"><path id="path12304" d="M300.59,869.548L171.363,1087.74" style="fill:none;fill-rule:nonzero;stroke:rgb(21,23,27);stroke-width:0.75px"></path></g></g><g id="campus-leo1" transform="matrix(1,0,0,1,425.901,-863.515)" class=""><path id="path1123" d="M0,1092.42L36.05,1052.28L60.119,1073.86L39.96,1096.71L24.06,1114.04L0,1092.42Z" style="fill:#25519d;fill-rule:nonzero;stroke:rgb(21,23,27);stroke-width:0.75px"></path></g></svg>
